<?xml version="1.0" encoding="UTF-8"?>
<svg id="Layer_2" data-name="Layer 2" xmlns="http://www.w3.org/2000/svg" viewBox="0 0 480.59 598.81">
  <defs>
    <style>
      .cls-1 {
        fill: #769e45;
      }

      .cls-1, .cls-2, .cls-3, .cls-4, .cls-5, .cls-6, .cls-7, .cls-8, .cls-9, .cls-10, .cls-11, .cls-12, .cls-13, .cls-14, .cls-15, .cls-16, .cls-17, .cls-18, .cls-19, .cls-20, .cls-21, .cls-22 {
        fill-rule: evenodd;
      }

      .cls-2 {
        fill: #6ea834;
      }

      .cls-3 {
        fill: #739c36;
      }

      .cls-4 {
        fill: #bba6ed;
      }

      .cls-5 {
        fill: #628722;
      }

      .cls-6 {
        fill: #8672b7;
      }

      .cls-7 {
        fill: #4d691d;
      }

      .cls-8 {
        fill: #ab92d9;
      }

      .cls-9 {
        fill: #7c61ad;
      }

      .cls-10 {
        fill: #4c6b17;
      }

      .cls-11 {
        fill: #b19ee3;
      }

      .cls-12 {
        fill: #5e821f;
      }

      .cls-13 {
        fill: #9ac468;
      }

      .cls-14 {
        fill: #648534;
      }

      .cls-15 {
        fill: #7e5d96;
      }

      .cls-16 {
        fill: #79a635;
      }

      .cls-17 {
        fill: #603e82;
      }

      .cls-18 {
        fill: #4c700e;
      }

      .cls-19 {
        fill: #6c9624;
      }

      .cls-20 {
        fill: #6c519e;
      }

      .cls-21 {
        fill: #967bc7;
      }

      .cls-22 {
        fill: #527516;
      }
    </style>
  </defs>
  <g id="_Layer_" data-name="&amp;lt;Layer&amp;gt;">
    <g>
      <path class="cls-10" d="M235.9,213.9c64.61,16.5,133.62,3.02,168.26-46.19,15.4-21.44,2.47-58.84-9.62-80.28,3.85,30.24-4.95,47.84-25.29,66.26-34.64,31.34-95.95,52.24-139.39,46.74,1.92,4.4,3.85,8.8,6.05,13.47h0Z"/>
      <path class="cls-22" d="M297.76,220.5c37.94-1.92,72.86-15.4,96.78-41.24-2.2-13.47-9.9-25.29-18.97-31.62-1.92,1.92-4.12,3.85-6.32,6.05-14.3,13.2-33.54,24.19-53.89,32.72-6.87,10.72-12.92,22.27-17.6,34.09h0Z"/>
      <path class="cls-18" d="M255.14,208.68c-31.34-80.56-73.96-147.92-126.47-150.12-11-.27-17.6,.55-29.69,7.7-12.65,7.15-24.19,19.8-30.79,38.77,21.17-22.82,47.84-26.67,74.78-10.17,29.14,18.97,58.84,63.24,93.48,123.72,6.6-9.07,11.82-1.1,18.7-9.9h0Z"/>
      <path class="cls-10" d="M255.14,208.68c-15.95-40.97-34.92-78.63-56.91-106.4-13.2,3.02-23.92,7.42-31.07,14.3,21.72,22.82,44.27,58.01,69.28,102,6.6-9.07,11.82-1.1,18.7-9.9h0Z"/>
      <path class="cls-12" d="M216.1,228.75c-23.37-3.85-37.39-9.07-58.01-17.6-28.04-11-55.81-21.72-73.96-34.37-16.77-11.55-24.74-24.74-28.04-39.32-1.1-3.85-1.37-8.52-.55-13.2,1.1-9.07,5.22-18.42,13.2-28.87,6.32-8.8,12.92-18.15,27.49-27.49-20.9,23.37-21.44,45.09,.82,67.08,24.47,23.92,76.71,47.56,146.82,69.56-9.62,9.07-30.24,28.87-27.77,24.19h0Z"/>
      <path class="cls-3" d="M57.19,116.57c1.92-6.87,5.77-13.75,11.55-21.17-3.02,11.55-2.47,24.47,5.22,36.02,11.82,17.6,37.94,35.74,69.01,48.94,27.22,11.82,59.11,24.47,91.83,33.54-3.02,3.02-4.4,3.85-7.97,6.87-30.79-8.52-62.69-17.87-88.8-29.14-33.82-14.85-59.66-32.17-73.68-53.34-5.22-7.7-7.15-14.85-7.15-21.72h0Z"/>
      <path class="cls-22" d="M179.53,82.21c-15.67-14.57-32.99-22.82-50.86-23.64h-6.6c-3.85,8.25-7.42,17.32-10.45,26.12,9.9,.28,20.89,3.57,31.34,10.17,1.92,1.37,4.12,3.02,6.32,4.67,4.4-1.92,8.52-4.12,12.37-6.6,3.85-2.2,11.27-6.6,17.87-10.72h0Z"/>
      <path class="cls-19" d="M217.75,210.33c2.47-16.22,23.92-62.41,58.01-101.73,19.79-23.37,39.87-38.77,58.01-45.09,24.74-9.35,51.69,2.75,65.16,30.24,4.12,8.52,8.52,19.52,9.35,29.97-15.12-13.47-26.67-25.02-46.46-20.62-17.87,3.85-40.97,23.37-54.71,34.64-24.74,20.34-41.51,50.31-52.51,75.06-7.7-.55-29.14-2.2-36.84-2.47h0Z"/>
      <path class="cls-2" d="M385.19,75.06c5.5,4.95,10.17,11.27,13.75,18.7,.55,1.1,.83,1.92,1.38,3.02-17.32-16.22-41.24-16.22-64.34-3.02-29.14,16.77-57.46,49.76-66.81,64.33-12.1,17.05-22.54,39.59-27.22,54.71-5.5-.55-9.62-1.65-14.85-1.92,5.22-17.32,15.95-39.32,29.42-59.94,21.72-31.89,80.83-95.4,128.67-75.88h0Z"/>
      <path class="cls-5" d="M203.45,1.1c12.92-.28,39.59-.55,52.24-1.1,9.07,23.64,6.32,50.59,5.5,78.08-.55,45.09-9.35,92.65-13.75,132.52-12.92,.55-15.12,.28-27.77,.55,.28-18.97,2.47-43.71,1.92-67.36-1.37-50.04-7.97-102.55-18.15-142.69h0Z"/>
      <path class="cls-16" d="M218.57,.82c6.05,0,14.3-.27,20.62-.27,8.52,26.39,7.15,56.36,7.7,83.58,.55,37.12-5.5,97.6-7.42,125.65-6.87,.28-2.75-.82-9.62-.82,1.92-25.84,4.12-68.73,3.02-114.92-.83-25.29-4.12-78.36-14.3-93.2h0Z"/>
      <polygon class="cls-8" points="234.8 262.84 470.42 297.76 451.99 547.12 237.54 598.81 234.8 262.84"/>
      <polygon class="cls-9" points="234.8 262.84 11 291.43 24.74 547.12 29.97 548.5 237.54 598.81 234.8 262.84"/>
      <polygon class="cls-15" points="234.8 262.84 470.42 297.76 469.59 309.03 235.07 287.86 234.8 262.84"/>
      <polygon class="cls-17" points="234.8 262.84 11 291.43 11.82 305.45 235.07 287.86 234.8 262.84"/>
      <polygon class="cls-21" points="233.7 198.5 480.59 234.8 475.09 304.08 234.8 282.91 234.52 282.91 233.7 198.5"/>
      <polygon class="cls-20" points="233.7 198.5 0 228.47 5.5 301.88 8.52 301.6 234.52 282.91 233.7 198.5"/>
      <path class="cls-6" d="M204.83,434.12l20.9,23.64-19.25,24.19-20.89-23.92,19.25-23.92Zm-1.1-127.57l20.89,23.92-18.97,24.19-21.17-23.92,19.25-24.19Zm-53.06,78.08l18.7,21.45-17.32,21.72-18.42-21.44,17.05-21.72Zm-18.97,73.41l18.7,21.17-17.05,21.72-19.25-21.44,17.6-21.44Zm-40.14,42.07l18.42,20.9-16.77,21.17-18.15-20.89,16.5-21.17Zm-47.84-184.48l18.15,20.89-16.5,21.17-18.42-20.9,16.77-21.17Zm25.57,66.81l18.42,20.9-16.77,21.17-18.42-20.89,16.77-21.17Zm-18.42,70.93l18.15,20.9-16.5,21.17-18.42-20.9,16.77-21.17Zm73.68-142.14l19.25,21.45-17.05,21.72-19.25-21.44,17.05-21.72Zm-60.49,245.52l-14.3-19.52-9.9,13.47,24.19,6.05Zm109.7-50.59l18.97,21.44-17.6,21.99-18.42-21.72,17.05-21.72Z"/>
      <path class="cls-6" d="M205.65,561.14l19.25,27.77-5.22,5.5-30.52-7.42-2.47-2.47,18.97-23.37Zm-31.89-54.99l18.97,21.44-17.6,21.99-18.42-21.72,17.05-21.72Z"/>
      <polygon class="cls-7" points="131.14 211.7 83.31 218.02 96.78 564.72 144.89 576.27 131.14 211.7"/>
      <polygon class="cls-14" points="111.9 214.45 98.43 216.1 112.45 568.57 125.92 571.87 111.9 214.45"/>
      <path class="cls-4" d="M266.41,439.07l-21.72-24.74,22.27-23.64,21.44,25.29-22,23.09Zm4.67,100.35l-21.99-25.02,22.54-23.09,21.17,24.47-21.72,23.64Zm63.79-58.29l-19.8-22.54,19.8-20.62,19.52,22.27-19.52,20.89Zm11-78.63l-19.25-22.27,19.25-20.89,19.8,22.27-19.8,20.9Zm64.06-32.99l-19.24-21.72,19.52-19.8,18.7,21.17-18.97,20.34Zm-.27,133.89l-19.25-21.72,19.52-20.34,18.7,21.72-18.97,20.35Zm26.39-62.68l-18.97-21.44,18.97-20.35,18.97,21.72-18.97,20.07Zm-100.08,120.7l-8.8,.55-15.67-17.87,19.8-20.89,19.52,22.27-14.85,15.95Zm116.3-20.07l-.27,4.4-1.65,1.65-25.02,6.32-8.8-11.55,19.25-20.34,16.5,19.52Zm17.05-228.75l-2.47,32.99-2.75,2.75-18.7-21.45,20.07-18.15,3.85,3.85Zm-191.36,255.97l14.85,17.05-33.82,7.97-.55-.55,19.52-24.47Zm18.97-220.5l-19.52-21.72,19.52-20.9,19.25,22-19.25,20.62Z"/>
      <polygon class="cls-1" points="349.44 215.55 396.18 222.42 384.64 563.34 339.55 574.34 349.44 215.55"/>
      <polygon class="cls-13" points="368.41 218.57 381.61 220.5 368.96 567.19 356.87 569.94 368.41 218.57"/>
      <path class="cls-11" d="M233.15,287.86l3.57,310.68,.82,.28-.82-310.95h-3.57Zm-1.65-89.08l1.37,84.13h3.57l.28-83.86-3.02-.55-2.2,.27Z"/>
    </g>
  </g>
</svg>