<?xml version="1.0" encoding="UTF-8"?>
<svg id="Layer_2" data-name="Layer 2" xmlns="http://www.w3.org/2000/svg" viewBox="0 0 488.56 618.88">
  <defs>
    <style>
      .cls-1, .cls-2 {
        fill: #688c3a;
      }

      .cls-3 {
        fill: #e69e3a;
      }

      .cls-3, .cls-4, .cls-5, .cls-2, .cls-6, .cls-7, .cls-8, .cls-9 {
        fill-rule: evenodd;
      }

      .cls-4 {
        fill: #e6b214;
      }

      .cls-10 {
        fill: #698e35;
      }

      .cls-11 {
        fill: #85ad3e;
      }

      .cls-12 {
        fill: #94ad4e;
      }

      .cls-5 {
        fill: #ffc226;
      }

      .cls-13 {
        fill: #6a9b31;
      }

      .cls-14 {
        fill: #78a03f;
      }

      .cls-6 {
        fill: #cb912a;
      }

      .cls-7 {
        fill: #ffd014;
      }

      .cls-8 {
        fill: #d48b24;
      }

      .cls-9 {
        fill: #b06b21;
      }

      .cls-15 {
        fill: #91af4f;
      }

      .cls-16 {
        fill: #71933b;
      }
    </style>
  </defs>
  <g id="_Layer_" data-name="&amp;lt;Layer&amp;gt;">
    <g>
      <path class="cls-2" d="M110.25,52.51c22.27-49.21,113.27,66.53,118.77,151.49,12.1,3.57,20.9,9.35,22.54,1.65-1.65-40.14-10.72-80.83-31.34-119.87-12.92-24.74-50.59-53.34-86.33-51.41-14.02,1.1-22.27,5.5-23.64,18.15h0Z"/>
      <path class="cls-11" d="M195.75,204.83c-26.94-9.35-61.04-28.59-92.65-60.49-19.25-24.74-38.77-72.03-6.32-99.25,10.72-9.35,35.19-11.55,46.74-10.45-4.4,.55-29.14-2.2-32.99,17.32-6.32,31.62,48.39,100.63,83.03,125.1,12.65,8.8,24.47,20.34,37.39,24.47l-35.19,3.3Z"/>
      <path class="cls-2" d="M409.1,106.67c-1.92-10.72-8.8-10.17-17.87-9.07-22.27,2.75-57.74,30.79-88.53,63.51-15.67,17.05-31.89,39.32-33.27,49.76-11.82,0-21.17,3.3-21.17-4.12-2.75-13.2,10.72-38.22,26.39-57.19,14.3-17.6,28.04-29.69,41.52-40.69,12.92-9.9,26.12-18.97,47.56-28.32,9.9-4.12,18.97-7.42,27.22-6.05,13.2,2.2,25.84,11.55,18.15,32.17h0Z"/>
      <path class="cls-11" d="M268.61,217.75c43.17-1.37,97.6-17.87,132.52-41.79,30.79-20.9,46.74-47.56,25.29-79.73-6.87-9.9-23.64-19.25-32.99-21.17-.83-.28-1.92-.55-2.75-.55,5.77,1.65,9.62,4.67,12.65,8.52,16.22,19.8-3.02,47.29-25.02,65.16-27.77,22.54-76.98,51.96-116.02,53.06l6.32,16.5Z"/>
      <path class="cls-11" d="M256.24,209.5c-4.12-15.12,3.57-48.66,7.97-66.81,14.3-58.84,71.48-109.7,120.15-106.95l-37.12-17.6,4.4-18.15c-42.34,13.2-92.65,44.26-108.87,139.12-3.57,20.9-3.02,46.74,.27,70.38h13.2Z"/>
      <path class="cls-15" d="M302.7,74.78c12.92-13.75,28.04-24.47,43.99-31.34-13.2-8.25-25.57-17.32-30.24-28.04-14.02,8.52-28.04,20.07-39.87,36.84,2.2,10.17,9.07,18.42,26.12,22.54h0Z"/>
      <path class="cls-13" d="M256.24,209.5c-4.12-15.12,3.57-48.66,7.97-66.81,3.57-14.02,9.62-28.04,17.05-40.14-15.4,19.25-32.99,60.49-36.57,39.59-.55-2.75-.83-5.5-.83-8.52-.55,1.65-.82,3.57-1.1,5.5-3.57,20.9-3.02,46.74,.27,70.38h13.2Z"/>
      <path class="cls-16" d="M232.32,204c-4.67-11-16.22-25.29-22.54-33.27-43.71-54.16-147.37-51.14-179.26-5.77l13.2-36.84-10.72-16.77c32.44-25.29,129.49-29.14,186.68,52.51,7.42,10.45,16.5,26.94,21.17,40.14h-8.52Z"/>
      <path class="cls-14" d="M159.74,137.47c-47.56-15.67-106.68-4.67-129.22,27.49l13.2-36.84-10.72-16.77c22.54-17.6,76.43-24.74,125.92-.28,3.3,9.35,3.3,18.7,.82,26.39h0Z"/>
      <path class="cls-15" d="M94.03,131.97c-16.22,2.2-31.62,7.42-44.27,15.12,17.05-20.9,7.97-30.52,7.7-47.29,9.62-2.75,21.17-4.4,32.72-4.4,5.77,12.65,6.6,25.02,3.85,36.57h0Z"/>
      <path class="cls-1" d="M232.32,204c-4.67-11-16.22-25.29-22.54-33.27-.27-.55-.82-.82-1.1-1.37,6.87-1.37,6.32-8.52,1.37-18.7,3.3,4.4,6.6,8.52,9.62,13.2,7.42,10.45,16.5,26.94,21.17,40.14h-8.52Z"/>
      <path class="cls-15" d="M365.39,195.2c13.2-5.5,25.02-11.82,35.74-19.25,7.15-4.95,13.2-9.9,18.42-15.12-8.52-6.05-19.52-14.57-26.67-28.04-4.4,5.77-9.35,11-14.57,15.4-7.15,5.77-15.67,12.1-25.29,18.15-2.75,10.17,7.97,23.92,12.37,28.87h0Z"/>
      <polygon class="cls-5" points="244.42 193.56 485.81 243.04 481.69 561.69 244.42 618.88 244.42 193.56"/>
      <polygon class="cls-3" points="244.42 193.56 3.02 237.27 6.87 561.14 244.42 618.88 244.42 193.56"/>
      <polygon class="cls-6" points="244.42 193.56 485.81 243.04 484.99 302.7 244.42 272.19 244.42 193.56"/>
      <polygon class="cls-9" points="244.42 193.56 3.02 237.27 3.57 298.03 244.42 272.19 244.42 193.56"/>
      <polygon class="cls-4" points="244.42 193.01 488.56 243.04 487.19 298.86 244.42 265.04 244.42 193.01"/>
      <polygon class="cls-8" points="244.42 193.01 0 237.27 1.37 295.28 244.42 265.04 244.42 193.01"/>
      <path class="cls-7" d="M243.04,272.46l1.37,346.42,.82-346.42-.82-.28-1.37,.28Zm-.82-78.91l.55,71.76,1.65-.27,1.37,.27,.55-71.76-1.92-.28-2.2,.28Z"/>
      <polygon class="cls-10" points="131.97 215 91.55 221.05 90.73 581.49 131.14 591.39 131.97 215"/>
      <polygon class="cls-12" points="354.67 215.55 394.81 223.52 394.81 582.59 354.39 592.21 354.67 215.55"/>
    </g>
  </g>
</svg>