<?xml version="1.0" encoding="UTF-8"?>
<svg id="Layer_2" data-name="Layer 2" xmlns="http://www.w3.org/2000/svg" viewBox="0 0 440.72 579.71">
  <defs>
    <style>
      .cls-1 {
        fill: #c96497;
      }

      .cls-1, .cls-2, .cls-3, .cls-4, .cls-5, .cls-6, .cls-7, .cls-8, .cls-9, .cls-10, .cls-11, .cls-12, .cls-13, .cls-14, .cls-15, .cls-16 {
        fill-rule: evenodd;
      }

      .cls-2 {
        fill: #cc2645;
      }

      .cls-3 {
        fill: #d96ca6;
      }

      .cls-4 {
        fill: #960c25;
      }

      .cls-5 {
        fill: #c25b8f;
      }

      .cls-6 {
        fill: #9c2862;
      }

      .cls-7 {
        fill: #ed4060;
      }

      .cls-8 {
        fill: #f5a4cf;
      }

      .cls-9 {
        fill: #b33574;
      }

      .cls-10 {
        fill: #d670a3;
      }

      .cls-11 {
        fill: #9e264c;
      }

      .cls-12 {
        fill: #dd6697;
      }

      .cls-13 {
        fill: #eb88bd;
      }

      .cls-14 {
        fill: #e66599;
      }

      .cls-15 {
        fill: #c62531;
      }

      .cls-16 {
        fill: #f07fbb;
      }
    </style>
  </defs>
  <g id="_Layer_" data-name="&amp;lt;Layer&amp;gt;">
    <g>
      <path class="cls-6" d="M204.83,228.9c8.25-1.65,16.22-3.3,24.47-5.22-22-54.16-39.87-129.22-87.98-152.31-10.72-5.22-22.82-7.15-37.39-3.57-13.2,3.02-24.74,6.32-28.59,23.09,27.77-24.19,57.74,2.47,70.93,20.89,23.64,31.89,47.56,94.3,58.56,117.12h0Z"/>
      <path class="cls-1" d="M93.48,122.5c32.72,41.79,114.37,95.95,134.17,105.3l-31.89,1.65c-25.84-10.17-100.08-40.97-124.55-82.76-7.97-13.47-10.72-35.74-4.67-48.94,3.3-7.7,9.35-14.85,16.5-21.44,1.65-1.37,3.3-2.47,4.95-3.3-10.72,8.8-15.4,23.09,5.5,49.49h0Z"/>
      <path class="cls-9" d="M249.09,222.85c-8.8-1.37-17.05-3.57-25.84-4.95,6.87-17.32,34.64-88.25,61.31-116.02,9.62-9.9,19.25-14.57,33.82-15.67,.83,0,2.47,.55,3.3,.55,13.47,3.57,38.77,17.32,41.79,34.09-12.1-16.5-26.67-20.62-36.02-17.87-16.77,4.95-28.04,22-39.59,40.42-16.22,27.22-34.64,68.18-38.77,79.46h0Z"/>
      <path class="cls-14" d="M347.52,103.52c11.82,11.27,6.32,39.32-15.67,59.66-31.62,28.87-87.98,50.86-105.58,58.56l32.17,2.75c11.82,1.37,56.36-11.55,85.78-32.99,22.54-16.5,40.14-45.09,25.29-72.31-4.95-10.45-16.77-19.25-24.74-23.92-10.72-6.05-17.87-9.07-26.39-9.07,18.42,4.95,19.52,8.52,29.14,17.32h0Z"/>
      <path class="cls-10" d="M211.15,220.1c-3.3-8.52-12.65-18.42-17.87-24.74-34.64-39.32-104.75-25.84-136.64,14.02l-24.74-16.5c13.2-57.74,125.92-64.34,170.74-3.85,6.05,7.97,12.65,20.34,15.95,30.24l-7.42,.82Z"/>
      <path class="cls-13" d="M124.55,172.53c-22.54,2.75-44.54,13.2-60.76,28.87-5.5-7.42-15.67-17.32-22.82-27.77,14.57-18.15,41.79-27.49,70.93-27.22,7.15,7.42,10.45,16.5,12.65,26.12h0Z"/>
      <path class="cls-8" d="M94.3,181.06c-5.5,2.47-11,5.22-15.67,8.52-16.5-8.52-18.7-15.95-20.9-29.69,3.02-2.2,6.6-3.85,9.9-5.5,8.8,12.92,19.25,21.72,26.67,26.67h0Z"/>
      <path class="cls-5" d="M229.3,219.82c-3.02-15.67-4.12-33.27,.55-52.51,15.4-62.69,77.81-133.62,121.25-130.87l5.77-30.24c-45.36-27.49-118.77,39.59-136.92,139.94-4.12,22.27-4.67,49.21-2.47,73.96l11.82-.27Z"/>
      <path class="cls-3" d="M276.59,81.25c23.64-27.49,51.69-46.46,74.51-44.81l5.77-30.24c-9.07-5.5-19.25-7.15-29.42-5.5-36.02,4.67-77.53,47.56-98.15,108.88,0,14.57,5.5,16.77,23.37-5.22,7.97-9.9,16.22-17.87,23.92-23.09h0Z"/>
      <path class="cls-16" d="M307.65,52.39c7.7-5.5,15.95-10.17,23.64-12.92-2.2-1.37-4.12-2.75-4.95-4.12-3.57-4.67-3.3-21.17-1.37-34.64-11.55,2.2-23.92,8.52-35.74,17.6,0,13.75,4.95,26.94,18.42,34.09h0Z"/>
      <polygon class="cls-7" points="215.28 274.53 430.83 306.15 412.13 532.43 215.28 579.71 215.28 274.53"/>
      <polygon class="cls-2" points="215.28 274.53 9.9 300.93 25.29 533.8 215.28 579.71 215.28 274.53"/>
      <polygon class="cls-11" points="215.28 274.53 430.83 306.15 430 316.6 215.28 297.08 215.28 274.53"/>
      <polygon class="cls-4" points="215.28 274.53 9.9 300.93 11 313.3 215.28 297.08 215.28 274.53"/>
      <polygon class="cls-7" points="215 215.42 440.72 248.97 434.95 312.2 215.28 292.68 215 292.68 215 215.42"/>
      <polygon class="cls-15" points="215 215.42 0 243.19 4.67 310 7.42 310 215 292.68 215 215.42"/>
      <polygon class="cls-10" points="120.42 227.52 76.98 232.74 87.43 548.92 131.14 559.37 120.42 227.52"/>
      <polygon class="cls-13" points="320.3 230.27 363.74 236.87 350.27 547.27 308.2 557.44 320.3 230.27"/>
      <path class="cls-12" d="M213.9,297.08l1.37,282.63,.82-282.63h-2.2Zm-1.1-81.38l.82,77.26,1.65-.27h1.37l.27-76.98-1.92-.27-2.2,.27Z"/>
    </g>
  </g>
</svg>