<?xml version="1.0" encoding="UTF-8"?>
<svg id="Layer_2" data-name="Layer 2" xmlns="http://www.w3.org/2000/svg" viewBox="0 0 521.06 660.67">
  <defs>
    <style>
      .cls-1 {
        fill: #319ae6;
      }

      .cls-1, .cls-2, .cls-3, .cls-4, .cls-5, .cls-6, .cls-7, .cls-8, .cls-9, .cls-10, .cls-11, .cls-12, .cls-13, .cls-14, .cls-15, .cls-16, .cls-17, .cls-18, .cls-19, .cls-20, .cls-21 {
        fill-rule: evenodd;
      }

      .cls-2 {
        fill: #4f8f43;
      }

      .cls-3 {
        fill: #1b6ba3;
      }

      .cls-4 {
        fill: #319418;
      }

      .cls-5 {
        fill: #1a69a1;
      }

      .cls-6 {
        fill: #7ecf6a;
      }

      .cls-7 {
        fill: #2076b3;
      }

      .cls-8 {
        fill: #3196de;
      }

      .cls-9 {
        fill: #3ba3ed;
      }

      .cls-10 {
        fill: #45adf7;
      }

      .cls-11 {
        fill: #1e82c9;
      }

      .cls-12 {
        fill: #50c94e;
      }

      .cls-13 {
        fill: #1568a3;
      }

      .cls-14 {
        fill: #1680cc;
      }

      .cls-15 {
        fill: #68d93b;
      }

      .cls-16 {
        fill: #2e692a;
      }

      .cls-17 {
        fill: #2880bf;
      }

      .cls-18 {
        fill: #18537d;
      }

      .cls-19 {
        fill: #175d8f;
      }

      .cls-20 {
        fill: #208a0e;
      }

      .cls-21 {
        fill: #2c8bcf;
      }
    </style>
  </defs>
  <g id="_Layer_" data-name="&amp;lt;Layer&amp;gt;">
    <g>
      <path class="cls-5" d="M247.39,211.7c-60.76,6.03-125.38-57.39-119.6-117.91,1.21-13.02,20.01-43.4,30.38-44.13-14.95,13.02-13.5,39.06-4.58,58.83,19.53,43.64,58.35,73.78,108.75,90.18l-14.95,13.02Z"/>
      <path class="cls-19" d="M270.3,214.84c-21.7,2.17-66.79-7.72-86.08-19.77,12.78-5.06,24.11-10.85,30.86-18.08,14.23,8.92,29.9,16.16,47.26,21.7l7.96,16.16Z"/>
      <path class="cls-7" d="M279.22,213.15c-4.58-17.6-10.61-65.58-17.6-81.5-11.81-27.25-26.28-50.64-41.71-65.58-26.04-24.84-53.77-23.87-68.48-13.26-7.47,5.3-21.94,27.97-23.39,38.58-.24,.96-.48,2.17-.48,2.89,21.22-29.66,53.77-16.88,72.82-1.69,15.43,12.3,27.97,32.07,39.06,53.77,8.68,16.4,18.81,52.81,26.76,69.2l13.02-2.41Z"/>
      <path class="cls-1" d="M245.94,100.31c-8.2-13.5-16.88-25.32-26.04-34.24-26.04-24.84-53.77-23.87-68.48-13.26-7.47,5.3-21.94,27.97-23.39,38.58-.24,.96-.48,2.17-.48,2.89,21.22-29.66,53.77-16.88,72.82-1.69,11.57,9.16,21.46,22.67,30.38,37.86,5.06-7.72,9.4-18.32,15.19-30.14h0Z"/>
      <path class="cls-10" d="M192.9,48.95c-8.44-2.89-16.64-3.86-23.87-2.89-3.86,11.57-6.99,22.42-9.16,30.38,9.64-.24,19.53,3.13,28.21,7.96,1.69-10.61,3.13-22.42,4.82-35.44h0Z"/>
      <path class="cls-1" d="M281.87,216.77c-15.19-81.02-94.28-130.93-188.32-85.36,6.27,13.02-3.38,24.35,10.61,33.76,57.87-31.35,113.81-28.69,165.17,48.47l12.54,3.13Z"/>
      <path class="cls-10" d="M155.52,114.29c-9.64,.72-19.77,2.17-30.14,5.06l6.27,33.52c11.33-3.86,22.42-6.03,33.27-6.51-2.65-10.13-5.55-20.98-9.4-32.07h0Z"/>
      <path class="cls-14" d="M281.87,216.77c-5.3-27.97-18.08-52.08-36.41-69.93-5.55,5.3-12.3,12.06-19.53,19.05,14.71,10.85,29.18,26.52,43.4,47.74l4.1,8.68,8.44-5.55Z"/>
      <path class="cls-5" d="M268.13,192.41c-16.4-62.69,33.76-137.68,93.31-138.89,12.78-.24,45.33,15.67,47.98,26.28-15.19-13.74-40.27-9.16-57.63,2.41-38.82,25.8-65.83,78.61-72.82,133.1l-10.85-22.91Z"/>
      <path class="cls-19" d="M268.37,213.87c-5.79-22.18-3.38-67.51,5.06-89.21,6.99,12.78,13.98,23.87,22.18,29.9-8.44,18.08-14.23,41.23-16.15,59.32h-11.09Z"/>
      <path class="cls-7" d="M283.8,217.25c40.51-5.06,94.52-17.12,130.45-66.79,21.22-28.93,16.64-50.88-8.92-77.16-6.75-6.99-30.86-19.53-41.47-19.77-.96,0-2.17-.24-2.89,0,32.31,18.57,37.13,50.64,25.56,72.34-24.84,47.26-76.19,59.07-108.75,82.7l6.03,8.68Z"/>
      <path class="cls-5" d="M336.85,58.35c7.96-2.89,16.16-4.58,24.59-4.82,12.78-.24,45.33,15.67,47.98,26.28-15.19-13.74-40.27-9.16-57.63,2.41-3.38,2.17-6.75,4.58-9.89,7.23l-5.06-31.1Z"/>
      <path class="cls-8" d="M405.32,161.79c3.13-3.62,6.03-7.23,8.92-11.33,21.22-28.93,16.64-50.88-8.92-77.16-6.75-6.99-30.86-19.53-41.47-19.77-.96,0-2.17-.24-2.89,0,32.31,18.57,37.13,50.64,25.56,72.34-4.34,8.2-9.64,15.43-15.43,21.94,10.61,5.79,22.42,10.61,34.24,13.98h0Z"/>
      <path class="cls-5" d="M378.56,71.85c-9.4,1.21-18.81,5.06-26.76,10.37-.96,.72-1.93,1.21-2.89,1.93l-5.55-19.29s13.98,1.69,35.2,6.99h0Z"/>
      <path class="cls-10" d="M427.51,119.35c.96-12.78-4.1-24.84-14.47-37.62-10.85-3.62-21.22-6.51-30.38-8.92,8.2,11.81,10.85,25.08,8.92,37.13,12.3,3.62,24.84,6.99,35.93,9.4h0Z"/>
      <path class="cls-1" d="M309.6,179.15c3.38-4.82,6.03-11.82,7.96-18.08,3.62-11.57,7.72-27.25,7.72-38.1-.24-22.42-9.4-39.54-17.12-59.8-7.96-21.46-17.36-42.2-23.63-63.17-12.54,9.64-19.29,36.17-29.66,43.16,16.4,42.68,40.27,47.74,48.22,91.63,1.69,9.16,2.41,22.42-4.34,40.75l10.85,3.62Z"/>
      <path class="cls-10" d="M307.19,60.76c-3.62-10.13-7.72-19.77-11.57-29.66-8.68,15.43-17.12,37.13-20.25,46.3-.24,.48-.24,.96-.48,1.45,4.1,5.55,8.2,10.61,12.06,16.16l20.25-34.24Z"/>
      <path class="cls-21" d="M275.6,215.32c41.23-26.52,50.64-68,49.43-97.17-.24-5.79-1.45-11.57-2.65-15.91-3.13,11.09-10.85,22.67-19.53,30.62,3.13,16.16,.48,30.38-4.1,42.68-6.75,17.6-18.08,30.86-23.15,39.79h0Z"/>
      <polygon class="cls-20" points="3.38 295.37 260.41 279.46 260.41 660.67 5.3 600.63 3.38 295.37"/>
      <path class="cls-4" d="M24.59,293.93l52.08-3.13c1.45,.48,2.89,.96,4.34,1.45,25.32,10.37,28.21,22.91,32.55,42.68l1.45,5.79c1.93,8.44,5.55,14.47,10.37,18.57,5.06,4.58,12.06,7.47,20.98,9.4,3.62,.96,7.23,1.69,10.85,2.17,19.05,3.38,34.96,6.03,39.78,32.31,.72,3.13,1.21,6.03,1.69,8.68,2.41,15.67,3.86,24.59,28.69,25.56,16.64,.48,26.52,1.69,33.03,5.3v39.78l-.96-3.86c-5.55-20.5-6.51-23.63-32.79-24.84-39.78-1.45-41.96-14.95-46.05-39.54-.24-2.65-.72-5.55-1.21-8.44-2.89-14.71-13.26-16.4-25.32-18.57-4.1-.72-7.96-1.45-12.3-2.41-11.57-2.89-21.22-6.75-28.69-13.26-7.72-6.51-13.02-15.43-15.67-27.49l-1.45-5.79c-3.13-14.71-5.3-24.11-22.18-30.62-7.23-3.13-14.23-2.89-20.5-2.89-12.06,.24-21.94,.48-28.69-10.85h0Zm108.75-6.51l50.64-3.13c6.27,4.34,10.85,11.57,13.02,23.63,.72,3.38,1.21,6.03,1.69,8.92,2.41,15.67,3.86,24.35,28.69,25.32,16.64,.72,26.52,1.93,33.03,5.3v40.03l-.96-4.1c-5.55-20.25-6.51-23.63-32.79-24.59-39.78-1.45-41.96-15.19-46.05-39.54-.24-2.65-.72-5.55-1.21-8.44-2.89-14.95-13.26-16.64-25.32-18.81-4.1-.48-7.96-1.21-12.3-2.17-2.89-.72-5.79-1.69-8.44-2.41h0Zm123.69-7.72l3.38-.24v12.78l-.96-3.86c-.96-3.38-1.69-6.03-2.41-8.68h0Zm3.38,258v39.78l-.96-3.86c-5.55-20.5-6.51-23.63-32.79-24.59-39.78-1.45-41.96-15.19-46.05-39.54-.24-2.89-.72-5.55-1.21-8.44-2.89-14.95-13.26-16.64-25.32-18.81-4.1-.48-7.96-1.21-12.3-2.41-11.57-2.65-21.22-6.75-28.69-13.26-7.72-6.51-13.02-15.19-15.67-27.25l-1.45-6.03c-3.13-14.47-5.3-23.87-22.18-30.62-7.23-2.89-14.23-2.89-20.5-2.65-14.95,.24-26.28,.24-33.03-20.5-3.38-10.85-7.47-20.01-13.5-25.32-.96-.96-1.93-1.69-2.89-2.17l-.24-18.57c6.03,1.93,11.09,4.82,15.67,8.68,8.92,7.96,13.98,19.53,18.33,32.79,2.89,8.68,8.2,8.44,15.43,8.44,7.96-.24,17.36-.24,27.97,4.1,25.32,10.13,28.21,22.91,32.55,42.44l1.45,5.79c1.93,8.44,5.55,14.47,10.37,18.81,5.06,4.34,12.06,7.23,20.98,9.4,3.62,.72,7.23,1.45,10.85,2.17,19.05,3.13,34.96,5.79,39.78,32.07,.72,3.13,1.21,6.03,1.69,8.92,2.41,15.67,3.86,24.35,28.69,25.32,16.64,.72,26.52,1.93,33.03,5.3h0Zm0,95.24v27.73l-3.62-.96c-4.1-12.3-8.44-14.71-30.14-15.67-39.78-1.45-41.96-15.19-46.05-39.54-.24-2.65-.72-5.55-1.21-8.44-2.89-14.71-13.26-16.64-25.32-18.57-4.1-.72-7.96-1.45-12.3-2.41-11.57-2.89-21.22-6.99-28.69-13.26-7.72-6.75-13.02-15.43-15.67-27.49l-1.45-5.79c-3.13-14.71-5.3-24.11-22.18-30.86-7.23-2.89-14.23-2.65-20.5-2.65-14.95,.24-26.28,.48-33.03-20.5-3.38-10.61-7.47-19.77-13.5-25.32-.72-.72-1.69-1.21-2.41-1.69v-18.81c5.79,1.93,10.61,4.82,14.95,8.68,8.92,7.72,13.98,19.29,18.33,32.55,2.89,8.68,8.2,8.68,15.43,8.44,7.96,0,17.36-.24,27.97,4.1,25.32,10.37,28.21,22.91,32.55,42.68l1.45,5.79c1.93,8.44,5.55,14.47,10.37,18.57,5.06,4.58,12.06,7.23,20.98,9.4,3.62,.96,7.23,1.69,10.85,2.17,19.05,3.38,34.96,6.03,39.78,32.31,.72,3.13,1.21,6.03,1.69,8.68,2.41,15.67,3.86,24.59,28.69,25.56,16.64,.48,26.52,1.69,33.03,5.3h0Zm-145.4-6.51l-19.53-4.58c-2.89-13.74-5.55-22.42-21.7-28.93-7.23-2.89-14.23-2.89-20.5-2.65-14.95,.24-26.28,.24-33.03-20.5-3.38-10.85-7.47-20.01-13.5-25.56-.72-.48-1.21-.72-1.69-1.21l-.24-18.81c5.55,1.69,10.37,4.58,14.47,8.2,8.92,7.96,13.98,19.29,18.33,32.79,2.89,8.68,8.2,8.44,15.43,8.44,7.96-.24,17.36-.24,27.97,4.1,25.32,10.13,28.21,22.67,32.55,42.44l1.45,5.79v.48Z"/>
      <polygon class="cls-12" points="517.69 295.37 260.41 279.46 260.41 660.67 515.76 600.63 517.69 295.37"/>
      <path class="cls-15" d="M517.69,295.37l-26.52-1.69c1.45,.24,3.13,.48,4.58,.48,11.33,1.21,17.84,2.41,21.94,5.06v-3.86Zm-257.28,330.82v17.36c3.62,1.21,6.27,2.89,8.68,5.3,2.17,2.17,4.1,5.06,5.79,8.44l17.6-4.1c-2.65-6.03-5.79-11.09-10.13-15.43-5.79-5.79-12.78-9.64-21.94-11.57h0Zm133.34-338.53l-21.7-1.21c2.41,5.3,5.55,9.64,9.64,13.5,6.99,6.99,16.4,11.57,27.73,14.95,4.1,1.45,8.2,2.41,12.06,3.13,12.06,2.89,22.18,5.3,24.11,20.25,.24,2.89,.72,5.79,.96,8.44,2.41,24.84,3.86,38.34,43.4,42.44,17.84,1.69,23.63,3.86,27.01,11.57l.24-23.87c-6.03-1.93-14.23-3.13-25.56-4.34-24.59-2.41-25.56-11.09-27.25-27.01-.24-2.65-.48-5.79-.96-8.92-3.13-26.52-19.05-30.14-37.61-34.48-3.62-.96-7.23-1.69-10.85-2.89-8.68-2.65-15.43-6.03-20.25-10.61l-.96-.96h0Zm-93.07-5.55l-20.5-1.45c3.62,5.79,6.27,13.26,8.44,21.46,5.3,21.22,16.64,21.7,31.59,22.42,6.27,.48,13.26,.72,20.5,4.1,16.16,7.72,17.6,17.12,20.01,31.83l.96,6.03c2.17,12.3,6.75,21.22,13.98,28.45,7.23,6.75,16.4,11.33,27.97,14.95,4.1,1.21,8.2,2.17,12.06,3.13,12.06,2.89,22.18,5.3,24.11,20.25,.24,2.89,.48,5.79,.72,8.44,2.65,24.59,3.86,38.34,43.4,42.44,26.28,2.41,27.01,5.79,31.35,26.52,.24,1.69,.72,3.38,.96,5.55l.48-42.44c-6.51-3.13-15.91-4.82-30.86-6.27-24.84-2.41-25.56-11.33-27.25-27.01-.24-2.89-.48-5.79-.96-8.92-3.38-26.52-19.05-30.14-37.86-34.72-3.38-.72-7.23-1.69-10.85-2.65-8.44-2.65-15.43-6.03-20.25-10.61-4.58-4.58-7.72-10.85-9.16-19.53l-.96-5.79c-3.13-20.01-5.3-32.79-29.9-44.37-10.37-5.06-19.77-5.55-27.73-5.79-7.23-.48-12.54-.72-14.95-9.64-1.45-5.79-3.13-11.33-5.3-16.4h0Zm-40.27,65.83v17.12c4.34,1.21,7.47,3.13,10.13,5.79,5.79,6.03,9.4,15.19,12.06,26.28,5.55,21.22,16.88,21.7,31.83,22.42,6.03,.24,13.26,.72,20.25,4.1,16.4,7.72,17.84,17.12,20.25,31.83l.96,6.03c1.93,12.3,6.75,21.22,13.98,28.21,7.23,6.99,16.4,11.57,27.73,15.19,4.34,1.21,8.2,2.17,12.3,3.13,12.06,2.89,22.18,5.06,23.87,20.25,.48,2.65,.72,5.55,.96,8.44,2.41,24.59,3.86,38.34,43.4,42.2,24.59,2.41,26.76,5.55,30.38,23.39l7.23-1.69,.24-28.21c-6.03-5.79-16.16-7.96-36.17-9.89-24.59-2.41-25.56-11.33-27.01-27.25-.24-2.65-.72-5.55-.96-8.92-3.38-26.28-19.05-30.14-37.86-34.48-3.62-.72-7.23-1.69-10.85-2.89-8.68-2.65-15.43-5.79-20.25-10.61-4.58-4.58-7.72-10.61-9.16-19.29l-.96-5.79c-3.38-20.01-5.3-32.79-29.9-44.61-10.61-4.82-19.77-5.3-27.73-5.79-7.23-.24-12.78-.48-14.95-9.4-3.38-13.5-7.96-25.32-16.4-33.76-5.79-6.03-13.5-10.13-23.39-11.82h0Zm0,96.45v18.08c1.69,.96,3.13,2.17,4.34,3.38,5.79,5.79,9.16,15.19,12.06,26.28,5.3,21.22,16.64,21.7,31.83,22.42,6.03,.24,13.26,.48,20.25,3.86,16.16,7.72,17.84,17.36,20.01,32.07l.96,6.03c2.17,12.06,6.99,21.22,14.23,28.21,6.99,6.99,16.4,11.57,27.73,14.95,4.1,1.45,8.2,2.41,12.06,3.13,11.57,2.89,21.46,5.06,23.87,18.57l17.6-4.34c-4.58-22.42-19.53-26.04-37.13-30.14-3.62-.96-7.23-1.69-10.85-2.89-8.68-2.65-15.43-6.03-20.25-10.61-4.82-4.58-7.72-10.85-9.4-19.29l-.96-5.79c-3.14-20.01-5.06-32.79-29.66-44.61-10.61-5.06-19.77-5.3-27.73-5.79-7.23-.24-12.78-.48-14.95-9.4-3.62-13.5-7.96-25.32-16.4-33.76-4.82-4.82-10.37-8.44-17.6-10.37h0Zm0,96.93v21.22c4.82,5.79,7.96,14.47,10.61,24.59,5.3,20.98,16.64,21.7,31.59,22.18,6.27,.48,13.26,.72,20.5,4.1,14.71,6.99,17.36,15.43,19.29,27.97l17.6-4.1c-2.89-16.64-6.75-28.21-28.93-38.58-10.37-5.06-19.77-5.55-27.73-5.79-7.23-.48-12.54-.72-14.95-9.4-3.38-13.74-7.96-25.32-16.16-33.76-3.38-3.38-7.23-6.27-11.81-8.44h0Z"/>
      <polygon class="cls-16" points="2.65 284.52 261.13 270.54 261.13 282.83 2.89 295.61 1.45 290.79 2.65 284.52"/>
      <polygon class="cls-20" points="0 230.75 260.41 204.47 260.41 276.08 1.45 290.79 0 230.75"/>
      <path class="cls-4" d="M87.77,221.83l20.01-1.93c2.65,5.79,4.1,12.3,5.79,19.77l1.45,5.79c1.93,8.68,5.55,14.47,10.37,18.81,5.06,4.34,12.06,7.23,20.98,9.4,3.62,.96,7.23,1.45,10.85,2.17,7.47,1.21,14.47,2.41,20.5,5.06l-53.05,2.89c-4.34-1.93-8.2-4.34-11.57-7.47-7.72-6.51-13.02-15.19-15.67-27.25l-1.45-6.03c-1.93-8.68-3.62-15.67-8.2-21.22h0Zm90.9-9.16l18.08-1.69c0,.72,.24,1.21,.24,1.93,.72,3.13,1.21,6.03,1.69,8.68,2.41,15.91,3.86,24.59,28.69,25.56,16.64,.48,26.52,1.69,33.03,5.3v23.63l-4.58,.24c-3.86-9.89-9.16-11.82-29.18-12.78-39.78-1.45-41.96-14.95-46.05-39.54-.24-2.65-.72-5.55-1.21-8.44-.24-.96-.48-1.93-.72-2.89h0ZM47.74,288.14l-25.56,1.45c-.72-1.45-1.21-3.38-1.93-5.06-3.38-10.85-7.47-20.01-13.5-25.56-1.93-1.45-3.86-2.89-6.03-3.86l-.48-17.6c7.47,1.69,13.74,5.06,19.05,9.64,8.92,7.96,13.98,19.29,18.33,32.55,1.93,6.51,5.55,8.2,10.13,8.44h0Z"/>
      <polygon class="cls-2" points="518.41 284.52 259.93 270.54 259.93 282.83 518.17 295.61 519.61 290.79 518.41 284.52"/>
      <polygon class="cls-12" points="521.06 230.75 260.65 204.47 260.65 276.08 519.61 290.79 521.06 230.75"/>
      <path class="cls-15" d="M464.4,224.97l-49.19-4.82c4.34,1.21,8.2,2.17,12.06,3.13,12.06,2.65,22.18,5.06,24.11,20.01,.48,2.89,.72,5.79,.96,8.68,1.69,17.12,2.89,28.93,16.88,35.93l50.39,2.89,.24-9.64c-5.55-1.45-12.78-2.41-22.42-3.38-24.59-2.41-25.56-11.33-27.01-27.25-.48-2.65-.72-5.55-.96-8.92-.96-6.99-2.65-12.3-5.06-16.64h0Zm-149.25-14.95l-20.5-2.17c5.3,20.74,16.64,21.22,31.59,21.94,6.03,.24,13.02,.48,20.25,3.86,16.16,7.72,17.84,17.36,20.01,32.07l.96,6.03c.72,3.86,1.69,7.23,2.89,10.61l20.25,1.21c-2.41-3.86-4.34-8.68-5.3-14.23l-.96-6.03c-3.13-19.77-5.06-32.55-29.66-44.37-10.61-5.06-19.77-5.3-27.73-5.79-4.82-.24-8.92-.48-11.81-3.13h0Zm-54.49,42.44v16.64c6.99,.72,12.06,3.13,15.91,6.99,.24,.24,.48,.48,.96,.96l21.46,1.21c-2.41-5.06-5.55-9.64-9.16-13.26-7.23-7.23-16.4-11.57-29.18-12.54h0Z"/>
      <path class="cls-6" d="M260.65,660.67h-.24l-1.69-377.59,2.41-.24,1.93,.24-2.41,377.59Zm2.89-384.59h-5.06v-71.37l1.93-.24,2.65,.24,.48,71.37Z"/>
      <polygon class="cls-18" points="137.92 278.73 137.92 631.98 101.99 623.3 101.03 282.35 137.92 278.73"/>
      <path class="cls-13" d="M137.92,299.23v29.42l-36.89-23.63v-22.67l9.16-.96,27.73,17.84Zm0,74.02v29.42l-36.65-23.39v-29.66l36.65,23.63Zm0,74.02v29.42l-36.41-23.39v-29.42l36.41,23.39Zm0,74.02v29.42l-36.17-23.15-.24-29.42,36.41,23.15Zm0,74.27v29.18l-35.93-22.91-.24-29.42,36.17,23.15Z"/>
      <polygon class="cls-1" points="383.14 264.03 382.9 631.98 419.07 623.3 419.79 267.64 383.14 264.03"/>
      <path class="cls-11" d="M383.14,276.08v29.42l36.65,23.39v-29.42l-36.65-23.39Zm0,74.02v29.42l36.41,23.39,.24-29.42-36.65-23.39Zm0,74.02v29.42l36.41,23.39v-29.42l-36.41-23.39Zm0,74.02l-.24,29.42,36.41,23.39v-29.42l-36.17-23.39Zm-.24,74.27v29.18l34.48,22.18,1.69-.48,.24-27.73-36.41-23.15Z"/>
      <polygon class="cls-9" points="383.14 216.77 383.14 283.08 419.79 285 419.79 220.63 383.14 216.77"/>
      <path class="cls-17" d="M383.14,216.77v14.71l36.65,23.39v-29.42l-9.16-5.79-27.49-2.89Zm0,59.32v6.99l11.82,.72-11.82-7.72Z"/>
      <polygon class="cls-19" points="137.92 283.08 101.27 285 101.03 220.63 137.92 216.77 137.92 283.08"/>
      <path class="cls-3" d="M114.77,284.28l-13.5,.72v-9.4l13.5,8.68Zm-13.74-53.29v-10.37l25.8-2.65,11.09,6.99v29.42l-36.89-23.39Z"/>
    </g>
  </g>
</svg>