<?xml version="1.0" encoding="UTF-8"?>
<svg id="Layer_2" data-name="Layer 2" xmlns="http://www.w3.org/2000/svg" viewBox="0 0 488.56 667.54">
  <defs>
    <style>
      .cls-1 {
        fill: #ff6161;
      }

      .cls-1, .cls-2, .cls-3, .cls-4, .cls-5, .cls-6, .cls-7, .cls-8, .cls-9, .cls-10, .cls-11, .cls-12, .cls-13, .cls-14, .cls-15, .cls-16, .cls-17, .cls-18, .cls-19, .cls-20, .cls-21 {
        fill-rule: evenodd;
      }

      .cls-2 {
        fill: #f07394;
      }

      .cls-3 {
        fill: #f26d91;
      }

      .cls-4 {
        fill: #e85d82;
      }

      .cls-5 {
        fill: #d42828;
      }

      .cls-6 {
        fill: #d94e73;
      }

      .cls-7 {
        fill: #8f0a0a;
      }

      .cls-8 {
        fill: #fc7e9f;
      }

      .cls-9 {
        fill: #a32a36;
      }

      .cls-10 {
        fill: #fc8dab;
      }

      .cls-11 {
        fill: #d63636;
      }

      .cls-12 {
        fill: #e07084;
      }

      .cls-13 {
        fill: #cf536a;
      }

      .cls-14 {
        fill: #f05d84;
      }

      .cls-15 {
        fill: #ad1f1f;
      }

      .cls-16 {
        fill: #c22929;
      }

      .cls-17 {
        fill: #d13939;
      }

      .cls-18 {
        fill: #f57597;
      }

      .cls-19 {
        fill: #ed859d;
      }

      .cls-20 {
        fill: #bf2e2e;
      }

      .cls-21 {
        fill: #f35757;
      }
    </style>
  </defs>
  <g id="_Layer_" data-name="&amp;lt;Layer&amp;gt;">
    <g>
      <path class="cls-6" d="M375.84,129.5c-41.79-31.62-87.98-23.92-105.58,98.15-13.75,1.1-6.87,7.7-26.12-6.32,8.52-24.47,11.82-65.71,26.94-99.8,13.47-30.24,25.29-44.54,55.81-31.07,13.47,6.05,20.9,11.82,27.77,17.87,7.15,5.77,14.02,12.37,21.17,21.17h0Z"/>
      <path class="cls-8" d="M317.28,87.43c5.22,1.92,12.92,6.32,15.95,9.35,63.24,64.06,20.62,88.25-65.16,126.75l38.22,10.17c30.52-10.45,66.81-23.64,79.46-51.69,11.55-25.29-.55-43.71-19.25-63.24-6.6-6.87-12.92-11.82-19.52-16.5-6.05-4.95-12.37-8.52-19.8-11.55-3.02-1.37-6.32-2.47-9.9-3.3h0Z"/>
      <path class="cls-18" d="M139.67,102.55c-26.94,37.39-16.5,59.94,14.3,76.16,22.54,12.37,55.54,20.62,94.58,32.17-7.15,4.4-16.5,4.95-28.87,2.2-21.72,2.2-44.81-3.57-73.41-13.2-29.14-9.9-62.96-24.47-51.69-48.39,11.82-25.84,25.02-36.57,45.09-48.94h0Z"/>
      <path class="cls-6" d="M95.13,150.39c39.59-40.14,62.41-23.64,152.04,68.46,13.75-.82,19.79-7.7,23.09-15.12-38.49-33.82-54.16-60.76-79.46-87.43-23.92-24.74-39.32-26.39-55.26-14.57-23.37,16.22-32.44,27.77-40.42,48.66h0Z"/>
      <path class="cls-14" d="M237.54,226c3.02-10.17,2.2-28.04,1.65-38.22-2.47-68.18-78.08-138.57-136.92-146.54,2.47-9.9,17.6-7.7,22.82-15.67,3.02-4.67-4.4-18.42-1.1-25.57,57.19,16.77,131.97,115.47,128.94,194.1-.27,12.37-3.57,28.87-7.97,39.87l-7.42-7.97Z"/>
      <path class="cls-3" d="M226.82,141.32c-24.19-51.14-78.91-94.03-124.55-100.08,2.47-9.9,13.75-10.45,19.25-18.7,2.75-4.67-.55-15.67,2.47-22.54,41.52,12.37,92.65,67.91,116.3,128.12-1.1,14.3-5.77,16.77-13.47,13.2h0Z"/>
      <path class="cls-10" d="M166.89,70.38c-13.75-10.72-28.87-18.7-43.16-23.92,23.37-.82,19.25-20.07,24.19-35.47,8.8,5.5,17.87,12.37,26.94,20.62,15.95,12.92-3.3,31.62-7.97,38.77h0Z"/>
      <path class="cls-4" d="M262.84,258.72c1.92-12.1,9.9-30.24,14.3-40.42,29.97-68.18,114.37-93.2,161.11-64.06,3.3-18.42-.55-29.14,1.1-55.81-48.94-18.97-144.34,35.74-174.58,117.67-4.95,13.2-9.62,32.17-10.72,46.46l8.8-3.85Z"/>
      <path class="cls-2" d="M305.45,178.43c38.49-36.84,97.05-46.46,132.79-24.19,6.05-11.82-.28-28.04,.82-33.54,3.85-2.47,15.67-7.7,16.22-16.5-1.1-.27-18.42-7.15-19.52-7.42-35.74-11-94.03,14.57-134.44,59.39-4.95,15.67-2.75,21.17,4.12,22.27h0Z"/>
      <path class="cls-10" d="M378.86,143.24c14.57-1.65,28.87-.82,41.52,3.02l6.6-51.69c-11.55-1.1-24.19,0-37.94,4.4-6.87,18.42-10.72,34.64-10.17,44.26h0Z"/>
      <polygon class="cls-5" points="238.92 257.62 478.94 303.53 458.04 615.31 238.92 667.54 238.92 257.62"/>
      <polygon class="cls-15" points="238.92 257.62 10.72 291.16 27.49 616.68 238.92 667.54 238.92 257.62"/>
      <polygon class="cls-9" points="238.92 257.62 478.94 303.53 478.11 319.2 238.92 288.96 238.92 257.62"/>
      <polygon class="cls-7" points="238.92 257.62 10.72 291.16 11.55 311.23 238.92 288.96 238.92 257.62"/>
      <polygon class="cls-11" points="238.92 197.4 488.56 244.69 483.06 315.9 239.19 282.63 238.92 282.91 238.92 197.4"/>
      <polygon class="cls-20" points="238.92 197.4 0 232.87 4.4 304.08 7.97 303.8 238.92 282.91 238.92 197.4"/>
      <path class="cls-16" d="M55.26,344.22c-4.67,3.57-3.57,14.57,2.75,25.02,11,17.05,21.99,16.5,32.99-2.47,6.32-10.45,7.7-21.72,2.75-24.74-4.67-3.02-12.92,2.2-19.52,12.1-6.05-9.07-14.3-13.47-18.97-9.9h0Zm-10.17,223.25c-4.67,3.57-3.57,14.85,3.02,24.74,10.45,17.32,21.45,16.77,32.44-1.92,6.32-10.72,7.7-21.99,2.75-25.02-4.4-3.02-12.92,2.47-18.97,12.1-6.32-9.07-14.57-13.47-19.25-9.9h0Zm126.75,29.97c-4.95,3.85-3.57,14.85,2.75,24.74,10.72,17.32,21.72,16.77,32.44-1.92,6.32-10.45,7.7-21.99,3.02-25.02-4.67-3.02-13.2,2.2-19.25,12.1-6.32-9.07-14.57-13.47-18.97-9.9h0Zm-38.77-116.02c-4.67,3.85-3.57,14.85,2.75,24.74,11,17.6,21.72,16.77,32.44-1.92,6.6-10.45,7.7-21.99,2.75-25.02-4.4-2.75-12.65,2.2-18.7,12.37-6.32-9.35-14.85-13.75-19.25-10.17h0Zm44.54-122.07c-5.22,3.85-3.57,14.85,2.75,25.02,10.72,17.32,21.72,16.77,32.44-1.65,6.6-11,7.7-22.27,2.75-25.57-4.4-2.75-12.65,2.47-18.97,12.37-6.32-9.07-14.57-13.47-18.97-10.17h0ZM33.54,442.37c-4.67,3.57-3.3,14.85,3.02,25.02,10.72,17.05,21.72,16.22,32.44-1.92,6.32-11,7.7-22,3.02-25.02-4.67-3.3-13.2,2.2-19.25,11.82-6.32-8.8-14.57-13.2-19.25-9.9h0Z"/>
      <polygon class="cls-13" points="133.34 213.08 98.43 218.3 114.92 637.58 145.72 645 133.34 213.08"/>
      <path class="cls-21" d="M395.63,510.83c-4.95,3.02-3.57,14.85,2.75,25.29,10.72,18.15,21.72,18.7,32.72,1.1,6.05-10.17,7.15-21.44,2.47-25.29-4.4-3.3-12.65,1.37-18.97,11-6.05-10.17-14.57-15.4-18.97-12.1h0Zm-94.85,87.43c-4.67,3.3-3.57,14.85,2.75,25.02,10.72,18.42,21.72,18.7,32.44,1.38,6.32-10.17,7.7-21.45,3.02-25.02-4.67-3.3-12.92,1.37-19.25,10.45-6.05-9.35-14.57-14.57-18.97-11.82h0Zm26.12-188.88c-4.67,3.02-3.57,14.02,2.75,25.02,11,17.87,21.72,18.15,32.72,1.1,6.6-10.45,7.7-21.44,2.75-25.02-4.4-3.3-12.92,1.1-18.97,10.45-6.05-9.62-14.85-14.85-19.25-11.55h0Zm-81.93,73.68c-4.67,3.3-3.57,14.85,2.47,25.02,11,18.7,21.99,18.97,32.72,1.37,6.6-10.17,7.7-21.17,2.75-24.74-4.4-3.85-12.65,.82-18.97,10.17-6.05-9.35-14.57-14.57-18.97-11.82h0Zm25.02-159.19c-4.95,3.02-3.3,14.57,2.75,25.02,11,17.87,21.99,18.15,32.44,1.1,6.6-10.17,7.7-21.44,2.75-24.74-4.4-3.57-12.65,.82-18.7,10.17-6.6-9.62-14.85-14.57-19.25-11.55h0Zm157.54,298.58c5.5-5.77,11.55-8.25,15.12-5.5,.55,.55,1.1,1.1,1.37,1.65l-16.5,3.85Zm-25.02,6.05c-1.37-5.77-.55-10.72,2.2-12.92,3.85-2.75,10.72,1.1,16.77,8.52l-18.97,4.4Zm14.57-288.68c-4.67,3.3-3.3,14.57,2.75,24.74,11,18.15,21.72,18.15,32.72,0,6.32-10.17,7.42-21.45,3.02-24.74-4.67-3.57-13.2,1.65-19.25,11-6.32-9.35-14.57-14.57-19.25-11h0Z"/>
      <polygon class="cls-19" points="354.12 219.4 391.23 226.27 373.91 635.38 342.02 642.8 354.12 219.4"/>
      <path class="cls-12" d="M237.27,288.96l1.65,378.59h.27l1.1-378.59h-3.02Zm-1.1-91l1.1,84.96,1.65-.27,1.65,.27,.82-84.96-2.47-.55-2.75,.55Z"/>
      <path class="cls-17" d="M162.76,238.64c-4.4,3.57-2.75,15.12,4.12,24.74,11.55,17.32,22.54,16.77,32.44-1.65,6.05-10.72,6.6-21.99,1.65-25.57-4.67-3.02-12.92,2.47-18.42,12.65-6.87-9.07-15.4-13.47-19.8-10.17h0Zm-144.62,6.6c-4.67,4.12-2.75,15.12,3.85,25.02,11.55,17.32,22.54,16.5,32.72-1.92,5.5-10.45,6.32-21.99,1.37-25.02-4.67-2.75-12.65,2.2-18.42,12.37-6.87-9.35-15.12-14.02-19.52-10.45h0Z"/>
      <path class="cls-1" d="M284.83,227.1c-4.95,2.47-3.85,13.75,3.02,25.57,10.45,19.25,21.44,21.44,32.44,5.77,6.05-9.35,7.42-20.89,2.47-25.02-4.4-3.85-12.65-.55-18.97,7.97-6.05-10.45-14.3-17.05-18.97-14.3h0Zm147.09,28.04c-4.67,2.75-3.3,13.75,2.75,25.57,10.72,19.25,21.99,21.44,32.72,5.5,6.05-9.62,7.42-20.35,2.47-24.47-4.12-3.85-12.65-.55-18.7,7.7-6.32-10.45-14.85-16.77-19.25-14.3h0Z"/>
    </g>
  </g>
</svg>