<?xml version="1.0" encoding="UTF-8"?>
<svg id="Layer_2" data-name="Layer 2" xmlns="http://www.w3.org/2000/svg" viewBox="0 0 537.23 816.96">
  <defs>
    <style>
      .cls-1 {
        fill: #1f597d;
      }

      .cls-1, .cls-2, .cls-3, .cls-4, .cls-5, .cls-6, .cls-7, .cls-8, .cls-9, .cls-10, .cls-11, .cls-12, .cls-13, .cls-14, .cls-15, .cls-16 {
        fill-rule: evenodd;
      }

      .cls-2 {
        fill: #4196b3;
      }

      .cls-3 {
        fill: #734778;
      }

      .cls-4 {
        fill: #956e9e;
      }

      .cls-5 {
        fill: #57afca;
      }

      .cls-6 {
        fill: #73d1cc;
      }

      .cls-7 {
        fill: #257e8d;
      }

      .cls-8 {
        fill: #804f7a;
      }

      .cls-9 {
        fill: #a6749f;
      }

      .cls-10 {
        fill: #c294bc;
      }

      .cls-11 {
        fill: #9d6e9e;
      }

      .cls-12 {
        fill: #8a5a84;
      }

      .cls-13 {
        fill: #1c7494;
      }

      .cls-14 {
        fill: #ad90be;
      }

      .cls-15 {
        fill: #2b5e7b;
      }

      .cls-16 {
        fill: #1d7da1;
      }
    </style>
  </defs>
  <g id="_Layer_" data-name="&amp;lt;Layer&amp;gt;">
    <g>
      <polygon class="cls-5" points="264.21 101.57 531.45 149.69 508.08 758.39 264.21 816.96 264.21 101.57"/>
      <path class="cls-2" d="M326.07,523.87l-10.72,33.82-31.07-5.5,15.12,28.59-25.57,26.39,29.42,1.65-.55,37.94,21.44-26.39,25.02,21.45-2.47-34.64,31.62-11.82-25.02-16.77,14.3-35.47-28.04,13.75-13.47-32.99Zm-5.22-198.23l-10.45,33.82-31.34-5.5,15.12,28.59-25.29,26.12,29.14,1.65-.27,37.94,21.44-26.39,24.74,21.44-2.47-34.64,31.62-11.55-24.74-16.5,14.3-35.74-28.32,13.75-13.47-32.99Zm113.55-137.19l-10.45,33.82-31.07-5.5,14.85,28.59-25.29,25.84,29.42,1.65-.55,38.22,21.45-26.39,24.74,21.45-2.47-34.64,31.34-11.55-24.47-16.77,14.3-35.47-28.04,13.75-13.75-32.99Zm-170.19,14.02v-11.27l14.85-15.67-14.85-27.77v-.55l30.79,5.5,10.72-33.82,13.47,32.99,28.04-13.75-14.3,35.47,24.74,17.05-31.34,11.27,2.47,34.64-24.74-21.17-21.72,26.39,.55-38.22-18.7-1.1Zm0,584.79v-83.03l4.12,10.17,28.32-13.75-14.3,35.74,24.47,16.77-31.34,11.55,2.47,34.64-13.75-12.1Zm201.53-18.7l-4.67,1.1-19.8-17.05-21.44,26.39,.28-38.22-29.14-1.65,25.29-26.12-15.12-28.59,31.34,5.5,10.45-33.82,13.47,32.99,28.32-13.75-14.3,35.47,24.47,16.77-31.34,11.82,2.2,29.14Zm52.51-268.34l-.28,6.05-25.57,9.35,2.47,34.37-25.02-21.17-21.44,26.39,.55-38.22-29.42-1.65,25.57-25.84-15.12-28.59,31.07,5.5,10.72-34.09,13.47,33.27,28.04-14.02-14.3,35.74,19.25,12.92Zm6.32-169.64l-2.2,58.84-12.1,16.22-1.37-33.54-36.02-9.62,32.17-17.87-12.92-37.67,32.44,23.64Z"/>
      <polygon class="cls-13" points="264.21 101.57 9.62 142.26 27.77 759.49 264.21 816.96 264.21 101.57"/>
      <path class="cls-1" d="M180.91,518.93l10.72,33.82,31.07-5.5-15.12,28.32,25.84,26.39-29.69,1.65,.55,38.22-21.45-26.67-25.02,21.44,2.47-34.64-31.34-11.55,24.74-16.77-14.3-35.47,28.04,13.75,13.47-32.99Zm5.22-198.23l10.45,33.82,31.34-5.5-15.12,28.32,25.57,26.12-29.42,1.65,.27,38.22-21.44-26.39-24.74,21.17,2.47-34.37-31.34-11.55,24.47-16.77-14.3-35.47,28.32,13.75,13.47-32.99ZM72.58,183.23l10.45,34.09,31.34-5.5-14.85,28.32,25.29,26.12-29.42,1.65,.55,37.94-21.72-26.39-24.74,21.44,2.47-34.64-31.34-11.27,24.47-16.77-14.3-35.74,28.04,13.75,13.75-32.99ZM201.25,113.67l10.72,33.82,31.34-5.5-15.4,28.59,25.84,26.39-29.69,1.65,.55,37.94-21.72-26.39-24.74,21.44,2.47-34.64-31.34-11.55,24.74-16.77-14.3-35.74,28.04,13.75,13.47-32.99Zm62.96,671.67v-75.33l-1.37,.28-10.45-33.82-13.47,32.99-28.59-13.75,14.3,35.47-24.47,17.05,31.34,11.27-2.47,34.64,25.02-21.17,10.17,12.37ZM25.29,671.79v6.05l11.27,28.04-10.17,6.87,.55,15.12,16.5,6.05-2.2,28.87,5.22,1.37,19.25-16.77,21.44,26.39-.27-38.22,29.42-1.65-25.57-26.12,15.4-28.32-31.62,5.5-10.45-34.09-13.47,32.99-25.29-12.1Zm-6.32-213.08l2.2,78.63,15.95-13.75,21.44,26.39-.55-37.94,29.42-1.65-25.57-26.12,15.12-28.87-31.07,5.77-10.72-34.09-13.47,33.27-2.75-1.65Z"/>
      <polygon class="cls-7" points="264.21 116.97 531.45 149.69 530.63 176.36 264.21 151.89 264.21 116.97"/>
      <polygon class="cls-15" points="264.21 116.97 9.62 142.26 10.45 169.21 264.21 151.89 264.21 116.97"/>
      <polygon class="cls-5" points="263.94 79.03 537.23 112.85 535.85 170.86 264.21 145.01 263.94 145.01 263.94 79.03"/>
      <polygon class="cls-16" points="263.94 79.03 0 102.95 2.75 164.81 6.87 164.53 263.94 145.01 263.94 79.03"/>
      <path class="cls-6" d="M261.19,152.44l1.37,663.97,1.65,.55,1.37-664.8-1.37-.27-3.02,.55Zm-.82-72.86l.82,65.71,3.02-.27h1.65l.83-65.44-2.75-.55-3.57,.55Z"/>
      <path class="cls-3" d="M23.64,616.25l1.92,69.01,57.46,87.7,53.34,12.92L23.64,616.25ZM131.69,91.13l-39.59,3.57,171.01,260.09v-65.71L131.69,91.13ZM16.5,378.43l246.62,276.31v-67.36L14.57,311.35l1.92,67.08Z"/>
      <path class="cls-9" d="M515.51,569.51l-2.2,55.54-250.19-270.26v-65.71l252.39,280.43ZM381.34,93.6l44.81,5.5,8.25,1.1,94.58,113.82-2.2,55.54L381.34,93.6Zm-118.22,560.59l115.75,135.27,40.14-9.62-155.89-192.46v66.81Z"/>
      <path class="cls-8" d="M163.59,153.81c-60.49,11.55-128.39,14.85-142.97-28.32-8.25-24.74,7.42-56.64,16.5-64.06-4.67,24.47-10.45,48.11,18.42,60.49,29.14,12.37,114.1,17.87,114.1,17.87-1.37,2.47-4.4,10.45-6.05,14.02h0Z"/>
      <path class="cls-9" d="M134.44,86.73c-11-11.55-21.44-22.27-32.44-27.77-22.27-11-42.62-14.57-60.21-1.65-21.72,15.95-25.84,50.59-22.54,61.59,4.67-26.67,18.15-45.09,49.49-40.14,31.62,4.95,92.38,69.56,92.38,69.56l8.52-12.1c-5.5-9.35-25.29-38.77-35.19-49.49h0Z"/>
      <path class="cls-10" d="M99.25,57.58c-21.17-9.9-40.69-12.65-57.46-.27-3.3,2.47-6.32,5.5-8.8,8.8-1.37,9.07-2.2,17.32-1.65,23.64,7.97-9.35,19.8-14.02,37.39-11,6.05,.82,13.47,3.57,21.72,7.7,3.57-9.07,6.6-18.97,8.8-28.87h0Z"/>
      <path class="cls-8" d="M159.19,144.74c-.27,7.15-.55,8.52,6.05,10.17,28.59,6.87,61.59,15.95,86.61,38.22,27.49,24.74,54.99,56.64,87.15,91-4.12-12.92,17.6-25.84,13.75-38.77-28.59-34.09-61.04-64.33-95.68-85.23-25.57-14.85-54.99-20.62-82.21-22.82-8.25,3.85-7.42,3.85-15.67,7.42h0Z"/>
      <path class="cls-4" d="M256.24,197.25c17.87,16.5,36.02,36.02,55.54,57.46l14.3-38.49c-15.67-15.95-32.17-30.52-49.49-42.89l-20.35,23.92Z"/>
      <path class="cls-14" d="M264.49,204.95c8.52,8.52,17.32,17.32,26.12,26.67l17.87-32.44c-6.6-6.05-13.47-11.55-20.35-17.05l-23.64,22.82Z"/>
      <path class="cls-8" d="M182.01,136.76c-11.55,17.87-22.82,31.89-25.57,50.59-4.67,31.89,.55,65.71,4.95,105.85-5.77-5.22-31.62-11.27-37.67-16.5-5.77-27.49-2.75-60.76,6.32-87.15,6.05-18.15,19.52-43.99,30.24-51.41,7.15-5.5,14.57,4.12,21.72-1.37h0Z"/>
      <path class="cls-4" d="M156.16,188.73c-4.4,31.62,.82,65.16,5.22,104.48-5.77-5.22-31.62-11.27-37.67-16.5-4.95-24.47-3.3-53.61,3.57-78.36l28.87-9.62Z"/>
      <path class="cls-14" d="M154.51,214.3c0,11.82,.82,23.92,2.2,36.57l-35.74,1.65c-.28-9.07,0-18.15,1.1-27.49l32.44-10.72Z"/>
      <path class="cls-11" d="M160.29,135.94c-12.1-22.54-23.09-114.65,12.37-132.52,21.17-10.72,60.76,6.6,67.36,13.2-21.44-.27-41.79-12.37-54.16,13.2-12.1,25.02-15.4,67.91-12.37,110.25-.82-.27-5.22,2.47-7.97,2.2-4.67-.55-3.3-5.77-5.22-6.32h0Z"/>
      <path class="cls-12" d="M222.42,106.52c8.52-11.82,15.12-26.12,19.8-36.02,9.35-20.07,12.37-37.94,1.37-50.59-2.75-3.02-5.5-5.22-8.8-6.87-15.4-8.25-44.26-18.7-62.69-9.35,10.45,0,37.39,7.97,43.72,12.37,7.42,5.22,11.27,14.57,9.07,29.69-1.1,6.32-4.67,14.85-9.62,23.92-15.67,29.42-45.09,66.53-45.09,66.53-11.55,12.1-7.7,25.84,8.52,14.57,8.25-5.77,23.92-17.6,43.71-44.27h0Z"/>
      <path class="cls-9" d="M243.32,68.03c8.52-18.97,10.72-36.02,.28-48.11-2.2-2.47-4.95-4.67-7.7-6.32-8.25,.28-15.4,.82-20.62,2.2,7.97,5.22,11.82,14.57,9.62,29.97-.83,5.22-3.3,11.82-6.6,19.25,7.7,1.65,16.5,2.47,25.02,3.02h0Z"/>
      <path class="cls-4" d="M152.04,138.96c6.05-5.22,14.85-5.22,19.52,0,4.95,5.5,4.12,14.3-1.92,19.8-6.05,5.22-14.85,5.22-19.8-.27-4.95-5.22-3.85-14.02,2.2-19.52h0Z"/>
    </g>
  </g>
</svg>