<?xml version="1.0" encoding="UTF-8"?>
<svg id="Layer_2" data-name="Layer 2" xmlns="http://www.w3.org/2000/svg" viewBox="0 0 430.55 725.01">
  <defs>
    <style>
      .cls-1 {
        fill: #edb32d;
      }

      .cls-1, .cls-2, .cls-3, .cls-4, .cls-5, .cls-6, .cls-7, .cls-8, .cls-9, .cls-10, .cls-11, .cls-12, .cls-13, .cls-14, .cls-15 {
        fill-rule: evenodd;
      }

      .cls-2 {
        fill: #34940f;
      }

      .cls-3 {
        fill: #509911;
      }

      .cls-16 {
        fill: #c9860a;
      }

      .cls-17 {
        fill: #d69318;
      }

      .cls-4 {
        fill: #2d9c19;
      }

      .cls-5 {
        fill: #f5b520;
      }

      .cls-6 {
        fill: #e8ae27;
      }

      .cls-7 {
        fill: #5fab1d;
      }

      .cls-18 {
        fill: #d68f0b;
      }

      .cls-19 {
        fill: #c9870c;
      }

      .cls-8 {
        fill: #c9951a;
      }

      .cls-9 {
        fill: #e3a922;
      }

      .cls-10 {
        fill: #f2c72e;
      }

      .cls-11 {
        fill: #dda114;
      }

      .cls-12 {
        fill: #67ba1e;
      }

      .cls-20 {
        fill: #e69b10;
      }

      .cls-13 {
        fill: #e8be25;
      }

      .cls-14 {
        fill: #3a960c;
      }

      .cls-15 {
        fill: #5ebb51;
      }
    </style>
  </defs>
  <g id="_Layer_" data-name="&amp;lt;Layer&amp;gt;">
    <g>
      <path class="cls-20" d="M191.08,141.04c7.97,0,22.54,10.72,21.99,16.77-.55,6.32-18.15,4.67-26.12,4.4-7.97,0-16.22,1.38-15.67-4.67,.55-6.32,11.82-16.77,19.8-16.5h0Z"/>
      <path class="cls-15" d="M43.99,186.13v-.27c.27-17.32,76.98-31.34,172.11-31.34s171.29,14.3,171.29,31.62c-.27,20.07-60.21,11-77.53,13.47-37.94,4.4-220.77,8.25-241.12,0-10.45-4.4-25.02-.82-24.74-13.47h0Z"/>
      <path class="cls-14" d="M219.4,725.01h-8.52c-37.12,0-138.29-8.8-162.49-40.42C-10.72,505.33-18.97,339,42.07,189.43c0-18.97,75.06-29.42,155.06-30.52,14.85-.28,29.97-.28,44.81,0,76.71,1.92,146.27,12.1,146.27,30.52,61.31,149.57,53.06,315.9-6.32,495.16-24.19,31.62-125.1,40.42-162.49,40.42h0Z"/>
      <path class="cls-4" d="M264.76,159.74c67.08,3.3,123.45,13.2,123.45,29.69,61.31,149.57,53.06,315.9-6.32,495.16-17.32,22.54-73.68,33.54-118.22,37.94,28.32-243.87,29.42-412.68-.55-562.79h1.65Z"/>
      <path class="cls-2" d="M175.13,723.36c-45.36-3.85-108.32-14.85-126.75-38.77C-10.72,505.33-18.97,339,42.07,189.43c0-16.77,57.19-26.67,125.37-29.69-24.74,164.69-28.59,323.87,7.7,563.62h0Z"/>
      <path class="cls-7" d="M429.18,368.41v.82c-11-16.22-91.83-25.29-180.63-27.22-18.7-.28-37.39-.28-56.09,0-90.18,1.1-175.13,9.62-190.81,25.57,1.1-2.75,4.95-7.42,10.45-9.9,27.77-12.92,108.32-20.07,204-20.07,104.2,0,187.51,9.07,207.3,23.64,2.47,1.92,4.67,4.67,5.77,7.15h0Zm-4.67-45.64v.55c-9.62-16.5-89.08-25.84-176.78-27.77-18.15-.27-36.57-.27-54.71-.27-87.98,1.37-171.01,9.9-186.13,25.84,.82-2.75,4.67-7.42,10.17-9.9,26.94-12.92,105.58-20.07,199.05-20.07,101.73,0,183.11,9.07,202.35,23.64,2.75,1.92,4.95,5.22,6.05,7.97h0ZM15.4,273.56l.27-1.65c1.92-2.47,4.67-5.5,8.52-7.15,26.12-12.92,101.73-20.62,191.91-20.62,98.15,0,176.51,9.35,195.2,24.19,1.38,1.1,2.47,2.47,3.57,4.12l.55,2.47c-13.75-15.4-87.7-24.47-168.81-26.12-17.6-.27-35.19-.27-52.79-.27-82.76,1.65-161.11,9.62-178.43,25.02h0ZM0,414.33c1.1-2.75,5.22-7.42,10.45-9.9,28.04-13.2,111.07-15.12,207.58-15.12,105.03,0,187.23,4.12,207.03,18.7,2.2,1.65,4.4,4.12,5.5,6.6v1.1c-12.37-15.95-91-20.34-179.53-21.99h-56.91c-90.73,1.37-178.16,4.67-194.11,20.62H0Zm1.1,34.64v-1.37c1.65-.82,3.85-1.65,6.6-2.47,28.32-7.15,113.82-9.9,211.7-9.9,106.4,0,188.33,3.85,208.68,12.1,.55,0,1.1,.28,1.37,.55v1.65c-20.62-7.15-93.75-8.25-176.51-9.35-19.52,0-38.49-.28-57.74,0-86.05,.55-170.46,1.37-194.1,8.8h0Zm2.47,32.44l-.27-1.92c46.19,.28,114.37-.55,184.48-.27h70.38c65.43-.27,126.47,.27,169.09,0l-.27,2.2c-48.11,1.37-123.45,2.2-210.6,2.2s-163.86-.82-212.8-2.2h0Zm3.85,32.44l-.28-1.92c24.74,6.05,95.13,7.42,173.48,8.25,18.97,.28,37.94,.28,56.91,0,80.01-.55,156.71-1.65,185.58-7.42l-.28,1.92-.82,.28c-28.59,6.87-109.7,9.9-207.03,9.9s-183.66-3.85-207.58-11h0Zm5.77,35.47l-.55-3.85c26.94,12.65,101.73,19.25,180.08,20.35,18.42,.27,36.84,.27,55.54,0,75.33-1.65,144.89-8.52,169.91-20.9l-.82,3.85c-24.74,13.2-103.65,21.45-201.25,21.45s-174.03-7.15-201.53-20.07c-.55-.28-.83-.55-1.37-.82h0Zm7.97,38.77l-.82-4.12c27.22,12.1,98.43,18.7,172.93,19.8,18.15,.28,36.02,.28,53.89-.28,71.76-1.37,137.74-8.25,163.31-20.07l-1.1,4.12c-25.57,12.65-100.63,20.62-193.28,20.62s-167.99-7.15-194.93-20.07h0Zm9.9,39.32l-1.1-3.85c22.54,13.2,92.1,20.35,164.96,21.44,16.77,.28,33.27,.28,50.04,0,70.66-1.65,134.99-9.07,155.61-22.27l-1.1,4.12c-20.07,14.02-92.65,22.54-183.38,22.54-85.51,0-157.26-7.15-182.01-20.07-1.1-.55-1.92-1.1-3.02-1.92h0Zm15.67,52.79l-1.37-4.67c29.42,10.17,88.53,15.4,149.84,16.5,16.5,0,32.99,0,49.21-.27,58.84-1.37,113.27-6.87,140.49-16.77l-1.37,4.67c-29.14,10.45-92.1,16.5-167.44,16.5s-139.12-5.77-169.36-15.95h0ZM28.04,227.92c1.1-2.75,4.4-7.42,9.35-9.9,24.19-12.92,94.85-20.35,178.71-20.35,91.28,0,164.14,9.35,181.73,23.92,2.2,1.65,4.12,4.67,4.95,7.42l.28,.27v.55l.27,.27h-.27c-8.25-16.5-79.73-26.12-158.64-27.77-16.22-.27-32.72-.55-49.21-.27-78.63,1.37-153.41,9.9-167.16,25.84h0Z"/>
      <path class="cls-12" d="M260.64,691.19l-.55,4.4c34.64-1.37,65.43-3.85,89.08-7.97l1.1-4.12c-24.74,3.85-56.09,6.6-89.63,7.7h0Zm7.15-47.01l-.55,4.4c36.57-1.65,68.46-4.67,92.1-9.07l.82-4.12c-24.74,4.4-57.19,7.42-92.38,8.8h0Zm5.22-41.24l-.55,4.12c37.12-1.37,69.56-4.12,94.3-8.25l.82-4.4c-25.84,4.12-58.84,6.87-94.58,8.52h0Zm4.12-38.22l-.55,4.4c37.94-1.37,70.93-4.4,95.95-8.25l.55-4.4c-26.12,4.12-59.66,6.87-95.95,8.25h0Zm3.57-44.81l-.28,4.4c37.94-.55,71.48-1.92,97.05-3.85l.27-3.3c-26.67,1.65-60.49,2.2-97.05,2.75h0Zm2.47-40.97l-.28,4.4c36.57-.27,69.83-.55,98.15-.83l.27-3.3c-29.14,0-62.69-.27-98.15-.27h0Zm1.37-43.17v4.95c37.94,.55,72.58,1.1,98.98,2.75v-3.3c-25.29-2.2-59.11-3.57-98.98-4.4h0Zm0-45.91l.27,4.67c38.49,1.37,73.68,3.02,99.8,6.87v-4.67c-25.02-3.85-59.39-6.05-100.08-6.87h0Zm-1.65-50.86l.28,4.12c38.77,1.65,74.51,4.95,100.9,9.62l-.27-4.12c-25.29-4.67-60.21-7.97-100.9-9.62h0Zm-3.3-46.74l.28,4.4c39.04,1.65,74.78,4.95,100.9,9.9l-.27-4.4c-25.02-4.67-59.94-8.25-100.9-9.9h0Zm-5.22-46.74l.55,4.12c38.49,1.65,73.96,5.22,99.8,10.17l-.82-4.12c-24.74-5.22-59.11-8.52-99.53-10.17h0Zm-7.7-46.74c39.32,1.65,72.58,5.22,96.5,10.17,.27,1.37,.82,2.75,1.1,4.4-24.74-5.22-59.11-8.8-96.78-10.17l-.82-4.4Z"/>
      <path class="cls-3" d="M170.46,691.19l.55,4.4c-54.71-1.92-100.08-7.15-124.27-15.4l-1.1-4.4-.27-.27c25.29,8.8,73.13,14.02,125.1,15.67h0Zm-14.57-126.2l.28,4.12c-67.36-2.2-120.15-9.07-141.59-18.97-.55-.28-.83-.55-1.37-.82l-.55-3.85c22.82,10.72,78.91,17.05,143.24,19.52h0Zm-3.57-45.09l.28,4.4c-72.03-1.1-126.47-4.67-145.17-10.45l-.28-1.92c21.72,5.22,78.63,6.87,145.17,7.97h0Zm-2.2-40.69v4.12c-59.39-.27-110.52-.83-146.54-1.92l-.27-1.92c37.94,.28,90.18-.27,146.82-.27h0Zm-1.37-43.44v4.67c-68.46,.82-128.12,2.47-147.64,8.52v-1.37c1.65-.82,3.85-1.65,6.6-2.47,21.17-5.5,74.23-8.25,141.04-9.35h0Zm-.28-45.91v4.67c-72.86,1.92-135.27,6.6-148.47,19.8,1.1-2.75,5.22-7.42,10.45-9.9,21.17-9.9,72.58-13.2,138.02-14.57h0Zm1.37-51.14l-.27,4.4c-72.86,3.02-134.72,11-147.92,24.47,1.1-2.75,4.95-7.42,10.45-9.9,21.17-9.62,72.31-16.22,137.74-18.97h0Zm2.47-46.46l-.27,4.4c-71.48,2.75-132.24,11-145.17,24.47,.82-2.75,4.67-7.42,10.17-9.9,20.62-9.9,70.93-16.5,135.27-18.97h0Zm4.12-46.74l-.27,4.12c-67.91,2.75-126.2,11-140.77,23.92l.27-1.65c1.92-2.47,4.67-5.5,8.52-7.15,20.07-9.9,69.28-16.77,132.24-19.25h0ZM20.35,584.24v-.27c23.09,10.45,77.53,16.77,139.12,18.97l.55,4.12c-65.98-2.2-117.67-8.8-138.84-18.97l-.82-3.85Zm10.72,43.17v-.28l-1.1-3.57c19.52,11.55,73.13,18.42,134.17,20.62l.55,4.4c-62.14-2.47-111.07-9.07-130.59-19.25-1.1-.55-1.92-1.1-3.02-1.92h0Zm-3.02-399.48c1.1-2.75,4.4-7.42,9.35-9.9,18.7-10.17,65.16-16.77,124.55-19.25l-.55,4.4c-65.43,2.75-121.52,11-133.34,24.74h0Z"/>
      <path class="cls-8" d="M15.4,560.59c23.92-58.01,92.65-158.64,180.08-230.12,64.06-52.24,138.84-93.75,202.35-116.57v.55l.28,.82,1.65,4.4,.27,.82,.28,.55,.27,.82v.55l.28,.83,1.1,3.3,.28,.55,.27,.55,.27,.83v.55l.28,.82,1.65,4.67v.55l.28,.82,.27,.55,.27,.82,1.1,3.85,.27,.82v.55l.28,.55,.27,.83c.55,1.65,1.1,3.57,1.65,5.5v.82l.27,.28,.28,.82,1.1,4.95,.27,.28c-135.54,53.89-279.34,172.66-387.66,340.92v-.55l-.27-.55v-.55l-.28-.55v-.55l-.82-3.02v-.55l-.27-.55v-.55l-.28-.55v-.55l-.27-.55v-.55l-.28-.55v-.82l-.55-2.75-.28-.55-.55-3.02-.27-.55v-.55l-.28-.55v-1.1l-.28-1.1-.27-.55v-.55l-1.37-5.77v-.82c-.55-2.47-1.1-4.95-1.65-7.42v-.55Z"/>
      <path class="cls-11" d="M186.96,155.06C108.6,232.6,.55,425.33,8.25,520.18c-3.3-23.09-7.42-56.36-7.97-86.06,3.85-83.03,42.34-150.67,85.23-211.15,11.55-15.95,24.74-29.69,35.19-41.52,8.52-9.62,16.77-17.6,24.19-23.92,13.47-1.37,28.04-2.75,42.07-2.47h0Z"/>
      <path class="cls-1" d="M186.96,155.06c-16.5,16.22-34.37,37.94-52.24,62.69-5.5-11.27-9.35-23.92-12.37-37.94,7.97-8.8,15.4-16.5,22.54-22.27,13.47-1.37,28.04-2.75,42.07-2.47h0Z"/>
      <path class="cls-8" d="M232.32,302.43c54.71-38.77,113.82-70.11,165.51-88.53,2.47,7.15,4.95,14.57,7.15,21.99,.55,7.7,1.1,15.12,1.37,22.82-51.41,20.9-103.93,50.86-155.34,89.63-6.32-14.85-12.65-30.24-18.7-45.91h0Z"/>
      <path class="cls-11" d="M163.31,358.79c10.45-9.9,21.17-19.25,32.17-28.32,64.06-52.24,138.84-93.75,202.35-116.57,4.95,14.02,9.35,28.32,13.2,42.62-83.58,33.27-169.91,90.73-249.09,169.36-.27-7.15-.27-14.57-.27-22,0-15.4,.55-30.52,1.65-45.09h0Z"/>
      <path class="cls-1" d="M263.39,281.53c36.84-23.64,74.51-43.71,109.97-58.29,2.75,14.57,5.22,30.24,7.42,46.46-39.32,18.15-78.91,41.79-118.22,70.11,0-20.07,.28-39.59,.82-58.29h0Z"/>
      <path class="cls-18" d="M196.85,154.79c-2.47-8.8-8.8-37.94-7.97-54.44C193.01,63.51,202.63,6.05,249.64,.27c1.37,0,4.95-.27,9.07-.27,5.5,6.87,22.54,14.57,19.25,27.22-9.62-.83-18.42-.27-25.29,3.3-26.94,14.3-39.32,46.46-42.07,73.68-1.65,15.4-4.67,36.02-3.02,43.17l.27,.55-11,6.87Z"/>
      <path class="cls-9" d="M189.98,91.28C194.65,54.99,205.93,6.32,247.99,.55c7.7,7.42,15.95,17.6,20.62,26.12-4.4,.28-9.9,.82-13.2,2.47-28.32,13.2-41.52,45.64-44.54,73.68-7.15-2.75-14.02-6.6-20.9-11.55h0Z"/>
      <path class="cls-13" d="M204,36.84c5.5-12.1,13.2-22.27,23.92-29.14,8.25,7.97,16.22,16.5,23.09,23.64-11.27,6.32-19.8,15.95-26.12,26.94-6.6-5.22-13.75-12.37-20.9-21.44h0Z"/>
      <path class="cls-16" d="M193.83,154.51c12.92,4.12,70.11,1.65,87.15-1.92,29.14-6.32,57.19-22,60.21-39.32,1.1-6.87,1.1-13.47,.27-19.8-2.47-20.07-9.07-25.57-9.07-25.57-1.92,29.42-16.22,48.66-44.54,62.14-15.95,7.7-80.28,12.65-100.35,13.2l6.32,11.27Z"/>
      <path class="cls-20" d="M185.58,152.86c7.15-16.22,28.04-43.99,49.49-65.98,23.37-23.92,64.34-52.51,91-27.49,18.15,17.05,15.95,41.79,15.95,41.79-4.67-9.9-9.9-16.22-15.12-19.8-22.82-15.95-73.41,17.87-93.48,37.12-15.12,14.3-29.14,30.52-35.74,42.07l-12.1-7.7Z"/>
      <path class="cls-6" d="M226,96.5c3.02-3.3,6.05-6.6,9.07-9.62,17.05-17.32,42.62-36.84,65.71-37.12l8.8,27.49c-23.09,1.37-54.44,21.99-71.76,37.39-6.6-2.47-11-7.7-11.82-18.15h0Z"/>
      <path class="cls-13" d="M257.34,67.63c9.62-7.15,20.07-12.92,30.52-15.95,4.12,12.1,4.67,22.27,4.12,29.69-9.62,3.3-19.8,8.52-29.14,14.57l-5.5-28.32Z"/>
      <path class="cls-17" d="M193.83,154.51c12.92,4.12,70.11,1.65,87.15-1.92,15.95-3.57,31.62-9.62,43.17-17.6l-11.82-21.17c-6.32,6.32-14.57,11.55-24.47,16.22-15.95,7.7-80.28,12.65-100.35,13.2l6.32,11.27Z"/>
      <path class="cls-18" d="M181.73,159.74c-12.92,.55-96.78-45.64-91.28-73.13,1.1-5.22,3.02-10.45,5.22-15.12,7.7-14.57,14.57-17.32,14.57-17.32-7.42,22.82,5.77,37.12,23.37,53.61,9.9,9.62,42.07,34.09,56.91,38.77l-1.37,10.17-7.42,3.02Z"/>
      <path class="cls-20" d="M196.03,150.66c-.83-14.02-8.52-39.87-18.42-61.31-10.45-23.09-32.99-53.89-60.21-40.42-18.7,9.07-24.19,28.59-24.19,28.59,6.32-6.6,11.82-10.45,17.05-12.1,21.99-7.15,50.31,29.69,59.66,48.66,7.15,14.02,14.02,33.82,15.67,43.99l10.45-7.42Z"/>
      <path class="cls-6" d="M181.73,98.7c-1.37-3.02-2.75-6.05-4.12-9.35-7.42-16.5-21.17-37.12-38.49-42.34l-14.57,19.25c17.05,6.05,34.64,28.32,43.17,43.44,5.5,0,10.45-3.3,14.02-11h0Z"/>
      <path class="cls-13" d="M166.61,69.83c-5.22-7.15-11.27-14.02-18.15-18.42-6.6,8.25-10.17,15.95-11.82,21.44,6.32,4.67,12.37,11,17.87,17.6l12.1-20.62Z"/>
      <path class="cls-19" d="M114.1,122.35c-15.12-12.37-25.84-25.57-23.64-35.74,1.1-5.22,3.02-10.45,5.22-15.12,7.7-14.57,14.57-17.32,14.57-17.32-5.77,17.87,1.37,30.79,12.92,43.44-4.67,6.05-6.6,13.75-9.07,24.74h0Z"/>
      <path class="cls-20" d="M131.69,45.64c-4.67-.27-9.35,.83-14.3,3.3-18.7,9.07-24.19,28.59-24.19,28.59,6.32-6.6,11.82-10.45,17.05-12.1,7.42-2.47,15.4,0,23.09,5.22,0-7.7-.55-16.5-1.65-25.02h0Z"/>
      <path class="cls-6" d="M132.79,55.54l-8.25,10.72c3.02,.82,6.05,2.47,8.8,4.4,0-4.67-.28-9.9-.55-15.12h0Z"/>
      <path class="cls-19" d="M236.99,162.49c-6.87-10.72-27.49-14.85-41.24-8.8-.83,.55,3.02,4.12-.55,6.05-2.75,1.37-9.9-.55-9.62-2.2,2.47-3.3,2.47-12.92,6.6-14.85,9.62-4.12,19.8-4.12,35.19-3.3l9.62,23.09Z"/>
      <path class="cls-5" d="M192.18,142.69c12.92-3.3,24.47-.55,37.39,13.75,13.47,15.4,12.92,33.27,16.5,67.63,13.2,1.65,16.5-6.05,32.17-1.92-1.92-22.82-5.5-43.17-18.15-60.21-20.35-26.67-45.36-29.97-67.91-19.25h0Z"/>
      <path class="cls-10" d="M232.32,159.74c6.87,9.62,9.35,20.35,11,35.74,11.55,3.3,23.09,4.67,31.62,3.02-2.47-13.47-6.87-25.57-14.85-36.57-2.2-2.47-4.12-4.95-6.32-7.15-6.05-.28-14.3,1.65-21.44,4.95h0Z"/>
      <path class="cls-8" d="M179.81,688.44c21.99-36.02,248.54-273.56,250.74-268.89v-2.47c-20.62,3.02-35.47,6.6-61.86,14.02-68.18,58.01-216.1,224.62-262.56,281.54,14.3,3.57,29.69,6.05,44.26,7.97,7.97-8.8,25.84-26.94,29.42-32.17h0Z"/>
      <path class="cls-11" d="M220.77,638.4c59.11-65.43,140.22-151.22,209.78-218.85,0-16.5-.27-32.99-1.37-49.21-72.86,68.73-154.51,143.79-217.75,221.05-2.2,13.2,3.85,37.39,9.35,47.01h0Z"/>
      <path class="cls-1" d="M315.08,536.95c26.12-27.77,53.34-55.81,80.01-82.21,.55-3.85,1.1-7.7,1.37-11.55,1.65-14.57,1.1-28.59-.55-40.97-34.64,31.89-69.56,65.43-103.1,99.53-18.42,20.62-9.62,50.59-7.15,66.26,2.47-2.47,23.64-25.84,29.42-31.07h0Z"/>
      <path class="cls-11" d="M257.62,723.08c54.16-35.19,109.42-81.93,149.84-126.75-5.22,21.17-11,42.62-17.87,64.06-17.32,17.6-37.12,34.64-57.74,50.31-23.64,6.32-50.86,10.45-74.23,12.37h0Z"/>
    </g>
  </g>
</svg>