<?xml version="1.0" encoding="UTF-8"?>
<svg id="Layer_2" data-name="Layer 2" xmlns="http://www.w3.org/2000/svg" viewBox="0 0 517.15 643.32">
  <defs>
    <style>
      .cls-1 {
        fill: #51ab19;
      }

      .cls-1, .cls-2, .cls-3, .cls-4, .cls-5, .cls-6, .cls-7, .cls-8, .cls-9, .cls-10, .cls-11, .cls-12, .cls-13, .cls-14, .cls-15, .cls-16, .cls-17, .cls-18, .cls-19, .cls-20, .cls-21, .cls-22, .cls-23, .cls-24, .cls-25, .cls-26 {
        fill-rule: evenodd;
      }

      .cls-2 {
        fill: #4b9914;
      }

      .cls-3 {
        fill: #f25454;
      }

      .cls-4 {
        fill: #90c95f;
      }

      .cls-5 {
        fill: #ff6985;
      }

      .cls-6 {
        fill: #73b33b;
      }

      .cls-7 {
        fill: #4d9c14;
      }

      .cls-8 {
        fill: #e03636;
      }

      .cls-9 {
        fill: #c72424;
      }

      .cls-10 {
        fill: #75b83b;
      }

      .cls-11 {
        fill: #e55372;
      }

      .cls-12 {
        fill: #fc6d8c;
      }

      .cls-13 {
        fill: #68874d;
      }

      .cls-14 {
        fill: #ff7891;
      }

      .cls-15 {
        fill: #ff9197;
      }

      .cls-16 {
        fill: #65ab28;
      }

      .cls-17 {
        fill: #d11414;
      }

      .cls-18 {
        fill: #fc6283;
      }

      .cls-19 {
        fill: #56ab19;
      }

      .cls-20 {
        fill: #7ec219;
      }

      .cls-21 {
        fill: #d8395b;
      }

      .cls-22 {
        fill: #6db330;
      }

      .cls-23 {
        fill: #5da321;
      }

      .cls-24 {
        fill: #7bba43;
      }

      .cls-25 {
        fill: #73a845;
      }

      .cls-26 {
        fill: #99253b;
      }
    </style>
  </defs>
  <g id="_Layer_" data-name="&amp;lt;Layer&amp;gt;">
    <g>
      <path class="cls-2" d="M254.04,214.15c-8.52-1.1-61.04-26.94-103.1-51.14-38.77-21.99-70.38-41.79-33.82-58.84-18.15,1.92-38.77,9.35-44.81,25.02-1.65,4.4-3.02,9.35-1.65,15.67,.83,2.47,1.37,4.67,2.47,7.15,13.2,26.39,63.24,56.09,177.33,76.71-.27-5.77,3.57-8.52,3.57-14.57h0Z"/>
      <path class="cls-23" d="M439.62,122.32c6.6,3.57,13.75,11.82,16.5,18.15,6.32,15.67,6.32,31.89-15.95,47.29-15.12,11-39.32,23.37-67.63,31.07-39.87,10.72-81.38,12.37-110.52,11.82-5.5,3.85-7.15-.27-10.17-8.52,48.11-14.3,108.32-26.94,148.47-48.94,16.22-8.8,28.87-19.25,37.12-31.89,4.4-6.6,6.6-11.82,2.2-18.97h0Z"/>
      <path class="cls-16" d="M441.55,186.65h-.27c-18.7,14.85-51.41,27.77-85.23,37.12-19.52-4.95-26.94-15.67-23.37-23.37,37.94-11.82,73.13-25.29,94.3-46.74,1.1,.55,0-.82,3.3,2.2s11.82,19.25,11.27,30.79h0Z"/>
      <path class="cls-6" d="M430,194.35c-4.12,2.75-9.07,5.22-13.75,7.7-6.32-6.6-16.77-18.15-25.57-23.64,6.6-3.02,12.65-6.32,18.42-10.17,5.77,5.77,16.22,18.42,20.89,26.12h0Z"/>
      <path class="cls-7" d="M277.14,16.47c-50.31,2.75-50.04,2.47-59.39,21.99-2.2,3.57-4.4,7.7-6.05,12.1-7.7,22.82-4.95,54.99-.83,87.98,4.4,32.44,9.62,64.88,19.52,85.23,3.02,3.85,6.87,3.02,17.05,1.92-2.75-43.99-8.52-90.18-5.5-134.44,2.2-31.89,5.22-62.14,35.19-74.78h0Z"/>
      <path class="cls-16" d="M336.25,29.11c11.82,8.25,15.4,19.52,12.65,34.37-3.85,21.44-17.05,45.64-39.32,83.86-12.92,22.54-33.54,57.19-46.46,81.38l-18.15-1.92c16.22-36.29,36.57-84.13,52.24-124.27,12.37-32.72,18.97-44.54-18.42-65.71-21.99-12.37-41.52-12.1-67.08,13.75C217.47,25.54,247.17,2.72,269.16,.25c14.57-1.65,34.37,4.67,67.08,28.87h0Z"/>
      <path class="cls-24" d="M336.25,29.11c5.22,3.57,8.52,7.7,10.72,12.37-12.92,16.5-27.22,27.22-40.97,35.19,3.3-15.12-1.92-25.57-27.22-39.87-1.37-.55-3.02-1.65-4.67-2.2,4.12-13.2,8.8-24.74,14.3-31.89,12.37,3.57,27.77,11.55,47.84,26.39h0Z"/>
      <path class="cls-4" d="M295.83,48.09c-3.57-3.02-8.25-6.05-13.75-9.35,3.85-13.2,8.8-25.29,13.75-33.54,8.25,3.02,17.6,8.25,29.14,15.67-10.72,10.17-20.9,18.97-29.14,27.22h0Z"/>
      <path class="cls-7" d="M266.69,239.44c-15.12-11.82-10.17-33.54-12.92-56.36-3.02-24.47-13.47-50.59-35.19-73.41-22.82-23.92-43.99-37.67-90.45-34.92,4.95-6.87,11.82-17.87,17.05-24.74l-20.62-23.09s47.56-4.67,92.65,31.89c87.43,70.93,44.81,133.34,70.38,179.26l-20.89,1.37Z"/>
      <path class="cls-16" d="M253.77,182.53c-3.02-24.19-13.47-50.04-35.19-72.86-17.32-18.15-31.89-28.87-58.29-31.62-8.25-1.1-26.39-1.65-37.67-1.1,4.95-6.87,15.4-21.44,20.35-28.32l-18.42-21.72s47.56-4.67,92.65,31.89c29.97,24.47,45.09,47.84,51.96,69.83-1.37,21.45-7.97,41.52-15.4,53.89h0Z"/>
      <path class="cls-22" d="M242.77,145.14c-5.77-12.65-13.75-24.47-24.19-35.47-11.27-11.82-21.44-20.35-34.09-25.57-.55-10.45,1.37-22.82,6.6-38.49l1.1-3.02c7.97,4.12,16.5,9.35,25.02,16.22,19.8,15.67,32.44,31.07,41.24,45.91-4.4,15.95-10.45,30.52-15.67,40.42h0Z"/>
      <path class="cls-20" d="M218.02,108.85c-8.25-8.25-15.67-14.85-23.64-19.8,1.65-9.07,5.22-20.62,11-36.02l1.1-2.2c3.3,2.47,6.87,5.22,10.72,7.97,5.22,4.4,9.9,8.52,14.3,12.65-4.12,12.92-9.07,26.12-13.47,37.39h0Z"/>
      <path class="cls-7" d="M268.06,212.5c15.67-26.94,33.82-52.79,58.56-78.91,9.62-9.62,20.07-19.25,33.54-28.04,10.45-6.6,21.72-13.47,29.42-14.85,28.04-4.95,47.84,12.65,59.39,29.14,9.07,12.37,14.3,26.39,11.27,39.59-.55,1.92-.82,4.67-3.3,9.07,3.85-9.07-.55-23.92-9.07-31.89-13.2-11.27-37.39-16.5-61.86-3.02-9.62,5.77-21.17,14.3-33.27,23.09-34.92,26.67-50.04,48.11-65.71,64.06l-18.97-8.25Z"/>
      <path class="cls-1" d="M339.55,121.22c6.05-5.5,12.92-10.45,20.62-15.67,3.57-1.92,6.87-4.4,10.45-6.32,4.4-2.2,8.25-4.67,11.55-6.05,1.92-.83,3.57-1.1,5.22-1.65,20.35-5.77,51.14,29.14,53.34,40.14-13.75-7.7-34.09-9.35-54.71,1.92-5.5,3.3-11.27,7.15-17.6,12.1-10.45-4.4-20.35-11.82-28.87-24.47h0Z"/>
      <path class="cls-10" d="M370.61,99.22c1.92-.82,5.77-3.3,8.8-4.67,1.1-.82,2.47-1.1,2.75-1.37,22.27,4.4,37.12,22.27,41.79,32.72-6.32-.55-13.2-.55-19.8,1.1-2.75-4.95-12.65-16.22-33.54-27.77h0Z"/>
      <path class="cls-19" d="M236.44,215.8c-1.37-15.95-67.63-80.83-116.3-90.45-20.89-4.4-53.06-3.57-47.01,26.67-3.02-6.6-4.12-12.92-3.3-19.25,1.1-8.52,20.9-27.22,23.37-29.42,20.35-21.45,60.49-19.25,106.68,25.84,20.35,19.52,50.31,58.01,59.94,84.41-7.7,1.65-16.22,.55-23.37,2.2h0Z"/>
      <path class="cls-22" d="M157.81,140.74c-12.92-7.42-25.57-13.2-37.67-15.4-1.37-.27-3.02-.55-4.67-.82,4.67-6.05,14.02-18.7,25.29-32.44,12.92,3.3,26.94,10.17,42.07,21.99-7.42,10.45-18.42,23.64-25.02,26.67h0Z"/>
      <path class="cls-20" d="M145.99,134.42c-3.02-1.38-5.77-2.75-8.52-3.85,4.4-6.32,13.2-17.6,23.64-30.52,3.3,1.65,6.6,3.57,9.62,5.5-6.05,10.17-17.32,23.64-24.74,28.87h0Z"/>
      <path class="cls-26" d="M2.75,306.52v-.27c.82-17.87,114.37-35.47,255.97-35.47s255.69,17.87,255.69,35.74c-.55,20.35-89.9,11-115.47,13.47-56.91,4.4-328.82,8.25-359.07,0-15.4-4.4-37.39-.82-37.12-13.47h0Z"/>
      <path class="cls-9" d="M500.38,604.01c-.55,21.99-116.57,39.32-234.52,39.32-123.45-.27-248.27-18.97-248.82-38.77L7.97,316.15c0-16.5,112.17-30.24,250.74-30.24s250.74,13.75,250.74,30.24l-9.07,287.86Z"/>
      <path class="cls-21" d="M2.75,306.52L0,254.84c0-17.32,115.2-39.32,257.07-39.32,47.01,0,91.28,3.3,130.04,7.15,24.19,2.2,45.36,6.32,64.34,9.62,40.14,7.15,65.71,14.57,65.71,22.54l-2.75,51.69c-12.1-16.22-122.07-29.69-255.69-29.69S15.12,290.3,2.75,306.52h0Z"/>
      <path class="cls-17" d="M462.99,624.63c-41.79,10.72-112.72,17.87-185.86,18.7l-1.37-357.14c83.03,.82,154.79,6.32,195.75,14.3l-8.52,324.15Z"/>
      <path class="cls-11" d="M275.76,215.8c53.34,.82,103.1,4.67,142.69,10.72,5.22,.55,9.9,1.65,14.3,2.47,14.57,2.47,27.49,4.95,40.42,7.42l-1.37,54.99c-42.62-7.97-114.1-13.75-196.03-14.57v-61.04Z"/>
      <path class="cls-8" d="M447.05,628.2c-31.07,6.32-72.58,11-117.95,13.47l-1.1-354.39c50.04,1.92,92.93,5.5,124.82,9.9l-5.77,331.02Z"/>
      <path class="cls-5" d="M328,217.72c49.49,2.75,92.93,8.25,125.92,15.12l-1.1,55.54c-32.44-4.95-75.33-8.52-124.82-10.45v-60.21Z"/>
      <path class="cls-3" d="M425.88,632.05c-15.4,2.47-32.99,4.67-51.41,6.32l-.55-348.62c20.07,1.37,38.22,2.75,54.44,4.4l-2.47,337.9Z"/>
      <path class="cls-14" d="M373.91,221.02c7.97,.82,15.12,1.65,22.82,2.47,11.27,1.37,21.99,3.02,32.17,4.95l-.27,56.91c-16.5-1.92-34.92-3.85-54.71-4.95v-59.39Z"/>
      <path class="cls-18" d="M51.14,326.32c10.72,0,20.35,12.65,20.35,28.59,.27,15.95-8.52,29.14-19.52,29.14s-20.34-13.2-20.62-29.14c-.27-15.95,8.8-28.59,19.8-28.59h0Z"/>
      <path class="cls-18" d="M152.59,485.23c12.37,0,22.27-12.92,22.27-28.87s-9.9-29.14-22.27-29.14-21.99,13.47-21.99,29.14,9.9,28.87,21.99,28.87h0Z"/>
      <path class="cls-18" d="M60.49,532.52c11,0,20.07,12.37,20.35,28.04,.55,15.95-8.52,28.59-19.52,28.59s-19.8-12.65-20.07-28.59c0-15.67,8.25-28.04,19.25-28.04h0Z"/>
      <path class="cls-12" d="M270.26,608.13c13.47,0,25.02-12.65,25.02-28.32s-11.55-28.87-25.02-28.87-25.02,13.2-25.02,28.87,11,28.32,25.02,28.32h0Z"/>
      <path class="cls-12" d="M268.61,366.46c14.02,0,25.57-12.92,25.57-28.59s-11.55-29.14-25.57-29.14-25.57,13.2-25.57,29.14,11.27,28.59,25.57,28.59h0Z"/>
      <path class="cls-15" d="M378.31,487.98c11.82,0,21.72-12.65,21.72-28.59s-9.9-28.87-21.72-28.87-21.72,12.92-21.72,28.87,9.62,28.59,21.72,28.59h0Z"/>
      <path class="cls-12" d="M473.17,326.05c11,0,19.52,12.65,19.25,28.59,0,15.95-9.07,29.14-19.8,29.14s-19.25-13.2-18.97-29.14c.27-15.95,9.07-28.59,19.52-28.59h0Z"/>
      <path class="cls-12" d="M465.19,534.17c10.45,0,18.7,12.37,18.7,28.04-.28,15.95-9.07,28.87-19.25,28.87s-18.42-12.92-18.42-28.87,8.8-28.04,18.97-28.04h0Z"/>
      <path class="cls-13" d="M118.77,222.94c-11.55,1.1-22.82,2.2-34.09,4.12l10.72,404.16c10.17,1.92,25.84,3.85,36.29,4.67l-12.92-412.95Z"/>
      <path class="cls-25" d="M418.45,226.52c11.82,1.92,24.74,4.12,36.02,6.32l-11.55,396.18c-6.87,1.37-23.09,4.12-33.54,5.5l9.07-408Z"/>
    </g>
  </g>
</svg>