<?xml version="1.0" encoding="UTF-8"?>
<svg id="Layer_2" data-name="Layer 2" xmlns="http://www.w3.org/2000/svg" viewBox="0 0 554.55 488.56">
  <defs>
    <style>
      .cls-1 {
        fill: #cae089;
      }

      .cls-2 {
        fill: #7c8f5b;
      }

      .cls-3 {
        fill: #bcd670;
      }

      .cls-4 {
        fill: #94ad4e;
      }

      .cls-5 {
        fill: #add656;
      }

      .cls-6 {
        fill: #aeca40;
      }

      .cls-7 {
        fill: #a6c76d;
        fill-rule: evenodd;
      }

      .cls-8 {
        fill: #a6cf4f;
      }

      .cls-9 {
        fill: #7c9439;
      }

      .cls-10 {
        fill: #b7d14d;
      }

      .cls-11 {
        fill: #a2c53c;
      }

      .cls-12 {
        fill: #88ab3e;
      }
    </style>
  </defs>
  <g id="_Layer_" data-name="&amp;lt;Layer&amp;gt;">
    <g>
      <polygon class="cls-4" points="277.14 0 351.09 18.7 554.55 56.64 549.87 422.85 353.29 466.84 277.14 488.56 277.14 0"/>
      <polygon class="cls-2" points="335.15 14.57 336.25 471.79 315.63 477.56 318.1 10.17 335.15 14.57"/>
      <polygon class="cls-4" points="277.14 0 332.67 11.55 332.67 474.27 277.14 488.56 277.14 0"/>
      <polygon class="cls-9" points="277.14 0 0 50.31 4.67 422.3 277.14 488.56 277.14 0"/>
      <polygon class="cls-12" points="138.57 25.02 101.73 31.62 101.73 445.95 138.57 454.74 138.57 25.02"/>
      <polygon class="cls-7" points="274.94 .28 274.66 488.01 277.14 488.56 278.79 488.29 279.33 .28 277.14 0 274.94 .28"/>
      <polygon class="cls-8" points="277.14 271.36 551.8 260.36 552.62 220.22 277.14 216.65 277.14 271.36"/>
      <polygon class="cls-5" points="277.14 271.36 335.42 269.16 335.42 217.2 277.14 216.65 277.14 271.36"/>
      <polygon class="cls-12" points="2.75 260.36 277.14 271.36 277.14 216.65 1.92 223.8 2.75 260.36"/>
      <path class="cls-11" d="M99.25,240.29c-8.52,54.44-24.19,106.95-53.61,154.51,12.92-4.95,26.12-9.9,39.32-15.12,28.32-45.64,29.14-94.3,27.49-143.24-4.4,1.37-8.8,2.47-13.2,3.85h0Z"/>
      <path class="cls-6" d="M76.16,332.12c-7.97,21.44-18.15,42.62-30.52,62.69,12.92-4.95,26.12-9.9,39.32-15.12,11-17.87,17.87-36.02,21.99-54.71-7.97-.55-18.7,1.37-30.79,7.15h0Z"/>
      <path class="cls-3" d="M69.56,348.62c-6.87,15.67-14.57,31.07-23.92,46.19,12.92-4.95,26.12-9.9,39.32-15.12,6.05-9.62,10.72-19.52,14.57-29.69-5.77-3.85-16.5-5.22-29.97-1.37h0Z"/>
      <path class="cls-11" d="M104.2,244.14c28.32,15.95,50.04,57.19,44.26,136.92,11.27-5.77,25.84,3.02,34.37-3.3,4.67-26.94-8.52-79.73-24.47-102.83-17.32-25.57-34.64-36.57-48.66-42.89-1.92,4.12-3.85,7.97-5.5,12.1h0Z"/>
      <path class="cls-6" d="M134.44,277.69c11.27,22.82,17.32,56.64,14.02,103.38,11.27-5.77,25.84,3.02,34.37-3.3,4.67-26.94-8.52-79.73-24.47-102.83l-.55-.82c-9.62-3.57-18.15-3.02-23.37,3.57h0Z"/>
      <path class="cls-3" d="M145.99,315.08c2.2,12.37,3.3,26.12,3.3,41.52,12.37,3.57,24.19,6.6,34.37,7.42,0-18.15-4.95-41.24-11.82-61.04-8.25,1.92-17.32,6.05-25.84,12.1h0Z"/>
      <path class="cls-6" d="M102.55,245.79c-11.82-.55-42.61-9.35-53.89-16.77-20.07-12.92-34.92-32.44-29.14-45.91,8.52-21.72,33.27-38.22,33.27-38.22-11.82,21.99-6.87,45.09,9.07,63.24,9.07,10.17,32.99,19.8,48.39,25.84l-7.7,11.82Z"/>
      <path class="cls-11" d="M42.62,224.9c-16.77-12.65-28.32-29.69-23.09-41.79,8.52-21.72,33.27-38.22,33.27-38.22-10.17,18.7-7.97,38.49,2.75,54.99-6.05,6.87-10.72,15.4-12.92,25.02h0Z"/>
      <path class="cls-3" d="M118.22,238.37c2.47-22.27-5.5-56.64-19.8-76.16-9.9-13.2-26.94-25.02-35.74-21.99-13.47,4.67-25.84,16.77-32.99,25.29-4.12,4.95-6.05,8.52-6.05,8.52,20.35-9.35,40.42-5.22,56.36,8.8,2.75,2.47,5.77,6.32,8.8,10.72,8.8,12.65,16.22,31.62,16.22,46.74l13.2-1.92Z"/>
      <path class="cls-1" d="M113.55,233.15c2.2-16.5-6.87-59.11-16.22-72.03-4.95-6.6-10.45-11.55-17.05-15.67-13.75,3.3-26.94,11.82-31.62,23.92,10.45,.83,20.62,6.32,29.42,14.3,3.02,2.47,6.05,6.05,9.07,10.45,4.95,7.42,15.12,39.32,18.15,48.66,6.05-1.38,3.57-6.32,8.25-9.62h0Z"/>
      <path class="cls-6" d="M108.32,234.52c-5.77-10.72-14.85-45.09-14.3-61.31,1.37-28.04,11-57.46,26.12-64.61,23.64-11.55,51.69-4.95,51.69-4.95-26.12,9.62-44.27,33.27-51.96,62.41-4.4,16.5-.55,45.09,2.2,63.23l-13.75,5.22Z"/>
      <path class="cls-11" d="M94.85,164.41c2.47-25.02,11.82-49.21,25.29-55.81,23.64-11.55,51.69-4.95,51.69-4.95-22.27,8.25-38.77,26.67-47.84,49.76-9.35,1.1-19.52,4.4-29.14,11h0Z"/>
      <path class="cls-3" d="M122.35,240.02c21.17-17.32,47.84-54.16,57.74-83.03,6.6-19.52,8.25-44.26,1.1-48.94-11.55-7.42-28.87-7.15-40.14-5.77-6.6,1.1-10.72,2.47-10.72,2.47,18.7,8.8,25.57,29.14,21.72,54.44-.82,4.67-2.47,10.45-4.95,17.05-6.87,18.42-20.07,41.24-33.54,54.16l-4.95,3.3,13.75,6.32Z"/>
      <path class="cls-10" d="M104.48,239.74c-1.92-1.1,2.2-7.15,2.75-7.7,1.65-1.65,11.82-.82,14.85,3.57,4.12,6.05-2.47,11.27-8.8,13.2-6.6,1.65-11.55-1.65-13.75-3.85-1.37-1.38,3.85-.83,4.95-5.22h0Z"/>
    </g>
  </g>
</svg>