<?xml version="1.0" encoding="UTF-8"?>
<svg id="Layer_2" data-name="Layer 2" xmlns="http://www.w3.org/2000/svg" viewBox="0 0 738.6 759.92">
  <defs>
    <style>
      .cls-1 {
        fill: #bf1919;
      }

      .cls-2 {
        fill: #f9c;
      }

      .cls-2, .cls-3, .cls-4, .cls-5, .cls-6, .cls-7, .cls-8, .cls-9, .cls-10 {
        fill-rule: evenodd;
      }

      .cls-3 {
        fill: #e276b4;
      }

      .cls-4 {
        fill: #ffbacf;
      }

      .cls-11 {
        fill: #d93b40;
      }

      .cls-12 {
        fill: #e04a4f;
      }

      .cls-5 {
        fill: #ffb2dd;
      }

      .cls-6 {
        fill: #c671aa;
      }

      .cls-7 {
        fill: #aa4d8f;
      }

      .cls-13 {
        fill: #de494e;
      }

      .cls-8, .cls-14 {
        fill: #ffb4da;
      }

      .cls-9 {
        fill: #ff99ae;
      }

      .cls-15 {
        fill: #c72525;
      }

      .cls-16 {
        fill: #d0242a;
      }

      .cls-10 {
        fill: #f573a3;
      }

      .cls-17 {
        fill: #d6242a;
      }
    </style>
  </defs>
  <g id="_Layer_" data-name="&amp;lt;Layer&amp;gt;">
    <g>
      <polygon class="cls-7" points="641.27 366.21 394.65 284.83 281.66 32.17 548.62 116.57 641.27 366.21"/>
      <polygon class="cls-6" points="251.41 43.17 294.58 .82 418.02 262.84 383.38 301.6 251.41 43.17"/>
      <polygon class="cls-3" points="642.65 397.56 681.96 357.14 417.75 262.84 383.38 301.6 642.65 397.56"/>
      <polygon class="cls-2" points="295.4 0 251.41 43.17 530.47 133.62 585.46 79.18 295.4 0"/>
      <polygon class="cls-10" points="682.51 357.42 642.65 397.56 530.47 133.62 585.46 79.18 682.51 357.42"/>
      <polygon class="cls-4" points="585.46 79.18 585.46 79.73 532.12 137.19 530.47 133.62 528 132.79 584.36 78.91 585.46 79.18"/>
      <polygon class="cls-14" points="251.69 43.44 252.51 45.09 254.44 45.91 528.55 137.19 640.45 397.01 642.65 397.56 530.47 133.62 251.41 43.17 251.69 43.44"/>
      <polygon class="cls-2" points="417.47 368.96 676.19 405.53 658.04 701.91 417.47 759.65 417.47 368.96"/>
      <path class="cls-5" d="M457.34,447.05l13.75,5.22-9.07,14.85,14.57,3.57-6.6,16.77-12.1-12.37-1.1,18.7-14.3-7.15,10.72-14.57-16.22-2.75,7.7-18.15,10.17,14.3,2.47-18.42Zm9.62,119.05l13.2,5.5-8.8,14.85,14.57,3.3-6.6,17.05-11.82-12.37-.82,18.7-14.85-7.42,11-14.3-16.77-2.75,7.7-18.15,10.72,14.3,2.47-18.7Zm95.95-37.94l13.2,5.22-9.07,14.85,14.85,3.3-6.6,17.6-11.82-12.92-1.1,18.7-14.57-7.15,11-14.3-16.77-3.3,7.7-17.87,10.45,13.75,2.75-17.87Zm89.35-66.53l13.2,5.5-9.07,14.57,14.57,3.3-6.6,17.6-11.82-12.65-.82,18.42-14.57-6.87,10.72-14.57-16.5-3.02,7.7-17.6,10.45,13.75,2.75-18.42Zm-74.78,159.74l13.47,5.22-9.07,15.4,14.57,3.02-6.6,17.32-11.82-12.65-1.1,18.42-14.3-7.15,10.72-14.02-16.5-3.3,7.7-17.87,10.17,13.75,2.75-18.15Zm-116.3,33.27l13.75,5.22-8.8,15.12,14.57,3.02-6.87,17.32-11.55-12.37-1.1,18.7-14.57-7.7,10.72-14.02-16.5-3.02,7.7-18.15,10.45,14.3,2.2-18.42Zm59.66,80.28l2.47-16.22,12.92,5.22-4.95,8.52-10.45,2.47Zm-17.87,4.4l6.87-16.5,9.62,12.37-16.5,4.12Zm156.44-61.31v1.65l-8.25,13.75,7.15,1.38-.27,7.15-8.25,2.2-2.2-2.75-.27,3.3-11.27,2.47,6.6-9.07-16.77-3.02,7.7-17.6,10.72,13.75,2.75-18.15,12.37,4.95Zm-192.73-299.96l10.45,1.65,3.02,4.12,.55-3.57,9.35,1.92-3.02,3.85,15.12,3.02-6.6,17.6-12.37-12.65-.82,18.7-14.57-7.42,10.72-14.3-16.22-3.02,4.4-9.9Zm114.92,30.79l13.2,5.22-9.07,15.4,14.85,3.02-6.6,17.32-11.82-12.65-1.1,18.7-14.57-7.42,10.72-14.02-16.5-3.3,7.7-17.87,10.45,13.75,2.75-18.15Z"/>
      <polygon class="cls-10" points="417.47 368.96 173.88 406.63 185.15 703.56 417.2 759.92 417.47 759.65 417.47 368.96"/>
      <polygon class="cls-8" points="413.9 369.79 416.37 759.65 417.2 759.92 417.47 759.65 421.6 369.79 417.47 368.96 413.9 369.79"/>
      <path class="cls-9" d="M365.51,396.18l-13.2,5.77,8.8,14.57-14.85,3.57,7.15,17.32,11.27-12.65,1.1,18.7,14.85-7.15-11.27-14.57,16.77-3.02-7.42-17.87-10.17,13.75-3.02-18.42Zm12.1,286.76l-13.75,5.22,9.62,15.4-15.12,3.02,6.6,17.32,12.1-12.65,1.1,18.7,14.3-7.42-10.72-14.02,16.77-3.3-7.97-18.15-10.45,14.3-2.47-18.42Zm-147.92-31.34l-13.47,5.22,9.35,15.12-15.12,3.02,6.87,17.32,11.82-12.65,1.1,18.7,14.57-7.42-10.72-14.02,16.22-3.3-7.7-17.6-10.17,13.47-2.75-17.87Zm85.23-39.87l-13.47,5.22,9.35,14.85-14.85,3.3,6.32,17.32,12.1-12.65,1.1,18.42,14.3-6.87-10.72-14.57,16.22-3.02-7.42-17.6-10.45,13.75-2.47-18.15Zm55.81-94.85l-13.2,5.5,9.07,14.85-14.57,3.02,6.32,17.6,12.1-12.92,1.1,19.25,14.3-7.7-10.72-14.3,16.22-3.3-7.15-17.6-10.45,13.75-3.02-18.15Zm-73.96-12.37l-13.2,5.5,8.8,14.85-14.57,3.3,6.87,17.05,11.55-12.37,1.1,18.7,14.85-7.42-11-14.3,16.22-2.75-7.42-18.15-10.45,14.3-2.75-18.7Zm-84.96,15.67l-13.75,5.22,9.07,14.85-14.57,3.3,6.6,17.6,11.55-13.2,1.65,18.97,14.57-7.42-11.27-14.57,16.77-2.75-7.7-17.87-10.45,14.02-2.47-18.15Zm13.2-101.73l-13.75,5.77,9.62,14.85-15.12,3.02,6.87,17.6,11.82-12.92,1.1,18.97,14.3-7.7-10.72-14.02,16.5-3.02-7.42-17.87-10.45,14.02-2.75-18.7Z"/>
      <path class="cls-1" d="M58.41,174.58c4.95,46.74,26.12,84.96,53.61,102,29.14,18.7,70.11,26.39,117.4,33.82,59.66,8.8,97.05,21.17,103.38,64.61,12.37,83.03-75.06,153.14-73.96,254.59,.27,21.72,5.22,43.71,13.2,62.14,.55,1.1,1.1,2.2,1.92,3.3,8.8,16.22,27.77,33.82,45.64,40.97l-56.36-13.47c-12.1-5.5-19.8-15.95-25.02-24.19-17.05-26.12-22.82-64.61-20.35-89.08,8.25-80.01,86.06-157.81,76.43-222.42-4.12-28.32-29.42-58.29-67.91-64.06-31.34-4.4-60.76-1.65-87.43-3.85C77.65,314.8,7.82,258.44,1.77,200.98l56.64-26.39Z"/>
      <path class="cls-15" d="M326.19,436.6c-19.8,59.11-68.18,117.4-67.36,193.01,.27,22.27,5.22,44.26,13.47,62.96-12.37-.55-25.84-1.37-38.77-2.47-13.2-25.57-17.87-58.84-15.67-80.83,6.05-58.56,49.49-116.02,68.46-167.71,10.45-.83,20.07-.83,27.77-1.92,4.12-.82,7.97-1.65,12.1-3.02h0ZM58.41,174.58c4.95,46.74,26.12,84.96,53.61,102,6.05,4.12,12.37,7.42,19.52,10.17-6.87,11.82-18.42,19.25-31.89,23.09C50.71,290.61,6.72,246.07,1.77,200.98l56.64-26.39Z"/>
      <path class="cls-16" d="M290.73,514.13c-15.95,7.15-32.72,14.02-50.31,22.54-11,23.92-19.8,48.39-22.54,72.58-.55,9.07-.55,19.52,1.1,30.79,9.62,1.65,23.64,3.02,31.34,1.65,5.77-1.37,9.07-1.37,8.8-3.3v-1.65c0-2.2-.27-4.67-.27-7.15-.27-42.89,14.85-80.56,31.89-115.47h0Z"/>
      <path class="cls-11" d="M58.41,174.58c3.3,31.62,14.57,59.11,29.42,79.46-4.95,17.05-14.02,28.87-25.29,36.02C30.09,267.24,5.62,234.25,1.77,200.98l56.64-26.39Z"/>
      <path class="cls-13" d="M283.03,530.9c-18.42,7.97-35.74,14.57-48.66,19.8-6.32,15.4-11.55,31.34-14.57,46.74l43.17-8.52c4.4-20.35,11.55-39.87,20.07-58.01h0Z"/>
      <path class="cls-12" d="M58.41,174.58c1.1,9.62,2.75,18.97,5.22,27.77-13.2,13.2-29.42,28.32-46.46,40.69-6.87-11.55-12.37-23.64-14.85-36.02-1.65-10.45-3.02-22.82-1.92-34.37,25.84-6.87,34.09-12.1,57.46-25.29l.55,27.22Z"/>
      <path class="cls-15" d="M550.27,727.76c15.4-24.19,36.84-80.28,41.24-118.77,32.44-197.95-142.69-72.58-81.11-229.85,28.59-58.56,80.83-152.31,177.88-119.6l49.76,50.86c-96.23-43.99-166.06,23.64-193.56,82.76-70.66,145.44,113.82,3.3,86.06,224.62-5.5,43.72-14.3,73.13-31.62,98.43l-48.66,11.55Z"/>
      <path class="cls-17" d="M529.1,343.67c31.07-53.61,80.01-110.8,159.19-84.13l19.25,7.42c9.07,20.34,15.95,26.39,31.07,43.44-70.11-31.62-126.2-4.95-162.21,34.92-3.85-1.1-7.15-2.2-10.72-3.02-14.85-3.85-26.39-3.02-36.57,1.37h0Zm37.39,351.37c11.27-26.94,21.99-60.49,25.02-86.06,6.32-37.39,4.95-63.51-.55-81.66,10.45-2.75,21.44-6.32,31.62-9.9,9.9,20.35,14.3,51.69,7.97,100.35-3.85,29.97-9.07,53.34-17.6,72.58-17.05,6.32-32.17,7.7-46.46,4.67h0Z"/>
      <path class="cls-12" d="M557.42,302.15c18.42,4.67,36.02,9.62,51.41,15.12,20.34-13.2,44.54-21.44,71.76-21.17-15.12-13.47-33.54-30.79-47.84-41.79-31.07,4.95-55.81,24.47-75.33,47.84h0Zm28.04,339c2.75-11.55,5.22-22.27,6.05-32.17,3.85-21.72,4.67-39.59,4.12-54.71l35.19-9.62c3.3,18.97,3.57,42.62-.27,73.13-1.1,6.6-1.92,12.65-2.75,18.42-14.85,2.47-29.97,3.85-42.34,4.95h0Z"/>
    </g>
  </g>
</svg>