<?xml version="1.0" encoding="UTF-8"?>
<svg id="Layer_2" data-name="Layer 2" xmlns="http://www.w3.org/2000/svg" viewBox="0 0 567.74 623.83">
  <defs>
    <style>
      .cls-1 {
        fill: #cc3;
      }

      .cls-1, .cls-2, .cls-3, .cls-4, .cls-5, .cls-6, .cls-7, .cls-8 {
        fill-rule: evenodd;
      }

      .cls-2 {
        fill: #dde368;
      }

      .cls-3 {
        fill: #e1e686;
      }

      .cls-4 {
        fill: #858515;
      }

      .cls-5 {
        fill: #707015;
      }

      .cls-6 {
        fill: #8a8a1e;
      }

      .cls-7 {
        fill: #b3b337;
      }

      .cls-8 {
        fill: #a6a62a;
      }
    </style>
  </defs>
  <g id="_Layer_" data-name="&amp;lt;Layer&amp;gt;">
    <g>
      <polygon class="cls-5" points="543 132.79 287.58 204 18.15 127.57 292.26 47.84 543 132.79"/>
      <polygon class="cls-6" points="1.65 147.37 0 95.95 290.06 177.61 290.33 222.15 1.65 147.37"/>
      <polygon class="cls-4" points="566.09 147.92 567.19 98.98 290.06 177.61 289.78 222.15 566.09 147.92"/>
      <polygon class="cls-8" points="0 94.58 1.65 147.37 289.78 64.61 288.68 0 0 94.58"/>
      <path class="cls-7" d="M266.96,70.93l20.62-5.77-12.37-17.05-26.67-35.19-20.07,6.87,38.49,51.14Zm-72.03,20.62l21.17-5.77-37.67-49.76-20.62,6.87,37.12,48.66Zm-72.03,21.17l21.17-6.32-35.74-47.01-20.62,6.6,35.19,46.74Zm-72.31,20.34l21.45-6.05-34.09-44.81-20.62,6.87,33.27,43.99Z"/>
      <polygon class="cls-1" points="567.74 98.7 566.09 147.92 289.78 64.61 288.68 0 567.74 98.7"/>
      <path class="cls-2" d="M293.08,65.71l-3.3-1.1-.55-27.77,23.37-28.59,20.89,7.7-40.42,49.76Zm75.06,22.54l-21.72-6.6,38.77-47.84,21.17,7.42-38.22,47.01Zm75.33,23.09l-21.99-6.87,36.29-44.54,21.17,6.87-35.47,44.54Zm75.06,22.55l-21.72-6.6,33.82-41.79,20.9,7.42-32.99,40.97Z"/>
      <polygon class="cls-3" points="291.98 1.1 291.43 65.16 289.78 64.61 286.76 65.43 286.48 .83 288.68 0 291.98 1.1"/>
      <polygon class="cls-1" points="279.88 151.77 556.75 211.7 532.55 563.34 280.16 623.83 279.88 623.83 279.88 151.77"/>
      <path class="cls-2" d="M539.97,457.77l-2.75,36.57-62.69,82.76-31.34,7.7,96.78-127.02Zm8.8-127.3l-2.75,37.12-178.43,235.34-31.89,7.7,213.08-280.16Zm3.02-119.87l4.95,1.1-1.92,29.14-274.94,360.99v-33.27L551.8,210.6Zm-75.33-16.22l22.27,4.95-218.85,287.03v-33.54L476.46,194.38Zm-75.06-16.5l21.72,4.67-143.24,188.06v-33.54l121.52-159.19Zm-75.33-16.5l21.72,4.95-67.91,89.35v-33.82l46.19-60.49Z"/>
      <polygon class="cls-8" points="279.88 151.77 18.97 213.08 36.29 564.72 279.88 623.83 279.88 151.77"/>
      <path class="cls-7" d="M31.89,474.54l1.92,36.02,50.31,65.71,31.07,7.42L31.89,474.54Zm-6.05-124l1.92,36.57,163.59,215.28,31.89,7.7L25.84,350.54Zm-6.05-123.45l1.92,36.29,258.16,340.1v-33.54L19.8,227.1Zm65.16-29.69l-21.72,5.22,216.65,285.11v-33.54L84.96,197.4Zm74.51-17.32l-21.72,4.95,142.14,187.23v-33.54l-120.42-158.64Zm74.51-17.87l-21.72,5.22,67.63,89.35v-33.82l-45.91-60.76Z"/>
      <polygon class="cls-3" points="278.24 152.04 279.88 623.83 280.16 623.83 283.18 152.32 279.88 151.77 278.24 152.04"/>
    </g>
  </g>
</svg>