<?xml version="1.0" encoding="UTF-8"?>
<svg id="Layer_2" data-name="Layer 2" xmlns="http://www.w3.org/2000/svg" viewBox="0 0 482.51 988.95">
  <defs>
    <style>
      .cls-1 {
        fill: #bf1919;
      }

      .cls-2 {
        fill: #e6353b;
      }

      .cls-3 {
        fill: #3dbaba;
      }

      .cls-3, .cls-4, .cls-5, .cls-6, .cls-7, .cls-8, .cls-9, .cls-10, .cls-11, .cls-12, .cls-13, .cls-14, .cls-15, .cls-16, .cls-17 {
        fill-rule: evenodd;
      }

      .cls-4 {
        fill: #b21839;
      }

      .cls-5 {
        fill: #4ebdbd;
      }

      .cls-6 {
        fill: #1fa3a3;
      }

      .cls-7 {
        fill: #73d1cc;
      }

      .cls-18 {
        fill: #e04a4f;
      }

      .cls-8 {
        fill: #237571;
      }

      .cls-19 {
        fill: #c22328;
      }

      .cls-20 {
        fill: #c71e23;
      }

      .cls-9 {
        fill: #ed4060;
      }

      .cls-21 {
        fill: #cc161c;
      }

      .cls-10 {
        fill: #4cbfb4;
      }

      .cls-22 {
        fill: #ed565b;
      }

      .cls-11 {
        fill: #ba1a3d;
      }

      .cls-23 {
        fill: #e8565a;
      }

      .cls-12 {
        fill: #ed768c;
      }

      .cls-13 {
        fill: #f5516f;
      }

      .cls-24 {
        fill: #e0343a;
      }

      .cls-14 {
        fill: #f55459;
      }

      .cls-15 {
        fill: #2d9c96;
      }

      .cls-16 {
        fill: #358c83;
      }

      .cls-17 {
        fill: #2e9999;
      }

      .cls-25 {
        fill: #d6242a;
      }

      .cls-26 {
        fill: #fc686d;
      }
    </style>
  </defs>
  <g id="_Layer_" data-name="&amp;lt;Layer&amp;gt;">
    <g>
      <path class="cls-2" d="M258.44,224.9c-21.44-69.83-85.78-139.39-133.89-150.12-20.35-4.4-38.77-4.4-53.34,8.8-6.6,6.05-16.5,16.22-18.42,28.32,77.26-24.47,166.06,52.79,189.43,118.77,4.4,.27,16.5,4.12,16.22-5.77h0Z"/>
      <path class="cls-23" d="M219.95,150.39c-28.32-38.77-64.88-69.01-95.4-75.61-2.2-.55-4.12-.82-6.05-1.1-12.65,9.9-20.35,22.27-19.52,34.92,35.47,4.95,70.11,25.84,97.33,52.51,9.35-1.65,16.77-5.77,23.64-10.72h0Z"/>
      <path class="cls-12" d="M153.96,87.43c-3.85-2.47-8.25-4.67-12.37-6.6-14.02,4.95-19.8,17.87-22.82,31.89,4.95,1.37,9.9,3.57,14.85,5.5,.55-1.92,1.37-3.85,2.2-5.5,4.67-9.07,11.27-17.32,18.15-25.29h0Z"/>
      <path class="cls-20" d="M208.13,238.92c-82.21-2.75-141.32-37.39-163.31-76.71-13.2-23.64-4.67-53.89,30.52-81.93-17.87,20.62-4.67,50.86,7.7,67.91,33.27,45.64,113,78.91,169.64,83.03-10.72,2.2-33.54,6.05-44.54,7.7h0Z"/>
      <path class="cls-1" d="M64.06,186.68c-8.25-7.7-14.57-16.22-19.25-24.47-13.2-23.64-4.67-53.89,30.52-81.93-17.87,20.62-4.67,50.86,7.7,67.91,.27,.55,.55,1.1,.82,1.1-7.15,13.75-13.2,26.94-19.8,37.39h0Z"/>
      <path class="cls-14" d="M254.32,236.17c24.19-6.6,48.11-17.87,69.56-31.07,45.09-28.59,79.18-68.46,80.56-99.25,.82-19.25-3.02-36.29-21.17-49.76-8.52-6.32-22.27-15.67-36.29-17.32,36.02,31.62,11.27,83.31-23.64,120.7-21.44,23.37-51.69,53.34-78.63,61.86,.28,4.12-1.65,15.12,9.62,14.85h0Z"/>
      <path class="cls-26" d="M290.88,223.25c11.27-5.5,22.27-11.55,32.99-18.15,24.19-15.4,44.81-33.54,59.11-52.51-5.5-9.62-17.87-19.25-33.27-28.32-7.15,12.37-16.22,24.47-26.39,35.19-13.2,14.3-29.14,30.52-45.91,43.44,3.57,9.35,8.25,15.67,13.47,20.34h0Z"/>
      <path class="cls-12" d="M337.07,196.03c9.62-6.6,17.87-13.47,25.29-20.9-7.97-7.15-19.8-17.05-29.69-26.39-3.02,3.57-6.32,7.15-9.35,10.72-2.47,2.75-5.22,5.77-8.25,8.52,5.22,10.72,14.02,20.35,21.99,28.04h0Z"/>
      <path class="cls-19" d="M226.82,225.45c-5.22-28.32-3.85-68.46,2.47-101.18,5.22-24.19,13.75-44.54,21.17-56.64,9.9-15.95,22.82-28.32,37.39-35.74,24.47-12.92,61.04-5.22,100.08,28.04-27.22-16.77-59.39-4.4-76.43,7.42-44.54,31.34-66.81,106.95-59.66,160.56-2.75,6.05-20.62,7.97-25.02-2.47h0Z"/>
      <path class="cls-20" d="M263.94,50.04c7.15-7.7,15.4-13.75,23.92-18.15,24.47-12.92,61.04-5.22,100.08,28.04-27.22-16.77-59.39-4.4-76.43,7.42-.28,.55-.82,.55-1.1,.83-16.77-6.32-32.99-12.1-46.46-18.15h0Z"/>
      <path class="cls-1" d="M281.26,35.47c2.2-1.37,4.4-2.75,6.6-3.57,6.32-3.57,13.2-5.5,20.9-6.05,17.87,8.8,31.07,18.42,40.42,26.67-6.6,.83-12.65,2.75-18.15,4.95-14.85-8.52-31.34-15.4-49.76-22h0Z"/>
      <path class="cls-25" d="M239.74,224.9c-.28-21.99,19.25-43.99,40.42-55.26,19.52-10.45,40.42-14.85,59.11-12.1,37.94,6.05,70.93,25.29,99.25,59.11l-40.42,28.04s-35.47-49.21-78.91-54.16c-9.62-.82-18.42,0-26.67,2.75-31.34,8.8-37.39,34.37-37.39,34.37l-15.4-2.75Z"/>
      <path class="cls-24" d="M301.61,160.56c12.65-3.57,25.57-4.67,37.67-3.02,28.04,4.4,53.61,16.22,76.43,35.74-10.17,7.7-26.67,17.87-43.44,24.19-13.75-12.1-32.72-24.47-53.06-26.94-5.77-.55-11.27-.27-16.5,.28-4.4-8.8-6.05-18.97-1.1-30.24h0Z"/>
      <path class="cls-22" d="M369.79,165.79c11,4.12,21.72,9.62,31.34,16.77-11.82,7.42-27.22,18.7-39.04,26.39-6.05-4.4-12.92-8.52-20.07-11.55,6.05-9.07,16.5-19.8,27.77-31.62h0Z"/>
      <path class="cls-19" d="M153.69,8.8L197.68,0c-13.2,78.36-23.37,132.79,43.99,233.15l-26.67-7.15c-33.27-31.62-52.24-71.48-63.79-112.45-10.17-36.02-7.42-72.31,2.47-104.75h0Z"/>
      <path class="cls-21" d="M153.69,8.8L197.68,0c-7.97,48.11-14.85,87.15-3.85,133.07-8.52,6.87-18.97,14.3-28.87,19.8-5.5-12.92-9.9-26.12-13.75-39.32-10.17-36.02-7.42-72.31,2.47-104.75h0Z"/>
      <path class="cls-25" d="M192.18,34.64c-3.57,24.19-5.5,46.74-3.02,70.66-11,3.85-25.02,8.52-36.84,11.55l-1.1-3.3c-6.6-23.64-7.97-47.29-4.95-69.83l45.91-9.07Z"/>
      <path class="cls-18" d="M189.71,53.89c-.82,7.7-1.1,15.12-1.37,23.09-9.9,3.57-26.67,10.17-41.51,14.3-1.65-9.07-2.2-18.42-1.65-27.22l44.54-10.17Z"/>
      <polygon class="cls-3" points="236.99 256.24 477.29 299.41 456.67 936.16 236.99 988.95 236.99 256.24"/>
      <path class="cls-5" d="M302.43,973.27l-65.43-54.44v-28.59l92.1,76.71-26.67,6.32Zm74.51-17.87l-139.94-117.4v-28.59l166.89,139.67-26.94,6.32Zm80.56-41.79l-.82,22.54-4.95,1.37-214.73-179.81v-29.14l220.5,185.03Zm2.47-78.36l-.82,27.77-222.15-185.86v-28.87l222.97,186.96Zm2.75-78.36l-.82,27.77-224.9-187.78v-29.14l225.72,189.16Zm2.47-78.91l-.82,28.04-227.37-189.71v-28.87l228.2,190.53Zm2.47-77.81l-.82,28.04-229.85-192.73v-28.59l230.67,193.28Zm2.75-78.63l-1.1,28.04-232.32-194.38v-28.87l233.42,195.2Zm-144.07-249.64l43.71,8.25,105.03,87.98-.82,28.04-147.92-124.27Zm-89.35-15.67l15.12,2.75,220.77,183.93-1.1,28.32-234.8-196.85v-18.15Z"/>
      <polygon class="cls-17" points="236.99 256.24 8.25 292.53 24.74 937.53 236.99 988.95 236.99 256.24"/>
      <path class="cls-6" d="M170.74,973l66.26-55.54v-28.59l-92.93,77.53,26.67,6.6Zm-74.78-18.15l141.04-117.95v-28.87l-167.71,140.22,26.67,6.6Zm-72.03-49.21l.82,28.32,212.25-177.33v-29.14L23.92,905.64Zm-1.92-78.63l.82,28.32,214.18-179.53v-28.87L21.99,827.01Zm-1.92-78.63l.55,28.04,216.37-180.63v-29.14L20.07,748.38Zm-2.2-78.91l.83,28.04,218.3-182.56v-28.59L17.87,669.47Zm-1.92-78.63l.83,28.04,220.22-184.48v-28.87L15.95,590.84Zm-1.92-79.18l.82,28.32,222.15-186.13v-28.59L14.02,511.66Zm134.44-241.67l-42.62,6.87L10.17,357.42l.55,28.04,137.74-115.47Zm88.53-13.75l-17.05,2.47L12.1,432.75l.55,28.32,224.35-187.78v-17.05Z"/>
      <polygon class="cls-15" points="236.99 256.24 477.29 299.41 476.74 323.6 236.99 287.58 236.99 256.24"/>
      <polygon class="cls-8" points="236.99 256.24 8.25 292.53 9.07 316.73 236.99 287.58 236.99 256.24"/>
      <polygon class="cls-10" points="236.99 222.15 482.51 266.41 481.41 318.65 236.99 281.53 236.99 222.15"/>
      <polygon class="cls-16" points="236.99 222.15 0 260.64 2.47 313.15 5.77 312.88 236.99 281.53 236.99 222.15"/>
      <path class="cls-7" d="M234.52,288.13l1.1,700.54,1.37,.27,1.37-701.09-1.37-.28-2.47,.55Zm-.83-65.44l.83,59.11,2.47-.27h1.65l.82-58.84-2.47-.55-3.3,.55Z"/>
      <polygon class="cls-4" points="82.76 246.89 118.22 241.39 135.27 964.2 100.35 955.95 82.76 246.89"/>
      <polygon class="cls-11" points="118.22 241.39 119.6 297.48 84.13 302.16 82.76 247.17 118.22 241.39"/>
      <polygon class="cls-9" points="391.51 249.92 356.87 243.59 339.55 964.48 373.91 956.23 391.51 249.92"/>
      <polygon class="cls-13" points="356.87 243.59 355.49 299.41 390.13 304.63 391.51 249.92 356.87 243.59"/>
    </g>
  </g>
</svg>