<?xml version="1.0" encoding="UTF-8"?>
<svg id="Layer_2" data-name="Layer 2" xmlns="http://www.w3.org/2000/svg" viewBox="0 0 497.36 756.77">
  <defs>
    <style>
      .cls-1 {
        fill: #f3b728;
      }

      .cls-1, .cls-2, .cls-3, .cls-4, .cls-5, .cls-6, .cls-7, .cls-8, .cls-9, .cls-10, .cls-11, .cls-12, .cls-13, .cls-14, .cls-15, .cls-16, .cls-17, .cls-18, .cls-19, .cls-20 {
        fill-rule: evenodd;
      }

      .cls-2 {
        fill: #ff7c9e;
      }

      .cls-3 {
        fill: #f3c628;
      }

      .cls-4 {
        fill: #b21839;
      }

      .cls-5 {
        fill: #f1d20d;
      }

      .cls-6 {
        fill: #b31b3e;
      }

      .cls-7 {
        fill: #b01733;
      }

      .cls-8 {
        fill: #f5d120;
      }

      .cls-9 {
        fill: #960c25;
      }

      .cls-10 {
        fill: #d7aa17;
      }

      .cls-11 {
        fill: #ed4060;
      }

      .cls-12 {
        fill: #db991f;
      }

      .cls-13 {
        fill: #f2c641;
      }

      .cls-14 {
        fill: #db921c;
      }

      .cls-15 {
        fill: #f2c02c;
      }

      .cls-16 {
        fill: #f5d661;
      }

      .cls-17 {
        fill: #f5a820;
      }

      .cls-18 {
        fill: #edc70f;
      }

      .cls-19 {
        fill: #e6b215;
      }

      .cls-20 {
        fill: #e02651;
      }
    </style>
  </defs>
  <g id="_Layer_" data-name="&amp;lt;Layer&amp;gt;">
    <g>
      <path class="cls-14" d="M214.45,144.48c-17.6-9.35-94.3-50.86-73.96-86.06,11.27-19.52,34.09-37.94,48.66-35.74-31.34,39.04,8.52,85.78,54.16,126.75l-28.87-4.95Z"/>
      <path class="cls-15" d="M264.76,151.08c-3.3-79.73-21.17-111.07-49.21-130.59-7.97-5.5-15.4-8.52-26.94-3.3-11.27,4.95-23.09,12.65-33.27,22.27-5.77,5.5-10.45,11.55-14.57,18.7,17.6-22.54,47.01-16.22,67.36,10.72,15.4,20.35,39.04,51.41,35.19,80.83l21.44,1.37Z"/>
      <path class="cls-8" d="M210.33,17.19c-6.32-3.3-12.65-4.12-21.72,0-11.27,4.95-23.09,12.65-33.27,22.27-5.77,5.5-10.45,11.55-14.57,18.7,6.32-8.52,14.3-12.92,23.09-13.75,16.5-12.65,34.92-25.02,46.46-27.22h0Z"/>
      <path class="cls-12" d="M265.59,157.68c7.15-2.75,53.34-19.25,78.91-38.49,28.87-20.62,36.84-35.74,30.24-50.04-9.35-20.89-34.92-40.97-50.86-37.94,14.02,17.32,26.39,26.67,15.67,47.01-12.37,23.37-37.12,46.46-85.51,70.66l11.55,8.8Z"/>
      <path class="cls-19" d="M241.94,151.63c-3.02-28.87,27.22-107.78,57.46-128.4,18.7-12.37,40.42,3.3,54.44,15.95,5.5,5.22,14.57,18.7,18.42,25.29-21.44-26.39-44.81-23.09-74.51,18.42-12.92,18.15-32.99,47.56-44.26,77.81l-11.55-9.07Z"/>
      <path class="cls-5" d="M310.13,19.11c7.97-1.37,16.22,1.1,23.64,5.22,3.3,6.32,7.7,13.47,13.2,20.62,.82,1.1,1.92,2.2,3.02,3.3-6.87-1.65-14.02-.55-21.44,3.57l-18.42-32.72Z"/>
      <path class="cls-14" d="M285.38,154.66c18.7,4.12,97.05,21.17,105.03-13.2,.55-2.75,1.1-5.77,1.1-8.8,0-3.57-.82-7.42-1.37-11.55-2.47-13.47-8.8-26.39-17.32-31.34,9.35,49.76-48.39,55.81-112.17,51.14l24.74,13.75Z"/>
      <path class="cls-13" d="M244.42,151.36c8.8-18.97,77.53-79.73,103.38-82.21,9.9-1.1,17.05,1.1,23.92,10.72,6.6,9.07,13.2,20.35,16.77,32.17,1.92,6.6,3.02,14.02,3.02,20.62-4.67-31.07-21.99-32.72-61.04-13.2-15.67,8.52-45.09,18.15-62.96,33.82l-23.09-1.92Z"/>
      <path class="cls-16" d="M344.22,69.7c1.37-.27,2.47-.55,3.57-.55,2.75-.27,5.5-.27,8.25,0,5.5,8.8,11.27,24.74,14.57,37.39-6.6-.27-14.57,1.92-25.29,6.05-.82-15.95-2.47-33.27-1.1-42.89h0Z"/>
      <path class="cls-12" d="M244.42,151.36c5.77-12.65,37.67-43.44,66.26-63.51-4.12,10.45-14.57,33.54-27.49,54.16-5.77,3.3-11,7.15-15.67,11.27l-23.09-1.92Z"/>
      <path class="cls-12" d="M215.55,165.38c-13.75,1.92-74.51-.55-96.78-18.97-1.92-1.65-4.4-3.85-6.05-6.32-2.75-3.85-4.4-8.52-3.85-12.37,2.75-21.44,17.05-47.29,31.62-52.51-6.87,21.72-10.17,28.87,4.12,43.71,6.32,7.42,24.19,15.95,37.39,20.89,15.67,6.05,25.57,11.55,47.84,13.47l-14.3,12.1Z"/>
      <path class="cls-19" d="M249.09,148.06c-4.12-16.5-25.29-47.84-48.39-69.01-19.8-18.15-41.79-28.87-55.81-15.4-10.45,9.9-22.27,24.47-29.42,40.69-3.02,6.87-5.22,14.02-6.32,21.99,13.47-46.19,53.61-37.94,119.05,29.69l20.89-7.97Z"/>
      <path class="cls-18" d="M179.53,63.38c-6.6-3.57-13.2-5.5-18.97-5.5l-29.97,40.69c7.42-2.2,16.22-1.65,26.12,2.2,.27-2.75,1.1-5.5,2.47-7.97,7.15-12.92,13.75-22.54,20.35-29.42h0Z"/>
      <path class="cls-12" d="M240.57,149.71c-3.3-6.32-31.34-57.74-39.32-87.98-8.8-33.54,2.75-46.19,14.02-53.06,17.05-9.07,45.36-12.37,54.99-.28-25.84-3.3-29.14-1.92-32.17,20.07-3.02,25.02,15.95,90.18,22.82,124l-20.35-2.75Z"/>
      <path class="cls-3" d="M263.94,152.73c0-8.25,6.05-19.8,10.45-33.54,10.17-31.34,21.72-72.86,14.57-97.05C282.63,1.52,260.09-.68,244.42,.14c-6.32,.28-18.97,4.4-25.29,6.6,27.77-6.05,35.74,8.52,35.19,57.74-.27,21.17-2.75,55.81-2.47,87.7l12.1,.55Z"/>
      <path class="cls-16" d="M282.36,11.14C273.01,.69,256.79-.41,244.42,.14c-6.32,.28-18.97,4.4-25.29,6.6,9.62-1.92,16.5-1.65,21.99,1.1,14.3-1.65,30.52-2.47,39.04,1.92,.82,.27,1.65,1.1,2.2,1.37h0Z"/>
      <path class="cls-1" d="M263.94,152.73c0-8.25,6.05-19.8,10.45-33.54,8.8-26.39,18.42-61.04,16.77-85.51-6.87-7.42-22.82-11.55-39.59-7.42,2.2,9.35,3.02,21.72,2.75,38.22-.27,21.17-2.75,55.81-2.47,87.7l12.1,.55Z"/>
      <path class="cls-17" d="M263.94,152.73c0-8.25,6.05-19.8,10.45-33.54,6.87-20.62,14.3-45.91,16.22-67.63,0-.55,0-1.1-.28-1.65-1.92-9.35-18.97-16.22-37.12-13.2,.82,7.42,1.1,16.77,1.1,27.77-.27,21.17-2.75,55.81-2.47,87.7l12.1,.55Z"/>
      <path class="cls-16" d="M192.18,71.63c-4.95-3.85-9.62-6.87-14.57-9.07-8.52,11.27-18.15,26.67-24.19,37.12,6.6,2.2,13.47,5.5,20.89,10.17,4.95-9.07,12.65-24.74,17.87-38.22h0Z"/>
      <polygon class="cls-11" points="242.49 213.77 488.56 251.16 467.39 702.05 243.59 756.77 242.49 213.77"/>
      <polygon class="cls-4" points="242.49 213.77 8.52 248.68 27.22 700.95 243.59 756.77 242.49 213.77"/>
      <polygon class="cls-7" points="242.49 213.77 488.56 251.16 487.46 264.36 242.49 242.09 242.49 213.77"/>
      <polygon class="cls-9" points="242.49 213.77 8.52 248.68 9.62 264.91 242.49 242.09 242.49 213.77"/>
      <polygon class="cls-20" points="241.94 139.53 497.36 178.58 493.24 258.86 242.77 236.59 241.94 236.59 241.94 139.53"/>
      <polygon class="cls-6" points="241.94 139.53 0 181.87 2.47 261.06 6.05 260.78 241.94 236.59 241.94 139.53"/>
      <polygon class="cls-10" points="133.89 158.51 84.41 167.3 98.15 719.1 148.19 732.57 133.89 158.51"/>
      <polygon class="cls-3" points="362.09 157.41 411.58 165.1 397.01 719.38 349.17 731.47 362.09 157.41"/>
      <path class="cls-2" d="M240.57,242.36l3.02,359.62V242.09h-1.1l-1.92,.28Zm-1.65-102.28l1.37,96.78,2.2-.27h1.65v-96.78l-2.2-.27-3.02,.55Z"/>
    </g>
  </g>
</svg>