<?xml version="1.0" encoding="UTF-8"?>
<svg id="Layer_2" data-name="Layer 2" xmlns="http://www.w3.org/2000/svg" viewBox="0 0 463.82 551.69">
  <defs>
    <style>
      .cls-1 {
        fill: #64d4c9;
      }

      .cls-1, .cls-2, .cls-3, .cls-4, .cls-5, .cls-6, .cls-7, .cls-8, .cls-9, .cls-10, .cls-11, .cls-12, .cls-13, .cls-14, .cls-15, .cls-16 {
        fill-rule: evenodd;
      }

      .cls-2 {
        fill: #218c87;
      }

      .cls-3 {
        fill: #15635f;
      }

      .cls-4 {
        fill: #44c7c7;
      }

      .cls-5 {
        fill: #d6a33e;
      }

      .cls-6 {
        fill: #90d6d2;
      }

      .cls-7 {
        fill: #48a39a;
      }

      .cls-8 {
        fill: #edcc68;
      }

      .cls-9 {
        fill: #bf943d;
      }

      .cls-10 {
        fill: #c59c4b;
      }

      .cls-11 {
        fill: #d6b040;
      }

      .cls-12 {
        fill: #e8c354;
      }

      .cls-13 {
        fill: #f5d575;
      }

      .cls-14 {
        fill: #ad9038;
      }

      .cls-15 {
        fill: #f7d776;
      }

      .cls-16 {
        fill: #2e9999;
      }
    </style>
  </defs>
  <g id="_Layer_" data-name="&amp;lt;Layer&amp;gt;">
    <g>
      <path class="cls-5" d="M254.59,166.23c48.94-29.69,55.81-65.98,50.31-98.43-1.92-11.55-7.97-23.09-15.12-31.62-27.22-33.27-56.64-44.81-89.63-10.45,94.03,15.12,56.09,128.12,9.9,137.74,9.07,.27,35.47,2.47,44.54,2.75h0Z"/>
      <path class="cls-11" d="M204.55,167.33c-18.15-22.27-25.57-68.46-19.8-100.9,4.12-23.64,10.17-41.24,21.17-51.96,20.35-20.62,50.31-16.77,82.76,20.62-32.72-1.1-92.65,35.47-58.56,124.27-9.35,.55-16.22,7.42-25.57,7.97h0Z"/>
      <path class="cls-8" d="M196.58,27.67c2.47-3.85,4.95-8.25,7.15-11.27,22.82-26.39,50.31-21.45,84.96,18.7-15.12-.28-36.84,7.42-51.69,25.02-12.65-9.07-17.87-20.35-47.56-14.57,1.37-5.77,4.95-13.47,7.15-17.87h0Z"/>
      <path class="cls-15" d="M203.73,16.39c4.95-3.57,10.72-9.9,17.05-12.1,29.69,9.35,45.91,23.37,50.59,33.27-4.4,1.65-8.52,3.3-12.92,5.22-9.35-7.97-19.8-18.15-54.71-26.39h0Z"/>
      <path class="cls-10" d="M333.5,46.36c24.74,37.12,31.07,49.21,11.82,65.98-14.85,13.2-47.56,34.09-85.51,44.81l31.89,14.02c29.97-4.95,64.89-11.55,83.31-34.64,10.45-13.2,13.2-31.07,4.4-46.46-13.47-23.09-26.12-33.27-45.91-43.71h0Z"/>
      <path class="cls-12" d="M378.86,88.7c-29.42-33.27-56.64-18.42-118.22,75.06-12.37,8.52-28.04,1.1-21.72-11.82,2.47-23.09,11.27-53.61,32.99-81.38,7.97-10.17,21.17-18.42,29.97-23.37,13.75-7.42,28.32-7.97,42.89,1.1,10.45,6.87,15.67,12.65,20.62,18.97,4.67,6.32,9.07,12.92,13.47,21.44h0Z"/>
      <path class="cls-15" d="M378.86,88.7c-11.55-12.65-20.35-16.5-31.07-15.95-2.75-14.02-16.77-24.19-32.44-30.52,9.35-1.92,19.52-.28,29.42,6.05,10.45,6.87,15.67,12.65,20.62,18.97,4.67,6.32,9.07,12.92,13.47,21.44h0Z"/>
      <path class="cls-9" d="M133.34,42.24c-11.82,67.91,26.12,94.85,92.1,111.35-14.85,15.4-16.22-3.3-31.07,12.1-42.34,5.22-134.99-31.34-109.15-76.71,14.3-24.19,27.49-34.92,48.11-46.74h0Z"/>
      <path class="cls-12" d="M85.78,88.15c56.91-16.77,103.1,8.8,124,73.68,8.8,15.12,30.52,10.45,26.39-10.72,1.65-29.69-15.4-65.98-36.84-90.73-20.07-23.09-53.61-29.97-69.83-18.97-23.92,15.67-33.82,26.67-43.71,46.74h0Z"/>
      <path class="cls-13" d="M85.78,88.15c8.25-2.47,16.5-3.85,23.64-4.12,11.27-16.77,25.29-38.49,48.39-46.74-11-1.92-21.44-.55-28.32,4.12-23.92,15.67-33.82,26.67-43.71,46.74h0Z"/>
      <polygon class="cls-4" points="226.82 178.33 456.94 216.27 436.05 500.83 226.82 551.69 226.82 178.33"/>
      <polygon class="cls-16" points="226.82 178.33 7.97 210.22 24.47 498.91 226.82 551.69 226.82 178.33"/>
      <polygon class="cls-2" points="226.82 178.33 456.94 216.27 455.84 230.02 226.82 205.82 226.82 178.33"/>
      <polygon class="cls-3" points="226.82 178.33 7.97 210.22 8.8 227.54 226.82 205.82 226.82 178.33"/>
      <polygon class="cls-1" points="226.55 148.64 463.82 187.13 460.52 226.72 226.82 200.6 226.55 200.6 226.55 148.64"/>
      <polygon class="cls-7" points="226.55 148.64 0 182.18 2.2 221.77 5.5 221.5 226.55 200.6 226.55 148.64"/>
      <polygon class="cls-14" points="125.65 163.48 79.73 170.36 90.73 516.23 137.47 528.6 125.65 163.48"/>
      <polygon class="cls-12" points="336.8 166.23 382.71 174.21 366.22 517.88 326.35 527.77 336.8 166.23"/>
      <path class="cls-6" d="M224.9,206.1l1.92,345.59,1.1-345.59-1.1-.27-1.92,.27Zm-.82-57.19l.55,51.69h3.3l.55-51.69-1.92-.27-2.47,.27Z"/>
    </g>
  </g>
</svg>