<?xml version="1.0" encoding="UTF-8"?>
<svg id="Layer_2" data-name="Layer 2" xmlns="http://www.w3.org/2000/svg" viewBox="0 0 444.57 599.64">
  <defs>
    <style>
      .cls-1 {
        fill: #245e8a;
      }

      .cls-1, .cls-2, .cls-3, .cls-4, .cls-5, .cls-6, .cls-7, .cls-8, .cls-9, .cls-10, .cls-11, .cls-12, .cls-13, .cls-14, .cls-15, .cls-16 {
        fill-rule: evenodd;
      }

      .cls-2 {
        fill: #60c7db;
      }

      .cls-3 {
        fill: #43aecf;
      }

      .cls-4 {
        fill: #57afca;
      }

      .cls-5 {
        fill: #4580ad;
      }

      .cls-6 {
        fill: #32a0c2;
      }

      .cls-7 {
        fill: #4ba8c3;
      }

      .cls-8 {
        fill: #36a7c9;
      }

      .cls-9 {
        fill: #40a4c2;
      }

      .cls-10 {
        fill: #59bfde;
      }

      .cls-11 {
        fill: #3885a9;
      }

      .cls-12 {
        fill: #26829e;
      }

      .cls-13 {
        fill: #4fb6d6;
      }

      .cls-14 {
        fill: #299ec2;
      }

      .cls-15 {
        fill: #2f71a3;
      }

      .cls-16 {
        fill: #1d7da1;
      }
    </style>
  </defs>
  <g id="_Layer_" data-name="&amp;lt;Layer&amp;gt;">
    <g>
      <path class="cls-9" d="M394.26,205.93l5.77-42.89c-1.92-8.25-27.22-15.67-50.04-17.32-3.85-.55-7.97-.55-11.55-.82-29.97-.55-47.01,4.4-74.23,16.5-11.82,5.22-22.82,6.05-29.69,15.95-1.65,2.75,3.85,13.47,6.32,15.95,6.32-3.02,42.34-18.15,77.26-18.7,4.67,0,11,.82,17.6,1.92,20.9,3.02,47.56,10.17,58.56,29.42h0Z"/>
      <path class="cls-3" d="M373.09,149.29c-7.42-1.92-15.4-3.02-23.09-3.57-1.65-.27-3.02-.27-4.95-.55-.83,11-2.2,21.44-3.3,32.44,9.62,1.65,19.8,4.12,29.14,8.8,.83-12.1,1.65-24.47,2.2-37.12h0Z"/>
      <path class="cls-14" d="M357.14,146.54c-2.2-.55-4.67-.83-7.15-.83-3.3-.27-6.6-.55-9.62-.55l-3.57,31.62c5.77,.83,11.82,1.92,17.87,3.57,.83-11,1.65-22.27,2.47-33.82h0Z"/>
      <path class="cls-11" d="M165.79,191.08c-5.77-.27-24.19-1.92-44.26-7.42-16.77-5.5-32.99-10.72-45.64-17.05-17.32-8.52-27.77-22.27-25.29-31.62,6.05-23.92,25.29-50.86,41.24-54.71-12.37,23.64-15.95,35.74-1.1,51.41,18.15,18.15,66.81,36.02,107.22,52.79l-32.17,6.6Z"/>
      <path class="cls-4" d="M215.28,177.88c-12.65-9.62-29.97-41.79-48.66-62.96-28.04-31.62-49.76-58.29-77.26-39.59-11.55,7.42-21.17,21.44-28.87,34.92-4.12,7.97-7.7,15.95-9.9,24.19,17.6-41.24,43.71-32.72,88.53,1.1,15.95,12.1,29.69,34.92,52.79,50.31l23.37-7.97Z"/>
      <path class="cls-10" d="M127.02,75.88c-1.38-.82-3.02-1.65-3.85-2.47-3.85-1.92-7.7-3.02-9.35-3.3-9.07,12.92-15.67,23.64-24.47,37.39,2.75,.55,9.62,2.75,16.22,5.77,7.97-12.37,12.65-23.37,21.44-37.39h0Z"/>
      <path class="cls-11" d="M227.1,191.91c7.7-3.02,44.26-18.42,72.31-38.22,31.34-21.72,53.34-38.77,45.09-53.34-12.37-21.44-42.61-42.06-60.49-39.04,17.05,13.75,23.92,14.85,21.44,32.17-1.37,16.77-25.84,37.39-43.99,50.04-12.92,9.07-39.59,23.09-47.84,39.87l13.47,8.52Z"/>
      <path class="cls-8" d="M200.43,185.86c10.17-15.67,13.75-29.14,24.47-55.81,10.45-26.39,15.4-66.26,31.34-76.43,20.07-12.65,45.64,3.02,62.14,15.95,6.6,5.22,18.15,18.7,23.09,25.57-25.57-26.94-50.59-43.44-68.18,7.15-10.45,29.97-23.37,63.51-59.39,92.65l-13.47-9.07Z"/>
      <path class="cls-3" d="M244.14,69.83c3.3-7.42,7.42-12.92,11.82-16.22,11.82,6.6,24.19,13.75,34.92,19.8-4.4,3.02-8.52,8.52-12.37,16.22-12.1-6.87-23.37-13.47-34.37-19.8h0Z"/>
      <path class="cls-6" d="M194.1,181.73c-4.4-6.6,12.37-37.67-20.9-90.73-19.8-30.79-46.19-36.02-49.49-87.98L163.04,0c-6.87,39.04,31.34,55.26,46.19,93.2,23.09,57.46,4.4,76.71,8.25,93.2l-23.37-4.67Z"/>
      <path class="cls-13" d="M150.66,64.34c-9.35-9.9-17.87-19.8-23.09-36.57,12.1-2.2,24.19-4.4,36.57-6.32,3.57,12.37,11.82,23.37,20.9,34.37-11.82,3.02-23.37,6.05-34.37,8.52h0Z"/>
      <path class="cls-2" d="M140.77,53.06c-3.57-4.95-7.15-10.17-9.9-16.5,3.3-.82,28.32-2.75,36.57-6.32,2.2,4.4,4.95,9.07,7.7,12.92-11.55,3.57-23.64,6.87-34.37,9.9h0Z"/>
      <polygon class="cls-15" points="215.82 176.78 444.57 221.87 423.68 559.22 215.82 599.64 215.82 176.78"/>
      <polygon class="cls-4" points="336.8 200.43 367.31 206.48 360.72 571.59 333.77 576.82 336.8 200.43"/>
      <polygon class="cls-1" points="215.82 176.78 0 222.7 14.3 554.27 215.82 599.64 215.82 176.78"/>
      <polygon class="cls-12" points="93.75 572.14 125.37 579.29 115.75 197.95 85.23 204.55 93.75 572.14"/>
      <polygon class="cls-5" points="213.63 177.33 215 584.24 215.82 584.24 218.85 177.33 215.82 176.78 213.63 177.33"/>
      <polygon class="cls-7" points="434.4 392.33 432.2 420.65 215.82 406.08 215.82 365.67 434.4 392.33"/>
      <polygon class="cls-16" points="6.87 383.26 8.25 411.85 215.55 406.08 216.1 365.67 6.87 383.26"/>
    </g>
  </g>
</svg>