<?xml version="1.0" encoding="UTF-8"?>
<svg id="Layer_2" data-name="Layer 2" xmlns="http://www.w3.org/2000/svg" viewBox="0 0 615.52 617.51">
  <defs>
    <style>
      .cls-1 {
        fill: #3c7ec9;
      }

      .cls-1, .cls-2, .cls-3, .cls-4, .cls-5, .cls-6, .cls-7, .cls-8, .cls-9, .cls-10, .cls-11, .cls-12, .cls-13, .cls-14, .cls-15, .cls-16, .cls-17, .cls-18, .cls-19, .cls-20 {
        fill-rule: evenodd;
      }

      .cls-2 {
        fill: #d93654;
      }

      .cls-3 {
        fill: #205b9e;
      }

      .cls-4 {
        fill: #d12c4a;
      }

      .cls-5 {
        fill: #de3e5b;
      }

      .cls-6 {
        fill: #3a77c7;
      }

      .cls-7 {
        fill: #f5657f;
      }

      .cls-8 {
        fill: #bd2843;
      }

      .cls-9 {
        fill: #274a91;
      }

      .cls-10 {
        fill: #3868c9;
      }

      .cls-11 {
        fill: #ed4060;
      }

      .cls-12 {
        fill: #cf324e;
      }

      .cls-13 {
        fill: #183466;
      }

      .cls-14 {
        fill: #e34f6a;
      }

      .cls-15 {
        fill: #9c2539;
      }

      .cls-16 {
        fill: #ad3448;
      }

      .cls-17 {
        fill: #a6283d;
      }

      .cls-18 {
        fill: #c72c48;
      }

      .cls-19 {
        fill: #de3554;
      }

      .cls-20 {
        fill: #d42d4c;
      }
    </style>
  </defs>
  <g id="_Layer_" data-name="&amp;lt;Layer&amp;gt;">
    <g>
      <path class="cls-12" d="M297.65,228.15c-9.68-33.89-7.41-90.86,7.98-126.18,10.54-24.21,35.6-50.98,48.99-49.85,4.56,1.14,5.7,2.28,10.54,3.42,1.71,.28,3.13,.85,4.84,1.42,25.92,9.97,45.86,28.48,45.86,28.48-31.33-5.98-58.68,13.1-77.76,40.73-3.7,5.13-7.12,11.96-10.25,19.94-8.83,23.36-14.53,56.11-10.54,79.47l-19.65,2.56Z"/>
      <path class="cls-8" d="M297.93,125.89c1.99-8.54,4.56-16.8,7.69-23.93,10.54-24.21,35.6-50.98,48.99-49.85,4.56,1.14,5.7,2.28,10.54,3.42,1.71,.28,3.13,.85,4.84,1.42,25.92,9.97,45.86,28.48,45.86,28.48-31.33-5.98-58.68,13.1-77.76,40.73-1.71,2.28-3.13,4.84-4.56,7.69-14.53,0-26.49-3.7-35.6-7.98h0Z"/>
      <path class="cls-18" d="M332.11,230.71c15.67-5.7,49.85-29.34,63.52-45.57,7.69-9.4,14.81-19.65,19.94-30.19,10.54-20.22,14.81-40.45,7.69-52.98-17.09-29.91-54.69-45.57-54.69-45.57,3.13,4.84,5.98,9.4,8.26,14.24,12.25,27.06,9.68,58.39-4.56,87.44-7.69,15.38-23.64,39.02-41.3,55.83-4.56,3.99-11.68,8.55-17.66,10.25l18.8,6.55Z"/>
      <path class="cls-11" d="M411.86,162.07c3.7-6.55,7.12-13.39,9.68-19.94,3.99-10.25,5.98-20.22,5.13-28.48-1.99-21.36-10.25-30.76-27.06-42.44-15.95-11.11-45-19.08-45-19.08,15.67,7.69,19.37,13.1,21.65,17.38,9.11,19.37,10.54,40.73,5.41,62.38,9.4,11.11,19.65,21.65,30.19,30.19h0Z"/>
      <path class="cls-7" d="M421.55,142.13c3.99-10.25,5.7-20.22,5.13-28.48-13.1-14.81-29.91-30.76-50.13-43.29,.57,1.14,1.14,2.28,1.42,3.42,3.7,8.83,5.7,18.23,6.27,27.91,12.82,13.1,24.78,27.06,37.31,40.45h0Z"/>
      <path class="cls-16" d="M332.11,230.71c11.11-3.99,30.48-16.24,45.86-29.05,3.99-3.13,7.69-6.55,11.11-9.68-10.25-1.14-18.51-6.27-29.34-16.24-8.83,9.68-13.67,22.5-23.93,33.04-5.98,6.27-12.25,11.68-22.5,15.38l18.8,6.55Z"/>
      <path class="cls-11" d="M293.37,239.26c-16.52,1.71-58.67-2.28-80.04-9.11-37.03-11.39-72.63-32.47-76.05-50.7-5.7-28.77,14.24-54.69,14.24-54.69,2.28,29.91,27.06,57.54,62.66,76.62,20.51,10.54,60.38,17.09,85.73,21.08l-6.55,16.8Z"/>
      <path class="cls-12" d="M201.94,226.44c-32.76-11.96-61.52-30.76-64.66-47-5.7-28.77,14.24-54.69,14.24-54.69,1.99,25.63,20.22,49.28,47.57,67.22-2.56,10.25-2.28,22.22,2.85,34.46h0Z"/>
      <path class="cls-4" d="M314.45,226.16c-14.53-28.48-52.98-69.78-87.44-90.29-23.93-14.24-56.4-24.78-65.8-19.08-3.7,2.28-6.55,4.27-9.4,7.41-13.39,15.67-15.1,35.6-15.38,42.44-.28,.29,0,.57-.28,.85,1.42-1.14,3.13-2.28,4.56-3.13,19.65-12.82,47.85-11.11,77.76,1.14,5.98,2.28,13.1,6.27,20.51,11.11,21.93,13.96,47,36.17,58.96,54.69l16.52-5.13Z"/>
      <path class="cls-19" d="M234.7,140.71c-2.56-1.71-5.13-3.42-7.69-4.84-17.66-10.54-40.73-19.37-54.69-20.51-6.27,2.85-11.96,7.41-16.52,14.24-8.54,13.1-10.54,23.64-9.97,31.62,19.37-9.4,45-7.12,72.63,4.27,1.71,.57,3.13,1.42,4.84,2.28,8.54-7.69,11.39-18.23,11.39-27.06h0Z"/>
      <path class="cls-7" d="M208.78,126.46c-9.97-4.56-20.22-7.98-29.05-9.97-3.99,3.7-7.69,7.69-11.11,12.82-7.12,10.82-9.11,19.94-8.26,27.06,11.11-1.99,23.64-1.14,37.03,1.99,3.7-9.68,7.41-21.36,11.39-31.9h0Z"/>
      <path class="cls-20" d="M320.72,219.03c-17.66-19.37-29.34-38.17-36.74-56.68-21.93-53.55-6.84-103.11,8.83-148.11-16.24-4.84-32.47-9.4-48.71-14.24-26.2,52.69-23.64,143.27,58.39,227.01l18.23-7.98Z"/>
      <path class="cls-2" d="M282.84,159.79c-20.51-52.41-5.41-101.12,9.97-145.55-16.24-4.84-32.47-9.4-48.71-14.24-19.94,40.16-23.07,102.25,12.53,166.63,9.97,3.13,18.8,.85,26.2-6.84h0Z"/>
      <path class="cls-11" d="M272.87,100.55c.85-20.51,5.41-40.45,11.11-59.53l-50.7-10.82c-4.56,20.79-5.41,45.29-.57,71.21,13.67,4.56,27.34,2.28,40.16-.85h0Z"/>
      <path class="cls-18" d="M308.19,222.45c24.78-21.08,46.43-29.62,65.8-29.91,25.63-4.56,55.54,.57,85.16,29.05l14.81-33.89c-30.19-37.6-92.29-52.98-167.2,14.24l1.42,20.51Z"/>
      <path class="cls-2" d="M356.89,195.11c5.7-1.71,11.39-2.28,16.81-2.56,25.92-4.56,55.83,.29,85.45,29.05l14.81-33.89c-23.07-28.48-64.37-44.43-115.93-20.79-4.84,9.68-5.13,19.08-1.14,28.2h0Z"/>
      <path class="cls-11" d="M442.06,207.64l13.67-37.03c-13.1-9.11-29.34-15.1-48.14-15.1-5.41,11.39-7.12,23.93-7.98,36.17,13.67,1.42,27.91,5.98,42.44,15.95h0Z"/>
      <polygon class="cls-9" points="3.99 321.57 307.62 307.9 307.62 617.51 6.27 546.59 3.99 321.57"/>
      <path class="cls-3" d="M289.67,308.76l8.54-.57v307.05l-8.54-1.99V308.76Zm-25.35,1.14l8.83-.57v300.21l-8.83-2.28V309.89Zm-25.07,1.14l8.83-.57v293.09l-8.83-1.99V311.03Zm-25.07,1.14l8.54-.57v285.97l-8.54-1.99V312.17Zm-25.63,1.14l8.83-.57v278.85l-8.83-1.99V313.31Zm-25.06,1.14l8.83-.57v271.73l-8.83-1.99V314.45Zm-25.07,1.14l8.83-.57v264.89l-8.83-2.28V315.59Zm-25.06,1.14l8.54-.57v257.77l-8.54-1.99v-255.21Zm-25.35,1.14l8.83-.57v250.65l-8.83-1.99v-248.09Zm-25.07,1.14l8.83-.57v243.53l-8.83-1.99v-240.97Zm-25.35,1.14l8.83-.57v236.41l-8.83-1.99v-233.85Zm-25.06,1.14l8.54-.57v229.57l-8.54-2.28v-226.72Z"/>
      <polygon class="cls-13" points="3.13 311.89 308.47 295.37 308.47 309.89 3.42 324.99 1.71 319.29 3.13 311.89"/>
      <polygon class="cls-9" points="0 248.37 307.62 217.61 307.62 301.92 1.71 319.29 0 248.37"/>
      <path class="cls-3" d="M284.26,219.89l8.55-.85v83.74l-8.55,.57v-83.46Zm-25.35,2.56l8.83-.85v82.6l-8.83,.57v-82.32Zm-25.07,2.56l8.83-.85v81.46l-8.83,.57v-81.18Zm-25.35,2.56l9.11-.85v80.32l-9.11,.57v-80.04Zm-25.07,2.28l8.55-.85v79.47l-8.55,.57v-79.18Zm-25.35,2.56l8.83-.85v78.33l-8.83,.57v-78.04Zm-25.06,2.56l8.83-.85v77.19l-8.83,.57v-76.9Zm-25.07,2.56l8.83-.85v76.05l-8.83,.57v-75.76Zm-25.07,2.56l8.54-.85v74.91l-8.54,.57v-74.63Zm-25.63,2.56l9.11-.85v73.77l-9.11,.57v-73.49Zm-25.06,2.56l8.83-1.14v72.92l-8.83,.57v-72.35Zm-25.07,2.28l8.83-.85v71.78l-8.83,.57v-71.49Z"/>
      <polygon class="cls-10" points="611.53 321.57 307.62 307.9 307.62 617.51 609.25 546.59 611.53 321.57"/>
      <path class="cls-1" d="M325.85,308.76l-8.54-.57v307.05l8.54-1.99V308.76Zm25.63,1.14l-9.11-.57v300.21l9.11-2.28V309.89Zm25.07,1.14l-8.83-.57v293.09l8.83-1.99V311.03Zm25.07,1.14l-8.83-.57v285.97l8.83-1.99V312.17Zm25.07,1.14l-8.54-.57v278.85l8.54-1.99V313.31Zm25.35,1.14l-8.83-.57v271.73l8.83-1.99V314.45Zm25.06,1.14l-8.83-.57v264.89l8.83-2.28V315.59Zm25.35,1.14l-9.11-.57v257.77l9.11-1.99v-255.21Zm25.07,1.14l-8.55-.57v250.65l8.55-1.99v-248.09Zm25.35,1.14l-8.83-.57v243.53l8.83-1.99v-240.97Zm25.06,1.14l-8.83-.57v236.41l8.83-1.99v-233.85Zm25.07,1.14l-8.55-.57v229.57l8.55-2.28v-226.72Z"/>
      <polygon class="cls-13" points="612.38 311.89 307.05 295.37 307.05 309.89 612.1 324.99 613.81 319.29 612.38 311.89"/>
      <polygon class="cls-10" points="615.52 248.37 307.9 217.61 307.9 301.92 613.81 319.29 615.52 248.37"/>
      <path class="cls-1" d="M329.83,219.89l-8.83-.85v83.74l8.83,.29v-83.17Zm25.06,2.28l-8.83-.85v82.89l8.83,.29v-82.32Zm25.35,2.56l-8.83-.85v81.75l8.83,.29v-81.18Zm25.07,2.56l-8.54-.85v80.61l8.54,.29v-80.04Zm25.35,2.56l-8.83-.85v79.47l8.83,.29v-78.9Zm25.07,2.56l-8.83-.85v78.33l8.83,.28v-77.76Zm25.07,2.56l-8.83-.85v77.19l8.83,.29v-76.62Zm25.35,2.28l-8.55-.85v76.33l8.55,.57v-76.05Zm25.35,2.56l-8.83-.85v75.19l8.83,.57v-74.91Zm25.07,2.56l-8.83-.85v74.06l8.83,.57v-73.77Zm25.07,2.56l-8.83-.85v72.92l8.83,.57v-72.63Zm25.06,2.56l-8.54-.85v71.78l8.54,.57v-71.49Z"/>
      <path class="cls-6" d="M307.9,617.51h-.28l-1.99-307.33,2.85-.28,2.28,.28-2.85,307.33Zm3.42-315.31l-3.13-.28h-2.85v-84.02l2.28-.28,3.13,.28,.57,84.31Z"/>
      <polygon class="cls-15" points="162.92 232.14 162.92 583.62 120.48 573.36 119.34 236.41 162.92 232.14"/>
      <polygon class="cls-17" points="162.92 310.18 119.63 312.46 119.34 236.41 162.92 232.14 162.92 310.18"/>
      <polygon class="cls-5" points="452.59 232.14 452.31 583.62 495.03 573.36 495.89 236.41 452.59 232.14"/>
      <polygon class="cls-14" points="452.59 232.14 452.59 310.18 495.89 312.46 495.89 236.41 452.59 232.14"/>
    </g>
  </g>
</svg>