<?xml version="1.0" encoding="UTF-8"?>
<svg id="Layer_2" data-name="Layer 2" xmlns="http://www.w3.org/2000/svg" viewBox="0 0 459.97 950.37">
  <defs>
    <style>
      .cls-1 {
        fill: #6c1091;
      }

      .cls-1, .cls-2, .cls-3, .cls-4, .cls-5, .cls-6, .cls-7, .cls-8, .cls-9, .cls-10, .cls-11, .cls-12, .cls-13, .cls-14, .cls-15, .cls-16, .cls-17, .cls-18, .cls-19, .cls-20, .cls-21 {
        fill-rule: evenodd;
      }

      .cls-2 {
        fill: #a8406a;
      }

      .cls-3 {
        fill: #d658ac;
      }

      .cls-4 {
        fill: #9246ab;
      }

      .cls-5 {
        fill: #9d4cb8;
      }

      .cls-6 {
        fill: #984fb0;
      }

      .cls-7 {
        fill: #a550c2;
      }

      .cls-8 {
        fill: #db71bd;
      }

      .cls-9 {
        fill: #e075b5;
      }

      .cls-10 {
        fill: #ab63c4;
      }

      .cls-11 {
        fill: #7f3199;
      }

      .cls-12 {
        fill: #894aa0;
      }

      .cls-13 {
        fill: #b5487c;
      }

      .cls-14 {
        fill: #863d9e;
      }

      .cls-15 {
        fill: #9142ab;
      }

      .cls-16 {
        fill: #8e2f46;
      }

      .cls-17 {
        fill: #7e259c;
      }

      .cls-18 {
        fill: #913ead;
      }

      .cls-19 {
        fill: #681085;
      }

      .cls-20 {
        fill: #ad58c9;
      }

      .cls-21 {
        fill: #a050ba;
      }
    </style>
  </defs>
  <g id="_Layer_" data-name="&amp;lt;Layer&amp;gt;">
    <g>
      <path class="cls-16" d="M457.49,267.83v-.27c-.55-13.2-101.45-25.84-227.37-25.84S2.47,254.64,2.47,267.83c.82,15.12,80.28,8.52,103.38,10.17,50.04,3.02,291.98,6.05,318.65,0,14.02-3.3,33.27-.55,32.99-10.17h0Z"/>
      <path class="cls-2" d="M447.6,865.82l7.15-590.56c0-12.37-101.73-22.54-224.62-22.54S7.42,262.88,7.42,275.26l7.15,592.21c-.55,112.17,429.18,109.42,433.02-1.65h0Z"/>
      <path class="cls-18" d="M227.92,198.55c17.05,2.75,27.49,5.22,27.49,5.22,39.59-21.44,123.17-22.54,145.17-6.05,9.07-11.55,17.6-23.64,22.82-32.99-27.49-6.87-125.1-18.97-195.48,33.82h0Z"/>
      <path class="cls-14" d="M226.55,203.5c-7.42-53.89,2.2-133.62,44.54-161.94,3.85-2.2,8.25-3.57,12.37-4.67,36.57-7.7,87.16,19.25,79.18,36.84-76.98-55.26-111.9,39.87-111.62,133.07l-24.47-3.3Z"/>
      <path class="cls-5" d="M226.55,203.5c-4.4-31.62-2.75-72.31,7.42-106.12,9.35,2.2,19.8,9.07,29.14,19.52-8.25,26.12-12.1,58.29-12.1,89.9l-24.47-3.3Z"/>
      <path class="cls-20" d="M224.9,151.26c.55-11.27,1.92-22.27,3.85-32.72,11,4.12,21.72,9.35,29.97,14.02-2.2,10.17-4.12,21.17-5.22,32.17-5.77-1.37-14.57-5.5-28.59-13.47h0Z"/>
      <path class="cls-19" d="M254.04,207.62c53.89-25.29,115.47-73.41,117.95-120.15-1.37-12.65-8.25-23.92-17.6-32.44-7.7-6.6-16.77-10.72-26.39-14.3-7.15-2.2-13.75-3.85-20.62-4.67-8.25-.82-17.32-.55-23.92,.83,95.4,22.82,27.49,107.5-56.36,167.44l26.94,3.3Z"/>
      <path class="cls-17" d="M362.92,117.17c5.22-9.9,8.8-20.07,9.07-29.69-.27-4.4-1.37-8.25-2.75-11.55-14.02-5.5-29.69-10.17-42.89-12.65,4.95,9.35,4.95,20.35,.82,32.44,15.4,9.9,26.94,16.77,35.74,21.44h0Z"/>
      <path class="cls-18" d="M370.34,97.92c.82-3.57,1.37-7.15,1.65-10.45-.27-1.92-.27-3.57-.82-5.22-12.1-3.85-27.22-8.8-42.89-14.57,.83,3.02,1.37,5.77,1.65,8.8l1.1,.55,39.32,20.9Z"/>
      <path class="cls-1" d="M236.45,203.22c-7.15-25.29-31.34-62.14-47.56-82.21-16.5-20.62-35.74-36.57-53.34-43.17-36.84-13.2-78.36,4.4-82.48,31.89,50.59-37.39,117.12,32.99,161.39,94.3l21.99-.82Z"/>
      <path class="cls-15" d="M205.1,207.35c-58.01-7.15-127.3-23.92-146.54-53.61-6.32-9.9-9.07-20.62-8.8-30.79,.55-21.45,12.92-37.94,34.92-45.36-6.6,9.9-9.35,18.97-9.07,28.32,.55,22.82,22.82,40.42,51.96,55.54,25.29,12.92,83.03,31.07,107.78,41.51l-30.24,4.4Z"/>
      <path class="cls-21" d="M87.7,177.1c-13.2-6.87-23.09-14.57-29.14-23.37-3.02-4.95-5.22-9.9-6.6-14.85,2.47-8.8,10.72-16.22,24.74-25.02,3.85,14.3,15.95,26.12,32.44,36.84-4.67,9.9-12.37,20.35-21.45,26.39h0Z"/>
      <path class="cls-11" d="M247.44,204.6c-6.32,0-23.92,.27-23.92,.27-22.82-19.79-32.99-79.73-56.09-129.49-10.72-23.37-26.67-43.72-43.72-58.01,7.15-10.45,25.02-7.7,25.84-17.32,15.12-.82,32.17,9.35,49.21,55.26,14.57,39.59,22.54,119.32,48.66,149.29h0Z"/>
      <path class="cls-18" d="M183.93,116.89c-5.22-14.02-10.45-28.04-16.5-41.52-8.52-18.7-20.62-35.47-33.82-48.66,11.82-4.4,22.27-10.45,30.52-23.64,11.27,5.77,23.09,20.62,34.64,52.24,3.85,11,7.15,24.74,11,40.14-7.97,9.62-17.05,17.6-25.84,21.44h0Z"/>
      <path class="cls-7" d="M163.31,66.58c-4.95-9.07-10.72-17.87-16.77-25.29,3.02-1.1,6.05-2.75,9.07-5.22,9.35-7.7,15.95-15.67,20.89-22.54,4.67,5.22,9.07,12.37,13.75,22-6.6,11.27-16.5,22.82-26.94,31.07h0Z"/>
      <path class="cls-13" d="M334.6,940.33l5.22-684.59c-11.82-.55-24.19-1.1-37.12-1.65h-2.47c-4.12-.27-7.97-.27-11.82-.55l-.55,693.66c16.22-1.65,31.89-3.85,46.74-6.87h0Z"/>
      <path class="cls-3" d="M322.5,942.53c8.52-1.38,16.77-3.3,25.02-5.22,19.79-43.17,46.74-87.43,81.38-124.55,5.5-6.32,11.55-12.37,17.87-18.15l.27-27.49c-12.37,10.17-23.64,21.17-34.37,32.72-39.32,42.62-69.28,93.48-90.18,142.69h0Zm-149.57,5.5c7.15,.55,14.3,1.1,21.44,1.37,22.82-65.16,58.01-139.94,105.58-203.45,40.42-54.99,90.18-102,149.02-128.94l.28-21.99c-66.53,27.49-122.35,79.46-167.16,139.94-49.76,66.81-86.33,145.17-109.15,213.08h0ZM12.1,665.39l.55,57.74c.82-3.3,1.65-6.32,2.2-9.9,15.4-71.21,60.49-174.86,131.69-258.71,69.83-83.31,165.24-146.82,282.63-139.94,7.42,.55,15.4,1.38,23.37,2.2l.27-19.52c-7.7-1.1-15.12-1.37-22.54-1.92-125.37-7.97-226.82,59.66-300.51,147.37-54.99,64.33-94.85,140.77-117.95,205.65l.27,17.05ZM128.12,255.19c-4.95,.27-9.9,.55-14.57,.82-4.4,3.85-8.52,7.15-12.65,11-41.24,34.37-71.48,76.43-92.1,119.6l.55,56.91c16.77-56.91,51.41-116.3,105.85-162.49,11.27-9.35,23.37-18.42,36.57-26.67-7.97,.28-15.67,.55-23.09,.83h-.55ZM53.34,918.06c3.85-11.82,7.97-24.47,12.65-37.67,16.77-46.74,40.14-98.43,68.18-148.74,40.69-74.23,105.3-161.66,185.58-216.37,39.87-26.94,83.86-45.64,130.87-50.86l.27-19.8c-51.96,5.22-100.35,25.57-143.52,54.99-84.41,56.64-150.12,146.82-192.18,222.7-28.87,51.41-51.96,104.48-69.56,152.04-3.57,10.72-7.42,21.44-10.72,31.62,5.22,4.4,11.55,8.52,18.42,12.1h0Z"/>
      <path class="cls-9" d="M339.27,323.65l.28-20.62c-17.87,4.4-34.64,10.17-51.14,17.05v21.72c16.22-7.7,33.27-13.75,50.86-18.15h0Zm-1.37,180.36v-23.09c-10.17,5.5-20.62,11.82-30.52,18.7-6.6,4.4-12.92,8.8-19.25,13.47v25.84c10.45-8.25,20.62-16.22,31.62-23.64,6.32-4.12,12.1-7.97,18.15-11.27h0Zm-1.37,197.13l.27-29.42c-17.6,17.05-33.82,35.47-48.94,55.54v35.19c3.57-5.5,7.97-11.27,12.1-16.5,11.27-15.4,23.37-30.52,36.57-44.81h0Zm-1.92,239.19v-25.02c-4.12,9.07-8.25,18.15-12.1,27.22,4.12-.83,7.97-1.38,12.1-2.2h0Z"/>
      <path class="cls-6" d="M384.64,259.04l-8.8,670.57c-10.45,3.3-21.17,6.32-32.72,8.8l10.45-681.84c11,.82,21.44,1.65,31.07,2.47h0Z"/>
      <path class="cls-12" d="M56.64,261.23l9.62,663.15c8.8,3.85,19.25,7.15,29.69,10.17l-7.7-676.62c-11.55,1.1-21.99,1.92-31.62,3.3h0Z"/>
      <path class="cls-2" d="M457.49,267.83l2.47-37.67c0-13.2-102.28-29.42-228.75-29.42-41.52,0-81.11,2.75-115.2,5.5-21.72,1.65-40.69,4.4-57.19,6.87C22.82,218.07,0,223.84,0,230.17l2.47,37.94c11-12.65,108.87-21.72,227.65-21.72s216.65,9.07,227.37,21.44h0Z"/>
      <path class="cls-13" d="M345.32,205.42c-16.5-1.37-34.37-2.47-53.61-3.3l-.55,44.81c18.97,.55,36.84,1.37,53.34,2.47l.83-43.99Z"/>
      <path class="cls-10" d="M354.39,206.25c10.45,.83,20.62,1.92,30.79,3.02l-.55,43.72c-10.72-1.1-21.17-2.47-30.79-3.02l.55-43.71Z"/>
      <path class="cls-4" d="M87.7,209c-10.17,1.1-21.99,3.02-31.62,4.4l.55,41.24c10.72-1.65,21.44-2.75,31.62-3.57l-.55-42.07Z"/>
      <path class="cls-8" d="M319.2,203.5c-27.22-1.65-56.64-2.75-87.98-2.75h-10.45c-36.57,11.55-69.01,28.04-97.05,48.39,12.37-.82,25.84-1.65,39.87-1.92,42.89-24.47,94.85-40.69,155.61-43.72h0Z"/>
    </g>
  </g>
</svg>