<?xml version="1.0" encoding="UTF-8"?>
<svg id="Layer_2" data-name="Layer 2" xmlns="http://www.w3.org/2000/svg" viewBox="0 0 475.36 619.43">
  <defs>
    <style>
      .cls-1 {
        fill: #d6ac13;
      }

      .cls-1, .cls-2, .cls-3, .cls-4, .cls-5, .cls-6, .cls-7, .cls-8, .cls-9, .cls-10, .cls-11, .cls-12, .cls-13, .cls-14, .cls-15, .cls-16, .cls-17, .cls-18, .cls-19, .cls-20 {
        fill-rule: evenodd;
      }

      .cls-2 {
        fill: #b59022;
      }

      .cls-3 {
        fill: #45829c;
      }

      .cls-4 {
        fill: #e0c329;
      }

      .cls-5 {
        fill: #2e6b99;
      }

      .cls-6 {
        fill: #eed33d;
      }

      .cls-7 {
        fill: #f0dd60;
      }

      .cls-8 {
        fill: #dec42f;
      }

      .cls-9 {
        fill: #edd147;
      }

      .cls-10 {
        fill: #d4ad37;
      }

      .cls-11 {
        fill: #bf9d39;
      }

      .cls-12 {
        fill: #c29d2d;
      }

      .cls-13 {
        fill: #decd4c;
      }

      .cls-14 {
        fill: #154e7a;
      }

      .cls-15 {
        fill: #f5e58d;
      }

      .cls-16 {
        fill: #2f83a5;
      }

      .cls-17 {
        fill: #155f87;
      }

      .cls-18 {
        fill: #cfb013;
      }

      .cls-19 {
        fill: #e8c354;
      }

      .cls-20 {
        fill: #ad9038;
      }
    </style>
  </defs>
  <g id="_Layer_" data-name="&amp;lt;Layer&amp;gt;">
    <g>
      <path class="cls-20" d="M186.96,185.03c-10.17,.27-37.94-4.12-63.51-6.87-32.44-3.02-62.96-6.87-67.08-28.87-4.4-22.54,3.02-49.49,17.87-54.99,.27,48.94,70.66,68.46,142.69,80.83l-29.97,9.9Z"/>
      <path class="cls-19" d="M237.27,165.24c-61.86-65.71-101.45-83.31-141.04-86.05-11.27-.82-20.07,.55-26.67,10.72-6.6,9.9-11.82,22.54-14.02,35.74-1.1,7.42-1.1,15.4,.55,23.09-.55-28.04,30.79-37.67,69.28-24.74,28.87,9.62,73.68,24.47,91.55,51.41l20.35-10.17Z"/>
      <path class="cls-6" d="M130.87,86.06c-12.1-3.85-23.37-6.32-34.64-6.87-1.37-.28-3.02-.28-4.4-.28-9.35,10.72-17.32,25.57-22.27,45.09,11.82-7.15,31.07-7.7,52.79-1.1,5.22-9.07,8.8-24.19,8.52-36.84h0Z"/>
      <path class="cls-15" d="M114.1,81.38c-3.57-.82-7.42-1.37-11-1.65-4.95,10.72-10.45,24.47-17.87,39.32,5.22-.82,10.72-.82,17.05-.28,3.02-11.55,8.25-25.84,11.82-37.39h0Z"/>
      <path class="cls-20" d="M240.57,175.13c7.97-3.02,49.76-11.27,79.18-31.89,32.72-23.09,52.24-48.39,43.99-63.78-11.82-21.72-42.61-42.34-61.59-39.04,17.6,18.15,32.72,27.77,20.9,49.21-13.75,25.29-40.97,50.04-96.23,76.98l13.75,8.52Z"/>
      <path class="cls-10" d="M227.1,166.89c-1.65-9.62,4.95-26.67,7.7-43.17,4.4-27.49,11-58.56,25.29-77.81,3.85-5.5,8.52-9.9,13.47-13.2,21.17-13.75,47.56,2.47,64.06,15.67,6.87,5.5,18.42,19.52,23.37,26.39-26.39-27.77-54.16-23.64-86.6,20.9-14.02,19.52-21.99,48.39-33.82,80.56l-13.47-9.35Z"/>
      <path class="cls-4" d="M260.09,45.91c4.12-5.77,8.8-10.17,13.47-13.2,7.15-4.4,15.12-5.77,22.54-4.67,7.7,8.25,14.3,17.05,17.05,24.74,.82,2.47,1.37,4.67,1.65,6.87-10.45,3.85-20.62,11.82-31.89,25.29-10.72-14.02-17.87-26.67-22.82-39.04h0Z"/>
      <path class="cls-7" d="M269.44,35.74c1.1-1.1,2.75-2.2,4.12-3.02,3.85-2.47,8.52-4.12,12.92-4.67,7.97,13.2,15.67,25.02,19.8,35.47-5.22,3.3-10.72,7.7-16.22,13.2-6.32-11.82-14.02-28.04-20.62-40.97h0Z"/>
      <path class="cls-11" d="M260.36,181.73c30.24,4.67,123.17,8.8,165.51-51.96-.28-16.22-23.64-30.24-33.54-35.47,.27,17.87-9.9,25.57-21.44,35.74-27.77,25.29-81.38,37.67-141.04,37.12l30.52,14.57Z"/>
      <path class="cls-18" d="M345.87,178.98c29.97-6.6,60.49-20.62,80.01-49.21-.28-16.22-23.64-30.24-33.54-35.47,.27,17.87-9.9,25.57-21.44,35.74-13.2,12.37-32.17,21.17-55.26,27.22,3.02,10.45,17.05,17.6,30.24,21.72h0Z"/>
      <path class="cls-13" d="M381.06,167.16c6.6-3.3,12.92-6.6,18.7-11-5.5-10.17-12.37-21.72-19.52-34.09-3.02,2.47-5.77,5.22-9.35,7.97-1.92,1.65-3.57,3.3-5.77,4.67,5.22,10.45,11,21.72,15.95,32.44h0Z"/>
      <path class="cls-12" d="M216.37,175.96c-5.5-5.77-24.74-57.46-41.24-86.33C156.71,58.01,127.3,16.22,106.4,15.12L144.07,0c62.41,8.25,80.83,141.04,96.5,173.49l-24.19,2.47Z"/>
      <path class="cls-1" d="M161.66,67.63c-17.32-26.12-38.77-51.69-55.26-52.51L144.07,0c31.89,4.4,52.51,40.97,66.81,80.28-13.2-1.1-29.69-4.95-49.21-12.65h0Z"/>
      <path class="cls-8" d="M150.94,52.51c-5.5-7.15-10.72-13.75-16.22-19.52,10.72-4.12,27.22-9.07,41.52-15.4,6.87,7.42,13.2,16.5,18.7,26.67-15.4,5.22-30.79,8.52-43.99,8.25h0Z"/>
      <polygon class="cls-5" points="230.95 164.14 475.36 212.25 453.92 565.82 230.95 619.43 230.95 164.14"/>
      <path class="cls-16" d="M459.69,470.69l-2.2,38.22-30.52-17.05-48.66,45.91-50.04-34.09-52.51,51.69-44.81-30.52v-40.97l40.69,27.49,53.06-51.69,50.04,34.37,47.01-44.26,37.94,20.89Zm6.05-92.93l-3.02,39.87-37.39-26.12-48.94,39.87-49.49-40.97-52.79,44.54-43.17-35.19v-44.26l42.62,34.92,52.79-44.81,50.31,40.69,47.01-37.94,42.07,29.42Zm5.77-97.05l-2.75,42.07-45.91-36.02-48.39,31.34-50.04-49.21-52.79,36.29-40.69-40.14v-48.11h.27l44.54,43.44,52.79-35.47,50.31,49.21,47.01-30.24,45.64,36.84Z"/>
      <polygon class="cls-14" points="230.95 164.14 0 213.08 15.67 567.19 230.95 619.43 230.95 164.14"/>
      <path class="cls-17" d="M11.55,464.64l1.37,38.49,19.8-11.27,49.21,45.91,49.49-34.09,52.51,51.69,47.01-31.89v-41.24l-42.89,29.14-52.79-51.69-49.76,34.37-47.29-44.26-26.67,14.85Zm-4.4-95.95l1.92,40.69,25.29-17.87,49.21,39.87,49.49-40.97,52.51,44.54,45.36-36.84v-42.34l-.82-1.1-43.99,35.74-52.51-44.81-50.04,40.69-47.29-37.94-29.14,20.34Zm-4.4-98.15l1.92,43.71,32.44-27.49,48.66,31.34,49.76-49.21,52.51,36.29,42.89-42.61v-43.17l-1.92-2.47-45.09,43.44-52.79-35.47-49.76,49.21-47.56-30.24-31.07,26.67Z"/>
      <polygon class="cls-2" points="124 186.96 91.83 193.83 100.9 587.81 134.99 596.06 124 186.96"/>
      <polygon class="cls-9" points="360.44 189.43 393.16 195.75 379.96 583.41 350.82 590.56 360.44 189.43"/>
      <polygon class="cls-3" points="229.85 164.41 230.95 619.43 231.22 619.43 232.6 164.41 230.95 164.14 229.85 164.41"/>
    </g>
  </g>
</svg>