<?xml version="1.0" encoding="UTF-8"?>
<svg id="Layer_2" data-name="Layer 2" xmlns="http://www.w3.org/2000/svg" viewBox="0 0 483.89 694.35">
  <defs>
    <style>
      .cls-1 {
        fill: #cf8bc6;
      }

      .cls-1, .cls-2, .cls-3, .cls-4, .cls-5, .cls-6, .cls-7, .cls-8, .cls-9, .cls-10, .cls-11, .cls-12, .cls-13, .cls-14, .cls-15, .cls-16, .cls-17, .cls-18, .cls-19, .cls-20, .cls-21, .cls-22, .cls-23, .cls-24, .cls-25 {
        fill-rule: evenodd;
      }

      .cls-2 {
        fill: #c77cba;
      }

      .cls-3 {
        fill: #9b3577;
      }

      .cls-4 {
        fill: #9e1e3d;
      }

      .cls-5 {
        fill: #c62525;
      }

      .cls-6 {
        fill: #b566aa;
      }

      .cls-7 {
        fill: #de83b0;
      }

      .cls-8 {
        fill: #d47dc8;
      }

      .cls-9 {
        fill: #c26db7;
      }

      .cls-10 {
        fill: #d97ecd;
      }

      .cls-11 {
        fill: #c272b7;
      }

      .cls-12 {
        fill: #960c25;
      }

      .cls-13 {
        fill: #a81b39;
      }

      .cls-14 {
        fill: #ab57a0;
      }

      .cls-15 {
        fill: #ed4060;
      }

      .cls-16 {
        fill: #a35999;
      }

      .cls-17 {
        fill: #de99d5;
      }

      .cls-18 {
        fill: #ab2525;
      }

      .cls-19 {
        fill: #aa59aa;
      }

      .cls-20 {
        fill: #cc6ca9;
      }

      .cls-21 {
        fill: #af2b41;
      }

      .cls-22 {
        fill: #ba68af;
      }

      .cls-23 {
        fill: #d86c98;
      }

      .cls-24 {
        fill: #b22b52;
      }

      .cls-25 {
        fill: #d482c9;
      }
    </style>
  </defs>
  <g id="_Layer_" data-name="&amp;lt;Layer&amp;gt;">
    <g>
      <path class="cls-14" d="M23.92,72.99L.82,105.44c54.99,8.25,99.25,14.57,145.44,45.36,20.07,13.2,40.69,31.62,62.69,56.91l20.62-4.67c-11.55-20.62-45.09-56.91-62.68-72.31-12.92-11-26.94-20.89-42.07-29.69-31.07-18.97-66.53-26.67-100.9-28.04h0Z"/>
      <path class="cls-6" d="M23.92,72.99L.82,105.44c48.39,7.15,88.25,13.2,128.67,35.19,9.9-4.95,20.34-11,28.87-17.32-10.45-7.97-21.44-15.67-33.54-22.27-31.34-18.7-66.53-26.67-100.9-28.04h0Z"/>
      <path class="cls-22" d="M35.74,110.94c24.19,4.4,46.46,9.35,68.18,17.87,8.25-7.7,17.6-17.6,24.19-26.12l-3.3-1.65c-20.62-12.1-42.34-19.8-64.88-24.19l-24.19,34.09Z"/>
      <path class="cls-2" d="M54.71,114.51c7.7,1.65,15.12,3.3,22.27,5.5,7.15-6.87,18.97-18.42,28.59-29.14-8.8-3.57-17.32-6.87-25.84-9.07l-25.02,32.72Z"/>
      <path class="cls-17" d="M200.15,209.64c-45.64-8.8-137.47-58.84-136.09-108.32,.55-26.67,6.87-35.74,16.77-45.09,8.25-7.97,20.07-17.6,24.74-19.52-41.52,63.79,45.64,144.34,119.6,165.51l-25.02,7.42Z"/>
      <path class="cls-25" d="M163.86,197.82c-34.09-14.85-73.13-39.59-90.45-67.63,9.35-8.52,20.62-14.57,33.54-17.32,14.57,27.49,42.62,52.51,72.86,69.83-1.65,5.77-5.77,11.55-15.95,15.12h0Z"/>
      <path class="cls-11" d="M235.35,204.41c4.95-53.06-32.99-201.25-124.27-172.11-11.82,3.57-32.99,25.57-35.47,29.42,70.38-40.69,136.37,74.23,138.02,146.27l21.72-3.57Z"/>
      <path class="cls-1" d="M153.96,31.75c-12.65-4.67-26.94-4.95-42.89,.55-11.82,3.57-32.99,25.57-35.47,29.42,15.12-8.8,29.97-10.17,44.26-6.6,11.27-14.02,24.19-20.35,34.09-23.37h0Z"/>
      <path class="cls-20" d="M237.27,207.71c47.29-.28,90.45-3.02,128.4-22.82,21.99-11.27,38.77-24.74,47.56-37.94,9.9-15.4,15.12-29.97,6.6-45.36-3.85-6.87-11.27-17.32-22.54-21.99,1.1,30.52-18.7,58.01-46.19,79.18-35.47,26.94-82.76,33.54-122.35,35.19-1.37,3.57-1.1,11.55,8.52,13.75h0Z"/>
      <path class="cls-7" d="M392.33,167.85c3.85-2.75,7.15-5.5,9.62-8.25-.28-12.65-11.82-20.89-24.47-26.67-2.75,3.85-6.05,7.42-9.62,11.27,1.92,.82,3.57,1.65,4.67,3.02,7.42,5.77,14.02,12.92,19.8,20.62h0Z"/>
      <path class="cls-6" d="M227.65,199.19c4.12-48.11,43.99-96.78,71.76-116.02,17.05-11.55,34.64-18.97,50.86-21.99,26.94-5.22,54.44,9.07,71.48,44.81-14.85-19.52-48.66-17.05-68.73-10.45-7.15,2.2-14.3,5.22-21.45,8.8-46.46,23.09-72.31,61.04-90.18,100.08-3.3,5.22-14.85,4.12-13.75-5.22h0Z"/>
      <path class="cls-16" d="M320.85,71.07c9.9-4.95,20.07-7.97,29.42-9.9,26.94-5.22,54.44,9.07,71.48,44.81-14.85-19.52-48.39-16.5-68.73-10.45-.83,.27-1.1,.27-1.65,.55-10.72-8.8-21.99-17.6-30.52-25.02h0Z"/>
      <path class="cls-8" d="M237.27,1.51c48.11,80.01,59.94,149.57,6.32,202.9,6.32,.28,12.65,1.1,18.7,1.65,63.78-52.24,65.43-126.75,19.8-205.38-13.2-2.75-31.34,3.85-44.82,.82h0Z"/>
      <path class="cls-9" d="M257.34,38.63c17.32,36.57,25.02,70.66,20.34,101.73,11-3.85,23.64-11,34.92-20.34,3.85-29.97-3.02-62.96-18.97-96.5-9.9,4.4-21.72,10.17-36.29,15.12h0Z"/>
      <path class="cls-10" d="M265.31,57.05c4.12,11.27,7.7,22.27,10.17,32.99,10.17-5.77,21.99-14.02,33.82-22.54-1.92-8.8-4.67-17.6-7.97-26.39-10.72,6.05-22.54,11.82-36.02,15.95h0Z"/>
      <polygon class="cls-15" points="236.45 246.2 477.29 287.45 462.17 641.84 243.04 694.35 236.45 246.2"/>
      <polygon class="cls-21" points="236.45 246.2 8.8 287.17 29.69 642.66 243.04 694.35 236.45 246.2"/>
      <path class="cls-24" d="M336.8,671.81l-8.25-3.57,25.84-6.6,8.8-29.97,8.52,31.07,1.1,.55-36.02,8.52Zm-51.14-124.82l-8.52,30.24-26.67,6.87,27.22,11.55,8.52,24.74,6.87-23.37,25.57-10.45-24.74-7.97-8.25-31.62Zm29.42-138.57l-8.25,30.24-26.39,6.6,26.94,11.55,8.25,24.74,6.87-23.37,25.84-10.45-24.47-7.97-8.8-31.34Zm-19.25-129.49l-8.52,30.24-26.39,6.32,26.94,11.55,8.52,24.74,7.15-23.09,25.57-10.72-24.74-7.7-8.52-31.34Zm138.84,1.37l7.7,1.1,4.4,17.05,24.74,7.7-25.57,10.72-6.87,23.37-8.8-24.74-26.94-11.82,26.39-6.6,4.95-16.77Zm-18.42,265.59l-8.8,30.24-26.39,6.32,27.22,12.1,8.25,24.74,6.87-23.37,25.84-10.45-24.47-8.25-8.52-31.34Zm9.07-150.12l-8.25,30.52-26.67,6.32,27.22,11.55,8.25,24.74,6.87-23.09,25.84-10.72-24.74-7.7-8.52-31.62Z"/>
      <polygon class="cls-19" points="353.57 667.68 240.02 490.62 238.92 427.39 390.96 658.88 353.57 667.68"/>
      <path class="cls-4" d="M172.11,391.92l-5.77,30.52-26.39,8.25,28.59,9.9,11.27,24.47,4.67-23.64,25.29-12.1-25.84-6.6-11.82-30.79Zm10.45,136.92l-6.05,30.79-26.39,8.25,28.59,10.17,11,24.19,5.22-23.92,25.02-12.1-25.84-6.32-11.55-31.07Zm-109.97-227.1l-5.77,30.52-28.04,9.35,30.24,8.8,9.62,25.57,7.15-27.22,25.29-11.82-26.12-6.6-12.37-28.59Zm82.76,371.44l-7.42-19.8-3.3,17.05,10.72,2.75Zm-120.42-71.48v.27l28.59,9.9,11,24.47,4.95-23.92,25.29-11.82-25.84-6.6-11.82-30.79-5.77,30.52-26.39,7.97ZM192.18,254.18l-5.77,1.1-3.85,19.8-26.39,7.97,28.59,10.17,11.27,24.19,4.95-23.64,25.02-12.1-25.84-6.6-7.97-20.89Zm-117.67,177.06l-6.05,30.52-26.12,7.97,28.59,10.45,11.27,23.92,4.95-23.37,25.57-12.37-26.67-6.32-11.55-30.79Z"/>
      <polygon class="cls-3" points="12.1 342.71 16.22 412.54 174.31 677.58 218.3 688.3 12.1 342.71"/>
      <polygon class="cls-3" points="79.18 221.19 240.29 490.9 238.92 427.39 112.72 214.86 79.18 221.19"/>
      <polygon class="cls-19" points="268.89 198.64 308.2 205.24 468.22 501.07 465.74 565.41 268.89 198.64"/>
      <polygon class="cls-13" points="236.45 227.23 478.11 268.47 477.01 293.22 236.72 259.68 236.45 227.23"/>
      <polygon class="cls-12" points="236.45 227.23 7.97 267.92 9.35 292.67 236.72 259.68 236.45 227.23"/>
      <polygon class="cls-5" points="235.62 192.87 483.89 234.38 481.41 287.99 236.45 253.35 235.62 192.87"/>
      <polygon class="cls-18" points="235.62 192.87 0 233.28 3.02 289.09 236.45 253.35 235.62 192.87"/>
      <path class="cls-23" d="M232.6,193.42l1.37,60.21,2.47-.27h1.65v-60.21l-2.47-.28-3.02,.55Zm1.65,66.81l7.15,433.85,1.65,.28-4.95-434.4-1.37-.27-2.47,.55Z"/>
    </g>
  </g>
</svg>