<?xml version="1.0" encoding="UTF-8"?>
<svg id="Layer_2" data-name="Layer 2" xmlns="http://www.w3.org/2000/svg" viewBox="0 0 648.1 718.72">
  <defs>
    <style>
      .cls-1 {
        fill: #876cb8;
      }

      .cls-1, .cls-2, .cls-3, .cls-4, .cls-5, .cls-6, .cls-7, .cls-8, .cls-9, .cls-10, .cls-11, .cls-12, .cls-13, .cls-14, .cls-15, .cls-16, .cls-17 {
        fill-rule: evenodd;
      }

      .cls-2 {
        fill: #6a5ca8;
      }

      .cls-3 {
        fill: #a48fc9;
      }

      .cls-4 {
        fill: #9a82c2;
      }

      .cls-5 {
        fill: #9c5d19;
      }

      .cls-6 {
        fill: #aa92d4;
      }

      .cls-7 {
        fill: #de9900;
      }

      .cls-8 {
        fill: #886fb3;
      }

      .cls-9 {
        fill: #c77722;
      }

      .cls-10 {
        fill: #9576cf;
      }

      .cls-11 {
        fill: #b39fd6;
      }

      .cls-12 {
        fill: #c17000;
      }

      .cls-13 {
        fill: #ab92d9;
      }

      .cls-14 {
        fill: #7364b3;
      }

      .cls-15 {
        fill: #a594c2;
      }

      .cls-16 {
        fill: #b09dcf;
      }

      .cls-17 {
        fill: #ffd014;
      }
    </style>
  </defs>
  <g id="_Layer_" data-name="&amp;lt;Layer&amp;gt;">
    <g>
      <path class="cls-8" d="M300.46,202.85c20.18-27.81,40.35-47.17,66.26-73.07,33.26-32.72,77.16-67.89,109.88-54.53l9.54,28.9c-29.72-19.36-74.16,6-107.43,35.72-22.63,20.18-61.89,58.35-70.62,72.53l-7.63-9.54Z"/>
      <path class="cls-4" d="M366.72,130.06c32.99-32.99,76.89-68.71,109.88-54.8l7.36,4.09c-1.64,11.72,0,15.27,2.45,25.08-26.45-17.18-64.35,.55-95.7,25.08-1.64-.27-3.27-.82-4.64-1.09-6.54-1.91-12.81-1.09-19.36,1.64h0Z"/>
      <path class="cls-15" d="M394.53,104.43c8.18,2.45,15.54,4.91,22.08,7.63,15-8.45,29.99-14.18,43.62-14.45-3.27-7.91-7.63-17.45-11.18-23.99-17.72,3.82-36.81,16.09-54.53,30.81h0Z"/>
      <path class="cls-1" d="M315.46,203.95c-25.36-41.44-37.9-73.89-30.81-120.79,7.09-47.44,40.08-78.25,57.53-79.89,3.55,4.36,22.63,7.36,25.9,11.45-32.72,5.73-54.53,37.35-59.98,71.16-2.18,36.26,.55,82.61,12.27,110.15-.82,2.18-1.64,4.36-2.45,6.27l-2.45,1.64Z"/>
      <path class="cls-10" d="M283.83,87.25c.27-1.09,.55-2.73,.82-4.09,6.54-44.44,36.26-74.43,53.99-79.34,1.36,0,11.45-3.82,12.54-3.82,3.54,4.36,13.63,10.63,16.9,14.72-32.72,5.73-54.53,37.35-59.98,71.16-1.09,6.82-1.64,13.63-1.36,20.45-5.45-4.64-17.45-10.63-22.9-19.09h0Z"/>
      <path class="cls-13" d="M318.46,16.36c6.27-5.45,12.54-9.54,17.99-11.45,3.54,2.73,8.18,6,12.54,9.27,1.91,1.64,4.09,3,6.27,4.09-5.18,1.91-10.09,4.64-14.45,7.63-7.91-2.45-15.54-5.73-22.36-9.54h0Z"/>
      <path class="cls-14" d="M319.55,216.76c-19.63-36.26-53.71-155.14-110.15-146.69-29.17,4.36-36.54,13.36-57.53,32.17,55.35-41.17,118.6,26.99,149.41,115.06l18.27-.55Z"/>
      <path class="cls-4" d="M319.55,214.58c-22.9,.27-194.13-22.63-167.68-111.52,3.27-10.63,34.08-27.54,40.08-29.17-44.17,50.44,55.08,116.97,125.15,119.7l9.27,20.18-6.82,.82Z"/>
      <path class="cls-15" d="M156.23,147.51c-6.27-10.91-8.73-23.99-5.73-38.44,9.54-10.09,20.99-16.63,32.72-20.99-3.54,10.09-2.73,20.72,1.91,30.81-.82,16.9-18.81,18.81-28.9,28.63h0Z"/>
      <path class="cls-16" d="M149.96,131.42c-.82-4.09-1.09-8.45-.82-13.36,10.36-7.09,21.81-15.27,31.9-22.08-.27,4.91,0,10.09,1.09,15-9.27,6.27-19.36,12.54-29.99,19.09-.82,.55-1.36,.82-2.18,1.36h0Z"/>
      <path class="cls-14" d="M328.55,213.76c44.44-27.54,83.16-56.17,98.7-81.8,13.63-22.36,15-46.08,9.27-62.98-7.63-21.54-38.99-40.35-63.26-35.99,14.18,9.54,28.36,24.27,33.54,34.9,24.27,51.8-56.17,100.61-90.52,135.24l12.27,10.63Z"/>
      <path class="cls-4" d="M318.46,208.31c-1.09-55.35-3-109.88,9.27-137.42,9-19.36,26.99-35.17,47.44-38.44,12.27-1.91,25.63,.82,37.35,9,9.27,6.27,20.45,15.54,24.27,29.17-35.72-19.9-59.44-10.09-76.07,12.27-23.99,32.45-26.72,92.43-34.08,128.15l-8.18-2.73Z"/>
      <path class="cls-6" d="M335.36,58.35c8.45-11.72,19.9-20.45,32.99-24.54,17.45,7.91,26.99,16.9,29.17,26.45-13.9,1.09-24.81,8.18-33.81,18.81-7.36-4.36-16.9-10.91-28.36-20.72h0Z"/>
      <path class="cls-11" d="M347.63,45.26c3.27-2.73,6.82-5.18,10.63-7.09,13.09,7.91,25.9,16.09,34.08,22.63-4.91,1.09-9,2.73-13.09,4.91-9.27-6-20.18-12.81-31.63-20.45h0Z"/>
      <path class="cls-1" d="M331.82,203.13c1.36,1.36,6.54,7.63,5.45,9-4.36,4.36-16.9,6.82-22.63,8.18-1.64,.27-12,2.18-13.91,1.91-7.09-.82-5.45-8.45-5.45-8.45-4.36-11.18,31.9-20.18,36.54-10.63h0Z"/>
      <polygon class="cls-12" points="5.45 340.27 427.25 288.47 426.7 718.72 8.45 620.29 5.45 340.27"/>
      <polygon class="cls-7" points="641.01 330.73 426.7 287.92 426.7 718.72 636.92 664.46 641.01 330.73"/>
      <polygon class="cls-5" points="4.36 326.37 428.34 271.02 428.34 291.19 4.63 344.91 2.18 337.27 4.36 326.37"/>
      <polygon class="cls-9" points="641.01 320.91 426.7 269.93 426.43 291.47 641.01 332.64 645.37 325.28 641.01 320.91"/>
      <polygon class="cls-7" points="648.1 225.21 426.7 162.77 426.43 280.02 645.37 325.28 648.1 225.21"/>
      <polygon class="cls-12" points="0 238.3 426.7 162.77 426.7 280.02 2.18 336.73 0 238.3"/>
      <polygon class="cls-2" points="176.95 206.94 210.22 201.22 212.4 668.28 180.5 660.64 176.95 206.94"/>
      <polygon class="cls-3" points="541.49 195.22 541.22 689.27 565.21 683 565.76 202.04 541.49 195.22"/>
      <path class="cls-17" d="M425.07,291.74l1.36,426.7,.27,.27,1.36-426.98-1.64-.27-1.36,.27Zm-.55-128.69l.55,117.24,1.64-.27,1.36,.27,.54-116.7-1.91-.82-2.18,.27Z"/>
    </g>
  </g>
</svg>