<?xml version="1.0" encoding="UTF-8"?>
<svg id="Layer_2" data-name="Layer 2" xmlns="http://www.w3.org/2000/svg" viewBox="0 0 539.42 845.46">
  <defs>
    <style>
      .cls-1 {
        fill: #8dc934;
      }

      .cls-1, .cls-2, .cls-3, .cls-4, .cls-5, .cls-6, .cls-7, .cls-8, .cls-9, .cls-10, .cls-11, .cls-12 {
        fill-rule: evenodd;
      }

      .cls-2 {
        fill: #c9e598;
      }

      .cls-3 {
        fill: #74a324;
      }

      .cls-4 {
        fill: #a4d350;
      }

      .cls-5 {
        fill: #4f8a15;
      }

      .cls-6 {
        fill: #57a626;
      }

      .cls-7 {
        fill: #82c24a;
      }

      .cls-8 {
        fill: #62b327;
      }

      .cls-9 {
        fill: #38a32a;
      }

      .cls-10 {
        fill: #428710;
      }

      .cls-11 {
        fill: #2e8023;
      }

      .cls-12 {
        fill: #79b842;
      }
    </style>
  </defs>
  <g id="_Layer_" data-name="&amp;lt;Layer&amp;gt;">
    <g>
      <path class="cls-7" d="M309.85,212.55c24.19-63.24,142.97-78.08,199.33-49.21l30.24-21.44c-30.24-52.24-221.05-11-243.59,72.86l14.02-2.2Z"/>
      <path class="cls-4" d="M472.07,151.79c14.02,2.2,26.39,6.32,37.12,11.55l30.24-21.44c-8.52-14.57-30.52-22.27-58.01-23.09,26.39,11.55,30.24,23.37-9.35,32.99h0Z"/>
      <path class="cls-3" d="M309.85,212.55c3.3-8.8,8.52-16.22,14.85-23.09-6.32-3.85-3.57-10.45,.83-18.15-14.85,12.37-25.02,27.22-29.69,43.44l14.02-2.2Z"/>
      <path class="cls-3" d="M289.23,206.51c-5.77-.82-20.9,1.38-26.67,.28-35.74-67.08-104.75-137.19-134.17-124.82-4.4-15.12,12.1-23.92,36.02-14.85,49.76,32.72,93.2,76.71,124.82,139.39h0Z"/>
      <path class="cls-12" d="M291.43,208.43c-10.45-20.62-35.74-62.41-61.31-90.18-21.72-23.09-45.09-43.44-63.79-51.96-10.45-4.4-39.87-10.72-49.76-9.9-26.12,6.32-46.74,48.39-43.17,81.66,14.85,93.75,167.71,80.83,168.26,80.83l34.37-7.15c-.55,0-139.12,8.8-160.29-68.46-1.65-15.12,4.95-29.69,11-42.62,5.22-12.1,9.35-21.99,21.44-26.94,16.77-7.42,60.76,27.22,79.73,47.29,23.92,26.12,47.56,61.86,57.19,80.28l6.32,7.15Z"/>
      <path class="cls-4" d="M167.71,67.39c-.55-.28-1.1-.55-1.37-1.1-10.45-4.4-39.87-10.72-49.76-9.9-26.12,6.32-46.74,48.39-43.17,81.66,1.1-12.37,11.27-13.47,11,1.65,10.45-14.57,17.87-12.92,16.22-3.85-1.92,11.55,8.52,7.15,12.1-7.7,2.75-13.2,8.8-27.49,15.12-38.77,9.07-16.5,22.54-26.39,39.87-21.99h0Z"/>
      <path class="cls-3" d="M274.66,208.43c5.22-.82,18.7,1.1,23.64,.28,31.62-67.63,91.83-137.74,117.95-125.37,3.85-14.85-10.72-23.64-31.62-14.85-45.91,26.39-82.48,75.33-109.97,139.94h0Z"/>
      <path class="cls-2" d="M95.68,70.14c-4.12,4.4-7.97,9.62-11,15.4,10.72,1.1,25.29,3.85,39.87,10.45,1.1-2.2,2.2-4.4,3.3-6.6,1.92-3.57,3.85-6.32,5.77-9.07-9.9-6.87-25.84-9.35-37.94-10.17h0Z"/>
      <path class="cls-7" d="M275.49,205.68c9.35-20.35,28.87-58.01,51.41-85.78,18.7-23.09,39.32-43.71,56.09-51.69,8.8-4.67,34.92-11,43.16-10.17,23.37,6.05,40.97,48.39,37.94,81.66-4.67,50.04-137.74,76.43-138.02,76.71l-30.52-7.42c.27,0,122.62-33.54,125.65-62.96,2.75-29.69-6.05-64.34-28.59-75.06-14.57-7.15-49.21,31.89-65.43,51.96-21.17,26.12-37.67,65.16-45.91,83.31l-5.77-.55Z"/>
      <path class="cls-3" d="M378.31,202.11c-27.77,9.35-51.96,14.02-52.24,14.3l-30.52-7.42c.27,0,12.65-1.37,40.69-11,3.85,0-5.22,16.5,42.07,4.12h0Zm-102.83,3.57c5.5-12.1,15.12-31.07,26.67-50.31l7.97-.83c-12.65,19.8-23.37,40.14-28.87,51.69l-5.77-.55Z"/>
      <path class="cls-1" d="M431.1,59.96c20.89,10.45,36.02,48.94,32.99,79.73-.28,3.3-1.1,6.6-2.75,10.17-3.57,2.2-8.25-.55-12.1,.82-6.6,2.2,2.2-5.77-6.32-5.22-8.8,.28-16.5,13.75-16.77,8.52-.27-4.95,1.92-9.07-.27-34.64-2.2-25.57-17.87-43.99-28.59-48.66-10.72-4.67,3.57-1.92,16.22-5.77,6.6-1.92,11.55-4.95,17.6-4.95h0Z"/>
      <path class="cls-2" d="M444.02,70.69c2.75,3.02,5.22,6.6,7.42,10.45-7.97,4.4-22.82,8.25-34.09,10.45-2.47-5.22-6.05-9.35-9.07-12.92,1.1-.55,2.75-.82,4.67-1.1,9.35-.27,17.6-4.67,31.07-6.87h0Z"/>
      <path class="cls-7" d="M272.19,209.25c.55-6.87,1.65-17.05,1.1-25.02-4.4-71.21-60.21-164.41-98.43-158.36L189.98,.03c54.99-1.92,110.25,94.58,99.25,183.93-.83,7.42-3.02,17.6-4.67,24.74l-12.37,.55Z"/>
      <path class="cls-4" d="M263.66,134.75c-14.3-44.27-40.14-85.78-65.16-102,0-.27,.28-.55,.55-.82,7.42-10.17,16.5-17.32,23.37-21.99,34.64,21.99,63.78,77.81,67.63,137.19-8.52-12.1-24.47-10.45-26.39-12.37h0Z"/>
      <path class="cls-2" d="M225.72,59.14c-3.3-4.12-6.32-7.97-10.17-11.27,3.85-7.7,12.65-15.12,26.12-22.27,3.02,3.85,6.05,7.42,9.07,11.27-11,7.97-19.25,16.22-25.02,22.27h0Z"/>
      <path class="cls-7" d="M253.77,209.81c-5.77-9.9-20.62-22-28.59-29.14-55.54-47.01-161.66-31.62-208.13,14.85-9.07-15.12-7.7-26.12-17.05-49.49,51.41-38.49,179.53-32.44,239.19,27.22,9.35,9.07,20.35,23.92,25.84,36.02l-11.27,.55Z"/>
      <path class="cls-1" d="M118.5,152.89c-26.12,2.2-52.24,10.17-73.68,21.99,1.92-20.07-25.02-24.19-21.72-41.24,20.9-8.52,47.29-12.37,74.78-11.82,11,9.07,16.77,19.52,20.62,31.07h0Z"/>
      <polygon class="cls-9" points="279.88 190.56 505.61 246.92 494.06 792.94 279.88 845.46 279.88 190.56"/>
      <path class="cls-8" d="M468.22,357.45c-12.1,0-21.72,9.9-21.72,22.27,0,13.2,9.62,23.09,21.72,23.09s21.99-9.9,21.99-23.09c0-12.37-9.62-22.27-21.99-22.27h0Zm-61.31,92.65c-12.1,0-21.72,9.9-21.72,22.27s9.62,22.54,21.72,22.54,21.99-10.17,21.99-22.54-9.9-22.27-21.99-22.27h0Zm73.41,33.27c-12.37,0-22.27,10.17-22.27,22.27s9.9,22.82,22.27,22.82c8.52,0,15.95-5.22,19.52-12.92l.27-18.7c-3.3-7.97-11-13.47-19.8-13.47h0Zm-102.83,58.56c-12.1,0-22.27,10.45-22.27,22.54s10.17,22.82,22.27,22.82,21.99-10.17,21.99-22.82-9.62-22.54-21.99-22.54h0Zm-44.27-132.24c-11.82,0-21.99,10.17-21.99,22.54s10.17,22.54,21.99,22.54,22-10.45,22-22.54-9.9-22.54-22-22.54h0Zm48.39-87.43c-12.65,0-22.82,10.17-22.82,22.27,0,12.92,10.17,22.82,22.82,22.82,11.82,0,21.72-9.9,21.72-22.82,0-12.1-9.9-22.27-21.72-22.27h0Zm71.21-61.86c-12.37,0-22.27,10.17-22.27,22.27,0,12.92,9.9,22.82,22.27,22.82s21.72-9.9,21.72-22.82c0-12.1-9.62-22.27-21.72-22.27h0Zm-128.4-33.82c-12.65,0-22.27,10.17-22.27,22.54s9.62,22.82,22.27,22.82c11.82,0,21.72-10.17,21.72-22.82s-9.9-22.54-21.72-22.54h0Zm-40.42,266.69c-12.37,0-21.99,9.9-21.99,22.82s9.62,22.54,21.99,22.54,22-10.17,22-22.54-9.9-22.82-22-22.82h0Zm38.49,110.52c-12.37,0-21.99,10.45-21.99,22.82s9.62,22.82,21.99,22.82,21.72-10.45,21.72-22.82-9.9-22.82-21.72-22.82h0Zm-1.65,152.86c-12.65,0-22.54,9.9-22.54,22.54s9.9,22.55,22.54,22.55c11.82,0,21.72-9.9,21.72-22.55s-9.9-22.54-21.72-22.54h0Zm69.56-78.63c-12.37,0-21.99,10.17-21.99,22.54s9.62,22.54,21.99,22.54,21.72-9.9,21.72-22.54-9.62-22.54-21.72-22.54h0Zm58.84-72.58c-12.65,0-22.27,10.45-22.27,23.09s9.62,22.54,22.27,22.54,21.72-10.45,21.72-22.54-9.62-23.09-21.72-23.09h0Zm7.15,129.49c-12.37,0-22.27,10.17-22.27,22.54s9.9,22.54,22.27,22.54,21.99-10.17,21.99-22.54-9.9-22.54-21.99-22.54h0Zm-86.33,88.53c.55-12.1,10.17-21.72,22.27-21.72,7.97,0,15.12,4.67,18.97,11.55l-41.24,10.17Z"/>
      <polygon class="cls-11" points="279.88 190.56 48.11 249.4 59.39 792.12 279.88 845.46 279.88 190.56"/>
      <path class="cls-10" d="M204.83,461.37c-12.1,0-21.99,10.17-21.99,22.82s9.9,22.27,21.99,22.27,22.27-9.9,22.27-22.27-10.45-22.82-22.27-22.82h0Zm42.34-83.86c-12.1,0-21.72,10.45-21.72,22.82s9.62,22.54,21.72,22.54,21.99-10.17,21.99-22.54-9.9-22.82-21.99-22.82h0Zm-5.22-94.03c-12.37,0-22.54,10.45-22.54,22.82s10.17,22.82,22.54,22.82,21.99-10.45,21.99-22.82-9.9-22.82-21.99-22.82h0Zm-26.39-76.16c-12.92,3.02-26.67,6.32-40.97,9.9v1.1c0,12.65,9.62,22.54,21.99,22.54s22-9.9,22-22.54c0-4.12-1.1-7.7-3.02-11h0Zm-83.86,67.91c-12.37,0-22,9.9-22,22.82s9.62,22.54,22,22.54,21.72-10.17,21.72-22.54-9.62-22.82-21.72-22.82h0Zm23.64,73.68c-12.1,0-21.99,10.17-21.99,22.82s9.9,22.82,21.99,22.82,21.99-10.45,21.99-22.82-9.62-22.82-21.99-22.82h0ZM48.94,253.52h-.55l.82,45.36c12.1,0,21.72-10.17,21.72-22.82s-9.62-22.54-21.99-22.54h0Zm7.15,103.93c-1.92,0-3.85,.27-5.77,.82l1.1,43.99c1.37,.55,3.02,.55,4.67,.55,12.37,0,22-9.9,22-23.09,0-12.37-9.62-22.27-22-22.27h0Zm14.85,75.61c-7.7,0-14.85,4.12-18.7,10.72l.55,24.47c3.85,6.05,10.72,9.9,18.15,9.9,12.1,0,22.27-9.9,22.27-22.54s-10.17-22.54-22.27-22.54h0Zm51.41,66.81c-12.1,0-21.72,10.17-21.72,22.82s9.62,22.54,21.72,22.54,21.99-9.9,21.99-22.54-9.9-22.82-21.99-22.82h0Zm84.41,55.81c-12.1,0-21.99,9.9-21.99,22.27s9.9,22.54,21.99,22.54,22.27-9.9,22.27-22.54-10.45-22.27-22.27-22.27h0Zm40.42,90.18c-12.1,0-21.72,10.17-21.72,22.82s9.62,22.82,21.72,22.82,21.99-10.17,21.99-22.82-9.9-22.82-21.99-22.82h0Zm-76.98,33.82c-12.37,0-22.27,10.17-22.27,22.54s9.9,22.54,22.27,22.54,21.99-9.9,21.99-22.54-9.9-22.54-21.99-22.54h0Zm-65.98-88.8c-12.1,0-22.27,9.9-22.27,22.54s10.17,22.27,22.27,22.27,21.99-10.17,21.99-22.27-10.17-22.54-21.99-22.54h0Zm-36.84,102.28c-3.57,0-6.87,.82-9.9,2.2l.82,40.97c2.75,1.1,5.77,1.92,9.07,1.92,12.1,0,21.99-9.9,21.99-22.54s-9.9-22.54-21.99-22.54h0Zm54.99,71.76c-12.1,0-21.72,10.45-21.72,22.54,0,6.32,2.2,11.82,6.05,15.95l23.09,5.77c8.52-3.3,14.57-11.82,14.57-21.72,0-12.1-9.9-22.54-21.99-22.54h0Zm106.67,23.64c-12.65,0-22.27,9.9-22.27,22.82,0,7.97,3.85,14.85,9.9,18.7l14.85,3.57c10.72-1.1,19.25-10.72,19.25-22.27,0-12.92-9.62-22.82-21.72-22.82h0Zm50.86-250.19v-44.54c-10.17,1.92-17.87,10.72-17.87,22.27,0,10.72,7.7,20.34,17.87,22.27h0Z"/>
      <polygon class="cls-6" points="283.18 191.38 279.88 845.46 279.06 845.18 274.66 191.38 279.61 190.56 283.18 191.38"/>
      <polygon class="cls-1" points="498.46 578.77 279.88 750.6 279.88 706.61 499.28 534.5 498.46 578.77"/>
      <polygon class="cls-1" points="437.97 230.42 480.59 240.6 279.88 398.41 279.88 354.7 437.97 230.42"/>
      <polygon class="cls-5" points="143.79 812.74 279.88 750.6 279.88 706.61 84.13 797.89 143.79 812.74"/>
      <polygon class="cls-5" points="53.34 501.24 279.88 398.41 279.88 354.7 52.51 459.45 53.34 501.24"/>
    </g>
  </g>
</svg>