<svg id="b44c0c92-6d82-41ad-b34a-76669229530f" data-name="Layer 1" xmlns="http://www.w3.org/2000/svg" viewBox="0 0 500 518.87"><path d="M106.22,271.61s15.8-2.74,30.14-.74c1.41.2,2.81.44,4.17.74,15.26,3.31-24.51,58.32-28.86,118.78l-32.14,2.18Z" transform="translate(0 0)" fill="#72c385"/><path d="M94,286.45a22.89,22.89,0,0,1,4.75-9.65l3.39,2.44a20.83,20.83,0,0,0-4.56,9.07c-1.06,4.73-.33,12.78,2.85,13.49s6.42-5.81,9.2-10.37c3.76-6.31,7.28-9.93,12.14-8.84,4.64,1,7.28,5.77,6.75,12.09,0,0,1.18,4.78-5.58,15.22l-3.32-2.5a36.14,36.14,0,0,0,4.76-10.77c1.15-5.14-1-7.65-3.22-8.15-2.91-.65-4.92,1.49-8.23,6.84-3.89,6.34-8.43,13.49-13.41,12.37-4.42-1-6.88-9.91-6.29-17Z" transform="translate(0 0)" fill="#4c884c"/><rect x="109.51" y="267.62" width="3.23" height="47.05" transform="translate(419.52 246.41) rotate(102.64)" fill="#4c884c"/><rect x="107.87" y="274.39" width="3.47" height="47.05" transform="translate(424.28 256.14) rotate(102.64)" fill="#4c884c"/><path d="M58.28,266.75s39-6.54,62.65-2.18c0,0-29,106.22-25.42,124.74l-33.68,3.26Z" transform="translate(0 0)" fill="#6bb17a"/><path d="M53.55,288.73c.84-4.7,2.87-9.37,5-11.93l4.24,2.7A25,25,0,0,0,58,290.7c-.95,5.77.47,15.38,4.35,16s7.3-7.43,10.33-13.1c4.09-7.83,8.06-12.43,14-11.46,5.65.93,9.15,6.43,8.94,14.06,0,0,1.75,5.66-5.65,18.67l-4.16-2.77a43.45,43.45,0,0,0,5-13.27c1-6.26-1.71-9.12-4.43-9.57-3.54-.58-5.8,2.13-9.41,8.79-4.24,7.89-9.2,16.79-15.25,15.79-5.38-.88-8.95-11.44-8.74-20Z" transform="translate(0 0)" fill="#407b41"/><rect x="72.5" y="264.87" width="3.89" height="56.62" transform="translate(375.82 267.3) rotate(99.34)" fill="#407b41"/><rect x="71.01" y="273.11" width="4.17" height="56.62" transform="translate(382.38 278.22) rotate(99.34)" fill="#407b41"/><path d="M32.23,376.23S2.39,335.38,0,282.54c0,0,26.26-24,65.05-27.78l3.58,113.3Z" transform="translate(0 0)" fill="#72c385"/><path d="M14.38,300.21a24.26,24.26,0,0,1-.16-11.41l4.38.68a22,22,0,0,0,.06,10.76c1.28,5,5.83,12.24,9.19,11.38s3.26-8.58,3.69-14.23c.52-7.77,2.1-12.89,7.22-14.2,4.89-1.25,9.66,1.94,12.2,8.18,0,0,3.41,3.94,2,17.06l-4.33-.76A38.77,38.77,0,0,0,48,295.2c-1.38-5.41-4.61-6.75-7-6.15-3.06.78-3.92,3.77-4.48,10.43-.62,7.86-1.46,16.8-6.7,18.14-4.66,1.2-11.28-6.05-14.14-13Z" transform="translate(0 0)" fill="#4c884c"/><rect x="31.11" y="271.45" width="3.43" height="49.9" transform="translate(311.81 191.04) rotate(75.63)" fill="#4c884c"/><rect x="32.81" y="278.58" width="3.68" height="49.9" transform="translate(320.09 194.63) rotate(75.63)" fill="#4c884c"/><path d="M190.53,448.28l-78.3,31.63s1,6.59-16.84-17.17c-2.7-3.6-11.85-19.54-11.85-19.54s11.22-20.62.1-52.12c0,0,5.73-78.56-36-49.84,0,0-41.88,33.72-33.54,74.77s18.68,46.73,18.68,46.73l10,56.13,134.71-.18Z" transform="translate(0 0)" fill="#d57a61"/><path d="M142.51,518.86s45.24-62.24,79-200.75c0,0-10.22-10.23,25.1-4.65v-9.57H234.13s34.23-85.4,37-108.56,21-133.63,109-192.07c0,0,40.91-27.8,37.55,79-3.28,104.5-15.9,212.18,2.07,254.8s79.33,143,80.26,181" transform="translate(0 0)" fill="#ea8e72"/><path d="M416,518.86a503.12,503.12,0,0,0-30.22-55.65s-4.91-1.88-3.77,1.89S393,484.74,393,484.74s-4.25-4.55-5.65-3.77c-3.24,1.81.08,6.07,2.72,8s17.61,19.11,19.12,29.93Z" transform="translate(0 0)" fill="#d57a61"/><path d="M246.62,303.89s55.59-4.87,103.75,21.19c0,0-5.75,3.7-103.75-11.62Z" transform="translate(0 0)" fill="#6b2410"/><path d="M284.39,276.26c-13.74,16.73-32.64,13.95-42.21-6.2s-8.29-47.29,5.45-64,35.66-14.57,45.24,5.58S298.13,259.53,284.39,276.26Z" transform="translate(0 0)" fill="#fdfdff"/><path d="M264.56,288.72a22.15,22.15,0,0,1-2.57-.15c-8.7-1.07-16.23-7.41-21.19-17.86-10.24-21.57-7.86-49.17,5.66-65.63,7-8.5,16.36-12.7,25.7-11.56S289.51,201,294.24,211c9.56,20.11,5.83,48.6-8.67,66.25C279.42,284.71,272,288.72,264.56,288.72Zm4.58-92.34c-7.41,0-14.7,3.77-20.33,10.63-12.81,15.6-15,41.84-5.26,62.39,4.5,9.48,11.18,15.21,18.81,16.14,7.28.89,14.69-2.74,20.86-10.24,13.79-16.81,17.35-43.9,8.27-63-4.27-9-11.45-14.73-19.7-15.74A21.42,21.42,0,0,0,269.14,196.38Z" transform="translate(0 0)" fill="#cbcbcb"/><ellipse cx="322.34" cy="242.58" rx="47.54" ry="33.06" transform="translate(51.77 541.8) rotate(-84.84)" fill="#fdfdff"/><path d="M320.19,291.55a26.35,26.35,0,0,1-3.07-.19c-9.43-1.17-17.65-7.55-23.13-18-10.93-20.74-7.38-51.47,7.9-68.5,7.43-8.28,16.56-12.22,25.66-11.09,9.43,1.17,17.65,7.55,23.14,18,10.92,20.74,7.37,51.47-7.9,68.5h0C336.19,287.62,328.27,291.55,320.19,291.55Zm4.31-94.9c-7.21,0-14.34,3.58-20.34,10.27-14.5,16.16-17.86,45.34-7.48,65.05,5,9.51,12.4,15.32,20.81,16.37,8.11,1,16.28-2.59,23-10.11,14.5-16.16,17.85-45.34,7.47-65-5-9.51-12.4-15.33-20.81-16.37A21.92,21.92,0,0,0,324.5,196.65Z" transform="translate(0 0)" fill="#cbcbcb"/><ellipse cx="318.48" cy="243.46" rx="9.25" ry="10.93" transform="translate(-12.27 16.95) rotate(-2.99)" fill="#310202"/><ellipse cx="261.36" cy="236.96" rx="9.25" ry="10.93" transform="translate(-12.01 13.96) rotate(-2.99)" fill="#310202"/><path d="M235.89,224s-6.55.24-6.76,4.24-2.87,6.5,6.9,6.63,40.38.58,40.38.58,15.84.75,23.49.75c3,0,.43-19.5.43-19.5s-3.4-22.68-27.76-22.94-30.88,17.11-30.88,17.11Z" transform="translate(0 0)" fill="#c9aee1"/><path d="M299.87,237.76c-7.6,0-23.37-.74-23.53-.75h0L236,236.43c-4.67-.06-6.95-.63-8.11-2s-.8-2.91-.54-4.33a16.12,16.12,0,0,0,.25-1.86c.2-3.82,4.29-5.27,7.25-5.6l5.44-12.31c0-.1,7-18,31.72-18h.56c25.37.27,29.22,24,29.25,24.24.7,5.28,2.08,17.81-.22,20.44A2.24,2.24,0,0,1,299.87,237.76ZM272,195.32c-22.49,0-28.64,15.46-28.89,16.12l-6.22,14.09-1,0s-5.17.31-5.3,2.79a16,16,0,0,1-.3,2.23c-.13.77-.29,1.64-.1,1.86s1.21.88,5.8.94c9.77.13,40.38.58,40.38.58.2,0,15.32.72,23,.75.79-2,.35-10.54-.61-17.78-.13-.84-3.54-21.37-26.27-21.62Z" transform="translate(0 0)" fill="#ac9ecd"/><path d="M291.74,226.1s-6.55.25-6.76,4.52-2.88,6.94,6.9,7.08,40.22,1.42,40.22,1.42h23.65c3,0,.42-20.82.42-20.82s-3.4-24.22-27.76-24.5-30.87,18.27-30.87,18.27Z" transform="translate(0 0)" fill="#c9aee1"/><path d="M350.31,134.32l20.5,15.56s1.1,2.75-7.32,1.84c0,0,4.39,4,1.28,7.14,0,0-17.94-13-24-18.68a8.3,8.3,0,0,1,5.86-1.46S342.4,127.73,350.31,134.32Z" transform="translate(0 0)" fill="#310202"/><path d="M280.78,136.89l23.45-6.9s2.63.7-3.09,6.62c0,0,5.52-1.09,5.87,3,0,0-20.08,6.39-27.77,7.81a8.5,8.5,0,0,1,2.48-5.3S271.31,139.22,280.78,136.89Z" transform="translate(0 0)" fill="#310202"/><ellipse cx="366.37" cy="94.14" rx="4.47" ry="2.99" transform="translate(239.68 450.56) rotate(-84.84)" fill="#d57a61"/><ellipse cx="224.65" cy="480.69" rx="4.47" ry="2.99" transform="matrix(0.09, -1, 1, 0.09, -274.29, 661.22)" fill="#d57a61"/><ellipse cx="415.99" cy="485.15" rx="4.47" ry="2.99" transform="matrix(0.09, -1, 1, 0.09, -104.6, 855.84)" fill="#d57a61"/><path d="M319.3,226.19s11.86-3.3,20.41,1.36c0,0,2.81,2.87-1,2.66s-2.8-3.64-19.73-.77C318.93,229.44,315.92,226.91,319.3,226.19Z" transform="translate(0 0)" fill="#ac9ecd"/><path d="M258.54,223.06s9.54-2.73,15.06.78c0,0,1.81,2.14-.7,1.95s-3.31-2.93-14.36-1C258.54,224.81,256.34,223.55,258.54,223.06Z" transform="translate(0 0)" fill="#ac9ecd"/><path d="M355.75,240.54H332.1c-.37,0-30.6-1.28-40.24-1.42-4.51-.06-6.83-.65-8-2s-.84-2.94-.58-4.51a18.79,18.79,0,0,0,.26-2c.19-4,4.26-5.46,7.2-5.8l5.47-13.23c0-.12,7.14-19.6,32.2-19.14,25.29.29,29.12,25.47,29.15,25.72.7,5.67,2.08,19.07-.23,21.69A2.15,2.15,0,0,1,355.75,240.54Zm-27.88-45.32c-22.64,0-28.93,17.14-29,17.32l-6.18,14.94-.91,0c-.05,0-5.26.3-5.4,3.17a19.86,19.86,0,0,1-.29,2.35c-.17,1-.31,1.89,0,2.22s1.45,1,5.84,1c9.68.14,40,1.4,40.26,1.42h23.17c.85-2,.42-11.3-.57-19.23-.13-.91-3.54-23-26.36-23.25Z" transform="translate(0 0)" fill="#ac9ecd"/></svg>