<svg id="a4f581d3-ac6d-44bd-b1da-2e85d4cfdcb1" data-name="edbb54bd-73fd-4ed9-8e54-1b96f8e79b79" xmlns="http://www.w3.org/2000/svg" viewBox="0 0 500.02 410.66"><path d="M100,292.34S29.51,311.81,0,410.66H463.12S449.25,339.1,370.32,328,100,292.34,100,292.34Z" transform="translate(0 0)" fill="#1c4cd3"/><path d="M463.08,271.07a21.77,21.77,0,0,0-.06-3.61h0A24.18,24.18,0,0,1,463.08,271.07Z" transform="translate(0 0)" fill="#5a8d3e"/><path d="M85.81,272.56c19.79,48.27,81.37,63.77,81.37,63.77,133.36,48.12,201.18,3.21,201.18,3.21l3.17-5.11c-2,.13-31.45,1.69-71.76,1.69-52.15,0-106-4.85-149.53-22.52l.76-1.86c76.68,31.17,217.32,21.21,221.65,20.88l.19-.31c45.88-13.23,63.55-30.68,68.81-37.17-14.78,1-38.59,1.29-76.93-.87-62.44-3.53-87.65-9.6-97.55-13.28a33.94,33.94,0,0,0-15.5-1.9c-19.45,2.12-61.85,4.58-56.63-15.19,6.75-25.55,19.28-27,55.44-27.48s54,13.5,54,13.5L372,252.33c74,9,102.87-12.63,104.09-13.57V239c0,.08,6.93-3.55,6.5,8.72.55-12.62-6.48-9-6.48-9-4.7-35.34-32.86-54.11-32.86-54.11l1.33-4.73c-10.11,3.94-23.4,3.86-34.72,3.86-6.61,0-12.19-.32-15.47-.56a58.44,58.44,0,0,1,7.07,7.84l-1.61,1.19c-12.15-16.2-27.48-19-27.63-19l.33-2c.49.08,9.49,1.69,19.31,9.71,3.22.35,35.58,3.6,53.37-3.38,28.64-6.51,34-24,34-24,8,0,11.42-6.6,12.77-10.66-.19.06-.33-.09-.28-.42-4.18,2.9-10.91,5.7-21.47,7.85-2.85.58-6,1.12-9.4,1.59-19.58,2.69-37.52,4.63-52.78,4.68-20.83.07-36.55-3.45-44.33-13.57-.21-.28-.47-.51-.67-.8,0,0-.33.27-1,.73-2.93,2.11-12.6,8.4-28.55,12.81a128.18,128.18,0,0,1-28.13,4.45c-10.7.52-22-1.4-32.75-4.42-1.19-.33-2.38-.68-3.57-1h0A222.12,222.12,0,0,1,225,135.2c-.64.08.49.32-.5.32-10.33,0-16.65-1.82-19.28-5.53-1.67-2.36-1.79-5.42-.35-9.1,3.28-8.37,25.39-7,29.25-6.73,45.33-27.56,61.62-23.3,62.28-23.1L295.88,93c-.16,0-16.42-4.09-61,23.06l-.28.17h-.32c-6.84-.57-25.14-.73-27.55,5.44-1.19,3-1.16,5.42.12,7.22,2.23,3.15,6.09,4.76,15.41,4.72l-.11-.07.29.07h2.69v.52c7,1,25.43,2.29,48.89-7.46,8.22-3.41,20.09-6.21,32.24-8.18l3.21-.52h0c17.24-2.57,34.44-3.42,42-1.85,0,0,12.45-.39,12.73,8.8l.24-2.52-.37-6.31a37.77,37.77,0,0,0-.47-8.16c-.36-2.32-1.26-3.14-2.9-4.63a29.7,29.7,0,0,1-4.78-5.3c-3.79-5.37-11-3-11.35-2.85l-.57-2c.07,0,5-1.68,9.49.21.16-2.61,0-5.7-.8-6.64a.42.42,0,0,0-.36-.19c-3.41,0-9.26-2.83-9.51-3-37.6-10.77-66.39-.07-66.68,0-29.26,18-51.66,23.55-51.89,23.6l-.47-1.94c.22-.06,22.35-5.54,51.48-23.44.4-.17,22.72-8.47,53.83-3.36l-3.14-11c-2.3-2.09-24.75-21.7-57.29-21-34.2.7-64,27-64.32,27.23L203,72.31c.31-.27,30.67-27,65.63-27.74,25.55-.54,45,11.1,53.75,17.54.15-21.17-3.29-31.18-3.36-31.33l1.65-.81c.06.16,3.75,10.75,3.51,32.88,6.32-3.49,40.08-18.74,117.94-4.09l.65.05c.06-4.39-4.66-13.89-20.79-34.71C402.85-.64,377.31,9.73,365.34,9.73s-46.28,20.75-46.28,20.75c-2.4-6.38-13.57-13.56-13.57-13.56-51.87-34.32-100.08-7.72-110.93,4-40.9,44.13-38.65,54.43-45.9,67.21l1.52,1.29c-.1.12-10.53,12.84-13,45.19l-2-.15c1.59-21.06,6.41-33.84,9.83-40.5-23.08,5.44-47.6,35.23-50.31,45.16C94.74,139.11,57.65,203.88,85.81,272.56Zm118.06,24.87-.36,2C180,295.14,175.12,273.19,175.08,273l1.95-.41C177.08,272.76,181.68,293.41,203.87,297.43ZM342.7,165.26c-17.83,27-53.36,30.46-53.72,30.49l-.18-2c.34,0,33.41-3.37,51.05-28-7.64,1.27-18.22,2-33.5,2.95-4,.25-8.28.53-13,.85-2.78.19-5.48.27-8.09.27-20.17,0-35.15-5.23-44.54-9.93-11.53-5.77-17.22-11.87-17.46-12.13l1.47-1.35c.06.06,5.74,6.13,17,11.74,10.37,5.17,27.72,11,51.51,9.4l13-.85c16.9-1.09,28.06-1.81,35.7-3.35,7.84-1.57,12.24-3.95,16.8-9.07l1.49,1.32C355.47,161,350.68,163.6,342.7,165.26Z" transform="translate(0 0)" fill="#5a8d3e"/><path d="M325.46,64.47c1.3,1.07,2.05,1.76,2.09,1.79l.19.19L331.3,78.9a125,125,0,0,1,12.25,2.84c1.74.82,6.35,2.81,8.8,2.81a2.42,2.42,0,0,1,1.86.87c1.71,1.93,1.43,6.94,1.22,9.09a9.72,9.72,0,0,1,2.23,2.25,26.85,26.85,0,0,0,4.07,4.58c6.21-3.23,59-28.8,125.78.13l.72,1.93c-64.18-27.81-116.42-4.77-124.93-.6a7.82,7.82,0,0,1,2.39,4.73,41.78,41.78,0,0,1,.33,9.35v6.23a14.21,14.21,0,0,1-.45,4l-.1.06h.08c6.35-3.52,32.9-16.59,76.42-16.19,50.27.46,55.34,17.07,55.34,17.07a7,7,0,0,1,.47,1c.1-.21.24-.26.37-.17a10.6,10.6,0,0,0-1.22-5.18,12,12,0,0,0,3-9.49c-.74-5.77-11.66-11.06-11.66-11.06-9.58-27.93-45.93-42.29-45.93-42.29h0l-.54-.08C366,46.48,331.94,61.13,325.46,64.47ZM482.92,92.65c-55.28-29.17-113.07-5.29-113.63-5l-.8-1.84c.58-.25,56.4-25.45,112.56,4.18Z" transform="translate(0 0)" fill="#5a8d3e"/><path d="M442,110.9c-43.52-.4-70.07,12.67-76.42,16.19-.07,3.14-.21,6.28-.57,9.4a36.71,36.71,0,0,1-1.21,6.57c7.78,10.12,23.5,13.64,44.33,13.57a30.53,30.53,0,0,1,6.66-35.45A34.14,34.14,0,0,1,461.5,121a30.47,30.47,0,0,1,8.81,29.32c10.56-2.15,17.29-5,21.47-7.85a1,1,0,0,1,0-.24c.37-.88,1.26-2.3,1.62-3.17.2-.47.54-.55.93-.83a4.47,4.47,0,0,0,1-1.08,12.1,12.1,0,0,0,1.43-3.25,27.49,27.49,0,0,0,.72-3.11c.06-.35.12-.7.17-1.05v-.48a1,1,0,0,1,.11-.3,7,7,0,0,0-.47-1S492.24,111.36,442,110.9Z" transform="translate(0 0)" fill="#fff"/><path d="M272.7,155.83c10.73,3,22.05,4.94,32.75,4.42C294.85,160.77,283.52,158.85,272.7,155.83Z" transform="translate(0 0)" fill="#fff"/><path d="M222.18,133.49l.11.07h.18Z" transform="translate(0 0)" fill="#fff"/><path d="M278.16,126.24c.68-.66,1.4-1.26,2.13-1.85a206.63,206.63,0,0,1,26-6c-12.15,2-24,4.77-32.24,8.18-23.46,9.75-41.93,8.47-48.89,7.46l.09,1.14H225a222.33,222.33,0,0,0,44.1,19.58A30.67,30.67,0,0,1,278.16,126.24Z" transform="translate(0 0)" fill="#fff"/><path d="M364,128h0v-2.23a.57.57,0,0,1,.18-.39v-.53c-.28-9.19-12.73-8.8-12.73-8.8-7.56-1.57-24.76-.72-42,1.85a33.24,33.24,0,0,1,15.29,8.21,30.48,30.48,0,0,1,8.71,29.71c15.95-4.41,25.62-10.7,28.55-12.81.23-.71.48-1.42.64-2.14A67.92,67.92,0,0,0,364,128Z" transform="translate(0 0)" fill="#fff"/><path d="M476.08,239v-.25c-1.22.94-30.05,22.53-104.09,13.57l-67.49-2.41s-17.83-14-54-13.5-48.71,1.94-55.5,27.49c-5.22,19.77,37.18,17.31,56.63,15.19a33.94,33.94,0,0,1,15.5,1.9c9.9,3.68,35.11,9.75,97.55,13.28,38.34,2.16,62.15,1.91,76.93.87h.24a21.26,21.26,0,0,0,1.62-2.27c16.31-4.22,19.27-15.36,19.57-21.78a23.89,23.89,0,0,0-.09-3.59,2.25,2.25,0,0,1-.36.24,98.28,98.28,0,0,1-16.15,4.62c-36.11,8.07-74.18,7.62-110.81,4.2q-5.44-.51-10.89-1.13c-1.87-.21-3.75-.43-5.62-.66a14.93,14.93,0,0,1-4.09-.7c-.77-.34-1.51-.89-2.25-1.3a101.49,101.49,0,0,0-15.49-6.86A117.56,117.56,0,0,0,231,262.08c-3.06.73-4.35-4-1.3-4.7a122.42,122.42,0,0,1,72.24,5,104,104,0,0,1,14.36,6.69,9.88,9.88,0,0,0,1.13.67c.13.05.25.05,0,0,.77.21,3.26.32,4.59.47q10.34,1.23,20.69,2.06a422.18,422.18,0,0,0,67,.47,245.34,245.34,0,0,0,38.78-5.85A88.35,88.35,0,0,0,461.33,263c2.11-.87,3.32,1.37,2.75,3.12,15.67-2.53,17.8-11.94,17.8-11.94a50.18,50.18,0,0,0,.7-6.47C483,235.46,476.08,239,476.08,239Z" transform="translate(0 0)" fill="#9f5935"/><path d="M461.33,263a88.05,88.05,0,0,1-12.92,3.87,245.34,245.34,0,0,1-38.78,5.85,422.18,422.18,0,0,1-67-.47q-10.36-.83-20.69-2.06c-1.33-.15-3.82-.26-4.59-.47.25.07.13.07,0,0a9.88,9.88,0,0,1-1.13-.67,104,104,0,0,0-14.36-6.69,122.42,122.42,0,0,0-72.24-5c-3,.73-1.76,5.43,1.3,4.7a117.48,117.48,0,0,1,66.37,3.81,101.49,101.49,0,0,1,15.49,6.86A20.43,20.43,0,0,0,315,274a14.93,14.93,0,0,0,4.09.7c1.87.23,3.75.45,5.62.66q5.44.62,10.89,1.13c36.63,3.42,74.7,3.87,110.81-4.2a98.28,98.28,0,0,0,16.15-4.62,2.25,2.25,0,0,0,.36-.24h0a2.47,2.47,0,0,0,1.06-1.32C464.65,264.39,463.44,262.15,461.33,263Z" transform="translate(0 0)" fill="#773f2b"/><path d="M135.22,134.45l2,.15c2.44-32.35,12.87-45.07,13-45.19l-.86-.74-.66-.55A33.34,33.34,0,0,0,145.05,94C141.63,100.61,136.81,113.39,135.22,134.45Z" transform="translate(0 0)" fill="#375125"/><path d="M368.49,85.77l.8,1.84c.56-.25,58.35-24.13,113.63,5L481.05,90C424.89,60.32,369.07,85.52,368.49,85.77Z" transform="translate(0 0)" fill="#375125"/><path d="M225.2,134v-.52h-2.87c-9.32,0-13.18-1.57-15.41-4.72-1.28-1.8-1.31-4.17-.12-7.22,2.41-6.17,20.71-6,27.55-5.44h.32l.28-.17c44.55-27.15,60.81-23.11,61-23.06L296.5,91c-.66-.2-16.95-4.46-62.28,23.1-3.86-.3-26-1.64-29.25,6.73-1.44,3.68-1.32,6.74.35,9.1,2.63,3.71,9,5.53,19.28,5.53,1,0-.14-.24.5-.32h.26Z" transform="translate(0 0)" fill="#375125"/><path d="M341.92,163.38c-7.64,1.54-18.8,2.26-35.7,3.35l-13,.85c-23.79,1.62-41.14-4.23-51.51-9.4-11.24-5.61-16.92-11.68-17-11.74l-1.47,1.35c.24.26,5.93,6.36,17.46,12.13,9.39,4.7,24.37,9.93,44.54,9.93,2.61,0,5.31-.08,8.09-.27,4.68-.32,9-.6,13-.85,15.28-1,25.86-1.68,33.5-2.95-17.64,24.61-50.71,27.95-51.05,28l.18,2c.36,0,35.89-3.54,53.72-30.49,8-1.66,12.77-4.29,17.51-9.63l-1.49-1.32C354.16,159.43,349.76,161.81,341.92,163.38Z" transform="translate(0 0)" fill="#375125"/><path d="M391.85,181c-9.82-8-18.82-9.63-19.31-9.71l-.33,2c.15,0,15.48,2.78,27.63,19l1.61-1.19a58.44,58.44,0,0,0-7.07-7.84c3.28.24,8.86.56,15.47.56,11.32,0,24.61.08,34.72-3.86h.08l.57-2.26C427.43,184.57,395.07,181.32,391.85,181Z" transform="translate(0 0)" fill="#375125"/><path d="M177,272.56l-1.95.41c0,.22,4.89,22.17,28.43,26.43l.36-2C181.68,293.41,177.08,272.76,177,272.56Z" transform="translate(0 0)" fill="#375125"/><path d="M151,311.74l-.76,1.86c43.48,17.67,97.38,22.52,149.53,22.52,40.31,0,69.74-1.56,71.76-1.69h.18l1.12-1.81h-.18C368.32,333,227.68,342.91,151,311.74Z" transform="translate(0 0)" fill="#375125"/><path d="M324.87,126.09a33.24,33.24,0,0,0-15.29-8.21h0l-3.21.52a206.63,206.63,0,0,0-26,6c-.73.59-1.45,1.19-2.13,1.85a30.67,30.67,0,0,0-9,28.54h0c1.19.36,2.38.71,3.57,1,10.82,3,22.15,4.94,32.75,4.42a128.18,128.18,0,0,0,28.13-4.45A30.46,30.46,0,0,0,324.87,126.09ZM296.36,153a5.19,5.19,0,0,1-7.08,0,4.63,4.63,0,0,1-.2-6.56l.2-.2a5.19,5.19,0,0,1,7.08,0,4.62,4.62,0,0,1,.23,6.53Zm1.49-13.29a6,6,0,1,1-.05-8.49l.05.05a6,6,0,0,1,0,8.48ZM320.26,151a10.35,10.35,0,0,1-14.16.05,9.26,9.26,0,0,1-.43-13.1c.14-.15.28-.29.43-.43a10.36,10.36,0,0,1,14.16,0,9.26,9.26,0,0,1,.39,13.09Z" transform="translate(0 0)" fill="#261b10"/><path d="M461.47,121a34.14,34.14,0,0,0-46.71.14,30.53,30.53,0,0,0-6.66,35.45c15.26,0,33.2-2,52.78-4.68,3.44-.47,6.55-1,9.4-1.59A30.47,30.47,0,0,0,461.47,121Zm-32.23,25.61a5.19,5.19,0,0,1-7.08,0,4.63,4.63,0,0,1-.22-6.54l.22-.22a5.17,5.17,0,0,1,7.08,0,4.65,4.65,0,0,1,.23,6.57l-.23.23Zm1.49-13.29a6,6,0,1,1,0-8.49l0,0a6,6,0,0,1,0,8.47.06.06,0,0,1,0,0Zm22.41,11.2a10.34,10.34,0,0,1-14.16,0,9.26,9.26,0,0,1-.43-13.09c.14-.15.28-.29.43-.43a10.34,10.34,0,0,1,14.16,0,9.25,9.25,0,0,1,.53,13.07,6.15,6.15,0,0,1-.53.49Z" transform="translate(0 0)" fill="#261b10"/><path d="M306.1,137.47a9.26,9.26,0,0,0-.43,13.1c.14.15.28.29.43.43a10.35,10.35,0,0,0,14.16-.05,9.26,9.26,0,0,0,.43-13.09c-.14-.15-.28-.29-.43-.43A10.36,10.36,0,0,0,306.1,137.47Z" transform="translate(0 0)" fill="#fff"/><path d="M289.28,146.3a4.63,4.63,0,0,0-.2,6.56l.2.2a5.19,5.19,0,0,0,7.08,0,4.62,4.62,0,0,0,.23-6.53,2.5,2.5,0,0,0-.23-.23A5.19,5.19,0,0,0,289.28,146.3Z" transform="translate(0 0)" fill="#fff"/><path d="M289.39,131.32a6,6,0,1,0,8.49,0l0,0A6,6,0,0,0,289.39,131.32Z" transform="translate(0 0)" fill="#fff"/><path d="M439,131.08a9.26,9.26,0,0,0-.43,13.09c.14.15.28.29.43.43a10.34,10.34,0,0,0,14.16,0,9.26,9.26,0,0,0,.43-13.09l-.43-.43A10.34,10.34,0,0,0,439,131.08Z" transform="translate(0 0)" fill="#fff"/><path d="M422.16,139.91a4.63,4.63,0,0,0-.22,6.54c.07.08.15.15.22.22a5.19,5.19,0,0,0,7.08,0,4.65,4.65,0,0,0,.2-6.57l-.2-.2A5.17,5.17,0,0,0,422.16,139.91Z" transform="translate(0 0)" fill="#fff"/><path d="M422.27,124.93a6,6,0,1,0,8.49,0l0,0A6,6,0,0,0,422.27,124.93Z" transform="translate(0 0)" fill="#fff"/><path d="M364.05,127.74l.22-2.38a.57.57,0,0,0-.18.39C364.08,126.41,364.06,127.08,364.05,127.74Z" transform="translate(0 0)" fill="#cbcbcb"/><path d="M365.55,127.09h-.08L364,128a68,68,0,0,1-1.27,12.89c-.16.72-.41,1.43-.64,2.14l1-.73c.2.29.46.52.67.8a36.71,36.71,0,0,0,1.21-6.57C365.34,133.37,365.48,130.23,365.55,127.09Z" transform="translate(0 0)" fill="#cbcbcb"/><path d="M497.42,134a27.08,27.08,0,0,0,.73-3.67c.05-.31.15-.61.18-.92a.59.59,0,0,0-.18-.6c-.13-.09-.27,0-.37.17a1,1,0,0,0-.11.3v.48c-.05.35-.11.7-.17,1.05a27.49,27.49,0,0,1-.72,3.11,12.1,12.1,0,0,1-1.43,3.25,4.47,4.47,0,0,1-1,1.08c-.39.28-.73.36-.93.83-.36.87-1.25,2.29-1.62,3.17a1,1,0,0,0,0,.24c-.05.33.09.48.28.42a.63.63,0,0,0,.38-.4c.09-.23.27-.54.42-.82.38-.75.81-1.53,1.11-2.19C495.91,138.52,496.85,136,497.42,134Z" transform="translate(0 0)" fill="#cbcbcb"/><path d="M442.14,58.76c-77.86-14.65-111.62.6-117.94,4.09.24-22.13-3.45-32.72-3.51-32.88l-1.65.81c.07.15,3.51,10.16,3.36,31.33-8.77-6.44-28.2-18.08-53.75-17.54-35,.71-65.32,27.47-65.63,27.74l1.34,1.49c.29-.26,30.12-26.53,64.32-27.23,32.54-.74,55,18.87,57.29,21l3.14,11c-31.11-5.11-53.43,3.19-53.83,3.36-29.13,17.9-51.26,23.38-51.48,23.44l.47,1.94c.23,0,22.63-5.6,51.89-23.6.29-.11,29.08-10.81,66.68,0,.25.13,6.1,3,9.51,3a.42.42,0,0,1,.36.19c.83.94,1,4,.8,6.64-4.46-1.89-9.42-.23-9.49-.21l.66,1.89c.31-.1,7.56-2.52,11.35,2.85a29.7,29.7,0,0,0,4.78,5.3c1.64,1.49,2.54,2.31,2.9,4.63a37.77,37.77,0,0,1,.47,8.16l.37,6.31-.24,2.52v.53l-.22,2.38v.23h0l1.43-.83.1-.06a14.21,14.21,0,0,0,.45-4V117a41.78,41.78,0,0,0-.33-9.35,7.82,7.82,0,0,0-2.39-4.73c8.51-4.17,60.75-27.21,124.93.6l-.72-1.93C420.8,72.67,368,98.24,361.78,101.47a26.85,26.85,0,0,1-4.07-4.58,9.72,9.72,0,0,0-2.23-2.25c.21-2.15.49-7.16-1.22-9.09a2.42,2.42,0,0,0-1.86-.87c-2.45,0-7.06-2-8.8-2.81a123.7,123.7,0,0,0-12.3-3l-3.56-12.45-.19-.19s-.79-.72-2.09-1.79c6.48-3.34,40.58-18,116.31-3.75l.54.08h.06a6.06,6.06,0,0,0,.54-2h-.12Z" transform="translate(0 0)" fill="#375125"/></svg>