<svg id="ebf96793-e92f-4a74-9625-774aa9f4431f" data-name="Layer 1" xmlns="http://www.w3.org/2000/svg" xmlns:xlink="http://www.w3.org/1999/xlink" viewBox="0 0 500 663.64"><defs><clipPath id="f8163097-c597-49cb-94f5-fc2a72232d78" transform="translate(0)"><path d="M226.32,280.08s20.52-10.53,55.81-10.88,46.22,7.05,46.22,7.05-1.05,38.47-49.22,40.94S226.32,280.08,226.32,280.08Z" fill="none"/></clipPath></defs><path d="M399.43,641.13c80.68-8.79,60.71-50.33,55.92-64.71s-20.77-20-24.77-23.15,2.4-131,3.2-136.6,28.76-24,48.65-46.33,7.26-51.93,0-56.72-10.31-35.94-8.71-38.34,19.17-26.36,19.17-26.36c22.37-36.74-15.18-68.7-15.18-68.7s12-22.36-13.58-89.46S316.36-14.68,179,5.29-7.15,119.52.83,241.73,122.25,395.1,122.25,395.1l-24,140.2,57.91,38.61c21,42.53,148,84.27,163.23,86.34,0,0,43.42,15.32,80.09-19.12" transform="translate(0)" fill="#b8d6c5"/><path d="M468.44,278.33c.27-.68-.12.16-.26.38l-.11.15c-.15.23.19-.23,0-.05l-.33.39a9.89,9.89,0,0,1-.94.89c-.08.07-.27.2-.08.06l-.34.25c-.23.16-.47.31-.71.46a14.32,14.32,0,0,1-1.65.84,21,21,0,0,1-5.28,1.36,41.4,41.4,0,0,1-9,.09c-1.79-.14-1.78,2.66,0,2.8,4.9.4,10.18.36,14.82-1.45a12.86,12.86,0,0,0,5.89-4.18,4.92,4.92,0,0,0,.69-1.25c.66-1.68-2.05-2.41-2.7-.74Z" transform="translate(0)" fill="#668e77"/><path d="M469.14,295.21c-.16.16-.3.22,0,0a8,8,0,0,1-.79.49c-.12.07-.75.35-.4.2-.23.1-.47.18-.71.26a12.28,12.28,0,0,1-1.85.4c-5.33.56-10.7-1.77-15.28-4.23-1.59-.85-3,1.57-1.42,2.42,4.41,2.36,9.25,4.41,14.31,4.66a12.74,12.74,0,0,0,7-1.4,5.45,5.45,0,0,0,1.14-.83,1.4,1.4,0,0,0-2-2Z" transform="translate(0)" fill="#668e77"/><path d="M228,277.06s20.22-11.38,55-11.76,45.57,7.63,45.57,7.63-1,41.58-48.52,44.25S228,277.06,228,277.06Z" transform="translate(0)" fill="#ede8b3"/><path d="M228.42,277.87c17.27-9.63,39.6-11.83,58.89-11.64,11.32.11,23.07.87,33.9,4.44,2,.67,4,2,6,2.54,1.36.37.43-.25.34.28-2,12.05-5.86,23-15.51,31.23-16.68,14.29-46.45,16.22-64.56,3.63a46,46,0,0,1-18.61-31.29c-.13-1.18-2-1.19-1.87,0a48.5,48.5,0,0,0,14.77,29.05c16.43,15.3,44.74,15.69,63.82,5.29,13.16-7.18,21.62-20.74,23.57-35.47.35-2.61.58-3.51-1.81-4.76-7-3.69-15.46-5-23.23-5.85a158.48,158.48,0,0,0-54,2.93c-7.67,1.82-15.74,4.14-22.68,8C226.43,276.84,227.37,278.46,228.42,277.87Z" transform="translate(0)" fill="#b5ad7f"/><g clip-path="url(#f8163097-c597-49cb-94f5-fc2a72232d78)"><path d="M270.36,260.82a17.48,17.48,0,0,0-.3,25.63,19.78,19.78,0,0,0,27,.23,17.49,17.49,0,0,0,.3-25.63A19.8,19.8,0,0,0,270.36,260.82Z" transform="translate(0)" fill="#792b19"/></g><path d="M368.72,284.54s2.6,8,9.76,10.46c0,0,8.42,3.05,12.12,18.35,0,0,20.42,14.49,50.86-6.41,0,0,13.38-6.68,12-26.59C453.47,280.35,398.51,264.68,368.72,284.54Z" transform="translate(0)" fill="#ede8b3"/><path d="M367.82,284.79a19.29,19.29,0,0,0,5.46,8.21c2.23,1.95,5,2.57,7.24,4.31,4.7,3.57,7.21,9.35,8.81,14.84.61,2.13,1.16,2.35,3.09,3.31,16.92,8.4,36.52,1.39,51-8.65,8.55-5.92,11.5-16.53,11-26.46a1,1,0,0,0-.69-.9,165.58,165.58,0,0,0-32-5.43c-18-1.42-37.94-.41-53.51,9.72-1,.65-.07,2.27.94,1.61,15.18-9.87,34.51-10.83,52.06-9.5A181.18,181.18,0,0,1,443.51,279c2,.41,4.08.86,6.1,1.34.61.15,3.08.36,3.48.89-.2-.26-.49,3.77-.53,4.36a31,31,0,0,1-1.36,7.33,24.85,24.85,0,0,1-5.87,9.84c-4,4.12-9.85,7.14-14.95,9.52-8.39,3.92-17.85,6-27.1,4.61-3.27-.5-9.42-1.47-11.86-4.1-.72-.77-.72-2.64-1.12-3.78a36.57,36.57,0,0,0-2.47-5.67,23.65,23.65,0,0,0-6.28-7.56c-1.74-1.31-3.72-1.82-5.52-3a16.75,16.75,0,0,1-6.41-8.48C369.24,283.16,367.43,283.65,367.82,284.79Z" transform="translate(0)" fill="#b5ad7f"/><path d="M405,265.77a17.49,17.49,0,0,0-.3,25.63,19.8,19.8,0,0,0,27,.23A17.48,17.48,0,0,0,432,266,19.8,19.8,0,0,0,405,265.77Z" transform="translate(0)" fill="#792b19"/><path d="M365.56,281.62s6-33.22,41.79-35.61c0,0,25.91,12.81,33.5,14.31,0,0,12.72,8.32,12.72,23.83,0,0-30.39-17.1-82.62,0C371,284.15,366.83,286.05,365.56,281.62Z" transform="translate(0)" fill="#90bba6"/><path d="M366.64,281.91c2.23-12,10.7-23.44,21.29-29.32a42.66,42.66,0,0,1,17.54-5.3c2.6-.16,4.66,1.32,7.12,2.5,8.19,3.9,16.52,8.06,25.18,10.85,9.29,3,14.47,14.29,14.68,23.51l1.69-1c-7.22-4-16.06-5.76-24.13-6.82a117.85,117.85,0,0,0-28.77-.09,146.08,146.08,0,0,0-17.74,3.15q-4.81,1.15-9.55,2.6c-2.28.7-5.91,2.9-7.31-.7-.51-1.33-2.68-.75-2.16.59,1.1,2.83,2.94,4.13,6,3.58,5.58-1,11.1-3.39,16.69-4.62a128.69,128.69,0,0,1,35.86-3c9.87.65,21.16,2.29,30,7.21a1.13,1.13,0,0,0,1.68-1c-.2-8.81-4.71-19.83-12.81-24.47-2.8-1.6-6.55-2.24-9.59-3.48-5.26-2.14-10.44-4.52-15.58-6.93-2.72-1.28-5.83-3.48-8.76-4.21-4.44-1.1-11.33,1.37-15.46,3a44.37,44.37,0,0,0-21.63,18,45.3,45.3,0,0,0-6.38,15.34C364.22,282.73,366.38,283.33,366.64,281.91Z" transform="translate(0)" fill="#799987"/><path d="M395.1,232.8c12.34,17.59,34.69,28.43,56,26.92,1.78-.13,1.8-2.93,0-2.8A59.62,59.62,0,0,1,411.43,245a62.23,62.23,0,0,1-13.91-13.62c-1-1.47-3.46-.07-2.42,1.41Z" transform="translate(0)" fill="#668e77"/><path d="M323.76,546.38a97.72,97.72,0,0,0,15.8,3c8.68,1,18.36,1.07,26.29-3.09,1.6-.84.18-3.26-1.41-2.42-7.6,4-17.09,3.61-25.37,2.65a91.26,91.26,0,0,1-14.56-2.79,1.4,1.4,0,0,0-.75,2.7Z" transform="translate(0)" fill="#668e77"/><path d="M264.54,339.38c23.6,0,48.34-13.47,61.8-34,1.13-1.72-1.26-3.54-2.4-1.81a71.89,71.89,0,0,1-37.65,28.72c-6.76,2.26-14.36,4-21.28,4-2,0-2.45,3.13-.47,3.13Z" transform="translate(0)" fill="#668e77"/><path d="M287.09,493.78s22.35-14.72,27.83-23.88c0,0,18.13-26.26,40.9-3.18,0,0,4.64-6.77,11.39-7.56s20.24,3.18,26.14,24.28c0,0,2.5,5.71,3.55,7.43a17.12,17.12,0,0,0,2.35,2.91s-7.59,2-12.65,17.92-16,20.69-38,21.89S314.07,528,303.53,510.9A41.78,41.78,0,0,0,287.09,493.78Z" transform="translate(0)" fill="#d2b7a6"/><path d="M287.79,495c10.37-6.85,20.9-14.44,28.38-24.44a32.86,32.86,0,0,1,10.59-9.28c10.26-5.49,20.27-1.2,28.07,6.44a1.43,1.43,0,0,0,2.2-.28c6.33-9,17.12-8.41,24.74-1.61,5.57,5,7.72,11.39,10.3,18.16,1.45,3.81,3.3,7.86,6.19,10.8l.62-2.35c-5.2,1.48-8.88,7.66-11,12.12-2.31,4.9-3.36,10.31-6.39,14.87a24.16,24.16,0,0,1-11.47,9c-10.76,4.28-24.78,5-36.12,3.1-11.5-2-20.47-8.57-27-18.07-1.91-2.77-3.37-5.81-5.35-8.53a45.93,45.93,0,0,0-13.74-12.37,1.4,1.4,0,0,0-1.41,2.41,42.51,42.51,0,0,1,14,13.15c1.79,2.75,3.26,5.62,5.22,8.29,5.95,8.12,13.78,14.35,23.62,17,11.24,3,24.18,2.19,35.44-.38,8.63-2,16.22-6.3,20.54-14.26,3.15-5.8,4.22-12.44,8.08-17.92,1.48-2.1,3.74-4.94,6.38-5.69a1.42,1.42,0,0,0,.62-2.35c-4.84-4.9-5.85-12.27-8.72-18.26-2.72-5.68-6.83-10.92-12.4-14-8.81-4.91-18.59-2.88-24.51,5.51l2.2-.28c-6.79-6.65-15.47-11.59-25.23-9.3-6.35,1.49-12,5.69-16.15,10.58s-7.79,9.38-12.72,13.48a185.09,185.09,0,0,1-16.33,12.09C284.88,493.57,286.28,496,287.79,495Z" transform="translate(0)" fill="#89614d"/><path d="M288.74,495.51a109,109,0,0,0,18.11,1.79c9.92.21,21.08-.57,29.72-5.95A21,21,0,0,0,346,478.78a1.4,1.4,0,0,0-2.7-.75c-2.57,9.79-12.14,13.89-21.3,15.49-8.77,1.54-17.92,1.2-26.73.15-1.94-.23-3.88-.49-5.8-.86-1.76-.34-2.51,2.36-.74,2.7Z" transform="translate(0)" fill="#89614d"/><path d="M334.27,493.19c9.43,3.22,22.2,4.13,30.58-2.07a21.14,21.14,0,0,0,7.43-11c.53-1.73-2.17-2.46-2.7-.74a18.18,18.18,0,0,1-14.64,12.9,40.14,40.14,0,0,1-16.36-.79,36.05,36.05,0,0,1-3.56-1c-1.71-.58-2.45,2.12-.75,2.7Z" transform="translate(0)" fill="#89614d"/><path d="M350.27,495.51c-.66-.27-.27-.11-.12,0l.55.26c.63.32,1.24.68,1.84,1.06.38.24.75.49,1.11.76l.27.2c-.31-.23,0,0,.1.08l.58.49a14.53,14.53,0,0,1,1.12,1.1,7.45,7.45,0,0,1,.52.6l.11.13c.12.15-.14-.2,0,0l.29.39a14.19,14.19,0,0,1,.87,1.57c.09.18-.07-.22,0,0s.07.18.1.26.09.28.14.42c.09.33.17.66.23,1a1.4,1.4,0,0,0,1.72,1,1.42,1.42,0,0,0,1-1.72c-.76-4.36-4.59-7.62-8.33-9.56-.43-.22-.86-.42-1.3-.61a1.41,1.41,0,0,0-1.72,1,1.43,1.43,0,0,0,1,1.72Z" transform="translate(0)" fill="#89614d"/><path d="M364.86,489.91c9.7,7,23.52,9.84,34.55,4.51,1.62-.79.2-3.2-1.42-2.42-10.13,4.9-22.88,1.92-31.72-4.51-1.46-1.06-2.86,1.37-1.41,2.42Z" transform="translate(0)" fill="#89614d"/><path d="M213.92,292c-8.48-1.69-18.15.2-24.89,5.66-1.4,1.13.59,3.1,2,2a25.67,25.67,0,0,1,14.72-5.28,35.15,35.15,0,0,1,5.43.08,13.59,13.59,0,0,1,2,.26c1.76.35,2.52-2.35.75-2.7Z" transform="translate(0)" fill="#668e77"/><path d="M332.91,152.57c14.93,24.79,22,60.21,4.41,85.26-1,1.48,1.39,2.88,2.42,1.42,18.17-25.86,11-62.5-4.41-88.1a1.4,1.4,0,0,0-2.42,1.42Z" transform="translate(0)" fill="#668e77"/><path d="M388,148.08a140.21,140.21,0,0,0-15.39,37.14c-3.83,15.4-3.94,34,7.31,46.54,1.2,1.34,3.18-.64,2-2-11.36-12.66-10-31.87-5.73-47a140.57,140.57,0,0,1,14.25-33.24,1.4,1.4,0,0,0-2.42-1.42Z" transform="translate(0)" fill="#668e77"/><path d="M338.13,93.15c4.53,5.5,8.15,12.47,11.05,19a102.51,102.51,0,0,1,8.18,51c-.17,1.79,2.63,1.78,2.8,0a104.85,104.85,0,0,0-8.25-51.63c-3.07-7.12-6.84-14.33-11.8-20.35-1.15-1.39-3.12.6-2,2Z" transform="translate(0)" fill="#668e77"/><path d="M146.05,115c18.6,10,35.72,29.25,37.91,50.8.63,6.27-.15,12.5-3.7,17.82-2.68,4-6.47,7.13-9.86,10.52-7.52,7.52-11.1,16.11-11.64,26.75-.62,12.27,3.28,24.88,13.11,32.76,1.39,1.12,3.39-.85,2-2-9.47-7.59-12.92-19.49-12.25-31.25.35-6.2,1.62-12.13,5-17.41,2.82-4.38,6.75-7.77,10.42-11.39,8.23-8.13,11.13-17.32,9.34-28.84-2.11-13.49-9.62-25.46-19.13-35a86.68,86.68,0,0,0-19.77-15.2c-1.59-.85-3,1.57-1.42,2.42Z" transform="translate(0)" fill="#668e77"/><path d="M218.63,277.7c-2.71,1.69-6.66,2.23-10,2-10.4-.67-18.75-8.72-24.68-16.58-1.07-1.43-3.5,0-2.41,1.41,8.07,10.71,21.38,21.89,35.75,16.82a14.37,14.37,0,0,0,2.8-1.26c1.52-.95.12-3.37-1.42-2.41Z" transform="translate(0)" fill="#668e77"/><path d="M328.48,274.7c-67-17.31-101.25,5.52-101.25,5.52s-8.17-18,22.77-29.77c0,0,23.08-2.68,33.31-8.75,0,0,20.64-5.36,33.59,9.81S328.48,274.7,328.48,274.7Z" transform="translate(0)" fill="#90bba6"/><path d="M328.78,273.62c-24.66-6.27-50.77-9-75.9-3.82-8.81,1.81-18.59,4.41-26.22,9.46l1.53.4c-6.28-14.23,14.33-26.91,26.05-28.67a156.27,156.27,0,0,0,15.62-3.1c4.89-1.26,9.2-3.55,13.88-5.15,7.85-2.68,18.84-.46,25.61,3.74,7.1,4.42,12.78,12.39,16.1,20,1,2.21,2.21,6.21,1.95,7.94-.21,1.41,2,2,2.16.59,1.25-8.3-6.49-17.9-11.3-23.6-8-9.44-20.08-13-32.12-11.35-3.91.54-7,2.62-10.74,3.88a122.63,122.63,0,0,1-19.76,4.59,39.81,39.81,0,0,0-12.71,3.8c-5.51,2.76-10.89,6.45-14.37,11.65-3.17,4.74-4.7,11.4-2.3,16.82a1.12,1.12,0,0,0,1.53.4c7.24-4.78,16.44-7.26,24.8-9,25-5.33,51.06-2.6,75.59,3.63A1.12,1.12,0,0,0,328.78,273.62Z" transform="translate(0)" fill="#799987"/><path d="M223.56,251.23c29.15,5.56,62.87-5.38,84.3-27.62,1.8-1.87-.73-4.67-2.54-2.8a90.44,90.44,0,0,1-53.23,26.71c-8.89,1.23-18.67,1.58-27.23-.05-2.42-.46-3.75,3.3-1.3,3.76Z" transform="translate(0)" fill="#668e77"/><path d="M148.69,308.09c-15.63,18.62-22,47.08-7.11,67.9a67.89,67.89,0,0,0,24.82,20.86,181.4,181.4,0,0,0,17,6.63,219.92,219.92,0,0,0,30.83,9.16c3.84.79,8.32.56,12,1.59-.21-.06-.07-.07.15.12,2.41,2,2.75,7.2,3,10.18,1.14,12.85-.61,26.07-2.34,38.78-.23,1.76,2.46,2.52,2.7.74,1.57-11.54,3-23.26,2.69-34.93-.12-4.61-.27-9.95-2.32-14.2a5.94,5.94,0,0,0-3.25-3.4c-1.36-.44-3-.21-4.43-.36A105.63,105.63,0,0,1,207,408.07a287.91,287.91,0,0,1-29.39-9.71c-6.75-2.59-12.39-5-18.37-9.21-16.71-11.65-26.76-29.5-22.49-50a67.88,67.88,0,0,1,13.9-29.05c1.15-1.37-.82-3.37-2-2Z" transform="translate(0)" fill="#668e77"/><path d="M155.29,572.85c-4.72-10.47.19-20,1.48-30.75,2.22-18.67,3.81-37.42,5.41-56.15q3.78-44.43,6.93-88.9h0c.13-1.79,2.93-1.8,2.8,0,0,.59-.09,1.17-.13,1.76-1.78,31.86-4.75,63.73-7.52,95.52-1.48,17-2.94,33.95-5.07,50.85-.33,2.6-.67,5.21-1.08,7.79-.22,1.39-.77,4.19-.9,4.68-2,7.54,2.57,14.86,2,21.48Z" transform="translate(0)" fill="#668e77"/><path d="M309.08,367.25C289.58,392.17,274.42,422,264.72,452a201.93,201.93,0,0,0-9.06,42.86c-.17,1.79,2.63,1.78,2.8,0,4.06-42.26,22.89-82.88,46.77-117.56,1.78-2.57,4.23-6,5.83-8.08,1.1-1.41-.87-3.4-2-2Z" transform="translate(0)" fill="#668e77"/><path d="M288.89,399.1a38.13,38.13,0,0,0-.72,7.76c0,4.63.77,9.66,3.49,13.53a14.12,14.12,0,0,0,7,5.25c1.7.61,2.43-2.1.74-2.7-8.36-3-9-13.47-8.13-20.95.07-.6.16-1.3.33-2.14.37-1.76-2.33-2.51-2.7-.75Z" transform="translate(0)" fill="#668e77"/><path d="M369.11,245.66a92.61,92.61,0,0,0-5.72,22.81c-1.13,10,.66,18.09,8.86,24.35,3.34,2.55,7.05,4.65,10.13,7.52a23.54,23.54,0,0,1,7.17,15.24c1.71,16.66-3.74,34.09-6.57,50.4-1.06,6.15-2.05,12.45-1.67,18.7.32,5.17,2,10.09,3.3,15.06,2.32,8.75,7.67,24.91-.43,32.21-3.75,3.39-10,3.31-14.72,4.44-4.22,1-8.46,2.28-12.81,2.52-12.95.73-21.5-10.61-27.79-20.45-2.4-3.76-4.84-5.66-8.83-7.83-3.26-1.77-8.35-4.18-11.78-1.48s-2.94,8-.5,11c2.2,2.74,5.88,4.45,9.26,5.25,1.75.41,2.5-2.29.74-2.7-3.24-.76-7.66-2.63-8.83-6-3-8.83,7.73-4.82,11.17-2.75a24.22,24.22,0,0,1,4.15,2.81c2.17,2.09,3.58,5.37,5.37,7.86,3.38,4.75,7.19,9.36,12,12.75,6.75,4.76,14.2,5,22,3.35,4.28-.92,8.48-2.14,12.8-2.9s8.23-1.7,11-5.28c5.83-7.4,3.3-19,1.38-27.34-1.18-5.16-2.85-10.2-4-15.36-1.37-6.08-.78-12.44.11-18.55,2.32-15.85,6.54-31.39,7.5-47.43.61-10.19-1.41-20-9.53-26.71-3.44-2.84-7.4-5-10.77-7.93-4.8-4.17-6.36-9.2-6.3-15.48.1-9.2,2.64-18.73,6-27.29.65-1.68-2.05-2.41-2.7-.74Z" transform="translate(0)" fill="#668e77"/><path d="M382.72,374a78.56,78.56,0,0,1,10.09,13.23,35.62,35.62,0,0,1,4.89,11.43c.69,3.52.25,8.84-2.64,11.37a3.79,3.79,0,0,1-3,.93,5.9,5.9,0,0,1-1-.24c-.44-.13,0,0-.19-.06-1.61-.8-3,1.61-1.42,2.41a6.94,6.94,0,0,0,5.27.35c4.1-1.44,5.55-6.55,6-10.41.48-4.47-1.17-9-3.11-12.92a70,70,0,0,0-7.67-11.9c-1.65-2.12-3.36-4.22-5.21-6.17-1.25-1.31-3.23.67-2,2Z" transform="translate(0)" fill="#668e77"/><path d="M396.88,407.88c1.94,6.74,3.55,13.59,5,20.44,2.63,12.5,4.86,25.37,4.44,38.19-.06,1.8,2.75,1.8,2.8,0,.42-12.8-1.79-25.7-4.38-38.18-1.48-7.11-3.14-14.21-5.15-21.19a1.4,1.4,0,0,0-2.7.74Z" transform="translate(0)" fill="#668e77"/><path d="M391.09,322.33a54.69,54.69,0,0,0,11.48,6.45c7.37,3.15,15.58,4.88,23.49,2.86,1.74-.44,1-3.14-.75-2.7-11.16,2.84-23.9-2.3-32.81-9-1.44-1.08-2.84,1.35-1.41,2.42Z" transform="translate(0)" fill="#668e77"/><path d="M401.65,639.88c.53-2.54,0-1.16.89-5.18,2.08-9.79,3.37-20.1,2-30.07C403,593.33,397.27,585.89,387,581s-21.77-6.8-33-7.34c-2.24-.11-4.48-.18-6.72-.11-1.8.07-1.81,2.87,0,2.8a97.59,97.59,0,0,1,22.1,1.95c11.4,2.26,25.72,6.75,30.39,18.55,3.84,9.71,2.84,21.24,1.18,31.31-.62,3.75-1.4,7.48-2.36,11.15-.23.89-.2,2.31.42,2.39a2.27,2.27,0,0,0,2.53-1.46Z" transform="translate(0)" fill="#668e77"/></svg>