<svg id="b1873387-a6f0-4434-ba21-f9a300945676" data-name="b3584c22-828a-41b4-ad7f-328b97842928" xmlns="http://www.w3.org/2000/svg" xmlns:xlink="http://www.w3.org/1999/xlink" viewBox="0 0 500.93 549.82"><defs><clipPath id="a28d0add-fba6-4b97-887d-8a7ae00df267" transform="translate(0 -11.74)"><path d="M394.6,34.46s3.85-16.34,22.11-9.61c0,0,76.65,27.51,82,93.69,0,0,11.55,47.3-34.92,24.54l-8.32-6.73-29.17,42.3s13.7,2.58-10.3,35.26l-7.89,15.68s7.69,47.1-3.84,71.13-52.87,76.9-66.33,86.52-65.36,25-65.36,25S304.25,270.93,94.7,257.47c0,0-8-34.61,19.55-38.45,0,0-6.09-80.74,93.87-132.65,0,0,23.86-11.54,76.81-9.61l6.07-9S304.81,39.1,315.38,39.1c0,0,4.8-31,27.71-27C382.23,18.89,394.6,34.46,394.6,34.46Z" fill="none"/></clipPath><clipPath id="f0620b38-f067-45ba-a32a-d858a4a74d6e" transform="translate(0 -11.74)"><path d="M233.29,482.82a15.15,15.15,0,0,0,0,15.49c2.85,4.26,7.46,4.24,10.3-.05a15.1,15.1,0,0,0,0-15.49C240.75,478.5,236.14,478.53,233.29,482.82Z" fill="none"/></clipPath></defs><path d="M394.6,34.46s3.85-16.34,22.11-9.61c0,0,76.65,27.51,82,93.69,0,0,11.55,47.3-34.92,24.54l-8.32-6.73-29.17,42.3s17.22,2.58-6.81,35.26L408,229.59s7.69,47.1-3.84,71.13-52.87,76.9-66.33,86.52-65.36,25-65.36,25S304.25,270.93,94.7,257.47c0,0-8-34.61,19.55-38.45,0,0-6.09-80.74,93.87-132.65,0,0,23.86-11.54,76.81-9.61l6.07-9S304.81,39.1,315.38,39.1c0,0,4.8-31,27.71-27C382.23,18.89,394.6,34.46,394.6,34.46Z" transform="translate(0 -11.74)" fill="#628c96"/><g clip-path="url(#a28d0add-fba6-4b97-887d-8a7ae00df267)"><path d="M385.12,59.2S353.2,1.51,413.6,24c60.16,22.4,101.34,79.1,82.88,121.79-5.05,11.68-35.2-3.71-35.2-3.71Z" transform="translate(0 -11.74)" fill="#72777f"/><path d="M396.14,29.87s-4,9.84-7.71,30.58l-15.74,5.76L313.16,37.57s7.76-22.93,22.4-25.5S396.14,29.87,396.14,29.87Z" transform="translate(0 -11.74)" fill="#4f5256"/><path d="M158,120.46l14.33-20.6s52.82-8,86.85,6.27,128,58.2,155.79,142.37v73.42l-33.13,14.32s23.54-56.12-3.58-87.33c0,0-54.64-99.35-188.88-122L158,120.46" transform="translate(0 -11.74)" fill="#656970"/><path d="M173.85,100.65s70.9-3,118.3,27.41,103.73,88.86,103.73,88.86l58.59-74.32s24-51.76-48.48-83.06c0,0-14.58-9-29.78,5.34,0,0-43.3-26.44-68.24-26.38L276.05,74.77S197.75,64.88,173.85,100.65Z" transform="translate(0 -11.74)" fill="#b57276"/><path d="M73.44,223.59s72.8-20.64,137.42,20.65,114.51,111.45,111.07,161l-59.64,22S311,321.66,181.43,276.35L70.74,258.58Z" transform="translate(0 -11.74)" fill="#56797c"/><path d="M259.38,74.88s52-3.78,89.81,32.14l27-42.14s-45.78-27.18-65.11-26Z" transform="translate(0 -11.74)" fill="#8e5e65"/></g><path d="M93,252S-7.31,292,8.27,398.14s101.32,142.23,141.26,147.1,82.81-2,86.7-46.76a45.77,45.77,0,0,0,21.44,13.64c13.64,3.89,5.84-49.69,5.84-49.69s22.41,2.93,19.49-31.17,26.3-60.4-71.12-152C211.88,279.29,171,237.4,93,252Z" transform="translate(0 -11.74)" fill="#f8ce5e"/><path d="M40.25,472.59c2.33-9.2,6.59-18.11,10.78-26.57,12.32-24.88,28.35-47.9,46-69.31a569.84,569.84,0,0,1,49.23-52.3c2.13-2-1.08-5.21-3.2-3.2-28.06,26.46-54.13,55.4-75.55,87.56-11.2,16.81-21.37,34.61-28.58,53.52a86.22,86.22,0,0,0-3.06,9.11c-.71,2.83,3.66,4,4.38,1.2Z" transform="translate(0 -11.74)" fill="#8e5e65"/><path d="M102.36,310A1172.56,1172.56,0,0,0,44.47,417.44C38.05,431.11,32,445,26.92,459.2c-1,2.75,3.4,3.94,4.37,1.2,9.32-26.16,21.75-51.22,34.57-75.81q16-30.63,33.43-60.45c2.31-3.95,4.62-7.9,7-11.82,1.51-2.51-2.41-4.79-3.92-2.29Z" transform="translate(0 -11.74)" fill="#8e5e65"/><path d="M82.12,289A237.93,237.93,0,0,0,64,315.42a322.21,322.21,0,0,0-31.42,68.1,261.9,261.9,0,0,0-11.11,51.25c-.33,2.9,4.21,2.87,4.53,0,5.45-48.08,25.35-94.68,53.09-134.12,2-2.89,4.14-5.84,6.24-8.43C87.15,290,84,286.75,82.12,289Z" transform="translate(0 -11.74)" fill="#8e5e65"/><path d="M16.15,417.77c.48-24.54,6.94-48.72,15.18-71.7a424.11,424.11,0,0,1,23.13-52.64c1.7-3.27,3.42-6.53,5.26-9.72,1.46-2.53-2.46-4.81-3.92-2.29a365.37,365.37,0,0,0-38.38,94.86,191.21,191.21,0,0,0-5.8,41.49C11.56,420.69,16.1,420.69,16.15,417.77Z" transform="translate(0 -11.74)" fill="#8e5e65"/><path d="M.87,316.54C-.67,342.77-.54,370,4.34,395.77c1.5,7.93,3.55,16,7.59,23.07,1.45,2.54,5.37.26,3.91-2.28-4.57-8-6.47-17.47-7.91-26.48A270.12,270.12,0,0,1,5,356.36c-.44-13.25-.41-26.58.37-39.82.17-2.91-4.36-2.9-4.54,0Z" transform="translate(0 -11.74)" fill="#8e5e65"/><path d="M169.87,343.59A633.38,633.38,0,0,0,86.78,424c-11,12.76-36.69,41.6-46.17,55.56-1.65,2.43,2.28,4.7,3.91,2.29,28.58-42.1,80.6-94.42,119.21-127.3,3.08-2.63,6.18-5.24,9.34-7.77C175.35,345,172.13,341.8,169.87,343.59Z" transform="translate(0 -11.74)" fill="#8e5e65"/><path d="M43,485.25c10.18-3,40.76-18.91,50.06-23.93a221.36,221.36,0,0,0,59.57-46.83,214.73,214.73,0,0,0,31.53-46.21c1.32-2.6-2.59-4.9-3.91-2.29C157.6,410.65,98,458.23,51.59,477.29a103.47,103.47,0,0,1-9.8,3.59C39,481.71,40.19,486.09,43,485.25Z" transform="translate(0 -11.74)" fill="#8e5e65"/><path d="M51.65,494.17a169.59,169.59,0,0,0,27-8.79c19.07-7.69,61.81-22.31,77.61-35.52a144.06,144.06,0,0,0,27.88-31c1.62-2.43-2.31-4.71-3.91-2.28-22,33.22-83.32,59.52-121,70.84-2.92.87-5.87,1.73-8.85,2.38s-1.65,5,1.2,4.37Z" transform="translate(0 -11.74)" fill="#8e5e65"/><path d="M61.18,505.23c9.38.07,19.11-1.77,28.16-3.78a217.85,217.85,0,0,0,65.93-27.12,255.75,255.75,0,0,0,44.39-34.73c2.33-2.25-1.75-5.19-4.08-2.94-32,31-76,58.21-125.68,63.47a79.66,79.66,0,0,1-9,.57c-3.52,0-3.2,4.5.3,4.53Z" transform="translate(0 -11.74)" fill="#8e5e65"/><path d="M205.33,478.36c-2.36,3.8-7.86,8.22-12.21,11.19-14.78,10.1-32.41,15.61-49.79,19.14-17.11,3.48-48.1,4.85-65.54,5.22-2.91.06-2.92,4.6,0,4.53,27.47-.58,69.32-3.49,95.13-13.49,11.63-4.5,23.37-10.49,32.24-19.44a28,28,0,0,0,4.08-4.87c1.55-2.48-2.37-4.76-3.91-2.28Z" transform="translate(0 -11.74)" fill="#8e5e65"/><path d="M215,504.86c.18-.56.2-.36.17-.4s-.3.38-.84.77c.32-.23-.22.16-.6.41s-.87.55-1.32.81a42.44,42.44,0,0,1-4.13,2c-14,6.08-29.71,9-44.64,12-17.77,3.51-41.22,5.46-59.15,8-2.88.41-1.66,4.78,1.2,4.38,27.5-3.85,60.86-7.1,87.67-14.55,7.72-2.14,17.64-4.31,24-9.65a5.91,5.91,0,0,0,2-2.53c.9-2.78-3.47-4-4.37-1.21Z" transform="translate(0 -11.74)" fill="#8e5e65"/><path d="M227.05,556.38c-10.72,1.58-23.79.51-35.15-.9-34.65-4.29-68.33-17.1-93.65-29.52-3.12-1.53-5.48,2.22-2.37,3.75,29.8,14.63,62.27,25.94,95.76,30.1,12.18,1.51,25.37,2.6,37.24.86,3.36-.49,1.52-4.78-1.83-4.29Z" transform="translate(0 -11.74)" fill="#8e5e65"/><path d="M215.63,401.2s-17-20,13.23-38.65,26.47,10.29,25.21,13.45-18.24,1.89-17.63,9.45,3.63,20.17-3.55,22.06S215.63,401.2,215.63,401.2Z" transform="translate(0 -11.74)" fill="#edbc3f"/><path d="M408.84,233.32s18.37-4.73,25.19-52c0,0-.53-39.89-12.6-14.7,0,0,2.63-22.57-4.72-24.67,0,0-11.55-6.82-13.65,5.25,0,0,0-13.65-6.82-13.65s-14.17,4.2-12.6,25.72l-.21,6.3s-12.91-2.62-20.26,19.94S380.49,247.49,408.84,233.32Z" transform="translate(0 -11.74)" fill="#f8ce5e"/><path d="M404.82,171.22l-1.35-23.78-.19-3.42c-.1-1.75-2.79-1.34-2.69.39l1.34,23.78.2,3.42C402.23,173.36,404.92,173,404.82,171.22Z" transform="translate(0 -11.74)" fill="#edbc3f"/><path d="M422.4,178.05l-.16-23.81v-3.43c0-1.75-2.72-1.48-2.71.26l.16,23.81v3.43c0,1.75,2.72,1.48,2.7-.26Z" transform="translate(0 -11.74)" fill="#edbc3f"/><path d="M260.33,288.2s64.06-97,97.53-109.42c0,0,23.71-6,47.05,41.92,1.25,2.57,1.73,5.45,3,8,2.84,5.92,5.19,21.06-21.34,47.59,0,0-50.67,72.3-85.09,66.75S251.73,322.09,260.33,288.2Z" transform="translate(0 -11.74)" fill="#6f9ca3"/><path d="M233.29,482.82a15.15,15.15,0,0,0,0,15.49c2.85,4.26,7.46,4.24,10.3-.05a15.1,15.1,0,0,0,0-15.49C240.75,478.5,236.14,478.53,233.29,482.82Z" transform="translate(0 -11.74)" fill="#fff6e3"/><g clip-path="url(#f0620b38-f067-45ba-a32a-d858a4a74d6e)"><path d="M236.62,488.67a9.47,9.47,0,0,0,0,12.13,6.84,6.84,0,0,0,10.59,0,9.49,9.49,0,0,0,0-12.13,6.84,6.84,0,0,0-10.59,0Z" transform="translate(0 -11.74)" fill="#8e5e65"/></g></svg>