<svg id="f90596cf-d1de-498d-9f1d-deab3347b63e" data-name="Layer 1" xmlns="http://www.w3.org/2000/svg" xmlns:xlink="http://www.w3.org/1999/xlink" viewBox="0 0 500 420.02"><defs><clipPath id="ebc7436b-03a1-476c-964b-68270abfdc8e" transform="translate(0)"><path d="M209.19,315.47l-6.44-13.89s-9.28-28.78,25.39-28,35.27,6.21,36.51,22.82c0,0,2.88,24.17-17.41,24.59S212.51,321.52,209.19,315.47Z" fill="none"/></clipPath><clipPath id="ad54e71b-9bc1-4da7-b294-ac3d5017d5f1" transform="translate(0)"><ellipse cx="311.25" cy="204.66" rx="16.23" ry="21.76" transform="translate(-7.36 11.65) rotate(-2.12)" fill="none"/></clipPath><clipPath id="fe27dbab-505f-453f-b4fa-15a2dac6b195" transform="translate(0)"><ellipse cx="159.01" cy="204.66" rx="16.23" ry="21.76" transform="translate(-7.46 6.02) rotate(-2.12)" fill="none"/></clipPath></defs><path d="M176.9,105.17S121.38,33.68,1.41,1.28c0,0,2,58.14,104,159.17,0,0-35.12,78.72-35.79,102.93C69,287.2,54.91,292,95.89,352c0,0,4.64,25.73-6.73,42.89s204,46.7,355.56,0c0,0,14.85-60.11-52.82-227.85,0,0,90-57.13,108.1-135.28,0,0-91.5,14.29-189.31,72.43C310.69,104.21,258.87,89.92,176.9,105.17Z" transform="translate(0)" fill="#edbc3f"/><ellipse cx="222.61" cy="241.47" rx="12.08" ry="8.31" fill="#261b10"/><ellipse cx="358.77" cy="273.57" rx="29.65" ry="23.79" fill="#cb5b0e"/><ellipse cx="104.22" cy="269.98" rx="20.21" ry="23.79" transform="translate(-169.28 364.57) rotate(-87.97)" fill="#cb5b0e"/><path d="M463.83,39.91s9.13,30.85-16.82,80c0,0,36.77-24.83,53-88.15C500,31.78,485.25,30,463.83,39.91Z" transform="translate(0)" fill="#261b10"/><path d="M36.91,12.59V79.78S8,39.77,1.41,9.27c0,0-7.72-15.54,13-6.37S36.91,12.59,36.91,12.59Z" transform="translate(0)" fill="#261b10"/><path d="M209.19,315.47l-6.44-13.89s-9.28-28.78,25.39-28,35.27,6.21,36.51,22.82c0,0,2.88,24.17-17.41,24.59S212.51,321.52,209.19,315.47Z" transform="translate(0)" fill="#f0825c"/><g clip-path="url(#ebc7436b-03a1-476c-964b-68270abfdc8e)"><path d="M201.93,271h45.31s-40.64,24.39-41.81,40.31c0,.48-1.16.29-1.46-.06C196.77,302.63,187.08,282.53,201.93,271Z" transform="translate(0)" fill="#802d0e"/></g><ellipse cx="311.25" cy="204.66" rx="16.23" ry="21.76" transform="translate(-7.36 11.65) rotate(-2.12)" fill="#802d0e"/><ellipse cx="159.01" cy="204.66" rx="16.23" ry="21.76" transform="translate(-7.46 6.02) rotate(-2.12)" fill="#802d0e"/><g clip-path="url(#ad54e71b-9bc1-4da7-b294-ac3d5017d5f1)"><circle cx="303.73" cy="196.02" r="9.15" fill="#fff"/></g><g clip-path="url(#fe27dbab-505f-453f-b4fa-15a2dac6b195)"><circle cx="151.42" cy="196.02" r="9.15" fill="#fff"/></g><path d="M106.45,161a139.14,139.14,0,0,1,13.23-16.32c8.86-9.56,19.21-18.81,31.55-23.54,1.51-.58.85-3-.68-2.46-17.79,6.82-32,22-43.29,36.88-1,1.36-2.06,2.73-3,4.15s1.29,2.64,2.21,1.29Z" transform="translate(0)" fill="#d3a43c"/><path d="M393.42,164.71a133.5,133.5,0,0,0-30.72-32.32,67,67,0,0,0-15.59-8.71c-1.53-.58-2.2,1.88-.68,2.47,12.34,4.73,22.69,14,31.55,23.54A139,139,0,0,1,391.21,166c.92,1.35,3.13.08,2.21-1.29Z" transform="translate(0)" fill="#d3a43c"/></svg>