<svg id="b0621358-0855-4a5b-8c03-84fa02c96a80" data-name="Layer 1" xmlns="http://www.w3.org/2000/svg" viewBox="0 0 500 411.2"><path d="M334,55.4,96.72,251.92c-.9-38.08,21-61.09,21-61.09l-6.81,4.67c-20.62,20.35-16.39,3.13-16.39,3.13,28.54-48,57.62-61,57.62-61l-22.2,8.26c-25.9,15.14-18-2.6-18-2.6C148.92,90.59,224,73.37,224,73.37s-34.89,7.3-46,7.83,0-9.4,0-9.4c56-32.36,157.52-16.18,157.52-16.18" fill="#63528f"/><path d="M102.55,245.8S149.8,90.39,332,52.73c0,0,67.09,4.2,87.87,55.22s-31.66,89.28-48,121.17S321,307,345.71,389H6S45.71,247.19,102.55,245.8Z" fill="#ffbb67"/><path d="M341.32,296.65s-23.84,36-77.12,40.86-82.73-10.57-132.52-65c0,0-15.55-33.27-37.56-26.31-35.36,11.18-57.83,61.55-57.83,61.55S2.66,377.43,0,411.2H355.26s-19.75-61.76-16.09-93.61Z" fill="#71b6c3"/><path d="M329.28,53.64,348.81,0S417.54,4.06,445,35.89l-25.37,42.8s53.64,2.19,78.66-1.1L500,84.33s-47,20.17-78.23,25S326.62,60.5,329.28,53.64Z" fill="#396e8a"/><path d="M384.58,202c-17.8,9.62-32.94,3.93-33.83-12.72s10-36.3,27.84-45.92,35.75-3.8,36.63,12.84S402.38,192.34,384.58,202Z" fill="#fdfdff"/><path d="M384.58,202c-17.8,9.62-32.94,3.93-33.83-12.72s10-36.3,27.84-45.92,35.75-3.8,36.63,12.84S402.38,192.34,384.58,202Z" fill="none" stroke="#cbcbcb" stroke-miterlimit="10" stroke-width="0.75"/><path d="M335.59,194.09c-20.69,9.11-37,1.84-36.39-16.22s14.57-38.52,35.26-47.62,40.08-1.5,39.5,16.56S356.27,185,335.59,194.09Z" fill="#fdfdff"/><path d="M318.7,199.42a22.4,22.4,0,0,1-12.62-3.5c-5.53-3.7-8.45-10.12-8.23-18.08.53-19.33,15.35-39.78,35.24-48.6,12-5.31,23.93-5.23,32.06.22,5.82,3.9,8.91,10.2,8.7,17.74-.5,18-17,38.78-38.29,48.25h0A42.25,42.25,0,0,1,318.7,199.42ZM350.3,128a40.2,40.2,0,0,0-16.13,3.65c-19,8.43-33.16,27.88-33.66,46.24-.2,7.12,2.24,12.58,7.05,15.81,6.42,4.29,16.23,4,26.92-.7,20.46-9.08,36.24-28.81,36.71-45.89.19-6.69-2.41-12-7.52-15.46A23.91,23.91,0,0,0,350.3,128Z" fill="#cbcbcb"/><ellipse cx="367.6" cy="182.14" rx="8.89" ry="7.19" transform="translate(-19.74 317.31) rotate(-45.6)" fill="#310202"/><ellipse cx="318.88" cy="169.33" rx="11.37" ry="9.2" transform="translate(-25.22 278.66) rotate(-45.6)" fill="#310202"/><path d="M318.56,138.16l-8.85,9s-4.84-5.81-8.76,0c-1.74,2.58-3.8,3.52.93,8,5.92,5.6,27.31,17.5,27.31,17.5s3.49,3.46,30.16,5.88c2,.18,4.36-3.39,4.36-3.39s4.59-4.91-3.62-4.91l13-20.86s4.69-17.16-14.65-25.55S318.56,138.16,318.56,138.16Z" fill="#fdbe66"/><path d="M359.51,179.53h-.25c-24-2.33-29.47-4.91-30.68-6.07-1.95-1.08-21.63-12.11-27.39-17.57-4.39-4.15-3.6-5.9-1.78-8.29.23-.3.47-.62.71-1a6,6,0,0,1,4.59-3,7.36,7.36,0,0,1,5,2.14l5.2-5.37c1.1-1.2,24.28-26,44-17.47,19.89,8.64,15.26,26.54,15.21,26.72l-.12.26-12.13,19.43c2.12.23,3.41.92,3.93,2.08.87,2-1.09,4.17-1.32,4.41C364.12,176.35,361.9,179.53,359.51,179.53Zm-29.41-7.29c.06,0,3.22,2.78,29.35,5.31,1,.08,2.61-1.7,3.42-2.94.64-.71,1.32-1.84,1.06-2.4-.1-.24-.68-1-3.84-1H358.3L372.19,149c.41-1.68,3.49-16.61-14.12-24.25-18.45-8-41.46,16.73-41.69,17h0l-6.7,6.93-.72-.85s-1.93-2.33-4.13-2.22a4.09,4.09,0,0,0-3,2.12c-.25.38-.52.73-.77,1.06-1.31,1.72-1.85,2.43,1.57,5.67,5.75,5.45,26.89,17.23,27.11,17.35l.28.16.13.28Z" fill="#e5a26a"/><path d="M372,147.64s13.53-13.8,26.4-12.49S421,147.64,411.91,173.7c0,0,3.38.22,2.69,2.41s-.91,4.82-6.9,5.7-16.05,5.16-45.41-5L355.12,170Z" fill="#fdbe66"/><path d="M394.38,184.79c-7.08,0-17.2-1.42-32.53-6.71l-.62-.22-2.59-7.78,14-23.35c.51-.58,12.51-14.24,25.92-12.89,6.54.67,11.67,3.6,14.82,8.49,4.48,6.93,4.59,17.42.31,30.39a3.75,3.75,0,0,1,1.9,1.32,2.69,2.69,0,0,1,.32,2.46l-.16.56c-.63,2.16-1.5,5.13-7.82,6.05-.72.11-1.51.27-2.38.44A51.66,51.66,0,0,1,394.38,184.79Zm-31-9c24.92,8.51,35.36,6.42,41.63,5.17.92-.19,1.75-.35,2.52-.47,4.62-.67,5.09-2.29,5.64-4.17l.18-.61c-.06-.37-.81-.65-1.5-.7l-1.73-.13.56-1.62c4.48-12.83,4.63-23,.44-29.52-3.41-5.29-8.87-6.88-12.85-7.29-11.51-1.18-22.54,10.79-23.53,11.9l-13.16,22Z" fill="#e5a26a"/><path d="M319.69,159.09s-8.42-4.61-10.58-10.25c0,0-.18-2.43,1.55-.68s.86,3.86,10,9.9C320.63,158.06,321.56,160.23,319.69,159.09Z" fill="#e5a26a"/><path d="M359,170s-11.81,2.51-18.56-1.08c0,0-2.19-2.16.9-1.91s4,3,17.69,1.26C359,168.24,361.69,169.53,359,170Z" fill="#e5a26a"/><path d="M372.73,174.46s-7.77.81-11-3.59c0,0-.81-2.4,1-1.74s1.73,3.43,10.43,3.64C373.17,172.77,374.5,174.4,372.73,174.46Z" fill="#e5a26a"/><path d="M412.39,173.44s-5.83,5.14-11.06,3.42c0,0-2.07-1.49-.2-2s3.43,1.79,10.63-3C411.76,171.82,413.79,172.38,412.39,173.44Z" fill="#e5a26a"/><path d="M218.75,170.83s10-6.92,20.08,0,40.69,39.38,80.64,45c39.52,5.58,76.26-4.89,62.92,18S328,259.28,280.51,248.28,200.94,181.16,218.75,170.83Z" fill="#9f99ce"/><path d="M234.52,188.6c6.66,8.68,15,16.18,23.45,22.85,18.18,14.4,39.43,24.81,62,28.22A114.74,114.74,0,0,0,368,236.49c2.08-.58,1.2-4-.88-3.42a112.8,112.8,0,0,1-78.81-6.76,151.15,151.15,0,0,1-44.26-32.06,98.43,98.43,0,0,1-7.21-8.16c-1.35-1.77-3.7.75-2.36,2.51Z" fill="#7168aa"/><path d="M124.74,263s5,13.59-3.41,37.05c0,0-3.8,3.46-1.81-4.66s3.91-13.14,2.46-29.53S124.74,263,124.74,263Z" fill="#63a3aa"/><path d="M82.32,411.2s18.31-56,33.1-80.55c0,0,6.53-1.43,1.82,4.71C111,343.45,107,354.54,85.72,411.2Z" fill="#63a3aa"/><path d="M214.83,401.66l-1-1.15c-91.55-102.56-90.49-136.22-90.4-137.6l.24-3.61,2.17,2.91c66.61,89.22,133.91,74.46,134.58,74.3l2.45-.58-.88,2.33c-5.74,15.13-44.49,60.32-46.14,62.23ZM126.75,267.83c1,4.54,3.57,12.52,9.94,24.74,10,19.12,31.61,52.83,78.1,105.05,5.92-7,36.36-43.06,43.72-58.12C245.7,341.27,186.16,344.6,126.75,267.83Z" fill="#63a3aa"/><path d="M313.64,395.38l-1.27-1c-20-15.56-31.2-31.08-38.65-41.35-4.68-6.46-8.06-11.13-11.3-12.88a2.14,2.14,0,0,1-1.1-2.28,2.18,2.18,0,0,1,1.85-1.74c3.25-.44,10.94-1.53,25.94-3.82,21.17-3.24,49.27-34,49.55-34.31l3.18-3.5-.87,4.62c-12.68,67.52-26.45,94.56-26.58,94.82Zm-48.77-56.81c3.35,2.34,6.64,6.89,11,12.94,7.62,10.51,18,24.82,36.81,39.77,2.87-6.25,14.08-32.84,24.78-88.18-8.07,8.27-29.93,29.07-48,31.83C276.26,337,268.7,338,264.87,338.57Z" fill="#63a3aa"/><polygon points="262.61 337.84 269.16 411.2 266.38 411.2 260.33 337.84 262.61 337.84" fill="#63a3aa"/><path d="M355.33,12.77A186.51,186.51,0,0,0,378.53,24a205.27,205.27,0,0,0,54.39,14.76c2.56.3,2.92-2.32.35-2.63a201,201,0,0,1-53.35-14.53,178.24,178.24,0,0,1-22.28-10.85c-2-1.2-4.32.81-2.31,2Z" fill="#326377"/><path d="M330.64,53c7.5,4,15.25,7.52,23.05,10.87,14.67,6.31,29.89,12.09,45.66,15.06,7.53,1.42,15.34,2.24,22.94.88,2.11-.38,1.21-3.56-.89-3.18-14.17,2.54-29.68-2.3-43-6.74A326,326,0,0,1,340,54c-2.59-1.25-5.17-2.52-7.72-3.87-1.89-1-3.58,1.85-1.68,2.85Z" fill="#326377"/><path d="M330.3,52.74c7,6,14.32,11.54,21.76,16.93C366.31,80,381.34,89.82,397.63,96.72c9.81,4.16,21.28,8.32,31.87,5.07l37.22-11.43c10.68-3.28,20.36-6.57,31-9.85,2-.63,1.17-3.81-.89-3.18-21.65,6.64-42.28,13.3-63.93,20-2.59.8-5.35,2-8,2.47-6.53,1.09-14.58-1.74-20.6-3.92C388,89.92,373,80.35,358.89,70.49c-9-6.31-17.87-12.93-26.23-20.08-1.62-1.38-4,.94-2.36,2.33Z" fill="#326377"/></svg>