<svg id="b31c34f3-4cd4-4384-a887-7cf2db4611a0" data-name="ffc9e699-f8b0-4b10-98e3-968e893c920b" xmlns="http://www.w3.org/2000/svg" xmlns:xlink="http://www.w3.org/1999/xlink" viewBox="0 0 500.71 336.7"><defs><clipPath id="edaf2c97-054c-4816-a7c3-a719cd6daedb" transform="translate(0 0)"><path d="M243.41,185.85S266.33,181,269.19,181s10.88-1.72,10,4.87-5.46,21.13-20.06,14.5S240.83,193.58,243.41,185.85Z" fill="none"/></clipPath><clipPath id="a16b5f81-7718-444d-b004-b22c0e4aa7cb" transform="translate(0 0)"><path d="M306.44,99.72s-4.89,26.73-6.52,32.92,3.59,41.73,2,50.21-13.69,47.59-15,49.87,1.31,10.76-18.58,14.35c0,0-2.28,28.36,0,36.18,0,0,29.52,2.46,41.07,34.2l17.77-19.62s6.62-48.34,6-52.65,10.55-10.59,10.55-10.59l23.51-38.74s36.42-23.17,39.73-22.51,10.59,12.25-5,22.84-20.19,22.19-20.19,22.19l-.66,10.8s25.82,5.75,68.53-2.86c0,0,23.13-7.61,38-5.51s11.88,6.43,10.07,7.83c0,0,2.93.56,2.23,3.08s-5.45,6-5.45,6,5.59,1.25,1.26,4.47-6.71,3.63-6.71,3.63-3.64,6.44-7,7.69c0,0,2.79-.42,2.79,1.4S451,277.56,451,277.56,392.18,309,390.91,312s-14.5,15.56-14.5,15.56H0s22.56-43.27,33.84-45,67.69-4.93,82.85-3.87c0,0,1.06-5.29,10.93-11.64a22.9,22.9,0,0,1-4.89-12.69c-.35-7.4-.7-16.92-.7-16.92s9.16-11.63,42.3-16.57l.71-19.74s-29.62-8.12-32.79-30.71.35-36.67.35-36.67,18-14.38,32.44-10l31.37-63.31L236.55,52l56.76,7.75Z" fill="none"/></clipPath><clipPath id="b778eb86-4019-4f8f-9487-ae1289a05a38" transform="translate(0 0)"><path d="M215.11,128.82s3.84-10.18,15.18-9.8,11.92,3.85,11.92,3.85.19,17.1-4.61,17.68-11.92,1.15-16-1.16S215.49,138,215.11,128.82Z" fill="none"/></clipPath></defs><path d="M268.86,243.46s28.56,2.18,66.43,25.61l-7.56,48L306.91,321l-55.8-38.75Z" transform="translate(0 0)" fill="#c9d6cf"/><path d="M306.44,99.72s-4.89,26.73-6.52,32.92,3.59,41.73,2,50.21-13.69,47.59-15,49.87,1.31,10.76-18.58,14.35c0,0-2.28,28.36,0,36.18,0,0,29.52,2.46,41.07,34.2l17.77-19.62s6.62-48.34,6-52.65,10.55-10.59,10.55-10.59l23.51-38.74s36.42-23.17,39.73-22.51,10.59,12.25-5,22.84-20.19,22.19-20.19,22.19l-.66,10.8s25.82,5.75,68.53-2.86c0,0,23.13-7.61,38-5.51s11.88,6.43,10.07,7.83c0,0,2.93.56,2.23,3.08s-5.45,6-5.45,6,5.59,1.25,1.26,4.47-6.71,3.63-6.71,3.63-3.64,6.44-7,7.69c0,0,2.79-.42,2.79,1.4S451,277.56,451,277.56,392.18,309,390.91,312s-14.5,15.56-14.5,15.56H0s22.56-43.27,33.84-45,67.69-4.93,82.85-3.87c0,0,1.06-5.29,10.93-11.64a22.9,22.9,0,0,1-4.89-12.69c-.35-7.4-.7-16.92-.7-16.92s9.16-11.63,42.3-16.57l.71-19.74s-29.62-8.12-32.79-30.71.35-36.67.35-36.67,18-14.38,32.44-10l31.37-63.31L236.55,52l56.76,7.75Z" transform="translate(0 0)" fill="#e3b986"/><path d="M272.79,140.83l-4.19,10.84c-.29.74.52,1.23,1.13,1.14a6.34,6.34,0,0,0,.75-.07,16,16,0,0,1,2.19,0c1.63.08,3.6.39,4.79,1.63,1.72,1.81.89,5.28.17,7.36a11.64,11.64,0,0,1-2.15,3.9c-.79.88.51,2.19,1.31,1.31a14.1,14.1,0,0,0,2.72-5c.83-2.6,1.41-6.26-.47-8.54-2.22-2.69-6.62-2.79-9.8-2.33l1.14,1.13,4.19-10.84c.43-1.11-1.35-1.59-1.78-.49Z" transform="translate(0 0)" fill="#ad7e50"/><path d="M261.73,166.73v-.06h0a4.81,4.81,0,0,0,.42-.48,7.57,7.57,0,0,1,.66-.61c.19-.17-.05,0,.08-.07l.24-.17c.16-.1.32-.2.49-.29a3.35,3.35,0,0,1,1-.41l.29-.07s.38-.07.21,0a4.21,4.21,0,0,1,.71,0A6.2,6.2,0,0,1,269,165.7a1,1,0,0,0,1-1.62,7.12,7.12,0,0,0-5.83-1.16,7.43,7.43,0,0,0-3.33,2.11,5.18,5.18,0,0,0-.62.78.92.92,0,0,0,1.59.93Z" transform="translate(0 0)" fill="#ad7e50"/><path d="M173.29,128.39l24.94-6.8s-3.06-7.81,7.13-10.86,43.12-4.08,44.64-2.7,5.26,5.2,5.6,9.9h13.89s-2.77-6.84,4.9-8.2,30,.8,30,.8,2.08,2.36,2.08,7.4-.68,26.42-2,26.76-1.7,2.72-10.87,2.38-22.54,3.73-22.13-8.15l-2-12.68H254.92l-1.36,17.1s2,4.73-9.51,5.77-38,2-38,2-5.51.22-5.85-9.41c0,0-.5-9.14-1.75-10.91s-27.7,6.47-27.7,6.47Z" transform="translate(0 0)" fill="#584237"/><path d="M142.93,69.25s6.86-21,23.55-29.12,29.55-12,32.12-14.56,71.5-17.12,101.47,4.29,24.4,24.83,27,27.4c0,0-11.56-6-15-6.42s15.41,16.69,17.12,27c0,0-9-6-13.7-8.56,0,0,6,14.13,4.71,29.54,0,0-5.14-13.7-12.41-17.13a35.66,35.66,0,0,1,3.42,29.12s-.7,3.88-3.79,3.1.44-17.12-13.26-30.16c0,0-5.85,9.73-7.4,9.28s-2.1-.44-2.1-4.08,1.55-11.6-5.19-20.22c0,0,1.32,19.66-3.31,19.88s-2.88-2.43-3.32-3.09-3.87-16-13.7-25.63c0,0-22.53,2.76-25.4.67,0,0,6.18,21.21-11.49,34.68,0,0-4.2.78-3.1-1.32s5.75-13.15,2-20.33c0,0,.22,22.65-25.41,34.14,0,0-4.08,0-1.87-4.09s8.72-14,5.63-25.3c0,0-7,22.43-24.41,37.78,0,0-2.66,5-1.49,20.34,0,0,.73,10.55,2.34,14.51s-5-.59-7.47-11-13.33-15.38-18.31-12.75S132.85,138.63,134,153s9.08,34.72,22.85,38.82,14.21-1.32,14.21-1.32l1-2.49,3.07,3.52s-9.52,11.57-8.49,20.07,3.09,17.58,3.09,17.58-7.32-7.33-8.35-15.38-1.46-6.89-1.46-6.89-4.4,1-3.08,6.3,2.2,11.43,2.2,11.43-14.8-10.55-13.92-29.74c0,0-7.18,5.86-15.38,6.88,0,0-2.93-.14,0-4.1s8.93-5.86,3.51-19c0,0-15.5-16-15.33-18.83S112.56,146.77,116,111,142.93,69.25,142.93,69.25Z" transform="translate(0 0)" fill="#383138"/><path d="M259.16,212.14h12.32a.93.93,0,0,0,0-1.85H259.16a.93.93,0,0,0,0,1.85Z" transform="translate(0 0)" fill="#ad7e50"/><path d="M243.41,185.85S266.33,181,269.19,181s10.88-1.72,10,4.87-5.46,21.13-20.06,14.5S240.83,193.58,243.41,185.85Z" transform="translate(0 0)" fill="#6a503d"/><g clip-path="url(#edaf2c97-054c-4816-a7c3-a719cd6daedb)"><polygon points="243.98 185.15 281.03 188.27 282.27 179.27 248.38 179.27 243.98 185.15" fill="#e6dfcd"/><path d="M244,193.41a17.17,17.17,0,0,1,16.62-3.18,35.19,35.19,0,0,1,15.44,9.8S262.89,210.31,244,193.41Z" transform="translate(0 0)" fill="#a98472"/></g><path d="M206,141c0,5.25,8.87,4.57,8.87,4.57l24.74-.29c7.91.33,8.49-4.28,8.49-4.28s1.35-8.28,1.87-17.31-3.41-11.06-3.41-11.06l-38.43,1.76s-3.49,3.48-3.74,5.48S206,141,206,141Z" transform="translate(0 0)" fill="#e3b986"/><path d="M279.28,114s-4.78,1.49-4.89,6.48,1.15,17.72,1.15,17.72,1.24,5,3.74,5,20.5-1,20.5-1,3.21-1.49,3.21-3,.25-23.21-1-23.71S297.5,114,297.5,114Z" transform="translate(0 0)" fill="#e3b986"/><path d="M231.78,94.61s19.26,4.69,19.46,5.86,1.37,4.5-3.91,4.11-18-5-18-5l-32.25,12.2s23.65-14.07,26-14.86S227.73,94.8,231.78,94.61Z" transform="translate(0 0)" fill="#383138"/><path d="M306,98.26s-15.24-5.08-22.08-.92-9.49,5.87-9.49,5.87.42,4.49,3.63,2.15,12.16-5.47,12.16-5.47L306,101.6Z" transform="translate(0 0)" fill="#383138"/><g clip-path="url(#a16b5f81-7718-444d-b004-b22c0e4aa7cb)"><g clip-path="url(#a16b5f81-7718-444d-b004-b22c0e4aa7cb)"><polygon points="117.87 262.32 149.1 262.32 170.29 272.16 212.01 327.58 0 327.58 28.06 276.87 117.87 262.32" fill="#b5b8c4"/><path d="M235.73,307.48s32,7.07,39.56,4.24,16-1.4,17.76-19.36c0-.35,18.19,22.19,18,22.49-7.74,11.35-12.9,14.27-12.9,14.27l-63.42,3.44Z" transform="translate(0 0)" fill="#e1d074"/><path d="M164.13,215.12v28.34s-37.09,5.25-42.19,2.07,5.17-18.06,5.17-18.06Z" transform="translate(0 0)" fill="#c9d6cf"/><path d="M122,237.42s-2.13,4.56,9.07,4.32,54.37,2.39,59.86,3.34,14.8,1.95,14.8,1.95,26.47,12.4,30.52,21,4.06,38.63,4.77,42.21,1,13.59,3.1,14.07,13.83,6,13.83,6H207.84s-22.42-19.08-26.71-21.94-26.47-32.67-26.47-32.67-18.84-10.73-29.09-8.11S107.19,234.56,122,237.42Z" transform="translate(0 0)" fill="#9c453b"/><path d="M17.23,297.92c10.77-5.23,21.83-9,33.73-10.32,12.9-1.4,24.86,3,34.94,11,10.76,8.54,19,19.88,26.14,31.51.62,1,2.21.09,1.59-.93-10.42-17-24.41-35.54-44.36-41.74-9.26-2.88-19-2.05-28.42-.21-8.48,1.66-16.8,5.36-24.55,9.12-1.07.52-.14,2.11.93,1.6Z" transform="translate(0 0)" fill="#9d9fa8"/><path d="M114.92,275.44c8.9,1,17.93,9.18,23.59,15.89,5.42,6.41,10.26,13.36,15.52,19.92q6.72,8.4,13.64,16.67c2.37,2.83,4.74,5.67,7.15,8.47.77.91,2.07-.41,1.3-1.3q-10.29-12-20.19-24.4c-9.68-12.06-18.17-26.83-32.38-34.11a26,26,0,0,0-8.63-3c-1.18-.13-1.17,1.72,0,1.85Z" transform="translate(0 0)" fill="#9d9fa8"/></g><path d="M391.06,181.24c.56,1.26,1.16,2.49,1.79,3.7a18.77,18.77,0,0,0,3.41,5.18,2.07,2.07,0,0,0,2,.67,3,3,0,0,0,1-.73c.48-.42,1-.83,1.46-1.24,2.2-1.86,4.73-3.95,5.9-6.67a6.38,6.38,0,0,0,.1-5,7.8,7.8,0,0,0-3.29-3.22c-1-.64-1.93,1-.93,1.59a6.38,6.38,0,0,1,2.49,2.26,4.58,4.58,0,0,1,0,3.56c-1,2.4-3.32,4.27-5.23,5.9l-1.27,1.08c-.18.14-.35.29-.52.44l-.18.16c0,.05-.26.3-.19.18a.18.18,0,0,1,.29,0c-.19-.21-.31-.21-.58-.5a20.33,20.33,0,0,1-2.85-4.53c-.64-1.21-1.24-2.45-1.8-3.7-.48-1.08-2.07-.14-1.59.93Z" transform="translate(0 0)" fill="#ad7e50"/><path d="M499.41,223.25c.89,3.91-3.11,7.37-6.06,9-3.73,2.07-7.8,2.49-11.77,3.78-3,1-6,2.12-9,3.17-4.25,1.5-8.87,1.81-13.14,3.25s-8.44,4.31-12.28,5.64c-5.29,1.83-11,2.91-16.38,4.34a.62.62,0,0,0,.33,1.19c5.33-1.41,10.83-2.55,16.07-4.26,4.31-1.41,8.59-4.42,12.61-5.73,4.64-1.52,9.57-2,14.19-3.62,2.85-1,5.71-2.25,8.62-3,4.39-1.2,8.78-1.88,12.66-4.45,3-2,6.2-5.68,5.3-9.6-.17-.77-1.36-.45-1.18.33Z" transform="translate(0 0)" fill="#ad7e50"/><path d="M496.63,236.66c-2.76,1.27-5.84,1.17-8.43,2.7A55.76,55.76,0,0,0,481,245c-3.73,3.11-8.68,4.78-13.44,6.09-1.67.46-3.72.74-5.21,1.62-1.31.78-2.48,2-3.76,2.83-7.47,5-16.06,8-24.74,10-.77.18-.45,1.37.32,1.19A80.73,80.73,0,0,0,455,259c2.9-1.57,5.33-3.78,8.11-5.45.34-.21-.29.13.38-.13a33,33,0,0,1,3.39-1c2-.56,4.13-.89,6.06-1.63a31.31,31.31,0,0,0,9.21-5.33,37.28,37.28,0,0,1,7.1-5.4c2.4-1.24,5.41-1.26,8-2.43.72-.33.09-1.39-.62-1.06Z" transform="translate(0 0)" fill="#ad7e50"/><path d="M488.65,250c-4,1.13-8,2.36-12,3.84-4.9,1.86-9.65,4.33-14.47,6.43-2.56,1.12-4,2.74-6.23,4.28-5,3.4-11.24,4.78-17.11,5.75-.78.13-.45,1.32.32,1.19,5.77-1,11.8-2.33,16.81-5.49,2.09-1.33,3.63-3.2,5.88-4.24,8.87-4.08,17.68-7.93,27.09-10.58a.59.59,0,0,0,.42-.73v0a.61.61,0,0,0-.75-.43h0Z" transform="translate(0 0)" fill="#ad7e50"/><path d="M498.09,228.19a4.61,4.61,0,0,0-1.85-1.11,10.91,10.91,0,0,0-5.86-.23,25.75,25.75,0,0,0-5.47,1.79.58.58,0,0,0-.3.53v6.62a.62.62,0,0,0,.69.54.64.64,0,0,0,.54-.54v-6.62l-.31.53c2.81-1.23,6.18-2.37,9.29-1.74a5.16,5.16,0,0,1,1.89.71l.26.17c.11.07,0-.05.11.09l.14.13c.52.6,1.39-.27.87-.87Z" transform="translate(0 0)" fill="#ad7e50"/><path d="M500.53,234.27a5,5,0,0,0-3.39-2.51,7.69,7.69,0,0,0-4.45.78c-1.42.59-2.85,1.16-4.3,1.68-.53.2-1.07.39-1.62.55a.62.62,0,0,0-.45.6v5.57a.62.62,0,0,0,.69.54.64.64,0,0,0,.54-.54v-5.57l-.45.59c2.47-.72,4.77-1.93,7.21-2.75,1.91-.64,4.22-.23,5.16,1.68.35.71,1.41.09,1.06-.62Z" transform="translate(0 0)" fill="#ad7e50"/><path d="M488,239.6c-.72,1.69-1.1,4.23.68,5.39a4.43,4.43,0,0,0,2.81.49.62.62,0,0,0,.54-.69.64.64,0,0,0-.54-.54h-1.16a2.66,2.66,0,0,1-.49-.1l-.22-.08h0l-.14-.07-.16-.1c-.05,0-.2-.16-.06,0a3.83,3.83,0,0,0-.28-.29c-.06,0,.09.13,0,0l-.06-.08-.09-.14a1,1,0,0,0-.07-.15c.1.19,0,0,0-.07a1.89,1.89,0,0,0-.09-.34v-.26a4.33,4.33,0,0,1,0-.72v-.21l.06-.34.15-.6c.05-.15.1-.31.16-.46h0a.65.65,0,0,0-.22-.85.62.62,0,0,0-.84.22Z" transform="translate(0 0)" fill="#ad7e50"/><path d="M181.66,189.78a43,43,0,0,0,4.94,15.54,37.13,37.13,0,0,0,9.25,11.51c3.58,2.93,7.83,5,11.85,7.3,9.48,5.34,19.07,10.53,28.84,15.31,7.7,3.76,15.92,8.07,24.4,9.74,8.94,1.77,19.05-2.61,26.22-7.76.95-.69,0-2.29-.94-1.6-6.54,4.71-15.76,9-24,7.74-7.83-1.17-15.53-5.27-22.58-8.65-9.08-4.36-18-9.11-26.8-14-8.28-4.6-17-8.71-22.47-16.81a41.16,41.16,0,0,1-6.9-18.33c-.12-1.17-2-1.18-1.85,0Z" transform="translate(0 0)" fill="#ad7e50"/><path d="M270.27,293.84V281.58a.93.93,0,0,0-1.85,0v12.26a.93.93,0,0,0,1.85,0Z" transform="translate(0 0)" fill="#ad7e50"/></g><path d="M141.16,153.28a45.55,45.55,0,0,1,2.84-6.85c1.38-2.67,3.84-7.45,7.39-7.43,3.36,0,6.74,3.29,8.93,5.48,2.54,2.53,5.39,5.74,6.39,9.28.74,2.61-1.28,4.54-2.43,6.71a5.91,5.91,0,0,0,.44,6.87,16.44,16.44,0,0,0,4.15,3.51c.52.33,1.63.63,1.75.93a4.9,4.9,0,0,1,0,1.43c-.08,2.19-.27,7.46-3.23,7.82-1.33.16-3.27-.83-4.53-1.23a34.92,34.92,0,0,1-5.63-2.32c-5.41-2.9-9.32-7.63-12.37-12.87a.61.61,0,1,0-1.06.62h0c2.86,4.92,6.48,9.46,11.37,12.48a43,43,0,0,0,10.4,4.23c3.09.92,4.84-1,5.62-3.88a20.8,20.8,0,0,0,.65-4.71,4.39,4.39,0,0,0-.11-2.19c-.28-.46-1.12-.69-1.58-1-.76-.47-1.5-1-2.21-1.5a10.21,10.21,0,0,1-2.72-2.8,4.61,4.61,0,0,1,.15-4.79c1.18-2.26,3.24-4.32,2.69-7.07-.72-3.6-3.56-6.94-6-9.54s-5.77-5.74-9.44-6.56c-3.93-.87-6.74,2.9-8.52,5.85a44.59,44.59,0,0,0-4.14,9.18c-.25.76.94,1.08,1.19.33Z" transform="translate(0 0)" fill="#ad7e50"/><path d="M159.28,142.38c-3.77,1.83-6,6.31-6.52,10.27a21.92,21.92,0,0,0,.43,7.53c.17.77,1.35.45,1.19-.33-1.2-5.61-.46-12.19,4.52-15.79a7.93,7.93,0,0,1,1-.62c.72-.35.09-1.41-.62-1.06Z" transform="translate(0 0)" fill="#ad7e50"/><path d="M215.11,128.82s3.84-10.18,15.18-9.8,11.92,3.85,11.92,3.85.19,17.1-4.61,17.68-11.92,1.15-16-1.16S215.49,138,215.11,128.82Z" transform="translate(0 0)" fill="#e6dfcd"/><g clip-path="url(#b778eb86-4019-4f8f-9487-ae1289a05a38)"><path d="M232.24,119.62a12.22,12.22,0,0,0-.58,13.19c2.42,3.74,6.59,3.91,9.33.37a12.22,12.22,0,0,0,.59-13.19C239.16,116.25,235,116.08,232.24,119.62Z" transform="translate(0 0)" fill="#68645f"/><path d="M235,123.91a7.53,7.53,0,0,0-.36,8.08c1.46,2.3,4,2.4,5.67.23a7.56,7.56,0,0,0,.35-8.09C239.15,121.84,236.61,121.73,235,123.91Z" transform="translate(0 0)" fill="#584d47"/><path d="M232.09,123.31a4.81,4.81,0,0,0-.22,5,1.93,1.93,0,0,0,2.56.92,2,2,0,0,0,.84-.78,4.83,4.83,0,0,0,.23-5,1.92,1.92,0,0,0-3.41-.14Z" transform="translate(0 0)" fill="#fff"/></g><path d="M215.73,129c0,.06.23-.49.33-.69a18,18,0,0,1,1.12-1.89,17.37,17.37,0,0,1,5.15-5.06,16.86,16.86,0,0,1,9.76-2.31c2.7.1,6,.32,8.31,2a3.49,3.49,0,0,1,1.11,1.3,1,1,0,0,1,.11.51.62.62,0,0,0,.69.54.64.64,0,0,0,.54-.54c.13-3.38-5.33-4.49-7.64-4.8a21,21,0,0,0-11.63,1.22,17.62,17.62,0,0,0-6.64,5.37,16.38,16.38,0,0,0-2.39,4c-.3.74.89,1,1.18.33Z" transform="translate(0 0)" fill="#584d47"/><path d="M216.24,136.72a15,15,0,0,0,5.59,3.31c5.5,2,11.58,1.75,17.21.5.78-.17.45-1.36-.32-1.19-5.44,1.21-11.26,1.47-16.56-.5a13.67,13.67,0,0,1-5-3c-.54-.57-1.41.3-.87.87Z" transform="translate(0 0)" fill="#584d47"/><path d="M295.81,124.26l-.41,14.33s-9.53,1.22-13.21,1-6.46-1.61-6.17-9.51c.25-7.1,2.4-8.18,2.4-8.18s6-2.13,9.35-1.42S295.81,124.26,295.81,124.26Z" transform="translate(0 0)" fill="#e6dfcd"/><path d="M285.79,122.48a9.91,9.91,0,0,0-.48,10.82c2,3.07,5.49,3.21,7.76.31a9.91,9.91,0,0,0,.48-10.82C291.54,119.72,288.06,119.58,285.79,122.48Z" transform="translate(0 0)" fill="#68645f"/><path d="M288.44,122.52a7.07,7.07,0,0,0-.34,7.72,3.2,3.2,0,0,0,5.54.22,7.07,7.07,0,0,0,.35-7.72,3.21,3.21,0,0,0-4.34-1.34h0A3.25,3.25,0,0,0,288.44,122.52Z" transform="translate(0 0)" fill="#584d47"/><path d="M286.2,123.76A4.1,4.1,0,0,0,286,128a1.63,1.63,0,0,0,2.15.8,1.7,1.7,0,0,0,.74-.69,4.06,4.06,0,0,0,.19-4.26,1.63,1.63,0,0,0-2.17-.77A1.65,1.65,0,0,0,286.2,123.76Z" transform="translate(0 0)" fill="#fff"/><path d="M278.26,139.18a34.61,34.61,0,0,0,16.86,0,.62.62,0,0,0-.32-1.19,33.22,33.22,0,0,1-16.22,0,.62.62,0,0,0-.32,1.19Z" transform="translate(0 0)" fill="#584d47"/><path d="M278.73,122.39a17,17,0,0,1,16.77,1.75c.64.47,1.26-.6.62-1.06a18.09,18.09,0,0,0-18-1.76c-.71.35-.09,1.41.62,1.07Z" transform="translate(0 0)" fill="#584d47"/><path d="M435.67,51.24l-29.43-33.3S397.56,3,390.32,15.53s-3.86,29.28,9.17,47.69,23.64,27.58,33.77,17.45c0,0-5.79,23.88,7.72,28.34s15.44,0,15.44,0l-1.93-26.17L465.1,101.9s3.06,5.09,10.78,4.12,16.24-2.68,9-12.33S459.8,73.37,459.8,73.37,479.58,76.71,483,75s8.21-4.54,8.21-8.88,1.93-18.33-22.68-59.83c0,0-7.72-15.92-15.44,4.83a251.9,251.9,0,0,0-11.1,41Z" transform="translate(0 0)" fill="#d2ce70"/><path d="M436.11,50.8,421.39,34.15C416.66,28.8,410.84,23,406.76,17.61c-2.11-2.77-4-5.82-7.41-7.18-5.5-2.19-9.15,3.37-11,7.74-6.74,15.65,2,33.15,11,45.86,7.07,10,21.11,29.87,34.38,17.07l-1-.6c-2.13,8.89-3.15,24,6.84,28.59,3.44,1.58,13.76,5,17,.78.52-.65.44-.9.43-1.73,0-2.56-.38-5.15-.57-7.7l-1.3-17.6-1.14.31,7.32,13.15c1.73,3.11,3.09,6.74,6.24,8.7s7,1.88,10.71,1.32c2.94-.45,6.89-1,8.93-3.48,4.64-5.6-5.64-14.09-9.29-17.24a128.75,128.75,0,0,0-17.76-12.76L459.66,74c4.46.75,8.95,1.37,13.45,1.8a38.42,38.42,0,0,0,8.37.27c2.58-.32,5.06-2,7-3.69,4.88-4.19,3.54-11.78,2.39-17.42-2.72-13.38-9.13-26.09-15.61-38-2.56-4.7-4.92-10.36-8.59-14.39-2.58-2.82-6-3.58-9-.79-3.43,3.24-5,8.4-6.47,12.7-2.12,6-4,12.19-5.59,18.39S442.43,45.59,441.35,52l.76-.43-6.28-1c-.77-.12-1.1,1.07-.32,1.19l6.27,1a.62.62,0,0,0,.76-.43,225.13,225.13,0,0,1,10.67-39.85c1.61-4.4,6-15.48,12-9.59,3.07,3,5.05,7.75,7.06,11.34C478.93,26,485.32,38.4,488.73,51.52A45.76,45.76,0,0,1,490.51,66c-.26,4-4.46,7.59-8.24,8.69-2.34.68-5.22.23-7.59,0-4.94-.4-9.87-1.09-14.75-1.91a.62.62,0,0,0-.76.44h0a.61.61,0,0,0,.28.69,135.91,135.91,0,0,1,11.76,8,89.86,89.86,0,0,1,9.42,8c2.45,2.45,7.55,7.23,6.18,11.12-1.11,3.17-6.13,3.74-8.94,4.17-3.94.61-8.11.62-11.18-2.29-2.17-2-3.37-5.36-4.79-7.91L455,82.53a.62.62,0,0,0-1.15.31l.88,11.86.64,8.76c.12,1.61.62,3.65.39,5.26-.08.58.24-.21,0,.13a3,3,0,0,1-1.24.91c-3,1.45-7.2.39-10.19-.38-3.94-1-7.25-2.44-9.31-6.11A21.52,21.52,0,0,1,432.73,94a45.48,45.48,0,0,1,1.14-13.21.62.62,0,0,0-.49-.73h0a.62.62,0,0,0-.51.13c-12.62,12.17-26.29-8-32.8-17.32-8.55-12.15-16.85-28.7-10.82-43.69,1.25-3.11,3.46-7.77,7.3-8.07,2.44-.2,4.63,1.56,6.22,3.2,1.35,1.4,2.31,3.06,3.54,4.54,4.62,5.61,9.65,10.92,14.46,16.36l14.52,16.42C435.73,52.26,436.63,51.39,436.11,50.8Z" transform="translate(0 0)" fill="#bcb668"/><path d="M433.73,81.12A36.36,36.36,0,0,0,443.61,71a28.57,28.57,0,0,0,3-5.91c.28-.74-.91-1.06-1.18-.33A31.43,31.43,0,0,1,437.92,76a31.56,31.56,0,0,1-4.79,4c-.65.44,0,1.51.63,1.07Z" transform="translate(0 0)" fill="#bcb668"/><path d="M449.79,68.34a6.12,6.12,0,0,0,1.31,1.47,17,17,0,0,0,4.9,2.85,29.06,29.06,0,0,0,5,1.5c.77.17,1.1-1,.32-1.18A25.4,25.4,0,0,1,454,70.37a10.61,10.61,0,0,1-2.91-2.29c-.07-.07-.17-.22-.08-.1a.71.71,0,0,1-.1-.14l-.08-.12a.62.62,0,0,0-1.07.62Z" transform="translate(0 0)" fill="#bcb668"/><path d="M437.87,55a101.28,101.28,0,0,0,12.71,25.17c4.68,6.34,6.56,5.34,4.22-2.23a101.65,101.65,0,0,0-12.72-25.17C437.4,46.41,435.52,47.4,437.87,55Z" transform="translate(0 0)" fill="#efe4c3"/><path d="M437.57,55a95.07,95.07,0,0,0,8.59,18.81,58.25,58.25,0,0,0,5.42,8.06c.64.76,2.59,3.39,3.94,2.56s.3-4,0-5.13a62.16,62.16,0,0,0-3.37-9.17,87.24,87.24,0,0,0-10.42-18.37c-.67-.86-3.06-4.37-4.62-3.41-.55.34-.59,1.14-.59,1.71a17.36,17.36,0,0,0,1,4.94c.11.38.71.22.59-.16-.21-.7-2-6-.4-6,.73,0,1.59,1.07,2,1.55A28,28,0,0,1,442.62,54a96.32,96.32,0,0,1,8.49,15.29,79.12,79.12,0,0,1,3.12,7.85,30.94,30.94,0,0,1,1,3.66c.12.58.61,2.41.08,3-1.57,1.7-8.31-9.66-9.06-11a93.6,93.6,0,0,1-8.11-17.93C438,54.51,437.45,54.67,437.57,55Z" transform="translate(0 0)" fill="#d6c8a5"/><path d="M435.35,43.87a18.93,18.93,0,0,1-4.15-5.1,28,28,0,0,1-3.64-15.86.62.62,0,0,0-.69-.54.64.64,0,0,0-.54.54,29.07,29.07,0,0,0,3.7,16.3,20,20,0,0,0,4.45,5.53C435.09,45.23,436,44.36,435.35,43.87Z" transform="translate(0 0)" fill="#efe4c3"/><path d="M435.57,43.65a22.29,22.29,0,0,1-6.65-10.94,28.29,28.29,0,0,1-1.05-6.33c-.06-1,0-2.05,0-3.08,0-.47,0-.9-.4-1.16-.91-.54-1.41.42-1.44,1.16a30.16,30.16,0,0,0,.28,5.85,28.23,28.23,0,0,0,4.25,11.48,23.73,23.73,0,0,0,1.85,2.5,6.74,6.74,0,0,0,2.15,2,.92.92,0,0,0,1-1.47c-.26-.3-.7.14-.44.44-.41.33-.74.31-1,0l-.54-.52a13.32,13.32,0,0,1-1-1.12,23.2,23.2,0,0,1-1.91-2.71,27,27,0,0,1-2.57-5.47,29.36,29.36,0,0,1-1.37-6.35c-.09-.89-.14-1.79-.15-2.69a5.67,5.67,0,0,1,0-1.54c-.09-.44.12-.7.64-.78v.77C427,31,429.34,39.3,435.13,44.1,435.43,44.34,435.87,43.9,435.57,43.65Z" transform="translate(0 0)" fill="#d6c8a5"/><path d="M436.14,44.65c0,.05-.08-.18-.14-.35-.16-.43-.3-.86-.42-1.3a23.53,23.53,0,0,1-.8-4.72,28,28,0,0,1,4-15.69.61.61,0,0,0-1.06-.62h0a29.18,29.18,0,0,0-4.08,16.31,20.35,20.35,0,0,0,1.52,7c.33.72,1.39.1,1.07-.62Z" transform="translate(0 0)" fill="#efe4c3"/><path d="M436.43,44.57a23.27,23.27,0,0,1-.84-13.14,28.1,28.1,0,0,1,2-6.12,27.73,27.73,0,0,0,1.34-2.6.9.9,0,0,0-.15-1c-.95-1-1.69.53-2,1.2a32.35,32.35,0,0,0-2.29,5.51,27.89,27.89,0,0,0-1,11.87,23.8,23.8,0,0,0,.61,3,5.47,5.47,0,0,0,1,2.38c.79.66,1.66-.27,1.44-1.11-.09-.38-.69-.22-.59.16-.44.6-.7.51-.77-.27q-.15-.37-.27-.75c-.14-.45-.26-.9-.37-1.35a26.69,26.69,0,0,1-.42-9,30.14,30.14,0,0,1,2.57-8.76c.23-.49.47-1,.72-1.45l.39-.72c.51.06.65.23.43.49a5,5,0,0,1-.67,1.28c-.24.5-.47,1-.68,1.5-.34.77-.64,1.56-.91,2.37a28.48,28.48,0,0,0-1.22,5.24,23.17,23.17,0,0,0,1.2,11.37C436,45.1,436.58,44.94,436.43,44.57Z" transform="translate(0 0)" fill="#d6c8a5"/><path d="M408.93,32.49l16.86,15.29s9.89,9.89,0,8.77-19.33-15.07-19.33-15.07S400.39,29.35,408.93,32.49Z" transform="translate(0 0)" fill="#efe4c3"/><path d="M450.36,44.62s2.47-8.67,3.82-10.91,4.72-4.28,7.87-3.38,3.82,5.85,2.47,9S460,48.09,456,50.79,448.4,50.91,450.36,44.62Z" transform="translate(0 0)" fill="#efe4c3"/><path d="M421.58,65.63s-1.57-4.95,6.52-4.5,2.37,7.2,2.37,7.2S421.36,73.27,421.58,65.63Z" transform="translate(0 0)" fill="#efe4c3"/><path d="M457.49,57s8.35-1,7.69,5.53-10.55,3-10.55,3S448,61.54,457.49,57Z" transform="translate(0 0)" fill="#efe4c3"/><path d="M434.91,44.3a3.14,3.14,0,0,0-.18,4.27,2.79,2.79,0,0,0,3.94.28h0l.13-.12a3.11,3.11,0,0,0,.19-4.26,2.8,2.8,0,0,0-3.95-.29h0Z" transform="translate(0 0)" fill="#efe4c3"/><path d="M434.73,44.09a3.47,3.47,0,0,0-.8,3.71,3.21,3.21,0,0,0,3.09,2A3.28,3.28,0,0,0,440,47.4a3.4,3.4,0,0,0-1.16-3.6,3.13,3.13,0,0,0-4.06.23c-.29.27.14.7.43.43a2.52,2.52,0,0,1,2.93-.41,2.74,2.74,0,0,1,1.34,2.79,2.71,2.71,0,0,1-2,2.27,2.52,2.52,0,0,1-2.7-1.25,2.85,2.85,0,0,1,.5-3.38C435.42,44.24,435,43.81,434.73,44.09Z" transform="translate(0 0)" fill="#d6c8a5"/><path d="M425.29,19.19a2.68,2.68,0,0,0-.17,3.65,2.41,2.41,0,0,0,3.39.24l.1-.1a2.66,2.66,0,0,0,.12-3.65,2.38,2.38,0,0,0-3.36-.25h0Z" transform="translate(0 0)" fill="#efe4c3"/><path d="M425.07,19a3,3,0,0,0-.69,3.22A2.78,2.78,0,0,0,427.06,24a2.89,2.89,0,0,0,2.55-2.09,3,3,0,0,0-1-3.12,2.72,2.72,0,0,0-3.53.21c-.29.27.14.71.43.44A2.11,2.11,0,0,1,428,19a2.34,2.34,0,0,1,1.14,2.34,2.27,2.27,0,0,1-1.74,1.91,2.11,2.11,0,0,1-2.27-1.07,2.38,2.38,0,0,1,.42-2.83.32.32,0,0,0-.41-.49A.27.27,0,0,0,425.07,19Z" transform="translate(0 0)" fill="#d6c8a5"/><path d="M436.94,18.44a2.65,2.65,0,0,0-.16,3.64,2.41,2.41,0,0,0,3.39.25l.1-.1a2.69,2.69,0,0,0,.16-3.65,2.39,2.39,0,0,0-3.37-.25Z" transform="translate(0 0)" fill="#efe4c3"/><path d="M436.73,18.22a3,3,0,0,0-.69,3.22,2.81,2.81,0,0,0,2.69,1.78,2.89,2.89,0,0,0,2.55-2.09,3,3,0,0,0-1-3.13,2.73,2.73,0,0,0-3.54.22c-.29.27.15.7.44.43a2.11,2.11,0,0,1,2.45-.34,2.3,2.3,0,0,1,1.1,2.34A2.27,2.27,0,0,1,439,22.56a2.14,2.14,0,0,1-2.25-1.07,2.4,2.4,0,0,1,.43-2.84C437.44,18.38,437,17.94,436.73,18.22Z" transform="translate(0 0)" fill="#d6c8a5"/><path d="M150.73,79.36s1.14,14-1.6,21.52L153,96.3l1.83,3.67,2.75-2.52s5,2.29,5,3.43,3.2-2.52,3.2-2.52l2.1-4.33v4.1l4.58-6.63v3l3.89-4.24,2.29,2.41s2.52-16.49,1.38-19.92l-3.67,8-1.63-5.26-2.75,6-2.75-4.58s0,5.27-1.6,6.18-2.9-6.41-2.9-6.41a59.76,59.76,0,0,1-3.24,5.73c-.92,1.14-1.83-3.9-1.83-3.9l-3,3.44-2.06-5.27-1.37,6Z" transform="translate(0 0)" fill="#3f3c4d"/><path d="M205.67,44.1s1.6,5.72,2.52,10.3S210.25,52,210.25,52l4.22,2.19V50l4.94,2,1.14-2,7.23,4.15V50s4.22.23,5.13,2,2.75-2,2.75-2l3,2,.87-3.08L246,52l1.14-3.31L250,50l.05-2.27L254.44,51V47.54L260,52l-1.77-6.29,4,4.33L261,43l4.35,3.89-.1-3.89,3.32,1.83V40l3.83,3-1-3a4.2,4.2,0,0,1,3,3.43c.62,3-2.35-8.47-8.08-12.36a1.9,1.9,0,0,1-.76,2.59h0a2.17,2.17,0,0,1-.35.15C263.14,34.48,261,31,261,31l-1,3.91-3.77-2.52-.69,2.29.23,3.44-3-2.75-1.35,3.89-5.29-3,.23,2.51-.91,2.07-3.3-2.52v3.43l-2.72-3.66L237,40.44l-.27,3.06s0-1.23-3.9-3.75V43.5c0,1.52-3-2.38-3-2.38l-1.28,2.38a32,32,0,0,0-2.82-2.38s-.46.41-.69,2.38-3.66-2.38-3.66-2.38v4.81L216,41.35l1,4.35-4-3.43,1.47,3.43-4.68-2.2.23,3.12Z" transform="translate(0 0)" fill="#3f3c4d"/></svg>