<svg id="f5739cce-08db-4a9f-b000-16c4b8104025" data-name="Layer 1" xmlns="http://www.w3.org/2000/svg" xmlns:xlink="http://www.w3.org/1999/xlink" viewBox="0 0 500 556.42"><defs><clipPath id="ebc408f0-6294-4d3a-94cd-447ec877fdce"><path d="M96.11,431.27s-186.46-89-18.6-357.93c0,0,57.6-91.23,240.48-70.19,0,0,46.93,4.86,92.25,30.75S462,80,462,80s4.85,26.69-24.28,25.07l-89-45.32s-66.35-25.89-92.25,95.49c0,0-25.11,102.75,37.23,110.64,0,0,34,9.12,27.51,26.92s-22.66,8.69-38.84,58.56S279.15,496.76,432.9,472.48c0,0,15.1,11.4-3.69,29.2s-29.66,17.79-29.66,17.79l-303-57.34Z" fill="none"/></clipPath><clipPath id="ff1b01e3-36e0-425c-b1b4-edd2613a972f"><ellipse cx="369.53" cy="235.34" rx="42.83" ry="33.44" transform="translate(79.71 563.89) rotate(-81.08)" fill="none"/></clipPath><clipPath id="bed5ea1e-5ab7-493b-9082-c4eb37717d68"><ellipse cx="457.68" cy="229.01" rx="37.93" ry="23.04" transform="translate(199.78 671.06) rotate(-86.32)" fill="none"/></clipPath></defs><polygon points="468.75 244.67 473.23 311.01 437.5 277.84 468.75 244.67" fill="#802d0e"/><path d="M437.75,105.11s31.3,39.55,31,89.72-13.38,71.76-13.38,71.76,30.92,43.26,31.7,71.51c.74,26.71-22.61,63.59-22.61,63.59s13.75,19-31.56,70.79S279.15,445,279.15,445s-53.41-63.12,22.66-158.6l-66.35-55S212.8,71.12,274.3,56.56,417.12,54.84,437.75,105.11Z" fill="#c3854d"/><path d="M96.11,431.27s-186.46-89-18.6-357.93c0,0,57.6-91.23,240.48-70.19,0,0,46.93,4.86,92.25,30.75S462,80,462,80s4.85,26.69-24.28,25.07l-89-45.32s-66.35-25.89-92.25,95.49c0,0-25.11,102.75,37.23,110.64,0,0,34,9.12,27.51,26.92s-22.66,8.69-38.84,58.56S279.15,496.76,432.9,472.48c0,0,15.1,11.4-3.69,29.2s-29.66,17.79-29.66,17.79l-303-57.34Z" fill="#802d0e"/><g clip-path="url(#ebc408f0-6294-4d3a-94cd-447ec877fdce)"><path d="M75.36,353.17S2.63,375,.37,288.69,48.25,180.51,48.25,180.51s62.66-5.11,62.41,22.33S75.36,353.17,75.36,353.17Z" fill="#9a3313"/></g><path d="M69.61,366.47S-3.55,383,.13,296.75,53,192.71,53,192.71s60-.16,57.89,27.17S69.61,366.47,69.61,366.47Z" fill="#802d0e"/><ellipse cx="459.03" cy="227.81" rx="42.81" ry="28.03" transform="translate(207.45 674.26) rotate(-86.99)" fill="#b47440"/><ellipse cx="369.75" cy="234.8" rx="49.69" ry="37.07" transform="translate(80.44 563.66) rotate(-81.08)" fill="#b47440"/><path d="M437.82,354s4.38-21.14,26.25-20.42S502,336.52,499.8,354s-6.36,24.79-30.89,26.25S435.64,373.71,437.82,354Z" fill="#261b10"/><ellipse cx="369.53" cy="235.34" rx="42.83" ry="33.44" transform="translate(79.71 563.89) rotate(-81.08)" fill="#fff"/><ellipse cx="457.97" cy="229.03" rx="37.93" ry="23.09" transform="translate(194.26 667.95) rotate(-85.57)" fill="#fff"/><g clip-path="url(#ff1b01e3-36e0-425c-b1b4-edd2613a972f)"><ellipse cx="347.48" cy="242.14" rx="14" ry="21.41" fill="#261b10"/></g><g clip-path="url(#bed5ea1e-5ab7-493b-9082-c4eb37717d68)"><ellipse cx="440.38" cy="233.53" rx="13.97" ry="21.41" transform="matrix(1, -0.09, 0.09, 1, -19.35, 40.86)" fill="#261b10"/></g><path d="M319,398.81s11.63-7.24,30.86-5.49,46,3.78,65.25,2.18S469,393,468.94,398.2s-4.48,3.49-4.48,3.49,12.45-7.59-48.72-2c0,0-29.53.62-69.39-2.26,0,0-23.88.3-25.63,4.53,0,0-2.33,1.31,0,6.55,0,0-2.15,3.74-5.29-5.68s3.14-32,8.59-31.62c0,0,3.35-1.26-1,6.7S316.32,393,319,398.81Z" fill="#6d230c"/><path d="M83.12,454.32S429,504.19,430.31,519.47c1.32,15.44,11.79,25.91-27.34,35.79S94.19,508.7,94.19,508.7,38.21,490,83.12,454.32Z" fill="#7a8"/><path d="M18.22,318.22S36.8,221.16,83.82,214l27.08,9.52L72.74,371.09s-20,4.76-41.21-8.18C13.66,352,11.15,345.26,18.22,318.22Z" fill="#6d230c"/><path d="M60.63,302.37s7.6-39.71,26.84-42.63l13.85.25L84.91,328s-7.45.81-16.13-4.49C61.47,319.08,57.74,313.44,60.63,302.37Z" fill="#ac662b"/></svg>