<svg id="fcd28a97-f7eb-4683-9c76-93163f7b87dc" data-name="fa398c5f-199b-4299-bb65-682fe335ee0e" xmlns="http://www.w3.org/2000/svg" viewBox="0 0 500 667.25"><path d="M98.53,632.29S247.6,676.06,322,649.78L311,462.44H143.3Z" transform="translate(0 0.02)" fill="#efefef"/><path d="M112.9,370.61c13.67,8.47,18.39,13.45,18.39,13.45s-7.95,8.43,3.88,15.87,16.6,10.5,16.6,10.5-.65,12.89,6.84,15.23V474l28.93,25.31,34.91-35.77,99.24,13L362.16,169l-82.33-43.94s-61.93-13.52-81.07,9.46-64.25,73-51.5,87.89l-11.28,69s-4.17,16.9,11.28,20.28c0,0-19.79,1.88-28.83,40,0,0-5.57,2.23-7.22,8S110.3,369,112.9,370.61Z" transform="translate(0 0.02)" fill="#ebc348"/><path d="M292.14,321.41l13.57-46,2-6.59h-2.38L316.43,306c.46,1.52,2.84.87,2.38-.65l-11.15-37.18a1.24,1.24,0,0,0-2.38,0l-13.57,46-1.94,6.6a1.23,1.23,0,1,0,2.37.66Z" transform="translate(0 0.02)" fill="#8e7949"/><path d="M221.22,477.8l4.44,42,.64,6a1.28,1.28,0,0,0,1.23,1.24l60.36,5,8.46.7c1.58.13,1.57-2.34,0-2.47l-60.36-5-8.46-.7,1.23,1.23-4.44-42-.63-6c-.17-1.56-2.64-1.58-2.47,0Z" transform="translate(0 0.02)" fill="#9b9b9b"/><path d="M265.5,598.35l-21.09,12.2c-22,0-20.82-9.33-18.19-18.83S259.4,574.8,259.4,574.8s-54.55,7.78-41.19-16.45,60.29-18.49,60.29-18.49c5.7-19.49,35.36-31.93,35.36-31.93s-10.21,12.06-18.54-2.46S312,480.14,312,480.14s-46.34,27.8-47.75,9.14,26.05-25.7,26.05-25.7-40.74-9.42-31.39-23.62,31.35-2.44,31.35-2.44-16.87-9.23-13.58-20.19,24.17-7.08,24.17-7.08-6.69,0-13.14-13.95,7.85-21.3,7.85-21.3c-3-24.24,22.11-29.38,22.11-29.38-33,12.48-28.06-4.41-28.06-4.41C312.08,308,332.23,314,332.23,314s-24.9,5.14-22.07-11.75S332.23,281,332.23,281s-14.62,5.14-13.66-8.93S344.05,248,344.05,248c-24.24,9.55-39.66,10.28-38.69-7.35S344.05,212,344.05,212s-27.17,10.28-27.53-5.88,27.53-24.24,27.53-24.24c-29.38,16.9-51.41,14-50.9,0s20.71-25,20.71-25-19.75,11-32.56,6.61,8.26-22,8.26-22-49.07,21.3-42.42,0l11.72-16.92c-34-7.29-40.65,8.66-40.65,8.66-2.35,15.1-30.67,21.35-30.67,21.35s11.67-5.73,14.89,7.3S178.89,179,178.89,179l3.54,5.2c.42,13-24.89,14.59-24.89,14.59-.52,5.73-10.28,11.46-10.28,11.46S141,270.91,136.71,286s9,24.65,9,24.65c-26.22,22.74-27.3,41.08-27.3,41.08s-11.84,1.71-11.24,10.85c1,14.65,22.12,21.52,22.12,21.52l-1.25,6c0,13.87,22.34,20,22.34,20,1.88,5.21,9.93,14,9.93,14s42-18,37.11,5.33S158.91,453,158.91,453s40.25-4.95,32.93,6.73-31.51,15.66-31.51,15.66,18.56-6.25,28,21.42-25.19,19.71-25.19,19.71C172,523.49,181,548,181,548c-3.93,12.22-17.59,2.34-17.59,2.34,5.06,12.47,4.54,22.09-1.16,31.28s-14.44,2.08-14.44,2.08,18,37.64-9.49,35.88l-24-4.69s-.49,31.46-25.15,26.57c0,0-8-.26-10.3-19.57,0,0-3.22,24-12.36,25.49s-11.59-24.72-11.59-24.72,10,28.86-12.45,25.45c0,0-11.69-3.41-9.25-20,0,0,3.41,18-13.16,16.57S0,620.06,0,620.06L1.3,83C19,61.74,44.4,82,44.4,82c15.44-14.69,35.08-7.35,35.08-7.35,7.2-14,21.08-2.2,21.08-2.2C111.2,59.89,121.44,68,121.44,68c-3.74-19.83,19.15-27.17,25.82-25s-4.58,14.69-4.58,14.69c8-6.61,15.93,2.94,15.93,2.94C178.09,50.35,182,62.1,182,62.1l10.78.73c21.36-9.55,33.41-1.47,33.41-1.47-10.59-5.14-4.83-12.48,0-22s23.52,11.75,23.52,11.75c4.45-32.58,20.13-31.58,25-30.11s-1.4,20.56-1.4,20.56c18.17-14.69,16.91.74,16.91.74,14.51-3.68,11.2,8.08,11.2,8.08,5.15-5.88,16.17.73,16.17.73,5.16-19.83,22-11.75,22-11.75,11.75-19.1,22.51-8.82,22.51-8.82-2.47-7.34,8.33-13.22,8.33-13.22,8.82-35.25,16.16,2.21,16.16,2.21,18.37-8.08,17.63,14.69,17.63,14.69,6.61-2.21,16.9,2.2,16.9,2.2C440.27,30.51,441.74,43,441.74,43l12.41-7.34s-15.35-11-6.53-19.1,20.56,9.55,20.56,9.55,18-39,22.43-21.7-4.7,18.76-4.7,18.76H500l-1.62,623.36s-23.87,21.16-41.67,20.7-21.15-16.6-21.15-16.6,2.61,14.1-14.45,16.43-19.75-18.83-19.75-18.83S407,665.47,387.56,667s-11.5-13.23-11.5-13.23-3.16,3.59-18.17,7.36-26.36-14.55-26.36-14.55,11,13-7.46,14.49-16.43-22.25-16.43-22.25-5.8,6.53-16.69,3.56S291,616,291,616l-21.56,17c-35.36,5.55-7.1-34.69-7.1-34.69" transform="translate(0 0.02)" fill="#508547"/><path d="M108.38,241a8.45,8.45,0,0,1-.21-1v-.88a14.06,14.06,0,0,1,0-1.59,16.07,16.07,0,0,1,2.78-8.28c2.81-4.21,7.29-7.06,11.83-9.09l1.07-.46c.13,0,1.05-.42.37-.4h.14a1.27,1.27,0,0,1,.32.13l.38.17a13.16,13.16,0,0,1,2.92,1.92c3.8,3.39,4.45,8.41,3.46,13.21-.33,1.55,2,2.21,2.37.65,1.06-5.06.58-10.37-2.91-14.41-1.43-1.66-3.77-3.61-6-4.09-1.11-.24-2.73.82-3.74,1.28a38.17,38.17,0,0,0-4.5,2.42,27.44,27.44,0,0,0-6.22,5.25A19.41,19.41,0,0,0,105.72,236a14.29,14.29,0,0,0,.28,5.64,1.23,1.23,0,1,0,2.38-.65h0Z" transform="translate(0 0.02)" fill="#466d3c"/><ellipse cx="168.51" cy="257.19" rx="41.35" ry="45.05" transform="translate(-102.79 401.91) rotate(-84.84)" fill="#efefef"/><path d="M195.74,289a47.22,47.22,0,0,1-48.8,2.81c-15.38-8.22-25.18-25.51-21.4-43s19.55-29.59,36.87-31.52,35.2,5.78,44.31,20.8c10.5,17.32,5.22,39.19-11,50.89-1.27.92,0,3.06,1.25,2.13,14.94-10.79,21.91-30,15.12-47.6-6.73-17.4-24.32-28.32-42.65-29-18.53-.65-37.17,9.59-44.3,27.13-7,17.31-.49,36.83,14,48C155.76,302.4,179.83,303,197,291,198.28,290.25,197.05,288.11,195.74,289Z" transform="translate(0 0.02)" fill="#9b9b9b"/><ellipse cx="244.43" cy="275.3" rx="45.51" ry="45.02" transform="translate(-51.74 493.99) rotate(-84.84)" fill="#efefef"/><path d="M271.36,310.13a44,44,0,0,1-50.11,2.77,44.76,44.76,0,0,1-19.51-47.5c4.12-18,19.47-32.12,37.92-34.14a44.05,44.05,0,0,1,44,24.36c9.22,18.78,3.65,41.75-12.59,54.7-1.24,1,.51,2.73,1.74,1.75a47.52,47.52,0,0,0,15.53-51.45,46.67,46.67,0,0,0-42.84-32.08c-19.41-.46-37.3,11.85-44.25,29.89a47.43,47.43,0,0,0,12.8,52.21,46.38,46.38,0,0,0,58.51,1.62C273.84,311.3,272.62,309.16,271.36,310.13Z" transform="translate(0 0.02)" fill="#9b9b9b"/><path d="M198.14,278.63s-34.55-10.46-48.72-5-24,28.7,0,38.88,59.69,12,59.69,12Z" transform="translate(0 0.02)" fill="#eac24a"/><path d="M154.48,310.76s-29.46-4-36.16,41c0,0-8.57,1.34-10.69,7.67s3.31,19,21.68,24.68c0,0-6.45,12.45,5.35,18.9s15.65,8,15.65,8-4.68,25.83,46,36.48S266,414.77,266,414.77s23-63.33-50.22-86.67C215.78,328.1,196.31,317.1,154.48,310.76Z" transform="translate(0 0.02)" fill="#b09758"/><path d="M129.38,386.5l54.85,14.55,7.92,2.11c3.07.81,4.39-4,1.31-4.76l-54.85-14.56-7.92-2.1c-3.07-.81-4.38,3.95-1.31,4.76Z" transform="translate(0 0.02)" fill="#8e7949"/><path d="M334.3,393l-.25-.32s-.2-.25-.05-.06l-.08-.1-.39-.53a29.09,29.09,0,0,1-1.89-3,13,13,0,0,1-1.45-3.7c-.05-.23-.09-.46-.12-.7a8.34,8.34,0,0,1,0-1,4.77,4.77,0,0,1,.32-1.44,5,5,0,0,1,3.19-2.38,19.55,19.55,0,0,1,7.18-.64,11,11,0,0,1,4.92,1.47,6.42,6.42,0,0,1,2.31,2.46c.07.13.14.26.2.4a.89.89,0,0,1,.08.17c.07.15-.08-.21,0,0s.18.51.25.77a5.11,5.11,0,0,1,.18.75.66.66,0,0,0,.06.34c.07.34,0-.25,0,.08a7.39,7.39,0,0,1,0,1.33c-.15,1.58,2.31,1.56,2.46,0a9.34,9.34,0,0,0-.9-4.57,10.09,10.09,0,0,0-7.73-5.43,22.93,22.93,0,0,0-8.3.13,9.08,9.08,0,0,0-5.28,2.68c-2.26,2.64-1.5,6.21-.22,9.11a25.29,25.29,0,0,0,3.75,5.93c1,1.22,2.76-.54,1.74-1.74Z" transform="translate(0 0.02)" fill="#466d3c"/><path d="M344,377.84a69,69,0,0,1-.08-9.43c.25-4.55.68-10.44,3.79-14.06,1-1.18,2.72-2.27,4.19-1.69s2.23,2.16,2.83,3.46c2,4.28,2.62,9.31,3.11,13.95.34,3.27.58,6.57.62,9.85a1.24,1.24,0,0,0,2.47,0,91.61,91.61,0,0,0-.56-9.22c-.52-5.19-1.21-10.63-3.33-15.44-1.66-3.75-5-6.74-9.15-4.28-4.55,2.71-5.6,9.21-6.15,14a65.89,65.89,0,0,0-.21,12.87c.14,1.57,2.6,1.58,2.47,0Z" transform="translate(0 0.02)" fill="#466d3c"/><path d="M360.57,376.18a3.53,3.53,0,0,1,.28-.5c.11-.18.23-.35.35-.53s.06-.08.07-.09.19-.24.3-.36a4.86,4.86,0,0,1,3-1.79c2.14-.28,4.14,1.14,5.67,2.46a9.22,9.22,0,0,1,3.06,4.36,2.33,2.33,0,0,0,.1.44h0v1.15a.84.84,0,0,1,0,.17c-.49,1.52,1.89,2.16,2.38.66a5.74,5.74,0,0,0,0-2.67,10.37,10.37,0,0,0-3.16-5.26c-1.95-1.88-4.47-3.67-7.27-3.79a7,7,0,0,0-4.94,2,8.8,8.8,0,0,0-1.94,2.55c-.68,1.42,1.44,2.68,2.13,1.25Z" transform="translate(0 0.02)" fill="#466d3c"/><path d="M375.28,377.78c5.08-3.42,13-2,17.15,2.2a9.88,9.88,0,0,1,2,3.06,14.67,14.67,0,0,0,1,2.55c1.38,2,3.71-.06,4.8-1.24a38.2,38.2,0,0,0,3.76-4.93c.88-1.33-1.26-2.57-2.13-1.25a36.59,36.59,0,0,1-3,4c-.35.4-.71.79-1.09,1.15-.06.06-1,.73-1,.72a3.84,3.84,0,0,1,.44.06c.28,0,.17.36.09-.09a6.58,6.58,0,0,0-.52-1.36c-2.5-6.22-9.57-9.76-16.14-9.13a14.81,14.81,0,0,0-6.74,2.17c-1.31.88-.07,3,1.25,2.13Z" transform="translate(0 0.02)" fill="#466d3c"/><path d="M61,249.28c2-4.39,5.15-9.08,9.35-11.59,2.74-1.64,6.08-2,8.76,0,2.36,1.74,3.79,4.6,4.75,7.3a28.83,28.83,0,0,1,1.41,5.48c.22,1.56,2.6.9,2.38-.66C87,245,85,239.32,81.1,236.13a9.85,9.85,0,0,0-9.94-1.56c-3.54,1.39-6.28,4.21-8.51,7.2A34.88,34.88,0,0,0,58.84,248c-.65,1.43,1.48,2.69,2.13,1.24Z" transform="translate(0 0.02)" fill="#466d3c"/><path d="M103.83,242a13,13,0,0,0-3.65-4,7.4,7.4,0,0,0-3.94-1.42,7.17,7.17,0,0,0-4.82,1.87c-2.51,2.08-4.11,5.22-5.39,8.15a1.28,1.28,0,0,0,.44,1.69,1.26,1.26,0,0,0,1.69-.45,22.43,22.43,0,0,1,4.29-7,7,7,0,0,1,1.91-1.42,3.52,3.52,0,0,1,.77-.27,3.88,3.88,0,0,1,.49-.11h.93a6.52,6.52,0,0,1,.87.22l.21.08.4.19A7.27,7.27,0,0,1,99.87,241a11.43,11.43,0,0,1,1,1.09l.23.28c-.25-.31,0,0,0,.07l.31.43c.09.13.17.27.25.4a1.23,1.23,0,0,0,2.13-1.24Z" transform="translate(0 0.02)" fill="#466d3c"/><path d="M56.38,162.39a17.06,17.06,0,0,1-5-3.45c-3.7-3.84-.31-7.1,3.52-9.14,3.43-1.83,8-3.1,11.21-.27a8.18,8.18,0,0,1,2.4,3.61,1.24,1.24,0,0,0,2.43-.33c0-4.37.5-9.63,2.86-13.4a7.75,7.75,0,0,1,7.2-3.26c3.25.5,3.76,5.66,4.21,8.17a1.24,1.24,0,0,0,1.54.85,1.3,1.3,0,0,0,.71-.55c3.42-7,7.64-14.32,13.24-19.83,1.77-1.74,6.88-6.18,8.74-2.32,1.65,3.43.6,8.5,0,12.06a83.3,83.3,0,0,1-2,8.82,1.25,1.25,0,0,0,.91,1.52,1.22,1.22,0,0,0,.6,0,9.84,9.84,0,0,1,4,.32c3.64,1.38,2.76,5.82,1.9,8.76a1.24,1.24,0,0,0,.87,1.52,1.2,1.2,0,0,0,.65,0,14.93,14.93,0,0,1,4.13-.83c3.21-.14,3.77,1.54,2.8,4.45-.51,1.51,1.87,2.16,2.37.66,1.1-3.27.7-6.77-3.19-7.47a14.08,14.08,0,0,0-6.77.81l1.52,1.52c1.14-3.9,1.68-9.06-2.52-11.32a10,10,0,0,0-6.37-.8L109.8,144a81.46,81.46,0,0,0,2.07-9c.7-4.14,1.62-9.28-.08-13.3s-5.78-3.62-9-1.69c-4.72,2.85-8.18,7.85-11.14,12.37a99.08,99.08,0,0,0-6.32,11l2.26.3c-.6-3.32-1.4-8.37-5.11-9.7-2.71-1-6.86.18-9,2-4.38,3.71-5,11.49-5,16.86l2.42-.33A10.63,10.63,0,0,0,66.79,147c-4.29-2.9-9.73-1.26-13.86,1.12-3.92,2.26-7.57,6.23-4.74,10.8a16.32,16.32,0,0,0,7,5.65c1.43.68,2.68-1.45,1.24-2.13Z" transform="translate(0 0.02)" fill="#466d3c"/><path d="M386,141.92a8.68,8.68,0,0,0-1-6.6c-3.24-5-10.69-3.85-15.55-2.8l1.4,1.81c3.06-6.88,5.54-16.83,1.35-23.71-3-4.87-9.24-7-14.68-5.72-6.55,1.51-11.51,7.18-14.36,13a39.2,39.2,0,0,0-1.76,29c.47,1.51,2.86.87,2.38-.65a37.46,37.46,0,0,1,.15-23.88c2.1-5.88,6.16-12,12.14-14.41,4.77-2,11-.78,13.9,3.76,2.4,3.79,2.11,8.78,1.28,13a44.41,44.41,0,0,1-2.54,8.37,1.25,1.25,0,0,0,.5,1.7,1.28,1.28,0,0,0,.9.11c3.7-.8,10.64-2.17,13,2a6.75,6.75,0,0,1,.55,4.31c-.37,1.55,2,2.2,2.38.66Z" transform="translate(0 0.02)" fill="#466d3c"/><path d="M341,141.33a14.82,14.82,0,0,0-5.55-1,10,10,0,0,0-8.93,5.13,20.28,20.28,0,0,0-2,9.72,1.23,1.23,0,1,0,2.46,0,19.11,19.11,0,0,1,1.38-7.87,9.65,9.65,0,0,1,.7-1.26,6.13,6.13,0,0,1,.76-1,9.82,9.82,0,0,1,.89-.82c-.2.16.21-.13.27-.17a4.15,4.15,0,0,1,.57-.35l.49-.25s.35-.15.07,0l.18-.07a10.19,10.19,0,0,1,1.11-.34l.56-.11c.09,0,.58-.08.23,0,.36,0,.72-.07,1.09-.08a14.81,14.81,0,0,1,2,.1h.14l.44.07.78.16a11.77,11.77,0,0,1,1.75.53,1.23,1.23,0,0,0,1.52-.86,1.28,1.28,0,0,0-.86-1.52Z" transform="translate(0 0.02)" fill="#466d3c"/><path d="M389.61,525.89a12.67,12.67,0,0,1-6.34-6.38,8.51,8.51,0,0,1,1.13-7.65c.5-.8,1.12-1.48,1.68-2.24-.08.1.38-.54.09-.24-.13.14-.05,0,.11,0a5.41,5.41,0,0,1,.79-.21,3.38,3.38,0,0,1,1-.12c3.5-.11,6,2.64,7.65,5.55.77,1.39,2.9.14,2.13-1.25-1.85-3.33-4.7-6.29-8.66-6.72a8.65,8.65,0,0,0-3.08.22,3.79,3.79,0,0,0-2.2,1.53c-2.35,2.82-4.09,6.29-3.51,10a12,12,0,0,0,4,6.81,16.92,16.92,0,0,0,4,2.82c1.42.7,2.67-1.43,1.25-2.13Z" transform="translate(0 0.02)" fill="#466d3c"/><path d="M395.88,511.21a5.33,5.33,0,0,1,6.09-4.16,1.25,1.25,0,0,0,1.52-.91,1.22,1.22,0,0,0,0-.6,39.1,39.1,0,0,1,0-19.75,23,23,0,0,1,8.17-12.16c.52-.41,1.11-.85,1.75-.55,1.29.59,2,2.25,2.47,3.47a44.42,44.42,0,0,1,2.37,10.55c.21,1.55,2.68,1.57,2.47,0-.44-3.27-2.68-20.93-10.12-15.78-8.23,5.7-11.05,15.77-10.74,25.34a43.16,43.16,0,0,0,1.25,9.53l1.52-1.52c-4.21-.58-8.11,1.6-9.13,5.88C393.14,512.1,395.5,512.76,395.88,511.21Z" transform="translate(0 0.02)" fill="#466d3c"/><path d="M431.14,477.35c-.09.23-.14.29,0,0s.22-.43.34-.64a8.25,8.25,0,0,1,.57-.88l.11-.15.13-.16.44-.51a6.12,6.12,0,0,1,5.39-2,13,13,0,0,1,5.66,2.56,1.24,1.24,0,0,0,1.69-.44,1.27,1.27,0,0,0-.44-1.69c-2.93-2.07-6.73-3.75-10.34-2.55a9.86,9.86,0,0,0-5.17,4.28,10.55,10.55,0,0,0-.76,1.5,1.24,1.24,0,0,0,.87,1.52,1.26,1.26,0,0,0,1.51-.86Z" transform="translate(0 0.02)" fill="#466d3c"/><path d="M84.61,474.69a74.46,74.46,0,0,1,3-12.68,27.12,27.12,0,0,1,3.78-7.92A6.23,6.23,0,0,1,93.85,452c-.24.1.15-.05.2-.07l.36-.1a1.11,1.11,0,0,1,.57-.06,3.28,3.28,0,0,1,1.48.31,11.53,11.53,0,0,1,3.91,3.37,44.45,44.45,0,0,1,5,8.29c.7,1.43,2.83.18,2.13-1.24-2.57-5.19-9.29-17.84-16.65-11.45-2.36,2-3.74,5.17-4.84,8a65.59,65.59,0,0,0-2.76,9.52c-.39,1.82-.76,3.65-1,5.49-.22,1.55,2.16,2.22,2.38.65Z" transform="translate(0 0.02)" fill="#466d3c"/><path d="M106.88,478.18a31,31,0,0,1,.22-5.7c.36-2.92,1.16-6.44,3.45-8.56,2.51-2.33,7.2-1.74,9.55.61,2.53,2.53,1.73,6.76.81,9.82a32.38,32.38,0,0,1-3.22,7.3,1.23,1.23,0,0,0,2.13,1.24h0a34.87,34.87,0,0,0,3.24-7.18c1.24-3.73,2.08-8.52-.4-11.95a10.15,10.15,0,0,0-12.1-2.85c-3.36,1.73-4.87,5.69-5.56,9.18a32.29,32.29,0,0,0-.59,8.09c.1,1.57,2.57,1.59,2.47,0Z" transform="translate(0 0.02)" fill="#466d3c"/><path d="M74.06,482.07l-.42-.16-.22-.09-.67-.31a26.1,26.1,0,0,1-3.42-1.93c-2.49-1.68-5-4.15-5.37-7.3a9.24,9.24,0,0,1,1.37-5.68,10.78,10.78,0,0,1,4.55-4.73c3.09-1.35,6.2,1,8.31,3.19a27.47,27.47,0,0,1,4.4,6.09c.75,1.4,2.88.16,2.13-1.25a30.68,30.68,0,0,0-4.33-6.1c-2.55-2.81-6.15-5.48-10.15-4.62a10.17,10.17,0,0,0-5.69,4.14,14.19,14.19,0,0,0-3.07,7.23c-.36,4,2,7.53,5,9.95a24.58,24.58,0,0,0,7,3.95c1.5.53,2.14-1.85.66-2.38Z" transform="translate(0 0.02)" fill="#466d3c"/><ellipse cx="237.67" cy="275.63" rx="6.11" ry="6.04" transform="translate(-58.22 487.56) rotate(-84.84)" fill="#261b10"/><ellipse cx="143.31" cy="256.82" rx="6.11" ry="6.04" transform="translate(-125.36 376.46) rotate(-84.84)" fill="#261b10"/><path d="M266.35,88.62a68,68,0,0,0-22-5.4c-4.93-.3-10.36.16-14.59,3-2.74,1.81-5.72,5-5.42,8.58.54,6.36,9.69,9.57,14.62,11.39,9,3.32,18.41,5.34,27.78,7.08,5.93,1.1,11.9,2.08,17.89,2.81l-.33-2.42a123.47,123.47,0,0,0-12.61,4.88c-7.08,3.14-14.34,6.85-20,12.26-4.28,4.11-7.53,10.14-5.16,16.13,2.24,5.62,9,5.38,14,4.47,12.53-2.29,24.59-8.65,35.89-14.24,1.42-.7.17-2.83-1.25-2.13-10,4.93-20.18,10-30.95,13-4,1.12-12.29,3.51-15.05-1.25-3-5.14.91-11.08,4.6-14.52C259,127.4,265.58,124,272,121.09a117.35,117.35,0,0,1,12.9-5,1.24,1.24,0,0,0-.33-2.43,239.6,239.6,0,0,1-38-7.5A80,80,0,0,1,235.15,102c-2.6-1.22-5.55-2.69-7.35-5s-1-4.36.69-6.4c3.09-3.73,8.13-4.82,12.76-4.9a55,55,0,0,1,16.17,2.52q2.76.81,5.46,1.78c.58.21,1.15.44,1.73.66.16.06,1,.43.43.17,1.44.61,2.7-1.51,1.24-2.13Z" transform="translate(0 0.02)" fill="#466d3c"/><path d="M189.19,130.09a47.52,47.52,0,0,1,10.25-7.57c4.47-2.45,10.79-4.62,15-.55,6.27,6.05,1.59,15.62-3.68,20.47-6.44,5.93-15.17,8.95-23.55,10.88-1.54.36-.89,2.74.66,2.38,8.29-1.91,16.65-4.9,23.3-10.36,4.08-3.35,7.57-7.93,8.46-13.25A13.59,13.59,0,0,0,216.89,121c-3.82-4.51-9.94-4.36-15-2.31a45.16,45.16,0,0,0-14.39,9.68c-1.14,1.11.6,2.85,1.74,1.74Z" transform="translate(0 0.02)" fill="#466d3c"/></svg>