<svg id="f7098afd-ff2b-44c8-a11d-01ff7d75dec9" data-name="bac4a1e4-b2bc-4a78-8c62-6687514aa46e" xmlns="http://www.w3.org/2000/svg" xmlns:xlink="http://www.w3.org/1999/xlink" viewBox="0 0 502.49 450.73"><defs><clipPath id="e8b3cc05-e859-4883-9308-08e9e29d9afd" transform="translate(0 0)"><ellipse cx="350.68" cy="40.71" rx="30.78" ry="37.04" transform="translate(278.59 386.31) rotate(-84.84)" fill="none"/></clipPath><clipPath id="b12eadbf-a9cc-4895-a33b-8f5283f8a088" transform="translate(0 0)"><path d="M74.49,1.47S158.64,29.69,194.63,83c0,0,5.48,1.55-2.62,13.46s-49.68,81-49.68,81-18.61,14.82-35.63,18.67-30.49,1.72-40.92-4.87-55.55-45.49-55.55-45.49S-4,118.66,6.23,94.28,15.49,63.39,74.49,1.47Z" fill="none"/></clipPath><clipPath id="ecf1f0de-bbf4-411c-bb0e-aa5fab5511d2" transform="translate(0 0)"><polygon points="100.84 47.92 88.51 55.19 85.13 94.68 91.07 104.23 131.84 107.91 136.94 104.23 141.19 63.68 129.72 50.51 100.84 47.92" fill="none"/></clipPath></defs><path d="M259.67,309.62s-24.58,0-63.23,4-81.48-7.22-97-27.27l11-95.49-43-9.24s-18.89,67.8-16.84,89.07,3.64,56.94,43,74.4S176.32,374.48,220,371.63Z" transform="translate(0 0)" fill="#547c39"/><path d="M386.14,39.38S353.94,6.33,302.25,14.8,238.7,55.48,214.13,57.17s-26.27,7.63-26.27,12.71,26.27,22.88,29.63,22.88-28-6.78-29.66,0-11.86,14.4,12.71,22c0,0,17,20.17,29.66,42.29s42.37,46.68,42.37,46.68S297.14,241,298,252.88s-.85,17.79-.85,17.79S276,282.54,255.62,312.19,195.9,450.73,195.9,450.73H502.49s-28.24-127.49-66.38-166.47c0,0,15.26-82.19-.84-172C435.29,112.25,427.66,80.9,386.14,39.38Z" transform="translate(0 0)" fill="#5a8d3e"/><path d="M297.17,270.7s12.54,18.92,67.07,22.51c37.91,2.5,77.69,6.19,82.49,1.85,0,0,45.88,28.68,47.48,110.73,0,0-20.22-44.37-26.58-64.55,0,0,7.89,65.22-1.71,78.26l-44.79-95.64s-24.52,59.23-26.92,87.49L367.29,319S322,391.27,312.9,414.09s-3.73-97.81-3.73-97.81S264.92,359.72,247.86,394c0,0,1.07-42.39,27.72-86.95,0,0-42.85,57.66-58.64,76.62C203.43,399.84,261.73,280.33,297.17,270.7Z" transform="translate(0 0)" fill="#909e4d"/><ellipse cx="350.67" cy="40.71" rx="30.78" ry="37.04" transform="translate(278.59 386.3) rotate(-84.84)" fill="#efefef"/><g clip-path="url(#e8b3cc05-e859-4883-9308-08e9e29d9afd)"><ellipse cx="324.78" cy="26.78" rx="9.75" ry="7.17" transform="translate(41.33 187.58) rotate(-34.28)" fill="#261b10"/><path d="M320.18,34.6s-.41,12.52,4.61,12.25c0,0,4.81-1.16,3.85-14s.13-1.42.13-1.42Z" transform="translate(0 0)" fill="#261b10"/></g><path d="M219.07,95.81c19.27,8.11,34.57,12.84,54.66,18.6,32.22,9.23,61.44,17.57,95.09,12.44,2.69-.41,1.55-4.51-1.13-4.1-34,5.17-63.78-3.9-96.2-13.42-18.93-5.56-38.43-10.39-56.62-18.06-2.52-1.06-3,1.55-.49,2.6Z" transform="translate(0 0)" fill="#4d7235"/><path d="M74.49,1.47S158.64,29.69,194.63,83c0,0,5.48,1.55-2.62,13.46s-49.68,81-49.68,81-18.61,14.82-35.63,18.67-30.49,1.72-40.92-4.87-55.55-45.49-55.55-45.49S-4,118.66,6.23,94.28,15.49,63.39,74.49,1.47Z" transform="translate(0 0)" fill="#cbc0ac"/><g clip-path="url(#b12eadbf-a9cc-4895-a33b-8f5283f8a088)"><path d="M18.49,61.55s106.43-2.48,180.12,25.09c0,0-42.11,93.73-77,108.67C64.91,219.59,8.31,145.84,8.31,145.84L0,107.91Z" transform="translate(0 0)" fill="#9a321f"/></g><path d="M19.19,145.16s63.13,50.34,65.17,45.37-60.11-52-60.11-52S12,136.53,19.19,145.16Z" transform="translate(0 0)" fill="#efe4d3"/><path d="M74.3,18.55,33.93,68.83,28.21,76c-2.82,3.52,2.16,8.57,5,5L73.59,30.68l5.72-7.13c2.83-3.52-2.16-8.56-5-5Z" transform="translate(0 0)" fill="#f7ecdf"/><path d="M74.09,2.83a375.59,375.59,0,0,1,48.54,23.3c26.76,15,55.19,33.65,71.28,60.55a1.41,1.41,0,0,0,2.44-1.43c-12.55-21-32.71-36.76-53-49.91A397.25,397.25,0,0,0,86.78,5.1c-3.94-1.73-7.91-3.45-11.94-5C73.14-.56,72.4,2.18,74.09,2.83Z" transform="translate(0 0)" fill="#efe4d3"/><circle cx="47.67" cy="104.23" r="10.49" fill="#fbfb81"/><rect x="117.12" y="22.91" width="0.56" height="27.6" fill="#efe4d3"/><polygon points="100.84 47.92 88.51 55.19 85.13 94.68 91.07 104.23 131.84 107.91 136.94 104.23 141.18 63.68 129.72 50.51 100.84 47.92" fill="#ebc348"/><g clip-path="url(#ecf1f0de-bbf4-411c-bb0e-aa5fab5511d2)"><polygon points="128.14 47.92 121.52 113.31 137.56 107.91 143.17 95.47 142.17 56.37 128.14 47.92" fill="#efe4d3"/></g><path d="M99.27,65.75l8.22-1.2,17.44,3,4.41,2.61-1.2,9h-6.65a17.66,17.66,0,0,1-15-2.16l-8.62-.8Z" transform="translate(0 0)" fill="#bd562c"/><path d="M13.24,140.43" transform="translate(0 0)" fill="#ddd2c0"/><path d="M405,135.86a45.32,45.32,0,0,1-5.27,9.48A40.2,40.2,0,0,1,363,163.19c-1.82-.1-1.82,2.73,0,2.83a43.44,43.44,0,0,0,29.36-8.88,50.17,50.17,0,0,0,13.47-16.43,36.74,36.74,0,0,0,1.85-4.1c.63-1.71-2.11-2.45-2.73-.75Z" transform="translate(0 0)" fill="#4d7235"/><path d="M408.74,241.87l22.89,37.69,3.28,5.44a1.42,1.42,0,0,0,2.45-1.43l-22.87-37.72-3.28-5.41a1.42,1.42,0,0,0-2.45,1.43Z" transform="translate(0 0)" fill="#4d7235"/><path d="M331,14c9.45-5.37,22-4.66,31.76-1,12.28,4.6,24.73,14.35,24.84,28.44,0,.91.72,1,.71.1-.11-14.06-11.25-24.21-23.46-29.24-10.61-4.3-25-4.52-35.4,1.37-.8.45.71.78,1.5.33Z" transform="translate(0 0)" fill="#cbcbcb"/></svg>